<mxfile host="Electron" modified="2024-01-17T08:36:33.395Z" agent="Mozilla/5.0 (Windows NT 10.0; Win64; x64) AppleWebKit/537.36 (KHTML, like Gecko) draw.io/21.2.8 Chrome/112.0.5615.165 Electron/24.2.0 Safari/537.36" etag="W0LuNA1dk91d4BOt4h1x" version="21.2.8" type="device">
  <diagram name="Page-1" id="xo9XPngVDUjJ1g-XvPux">
    <mxGraphModel dx="1646" dy="918" grid="1" gridSize="10" guides="1" tooltips="1" connect="1" arrows="1" fold="1" page="1" pageScale="1" pageWidth="3300" pageHeight="4681" background="#999999" math="0" shadow="0">
      <root>
        <mxCell id="0" />
        <mxCell id="1" parent="0" />
        <mxCell id="254EzCvTZ2WfJFfDZF1n-1" value="" style="rounded=0;whiteSpace=wrap;html=1;fillColor=#1e1e1e;" parent="1" vertex="1">
          <mxGeometry x="1650" y="190" width="790" height="690" as="geometry" />
        </mxCell>
        <mxCell id="254EzCvTZ2WfJFfDZF1n-2" value="CMake" style="rounded=0;whiteSpace=wrap;html=1;fillColor=#ffe6cc;strokeColor=#d79b00;" parent="1" vertex="1">
          <mxGeometry x="770" y="340" width="240" height="60" as="geometry" />
        </mxCell>
        <mxCell id="254EzCvTZ2WfJFfDZF1n-4" value="MSVC" style="rounded=0;whiteSpace=wrap;html=1;fillColor=#dae8fc;strokeColor=#6c8ebf;" parent="1" vertex="1">
          <mxGeometry x="390" y="300" width="170" height="60" as="geometry" />
        </mxCell>
        <mxCell id="254EzCvTZ2WfJFfDZF1n-5" value="GCC" style="rounded=0;whiteSpace=wrap;html=1;fillColor=#f5f5f5;fontColor=#333333;strokeColor=#666666;" parent="1" vertex="1">
          <mxGeometry x="390" y="380" width="170" height="60" as="geometry" />
        </mxCell>
        <mxCell id="254EzCvTZ2WfJFfDZF1n-6" value="CLANG" style="rounded=0;whiteSpace=wrap;html=1;fillColor=#d5e8d4;strokeColor=#82b366;" parent="1" vertex="1">
          <mxGeometry x="390" y="460" width="170" height="60" as="geometry" />
        </mxCell>
        <mxCell id="254EzCvTZ2WfJFfDZF1n-7" value="VS Code" style="rounded=0;whiteSpace=wrap;html=1;fillColor=#fff2cc;strokeColor=#d6b656;" parent="1" vertex="1">
          <mxGeometry x="1220" y="340" width="180" height="60" as="geometry" />
        </mxCell>
        <mxCell id="254EzCvTZ2WfJFfDZF1n-8" value="C++ Extension" style="rounded=0;whiteSpace=wrap;html=1;fillColor=#f8cecc;strokeColor=#b85450;" parent="1" vertex="1">
          <mxGeometry x="1220" y="420" width="180" height="60" as="geometry" />
        </mxCell>
        <mxCell id="254EzCvTZ2WfJFfDZF1n-9" value="CMake Extensions" style="rounded=0;whiteSpace=wrap;html=1;fillColor=#e1d5e7;strokeColor=#9673a6;" parent="1" vertex="1">
          <mxGeometry x="1220" y="510" width="180" height="60" as="geometry" />
        </mxCell>
        <mxCell id="254EzCvTZ2WfJFfDZF1n-10" value="&lt;div style=&quot;color: rgb(212, 212, 212); background-color: rgb(30, 30, 30); font-family: Consolas, &amp;quot;Courier New&amp;quot;, monospace; font-weight: normal; font-size: 24px; line-height: 32px;&quot;&gt;&lt;div&gt;&lt;span style=&quot;color: #569cd6;&quot;&gt;cmake_minimum_required&lt;/span&gt;&lt;span style=&quot;color: #d4d4d4;&quot;&gt;(VERSION 3.25.0)&lt;/span&gt;&lt;/div&gt;&lt;div&gt;&lt;span style=&quot;color: #569cd6;&quot;&gt;project&lt;/span&gt;&lt;span style=&quot;color: #d4d4d4;&quot;&gt;(Rooster VERSION 0.1.0 LANGUAGES C CXX)&lt;/span&gt;&lt;/div&gt;&lt;br&gt;&lt;div&gt;&lt;span style=&quot;color: #569cd6;&quot;&gt;set&lt;/span&gt;&lt;span style=&quot;color: #d4d4d4;&quot;&gt;(CMAKE_CXX_STANDARD 23)&lt;/span&gt;&lt;/div&gt;&lt;div&gt;&lt;span style=&quot;color: #569cd6;&quot;&gt;set&lt;/span&gt;&lt;span style=&quot;color: #d4d4d4;&quot;&gt;(CMAKE_CXX_STANDARD_REQUIRED &lt;/span&gt;&lt;span style=&quot;color: #569cd6;&quot;&gt;ON&lt;/span&gt;&lt;span style=&quot;color: #d4d4d4;&quot;&gt;)&lt;/span&gt;&lt;/div&gt;&lt;br&gt;&lt;div&gt;&lt;span style=&quot;color: #6a9955;&quot;&gt;#Bring in the fmt library&lt;/span&gt;&lt;/div&gt;&lt;div&gt;&lt;span style=&quot;color: #569cd6;&quot;&gt;include&lt;/span&gt;&lt;span style=&quot;color: #d4d4d4;&quot;&gt;(FetchContent)&lt;/span&gt;&lt;/div&gt;&lt;div&gt;&lt;span style=&quot;color: #d4d4d4;&quot;&gt;FetchContent_Declare(&lt;/span&gt;&lt;/div&gt;&lt;div&gt;&lt;span style=&quot;color: #d4d4d4;&quot;&gt;&amp;nbsp; fmt&lt;/span&gt;&lt;/div&gt;&lt;div&gt;&lt;span style=&quot;color: #d4d4d4;&quot;&gt;&amp;nbsp; GIT_REPOSITORY https://github.com/fmtlib/fmt.git&lt;/span&gt;&lt;/div&gt;&lt;div&gt;&lt;span style=&quot;color: #d4d4d4;&quot;&gt;&amp;nbsp; GIT_TAG 10.1.1&lt;/span&gt;&lt;/div&gt;&lt;div&gt;&lt;span style=&quot;color: #d4d4d4;&quot;&gt;)&lt;/span&gt;&lt;/div&gt;&lt;br&gt;&lt;div&gt;&lt;span style=&quot;color: #d4d4d4;&quot;&gt;FetchContent_MakeAvailable(fmt)&lt;/span&gt;&lt;/div&gt;&lt;br&gt;&lt;div&gt;&lt;span style=&quot;color: #569cd6;&quot;&gt;add_executable&lt;/span&gt;&lt;span style=&quot;color: #d4d4d4;&quot;&gt;(Rooster main.cpp)&lt;/span&gt;&lt;/div&gt;&lt;div&gt;&lt;span style=&quot;color: #569cd6;&quot;&gt;target_link_libraries&lt;/span&gt;&lt;span style=&quot;color: #d4d4d4;&quot;&gt;(Rooster PRIVATE fmt::fmt)&lt;/span&gt;&lt;/div&gt;&lt;/div&gt;" style="text;whiteSpace=wrap;html=1;" parent="1" vertex="1">
          <mxGeometry x="1720" y="250" width="680" height="580" as="geometry" />
        </mxCell>
        <mxCell id="254EzCvTZ2WfJFfDZF1n-11" value="" style="shape=image;verticalLabelPosition=bottom;labelBackgroundColor=default;verticalAlign=top;aspect=fixed;imageAspect=0;image=data:image/png,iVBORw0KGgoAAAANSUhEUgAAAnUAAAH0CAYAAABb89u0AAAAAXNSR0IArs4c6QAAAARnQU1BAACxjwv8YQUAAAAJcEhZcwAADsMAAA7DAcdvqGQAAIZQSURBVHhe7d0JQFTV4gbwLxFEBEJFJUREpcQ/aG6YmPu+5IqFUlqahLmW5lKapaW5lC+1TNTUtFTMNULNJbVMeuGWyxMNFQUJFRMBFUHsf5czwzAMAjowzMz3e+825557h5m5Mzgf59xz7hOenp7/gsgEypWzFyUiIiJ6XGXELRERERGZMYY6IiIiIgvAUEdERERkARjqiIiIiCwAQx0RERGRBWCoIyIiIrIADHVEREREFqDIoc6llT1CRjojpKuokD1bHm+95YD+rcQ6EREREZWoooW6rk9i4VvV0fW5CqgoqlRPoFZTNwx8yxMf6oY9IiIiIioRRQt1bnaogEwcXfU35u4UdbI/72Dsihu4DVs4uom6UmLuz5ewd55YsSDy67r081yxVoI69kZvL1HW5yVt6yjKREREVKIe4Zw6W1T0EEVdFcrAThQLbd5eXLokhRPtchLrhulu01nXCsG6k9K+J9dJpYLMRZM6qbh2VqwWxrB1OJnrOe2VfkrxC1l/EifXF/yKNCa2r4ma7SeKtZLSGB9NnId534RhsH6w8xqMsG+kbRM/kvYiIiKikla0UJeUidt4wvC9KpeV4l420m+K9QIoLU0vAeE1pXCiWTZcg19HNdjMbeIt/ddZu64Rsn4MWjhLhevxWKZW5W9YDVRNPYWfl4v1Qgjp6Afn8+Ha5/RxVFUEFSpAPp6nqzrjWnyBr8jEjuL9Nz7GPrTD1BULc1rsvHpj4YqpUu0+fPzG+9JeREREVNIKH+q6OmJBUGVUyErFyZ9Fna6f03Exywb1+1TDWwWcVye3SgVVOYSPa3ZArramCR1Qf4AcbEJQo0oqDm04BPi2zwlUw9ZhTMA1HIpKReq1v0Sl+vNytfhpuiXrVoWzJvxpWuDENiVUiv11W8jkcKX7s5ftOYVU56p4WiqrrWlz1ZZCTQterpa9nFa9XM9J200qWhlFvdotPBd7pXJQHcD7JaleCZCG9tMl30fzWPnsm6sVVLe1UXNf9XHl7UVpIUTcaoS+KgU7m66YJwe7BnKgm4euNlKgezUUq+PEfkRERFSiCh/q7v4rbu/jtlrS8y/SpX2yssR++QpBe19nxO4c+JCWtqdR1fka4ifE45qzH9orXbBSCHnfD6c+Wi8FvZxWLTk8TfU9JQVEtWUt/DwQe0SNiiE1qqoBTQ5eyn2lfdpPVAJdEDStceG4FjBAhB45TCJ3i5kcDFOvQY55cuBzDugGLJDvJwVS3Z8rWvW6yQFJhE9tK6TSTSqHr6nwO/2xWvfRIVTtKge4ieggPYdY6X/K/vUHAnJr5PWc1sIOE5RnkmNeE3iL56S0XOrvKwc6nVbQ8PPeCNIES6X1Unqel5rgiLxdeh7Qvv5CUoLdBOxEVyzcslD6705MYKAjIiIyqcKHugO3MXbNDdx2roTm7UWdrvZOqO/8BBIOXcPnuoMo9A1rDz/nWBzRDyq6lOAhh5aJOHJe7YKd+3MQqkYtxMDlcuAT99eEJykIiYintPCp59Cp4fFa1QG49H5V7KhZX7qvVC3dp5vcSqg5H00nIKlhUvccPClIvuSN1NM/Sz9fDXypynMQW4Nb4NoG8XM1j5dfF+q8AUr4Ulsipb3lbl5NK2Ku51AwJawqz8kQKTx29UbshpxW0IlHYoEqNaQtEjmkSoF5h24raREem4iIiEqnop1TpwyGyEZWqljXdeM+skTxcekGHjmQOAdMVbprF8qBSBv4JHJAOX9EpwtXtPApIUsNaFWr5A44ys92boGpmq7JrtfwsSYUyuEKzmjxvqbbMgjYUFMEMfXnndqjiVLyIAzRZarsOxVVd4qWsuUDsVA+F0+q13SHKucI1gkS+17C1Ko7tAMd9EPasgELcaiKvK9ut2kO3fPv8uybX2gWx1N+HqlR63OOmW4XdWGJQRFyC92YvmOUFjuDgyeIiIioxBQt1GkGQ6SIdV23HyBTFB9qeTyuSdGpyUOmGZFDi6YLFROOqF2TInjpBj5t96oQsr5bTouXGCSxcMEhVH0pdzhKjRJdoPKibeVTfx50BknIi7br0+CgC9Flqr+vZNmA+moXq85jx0oBUfuzdUau5h0ksQwD64tBGnmmLdFtjZQZ2Fev5U0Jcspxytu9rH8MC6QEuqlol70TE4aOwbYT2zBm6ATszG6HqQx2REREJlO0UHfxHm7DDo0H6Q2GeLY8PhlUGRWQgZsXRV2+JmJ9VCq8X8o9XUnI+r1iXT+0yOec5bS06Qa+ZfHX4KwZSKF0xTrnjIrVtEAtH4gd573Vc90kyn3yOYdM/tn5Bpw8LVp/4Vpqzs81SAmwqr+uSa9ZOYdOn/7rzSE/V4Uy6EG3JU7TGplDu6/8mM4tMEBnwERQnVjs0LY26rbiFdBlnEdjfLRUjHKVA53mHLo4OdiJUbFLOaUJERGRKRQt1B1Ixbyvr+Lk9QeiQriZhRMHk7Du8yuYeUDUPYTSirXhmk435yVM9b2mtoLlE1pUegFownocguhKHQvs0BkVm9M6Jc/pJg+GmKp2hU7ooA4cEI+b08WpzmmX072aW94WrWUYuEAeZDBV+xrUUaQ5o0rV7ls1kCrdpJrnKi/aaVKWIf666PKVW9p0R63Kgx10WvQUcrjUtMQZ3FcKwRtic7qFlQETIhTrdl0r9M8hLMhRvD93guFBEWLwxIS5nNKEiIjIFJ7w9PQsaLgqlSLyaN8xWKgdcGHOypWzFyUiIiJ6XEVrqSPTUrqYkW9rIhEREVkvhjpzIIU5ZYLj93WnUCEiIiLKwe5XMhl2vxIRERkPW+qIiIiILABDHREREZEFYKgjIiIisgAMdUREREQWgKGOiIiIyAIw1BERERFZAIY6IiIiIgvAUEdERERkATj5sImMGDFClApv8eLFokRERESUG0OdicihbtHXi8RawUa/PpqhjoiIiPLF7lciIiIiC8BQR0RERGQBGOqIiIiILABDHREREZEFYKgjIiIisgAMdaWMZ/NM7Fz+D85vvYKEH67gf1OzxRYiIiKi/DHUlSbt7mLne9fhV/UuyvGdISIioiKwqujg5N4YHfoPQmhoqLQEo2UVsaGUeL97Gpzlws2KWDXLHS16Vcf/fWyjbCMiIiJ6GMsPdbZO8GzUAYGDQhHc0x/elR3EhtImG35Vs6Tbcjiy2QFTf38Cl9UNRERERAWy+FDn1LA7ujXzhquU5TKvx+DAgRikiW2ljtIoVw7ntilrRERERIVm8aEu7c8zSLx1GdERa7Fy8wHE3ODAAyIiIrI8lt/9mnkCEet34GhiqW2fIyIiInpsVjVQgoiIiMhSMdSVBq7/YsyY22gqD329Zoujai0RERFRoTHUmVK7O/jfD1eQsCIREzveAW66YNVCe6wTm4mIiIgKi6GuFCmHf+FSWmdcISIiolKNoc6U9jng/3pVR4sRbtgaawtUvIU+b9zFQLGZiIiIqLAY6kqBywk2GDXOGacypRXXTLSvqdYTERERFRZDXalRBrcy5NtsONdWKoiIiIgKjaGOiIiIyAJYfqir0hLBygX8xdLPF07KBif49supD37eVaklIiIiMkdsqSMiIiKyAE94enr+K8pUgkaMGIFFXy8Sa7JshH+bhOedy+O3/1RC0D5RLYx+fTQWL14s1oiIiIhyY0tdqfEE7ikDJe7jSXelgoiIiKjQGOpKjTI4nGgv3WbBr28qlnX8F57qBiIiIqICMdSVIgu/c8Jf8lx1dmnoNiYRh364gv9NzVY3EhERET0EQ11pctYOr86ohp8vOeDeA1FHREREVAgMdaXM5RNlMXh0RdTpUx0evarj/z62EVuIiIiI8sdQR0RERGQBOKWJichTmhQVpzQhIiKi/DDUmUjt2rVx4cIFsVZ8SupxiIiIyLTY/UpERERkARjqiIiIiCwAQx0RERGRBWCoIyIiIrIADHVEREREFoChjoiIiMgCMNSR8Y3Yg2k/xynLiCm9lSq3mSdE3Vn07K9UWZEQtFpzVnn9E9csgZuoNa0QdN+ivkfTdkbCR6mbg8HifZsmPU97pY6IiMwFQx0ZX9o93BfF9JvbREnjHrJviaK16NQOjaqXU4r21VugcSelaGLXcPeuKN69hRRR1Mq4hQxRJCIi82A1oc7BrTE69B+EYSGhCA2VlmGDENjBF662YgcynqRbSBdFjaQr10TJCu3eh2NX7inFjCuHcHS3UjSxbUi5LYpasUguRYHb9rnWGLpgMhZumouvtkrLpln4eMGLaFG/rNiDiIh0WUGos4H780EY1Nsf3pUdYKN5xTYOcPVuicDgbvBxEHVkZPdwM0+Wu4VrUaJoNZbh10F1MaO9F+YOGo4kUVtqpKfmaalLvxErSqZQFm4hIzHn3RfgX7MSbG1EtU1ZVK7pj0EfvoNBHRjsiIj0WX6oq9EWXfxcgAd3cPm3rVi5LAxhy1YifHcM0h5I2+094d/UXd2XjCM2VbTU6XS1artkpTr9ZjwyiZvSe6LQdrXmdMnez1ZvTaJeV4T2qIny0icmKXoLZg2biDf7fICpi39BfJa03aYSWvTrAGd1byIiEiw/1MXvxU9nEnF62xrsOHUVmXKQe5CJlAsHsP9cprKLg0dtuColMoqLt7Tn1GkZ6JJV1FqAoeLk/JcGiTp9tZaIfaLRLkDUafnCbWwk3tiiDkSQl/ciTyB4wmg4ij1yEYM4xswMkVZqwCV4LYb+IAYH7D6LEV8tgKvBO8r7rsTgjWfxnngcZf+v16JRB1+xjy6dgQi6y5a1BQ+UaDgF7b4+gYm7c+43ceMedB82WOygS/M4e9BIWnMMUp+j5n7vSfdravD5SVnurgh1Woa6ZPPRfiJWbtqO7ZsWYZg6ysJ4zvyIL3ZdwsUfPsX0mVGIT5Yr7+LGLql+n2j6re6N59USEREJ1n1B/3o9EdraHUg7jU1rD0L57ighvKC/Rg34ffkr+tUD7p9ZhlkjZ4r6HPbjf8XEHjWA6/uwOGiIzvvUDo2+WoKeddVBCPoyzodjccik3GFSDnX9vYGz27D6VjsMbpa3vSfjbDgWvjlJZ6BADXjMjMTQgHzahm4dwtK+wXrdqnLYmoKmT4pVDYP75nAcIgXUQb6GA6kk/cxqLB05Tec1aR4nFXEn78GtfhUDo1bjsWtkK/x+RqwawYD5WzHYx04pZ8asRp9x65VysWsbjDlvNYQzLuGHPl9ih6gmIiIrH/3qWslJLWTdg36bBZWUeJz6/bTSsle2TgsxtYauFmjYUAp0koRDy3IFb8fxM9RAl3kdh1dOwqz2XpjRKxiLVx5CUqYUBusE4aXx7cTeeur2VgPdrVhsnxeMGe1bYeGWWCXI2ddtj4Cm6m6KWu+gsxLoUnFMepy5vaTHkR/rteFYEX4Icf8Y+vQsw/a+Yj952ViIc9TqLUC/IDXQpUuhc8WbPcTjTMKGqOvKc3OsF4Tug9TjkZszvORAJx2LXxfJr8cLs2buRILSGF0DzQYaauUzP7a1K6rdrln3cUepISIiDesNdWXc4VtbDXVXz/6JNKVEJrFmJ07KTU92vmig3wVbazD+r7pciMWxrw8pVarRaNdGDjf3cGx5P2xfE652+aYfQvKaYCxdeVoJQR5NBsNFrjfk+iGsGNQRh3fIPzceKYvCcUo5B7AKnmoi3wreVdSWs7vxOLMlHBmaZrLLUmgKC8bq14cYZfCD15Cu8JIbv67sxNI3xyLh7Gl1w+VwxEzphw3H5fBYDj4d3jE8h1xmLCLe9se+Lepxur93OLYfSVXKLk8Z7oJ9VOt/PISr8vl3d8/jx6Ul1EqHSujlX1Mp3T39Gw4oJSIi0rDSUOcAn25d1FGvt07g4An13DoylUWIPqmGD+/mU5RbDft+vvCQbu+fOYRjuv2obQJQS05at47g2MZ4tU5X+Ck1aLnVQC2lQs/d01j7ejAScvXNLsPfoimwrGbEpSzqtNLyh/K+6Pd1JJr2aAfjj70cjGdqq93IMT/PNHD+YTzidh9R69284aXU5RYXOQTH9LpYi20qmZ/nYkhgd3QPHI3lMaKuWJWF35SR6PiUVMy6hO0rT6nVRESkZYWhzgbuLfugjYcdkJmIAz9Elei5dGRY0o9HlPchdxdsbwQ0UVvjTu6aplZp+FRVW+CebKEdaJF7CTIYfLQybyE9b3LCsRC1u3T1YlEhS5+JDQv2qV26VXzRffxKvLf7BN74ai0adWshdnpcNeCiNAemIj3BQEiV7YhXP6t25VBeqdCTnc/9zJ48xUko3vCXW9bTEL0kDHsuqVuIiCiHlYU6B3i2CUJPX+nLIfMqorZFIIYn5pQOUctw9LJ0q9sF27QP6slDRW8dQbT+hSl0W9JKwo4hWNp/LFbvOIoE+Rw6G2e41W2BnhPWYuLXS/IZMVsUziirjjugXMqi1ohReK9HTdhKge74N19ixd48Y6uJiEhiRaHOAd6dAtHNRw50iTi4cStO/CM2USlwCMePqS1N3s1nKLcuXfyUqWaSj2/Le87aX9fUCXPl0aSawQgGl444ptzBCNK3IW5eP6zoXxczgiZh7Y5YpTvUvlZX9ButXuP20cUiRTmfzxmO+c150q2GOvXO3VTcVCosXVn4jXsLb3d2VwJddNinCNvCX1oiovxYR6gr4wTfHkHoUNsByLiMA+EROM2REaVOxtf7EJMpd8E2gQ96o5FvFak2HkdXh6s76NotznN78mnUyzN3XQm4Ho7YeR2x4Q/1XEA3z8fthl2GC4lqybvtAgNTmtSAzwtNlPr7cacQp1aaTnHOU6coj4bT3sXI1lVhm/0PDi36BCt2aC5WWzCfkEXYul1+fisxsXMFUUtEZNksP9SVqQb/Pv3RUj6HLv0i9n6/g12upVX6NPzxv3tqF+yIbqglt1hdPorjF9XNua1W90UVtPogGj1DR8PRU0z14dgCjj1moN2CaAz9QJ5k+DGFRmLM12vRtP/gnMeQQpZ9yxlo5K3OXZecoDsy99HE7DqqtPyVrdUbb3y1AB51xYhVzxA0WrAZL9WTB1Kk4vBWvfMLTWDACy1QTT6xr3wdvPDGALXSaCqhzdzJCG3sBGRdw4HFn2JNkbpc22Jg+zpQerPLV0PbV96Gv1JPRGTZLH7yYZfmwQh6Vp265KESDiAsskSG8Sk4+XA+em/GuLGNUTb9HuwdyyFmTStsWJnPAADHEHRfNQVNK4l1A1KiZmLhlGViTaKZfLiASYBz0dwnP/8cworX9EbSdlqLMe+2yH86FSFuo+6gjBrwmLEZQ1vKLZSG3EPsxuFYu3ifWJflTHKc+2cJmud+PhwzQiaJysdXrJMPvzoSX/VVpy55qNTj+HzwWpwVqzlqYNiCRej3tOYkxfPY3H00los1IiJLZfEtdbmmpqDSb1s4jl2HEuhw9yj+yC/QydKXYftr8uCF00i6pTMBcPY9ZPwTj2M7FmH15zqB7lGtln6OGCChe03U+7eu45T0GAv1A90ji0fCtH5YuHyfMqGxtm1Kej3JFw8hYmY/vUBnOsU6T91j/87GY/lXuxDPmYqIyMpY92XCTIgtdUTFyQdvLZ+Pzu5S8ep+vDtkLv5UNxARWSwrm9KEiCxdxadbYMAHk9BWDnTIxPmD6xjoiMgqMNQRkYVoi+nrtuO7BVMx+LlqykCJm1GLMflrS52UmYgoN4Y6IrIs2Zm4GReNzXNfxssf7cJtUU1EZOl4Tp2J8Jw6IiIiMia21BERERFZAIY6IiIiIgvAUEdERERkARjqiIiIiCwAQx0RERGRBWCoIyIiIrIADHVEREREFoChjoiIiMgCMNQRERERWQCGOiIiIiILwFBHxjdiD6b9HKcsI6b0VqrcZp4QdWfRs79SZT40r2fZHFFRetkP2owxu6XnuvsE+g1qIWqLQacleCNSfT/feDdEVFLp0gI+88Xv3ZbN8KklqkutORis/BtxAt07iSqNTmsxRtkWh/e+nKLW6fw7M3R8MX7Wi6we+j+9DBu678SefvLyJYaLLUTFjaGOjC/tHu6LYvrNbaKkcQ/Zt0SRjK5e68ZwsZEKNs7wa60G6uLg1rYF3MrLpXJwa9YObkotlS690ayhs1p8sjGadVOLZummzr8pKddEKcf9u4dEydRqYHjTORhevwYq2YsqohJkFaHO5sla8O8aiEFDQxEaqi7DhgSh5/M+cLUVO5HxJN1CuihqJF3J+w8x5dZomdrqMG1nJPwcRaVWCLpvEdsjN8NL1Oo788tRpGRLhexUnPpFP1AbT9L+Q0i6K5fuIemPfUhSas2P9pjrLRO3RKPf2MEoK/YzT9vwx/FUtXjrKP7YoRbN0uFref5NwV/XkCKKpYZ9MFp62kmFTFw++h8M39YVHTePxBJ1K1Gxs4JQ54qAHp3RuKYrHHQCnI2dC9z92iAwuBu85d9BKgb3cDNPlruFa1GiSDoGo0pFUbTzxf+9WEOsCL27wedJUS7vDM2u+jLW9MPCTl6Y0akBNq8pxtaL3cOxtIf0OO3rYukny0Sl5bB/sgr8es/AuGVzkCdfm41DiBnXQHqPpPepbz/EXBTVZi79n9OipJGK5NLy2ip6qq3WV/fhw7ifECv/gUVUgqyipe7e7WTESn+mhq8MQ1iYtCxbifDdp5GcKW2090STZ53UHck4YlPFX9U6Xa3aLlmpLs+f3CR3Y5aVu01vXVc+l95Nc5+n5vW8LxwzpW3sui4WcRvlgCqW12Yi4qTawmVfJwjdh+gFbDKBa7iptAzrdLXqdMnmFEzsCfUm/cZxXFaLRCXKCkJdMqK3bcLeY5eRIoc42YNMpFw4iIN/3VFWbezKKbdkJBdv5f031kCXrEENx6PVgmiM25nTFfbexj3oHpq7K0ztNpNPqG4HvwUn8J687+5odO4mfQHXm4F+oqvyvfC18MjV1FID9t3moPtX0mMoJ/qLZecJvLFgAdyqiN0KRXrsLzUDQKTn0ttX1OtoOAXtvj6BifLgBeU5nsW4VZvh1zK/oPAXzpwHytZpotMFOx71fcsh/cQhxCnr5WCj+5p0ThjXXQaPENvz0HTl7kEjac0xaCUGbzyrvZ98vJt2MPBadE5W113GzMxnoIRmf3mASbeVGPqDuv+4r+TWrxrwmPIrJsrbpWMSPKKduJNE+zjq89On6TLVfX2P/nkw4PIyHBs7E79eV1c96nZVC7nUgEuwetyUx5IX6TM0dO4MuD7s5xv6fEdK9/tarovOPUDgEY6DzHCXsuGfoSU+Q+p7Kb+2tdr3S35/Rny1IJ/X9YjHocpgNM1zHPrke1qB3BqXrfn3W8NQl6xBNTBg9vfYvn07vnu/MyqIWiJLZBUtdfkpV06NCdmZ95RbMpZJWK20ejTA9t2iancwFip1HXFMVOlzHBKJcfNHo139KnDU6RIvW8kbTYMGo75Y12XfTfrCru+sBj6bKmjeawbavT8YfqKrsmyVFug1VmfAQKc5eGNCEJrWlR5DOdFfsHOGW/3eeGNVJHwK+tJXtIP3/AXoV89Z+gBdx+/zemD7Nr1uoW5rMWJeCFrVcoa93AonsykHR8/G6DcjEt3lwKHlLP1xoZbO7DuKDDtfNB4stg9qj/rlUxGzeyz+TpYrnkTVAGXLY6qK+tIX64jQdvCqlPOHjXy8u09Zgub1RMXjKvM0er7ZThumHOt2Q+t3lyC4gxSw5QrpmHj3egc+ytbHU+TPQ77CkSJOR7N3qqoWtKRAOmMzxgxTj5v2jw3pM+TRdDBGrMonOCqfBwOf7/LS/WrJdab/49Klkh+8ZkdKr61FzmuQ3h/Xur0xdN4c9f3SeozjsHYGuuc5Dg97/cuwva/akrp6sagy9O+MIY0GoksDNcpVDBiIkQ9Nt0TmzTpDnZ0LPJv1RIfa0r8ot05j/5E0sYFMJkD6a3+Qr3L+UkbSUUTMC1a7wnoFY/5n4Th2JRVZ6p46nOHXsAbSjy/DrCn7oOSduu3Qyi0Vxxb0wNIo9VvZ1Sv3dAcZ12NxOPwzLHyzh/YxFq88qp50Xd4X7Qv80pe+zGYuQLA8sjDzOn6d3w+7dsSLbYLjeCnItICrFObSz27DitdaKY81683PsP2s/Lyc0fTNBfDSfulVRUVNyNy4D2fSAa9Go6SVGvBr7ouy14/gj/y+uBZ3VF+HsszE4UJ30TrDS/pitZdfwyL1eM+auRMJSotIDTQbOFjZS0sbzNUl4ryoL0itxmjkGI9943pg8xm5QnrtnaTXdHEbFgaFq62PdjVQW38aiyJ7tM+DQdL751FNLaYknlILGv0X4KWWcpNuKmK3zcTcXvLx6CF9TrchVm46qtQCL80Yr+yq5TgFL41VPw8ZF/dh7eScz978zw6pz9VIjoXkvEczPjlUtMEEUngb3Ez6XN+KxXbld7AVFm6JRYa0yb5uewQ0VXdTGOM4TNP9PTfucTAFR81fZkQmYj2hrl5P7cjX0CFB6NaoGu5dPoDwDQdx9YHYh0xECi6vtIOrVLovfdEvDu6HYzvEeTPph5AeOQkRg/pB76tVlRmLfYtm4n5UTlfM/TNbEbHttOERt1IwWRrUEdvDFiHlrGhZkx4jeU0/bP5DfOl7POxLXw50kRgaIALdgn7Ypx/oJPav95GCjFS4shNL3xyLhMvqPvfPLsJhaX3fFWnFsTGa9VWqc9y9J32BLsLJmHtAnSZoVCUE/1cHSD6xtXi+8KTjF/G2P/ZtUY/3/b3Dsf2IehxcnjLQBfuIUqJW49fjp5Gsaf7CdUQtH4sUKWAb9TzBon4e8qgB+5Yz0H3pG+r7J/28X9bqjiJugeYvNFb++EiIHIu1C5YhQ3mg09LnVFqftFMZCez4f+1ztTzah3aFj/x9n7QPK14fgtg/cj576ZHxhexGLCHXD2HFoI44rPwOxiNlUThOKe9RFTzVRL6VPdpxcBnbJ/dxOKj7e15Mx+HYOvx04rZSvBm1Dl/m11XwWCrA02EgPnxGbl3PxOV//lCriUqYFXe/2sDJqw36B7aRfhlFFZnIYCW4yIMoTv4wtkj/sGf8bweO5Rr5JoWFb6eJctHc14xU0/Yj6bOHx5TNCFYCXTx2fWw40Mm8fdSu07g/Zhp4Pfvw12U13Lj56J2PdludpiFu9xHp1hv1P2wCb7t4HM0VLJzhUlsUH1Nc5BAcU1rPchh/+pl4/LE89wjZ+2d2YF8xjIJ+1M+DV3/NuV2/YuKMwWjqVk4K2PFSaB+CU7l+Xm/U9pRv43EibJ9Sk8uZI0iQA1Culkfpj5b/Uz8PCUeWle7WqLunsfb1YCTk+tAuE93+0q+G5jSCRzwO3rXVk1ZL9jjEY/3kF9G9e3e8/NEuqPHOeIY/J08wvAkrur6KhhVu4/LJZfjwmrEfhahwrCfUnYlQR77Ky4o12LQ9Gpelf7hsKvmgW68ApZWITKSNL9yUXot4JBRxarWMu5qWH41bSCkgLJTtMAfd5cELOidpy8sbclh7GNd26NehihTtUnF40XD8ftBwoJNDqrsYcOHV99dcj5HvY3WqARdRVOzehpPXpfvX80XZy0dxXG/Khpwv18eUnd9rMKZ7uKf3/NNTiudxH+XzYMj964ew+s1WeUN7mxri34oa6K4ZSJBrmYKmmqlntLqiaiX5NhVJ/xMtU6VV5i2kG/irStOlqz2fzdKPw6OSR7/a2HEybjIZ62ypy7qD5Pij2LFuLy7KJ2o96YvGRmr5oEdQgqehOI7Yg3FTgtBUHrxQ1MdN3ofNynlZzmg6egEa5TuQQExP8ljCcfJ/6vDLhGPhyjlNsr+v6YcWMgbNlCazJq/GsX+k0FylBQbPN3Ci/+N+VkvL1BuPi8dBa8l/5QmGB+K9g9FIul8Bnv/3KoZX4xhbMg0r7n6VPLiIKzfkgg3KcVYT09kdL07mfhIuuidiG91otOvqrYzgy0g6hA2ak7TFojmRPn8ZSJgyFhHn70lfat7o+dFaeBmcAiWnuyrX/GcGloVT8p+4N3m6v7LPigV5WzXKli9N17osSTVgU4z/at3/Yxoi3t+GOHmwiHyi/7TR6gYN7Wc1FhF672XuRXdE5j3RtZ9Pt3mtJ/Pv8c9X8R6HAhXHcaj3pN7oWnNyE39cex+fxshnEtrBu6qhaXCIip91h7oytVC9slxIQVKCUkMmcQjxynWmqqBRsN5oOWNqE4BaSstLKk6tCUaM5iRtRQ3YF+qScftw7O1PcfgfqSh96Q/+yvC0DRfj1FY2D98Zym2BalfN3f1aAMdKxhvEUOpoJ5Uth3K5LkKvTqHRvbgvTH9mLLZHqe+fY9OX0DzX42k+q954utCTEq/G5atqyaOuuBi9hmMIOs/uCg+xmoupj8NDPe5x0B8VG4LuH3Utpm7Lkpun7vhd9Vw6Oweln5moxFlnqLNzgGuNxug2oANqSV/kmZeO4E/OamJC2xD1X/XcJceGozHmqyXwbqlpifKFY4856LlmM/xEzSM7cl20LjjDu9MUuChhTPPz92Bw0wLOqdNIX4bt74drW3OC/5P3UlIpm49A/juhbL3BGCe/njbttK0xZesOhvfYtRi8MTLnNRnrHDlLcDhWvdqL9GXcbLR4n6oEwWfuZgxVptAofsmfbUWMeA4t3tRtrduG6CPqZ9VnUCSCJ4yHW11NwJY+S23Go+nMPRjz5RxRp4o5fFoJaPYNg9BzUJD0WZAnwV6A4DVT0Dy/l1QKjkP+Hvc4vJrnODQtrhzEeerIilh+qKvSEsGaqUy0U5oMQmB3f3g6SYHu+lFs3xUL5d9OMpmMBdOw+Yza/elStyuCZ6wVJ1xHYtz4IDSq7oxCNaQ9THo4jp5VJ5p2aRiCMcoJ3pqfXw4Zt1ILf6rPmUlYvUCdA0y+lNQI/WuEnhmODRvV+b0c5dfzwUrtjPvvfTUDwb1bKBO26r+mlGuxovRwuufs5b6CQM4J6jkjOqVly9rHbgVxm6m5eoa69FRGLEvHMmCKTn0BVy4olJn4RUwvo32fwufgpaZSkLkbi8PiEl7FKn0mtu8Wf2jotdalfzZN7YKX/zjoNhpvfBUpXrv0WfpgNLoHeMNF/5yzlasRpbRsOaPRkDnSZ+FXTJzQG97Se5V+Zp+YMkTfoxyHORisfS+k5d0WogXYGz116vO9CkgRGPs4JB+Ujnlh5z4kIoOss6UuK1P68oxBdMRarNwczXnqSgXpi21kDyxcvg+xSVK40rkQdsY/sfh1+aJ8r0RReIdwasJEbD58Hen6P3/lJMxffKpo82TtCMbCeTnBbqjeF2X64o6YPzMchy+mIkPn8e7fTUXS2UOImDdN+5rsHzqbfo6MO2oodazsrdxaqqRpY7E2Kj7nfcq+h6ST27D0tY44WqQ36dGlf7ZaTOSs31q3D8dC+mFp+CHE/aNz/VFJxq3riI0Kx4qPvhA1GuHY98Y0ZeJpzWf7fvp1nNo2DQtHHtIOhNFXGo5D/ox1HOJxePlYLJ62DDq/JsZTIvPUEZUOT3h6ev4rylSCateujQsXLoi14lNSj0NEj2oKXtoZAh+7VBz+pIBLXlHp5v4l9jSvA1zZhI7/zX8QFFFxse6BEkREJvcI0+tQ6XQ/Uz2Vx8ENzZQKopLFUEdERGQM/8QiST6dp+LzeKf+QDTjACgqYQx1RERExnB/Fb6PuakUKz39Kmb1li8h9iWGKzVExY+hjoiIyChuY0fMCMw6fAZJd0QVUQniQAkT4UAJIiIiMia21BERERFZAIY6IiIiIgvAUEdGI3f1EhERkWkw1BERERFZAIY6IiIiIgvAUEdERERkARjqiIiIiCwAQx0RERGRBWCoIyIiIrIADHVkxkLQfUscpv0sLTsj4aPUzcFgeV1e1iyBvVJXSjiGoHO4+tzGzJ9i4udmZseOiIgKxFBHZuwa7t4Vxbu3kCKKWhm3kCGKpcLgIDSvohZdGrZDPbVoImZ27IiIqEBWGepcmwcjNDRUXYJbwlXUk7nZhpTboqgVi+RboljarA7H79fVYsrxfTijFk2kdB872+o+6PXhW/h43Sx8tXWuunz/Pj745AU0rF9W7EVERLqsL9S5+KNDfSexQhYjPTVPa1P6jVhRKiXSl2FXkBdmtPfCwnEzS09LWCk8dh3fGYpuDd1RubxOgLN1glu91gj98B0MaivqiIhIy8pCnQv8OzWGS5lsJCYmizoyZzfT7qkFbXdhTrfi/Wz1lgwrzccuKysNF6N/RNg7H+DNPhOl5QNMXbwXF+XWRZtK8O8eoO5IRERaVhXqXPy7oHElIDsxCntjM0UtmbOMuyKYaBnqVlQ1WiYPAjiB7p3awW/BCbwnDwjYHY3O3WoA9Wagnxg48F74Wng4ijsJZZuNR6u5v2JE5Fl1IIFy37MY8fVK+DSU7q+v01qM0exnaFk2R+xoQMMpaPf1CUzcnbP/xI170H3YYLGDnhF7lH3GzAyRVmrAJXgthv4g7is/x68WwFXv9ciKcuzyaD8RKzdtx/ZNizBMHWVhVHsmfoS5M3/B8VjtiX+4sesn/Gd/orJma+ug3BIRUQ7rCXUODdC2oQuQlYiovadxR1STeUua0kDpzpwRMknUAMdCRBfnlGWiJjf7blKAq+8MpWPPpgqa95qBdu8Pht+TymaUrdICvcb2VlcUcxA8ezTaNa0B1/LlRJ3Ephxca7XDS/M2o5WRGo4ch0Ri3PwQtKrlDHsbUSmxr+SNpsEzMO7LGTCQzxQulfzgNTsSY4a1yAml8nOs2xtD583JM5r1UY6dxoAXWqBaealQvg5eeGOAWlkCnO3V7tisLP4GExHps5JQ54AGXQJQTe52/e9enOb3gRVzhl/DGkg/vgyzpuyD0glftx1auaXi2IIeWBqVquzl6tVCudW4fysex3YswtKxwWoQat8D8z/biQS5wVcKhq1emaLuqLE7GAuV/fSWjQ85V63eAvQL8lVCW/rZbVjxZg/1Pq9Nwoao60oXqWO9IHQfZKBlUCaFt8HNnIFbsdg+T36erbBwS6xyP/u67RHQVN3NLLlWQsNXh+LttlWlRHcJO5ZHiQ1ERKRhFaHO4dnOCJC+C5RuVyY6yozFvkUzcT/qGtJF1f0zWxGx7TSSrlwTNbomYW3fVoiY9xmSTh4SdaeRHjkcKyLjlbWy1XwfexS115Cu8LKTCld2YumbY5Fw9rS64XI4Yqb0w4bjcndpOfh0eCf/OeSuH8KKQR1xeIf8POORsigcp5QRrVXwVBP51jjW/3gIV+We0bvn8ePS9WqlsbUNxhzNyNflkxHa1wfOSdEIm/IldpwT+xARkZblhzoHX3RoUo3drqSV8b8dOHZRrCiuI+rbaaJcRNnivDQbKdippUc0GM/UVrt2Y36eqQ2bOeIRt/uIWu/mDS+lTs/d01j7ejASct15Gf4WY4LK6nTnPraf52JIYHd0DxyN5TGirgTYVvdH6AcjEfgcpzUhItJn4aHOAb4dAuBuy25XypFxV+1izXELKQX15jUcj1YLojEuMmfwgrL09xY7PK4acFHOg0tFeoLa+pfHjni1u9iuHOTT2fLIvIX0vGlQe57c6sWiwlzsX4tJyshXaXn5I0xf/COOX7sPVKiJju+EomNNsR8RESksOtQ51OuAZu427Halx9NtLcbMH4129avA0WCaMgZnlJW7Xsmw22lI2vULwt74AofkZGtbE20D3dVtRESksOhQ51nbHfL3pI17SwzSXEFCs7QWXwhOvggUdT1Ne90mKpVaoHlQC7jIxfRYbP9sCGYVduBDkcQiRTn3zRmObkpFXt1qqOft3U3FTaXCGiXiZII6zYlt+WJL2EREZskqBkoQPbreqO2pluJ2D8HhyH24r64qytrqTHHyWJbhgjoFG7zbLjAwbUkN+LzQRKm/H3cKcWql6RTzPHX5c0d9DznM3cfff51XqwzwCVmErdvl57cSEztXELVERJbNokNdTGQYwsLyWX4R36Bpp7FJ1EWY9mKcVCppWtAAtyZT4KZckL8G7FuOR6uvTuC93vlML/IIYnYdVQZClK3VG298tQAedX3VDZ4haLRgM16qJwfIVBze+oiDOoyoxOepc62EGp1bI/SrULSQmytTjmHHBnVTXm0xsH0dpZUe5auh7Stvw1+pJyKybGypI3qoZTh6Uh1YYe/ZFW+EywMkfsXEGaPRrq48J1yqgZGqj2jbWGw4qF7x31GeMPirSHUwxqop6FlfTpP3ELtxLHbtVnaxYB0wUTOVic6UJu+NeAENn5KSZGoM1s/6HmfF3nmdR/w1nSvGuFbDs6JIRGTJGOqICpA0bSBW74hFsk5OuH/rOk5tm4m5g3aoI1KNIh4J0/ph4fJ9iPvnXk43b/Y9JF88hIiZ/bB28T5RaVolMk+druz7SL12HtFbwjBu8AoceOg8dfFY/tUuxPNKgERkZZ7w9PT8V5SpBNWuXRsXLlwQa8WnpB5HVpKPZa5cpkRjTIcqwNlwzHgz5/JcZGw+eGv5fHSWx0Nd3Y93h8zFn+oGIiKLxZY6ohLTAj5PKyflITlBc2UKMraKT7fAgA8moa0ywD0T5w+uY6AjIqvAUEdUDPzmR6PfhPFw0wx2qBIEn5kL0FoZSRuPo5u3KdVkTG0xfd12fLdgKgY/V00ZKHEzajEmf53PZM5ERBaGoY6oGNg6VYFft9F4QzPYIXwOXgqoAnvcQ9Lu1fidI62LT3YmbsZFY/Pcl/HyR7twW1QTEVk6nlNnIjynzsI1nIJ2o4Pg7+kMe/maq9n3kH49FtHfL8WvW9hKR0RExsdQZyIMdURERGRM7H4lIiIisgAMdUREREQWgKGOiIiIyAIw1BERERFZAIY6IiIiIgvAUEdERERkARjqiIiIiCwAQx0RERGRBWCoIyIiIrIADHVkxkLQfUucem3VnZHwUermYLC8Li9rlsBeqTOiTkvwRqT888/ijXdDRKU5MsGxIyKiYsVQR2bsGu7eFcW7t5AiiloZt5Ahisbi1rYF3MrLpXJwa9YObkqtOSr5Y0dERMXLCkKdK1oGhyI09CFLD7WdgszNNqTcFkWtWCTfEsVikLT/EJKUMHQPSX/sQ5JSa45K/tgVle1zrTF0wWQs3DQXX22Vlk2z8PGCF9GiflmxhyHlUTd0KD74bpZ6H2lZuG4yJk7wh1sFsQsRkYViSx1ZhvTUPK1N6TdiRcmIdg/H0h5emNG+LpZ+skxUmrmSOnaFVhZuISMx590X4F+zEmxtRLVNWVSu6Y9BH76DQR0MBbtK6Paf9/FWNx8pwOVsty1fCbWefxHv/acv/BjsiMiCWVGoS8PpzWEICzOwRMaIfcjc3Ey7pxa03YU53Yr3s9VbMqzUHrt6XRHaoybK4z6Sordg1rCJeLPPB5i6+BfEZ0nbbSqhRb8OcFb31qox7g30qiWHubu4uGMFJr0s3e/ljzB37SnckF6PbdUADBpTR92ZiMgCsaWOzFrGXRFMtAx1K6oaLZMHAZxA907t4LfgBN6TBwTsjkbnbjWkIDED/cTAgffC18LDUdxJ1mktxmgGEOgsY2Y+ZKDEiD05+zgORtMF0Ri3W9x39wkMnTkFLrqPoavhFLT7+gQmavaXlokb96D7sMFiBz26j4UacAlei6E/aB7rLEZ8tQCuBh6rKMcuj/YTsXLTdmzftAjDjH32wpkf8cWuS7j4w6eYPjMK8cly5V3c2CXV77um7ILq3nheLakqBCAwoJJUuI/4yAWYGxaDVPm13E7DxQ2rMT38POQ86Ny4I9rI+xMRWSCGOjJrSVMaYEZ7L8wImSRqgGMhcveoFxZOMdw9at9NCnD1naF00NlUQfNeM9Du/cHwe1LZjLJVWqDX2N7qymNy8eyDl9bOQPf6VeCo7UZ0hkdACIbOGC8qcjgOicS4+SFoVcsZ9pr9JfaVvNE0eAbGfTkD+WVBl0p+8JodiTHDWuSEUptycK3bG0PnzckzmvVRjp3GgBdaoJo8YKR8HbzwxgC10ohuLP4Sc1f8I9ZypP4vEaminEuPBqhtK93ejsH2ZXr3q1ATHZu5Q94MW3f49FJqiYgsDkMdWRln+DWsgfTjyzBryj4ojUB126GVWyqOLeiBpVFqZHD1aqHcKnYHY6EcfsQScV7UF0Z1X/hIASv9TDgWBkn37zUWG46rj+HYsBv8lJJQbwH6BfkqoS397DaseLOH+pivTcKGqOtKF6ljvSB0H1RD2T0PKbwNbuYM3IrF9nnB0n1bYeGWWOV+9nXbI6Cpups5s61dUe12zbqPO0qNqm6dqkpoy7ryF46rVQrb+q3x1tKR6OWtDFmWlEflag8baEFEZL6sKNQ5wbdfzojXYa8OQmDXlvCprNMcQtYhMxb7Fs3E/ahrSBdV989sRcS200i6Irr3jCglaibmj5yElOvSSvo2xEzbgThlS1V4dlIKCq8hXeFlJxWu7MTSN8ci4expdcPlcMRM6SeFQbm7tBx8OryT/xxy1w9hxaCOOLzjkLQSj5RF4TiljGitgqeayLfGsf7HQ7gqn3939zx+XLperSx2ldDLv6ZSunv6NxxQSipbpRlOnp1F8/6VhdsrQ/Hxhy+gbgWp/tIv2HPuvrLlyarqzyAisjRW21JnY+8A15q+aNN/MPo0cBK1ZA0y/rcDxy6KFcV1RH07TZSN7NYhbNbvykw3NHXIYDxTu5xSivl5pjZs5ohH3O4jar2bN7yUOj13T2Pt68FIyHXnZfhbaY6UYo4x/375eS6GBHZH98DRWF4i44zKwm/KSHR8SipmXcL2lafUaqFGRZ3f4QpV0eLDd/BBfx8429xF0m+rMWXsj1K41UzMR0Rkmawg1CXj4Fq90a4r1mDT9mhcTpO326Hac93h76LsTFYg467+WVm3kBIlisVAbR8qSA0xcCIV6QnxSk0eO+LV7mK7ctB0JuaSeQvpedOg9jy51YtFhdmRpzgJxRv+cnBLQ/SSMOy5pG7RSE4Xgc2+HkIXvINBDStJ4e8aDoXNxvR5pyBvdbZntysRWTbrbKnLuoPk+KPYsTEKVx9I62Vc4Ca3ABCZjDPKyl2vpKcsao0Yhfd61IStFOiOf/MlVuzNG5NTM9Q65/qt0dBVznPHsWbKp1izQ9M6VxauzmoUvnVNLxESEVkI6x4okXkVybpnWxOZTCxSlC5ZZzjmd+2xbjUg5RXgbipuKhWWriz8xr2FtzvLI1fTEB32KcK25B0RKzubkFN/4/j3mP7GWhw6JypkFfxR110upCHpr8K1nRIRmRvrDnVVn4an0uV1B6ml6PJIZI2W4UKiWvJuu8DAtCU14PNCE6X+ftwpMdDChIpznjpFeTSc9i5Gtq4K2+x/cGjRJ1ihbXUzYH8s1E7rNFzYH40bSjlH5VefR11lypNLOLpfrdPnE7IIW7fLr2klJnbmpSeIyPxYZaizcXCFZ6NuCO7tC/ksncyEaESLL1QiU4nZdVQZCFG2Vm+88dUCeNT1VTd4hqDRgs14qZ48kCIVh7cW06COIijeeeoqoc3cyQhtLP12Zl3DgcWfYo2BLtdcLu3F7pNy6HOCf+hbGNDLXT3vsIIT/EJHYkrnqtLKfcTv/zHXlCc52mJg+zpQesDLV0PbV96Gv1JPRGQ+rCDU+aCn7sX75elMBgWiWzNPOEmvPjMxClt2xOSa84pIl9vME9orO8hLT3GlKZeAKTr1e9BIrX5028Ziw0F53hPAUZ4w+KtI9WevmoKe9atItfcQu3Esdu1WdrFcrw7EgGfEUBDbqmgzOufi/LmW1cGoq+4luY/o2esQLV/Etrw72gx9C/Plfb57HyO7yZccA+6ei0CY/sTEWucRfy1TlCWu1fCsKBIRmQvr7H7NykRKwmkc2LISKyNOIEUeLEFkcvFImNYPC5fvQ9w/93JGzWbfQ/LFQ4iY2Q9rF+8TlaZVrPPUPerUK7djsGLkp1jz2yXckK8JJmSlJuL4ljBMmRiVp1s2RzyWf7UL8Tq5jojI3Dzh6en5ryhTCapduzYuXLgg1opPST2OrCQfi8j4fPDW8vnoLA+ouLof7w6Ziz/VDUREZsG6B0oQEUkqPt0CAz6YhLbKCNlMnD+4joGOiMwOQx0RWbG2mL5uO75bMBWDn6umDJS4GbUYk7/OZwJoIqJSjKGOiCg7EzfjorF57st4+aNduC2qiYjMCc+pMxGeU0dERETGxJY6IiIiIgvAUEdERERkARjqiIiIiCwAQx0RERGRBWCoIyIiIrIADHVEREREFoChjoiIiMgCMNQRERERWQCGOiIiIiILwFBHREREZAEY6siMhaD7ljhM+1ladkbCR6mbg8HyurysWQJ7pc6S5RyDwSNEVaHw2BERWRqGOjJj13D3rijevYUUUdTKuIUMUTSZWuPR7qtojNu9B41EVelgBseOiIiKxLpCXRknuDdqgz5BQzBkWChCQ8XSQ22nIHOzDSm3RVErFsm3RLE08G6C+nWrwNFGrJcaZnDsXOug1yfvYP6mufhqq7zMwsJVIzGof1XYil2IiCiH1YQ6G3d/BA4KRs9mPqjmYge7UvclS48lPTVPa1P6jVhRoocqjcfumQ6Y+FUoutWrivLa39WysHWpiRavvIX3xvkw2BER6bGOUFclAEE9GsPVHsj8JxbR2zdhzcowhIWJJTJG7Ejm5mbaPbWg7S7M6Va8n63ekmGl99i5Y8A7XVBLTm23L2HHoo8wps9EjBn5JdYf/0eqLAu31i9iQFtlZyIiEqwg1DmgQcsGcJJeadqprVj5/V4cjU/GnUyxmcxaxl0RTLQMdStqaAYH/IqmjoBj7yUI3ngW74nBAe9t3INWvX3FvrmVbTYereb+ihGRZ9WBBPKy+yxGfL0SPg1riL1UbjNP5Ozzbgu4KLXe6Kmp0y4n0L2TsjGvhtLjLYjGuJ05+8vPr3voYCnSGJKK5IvS8+ywQHlNuvdp2jL389Mo2rHT034iVm7aju2bFmGYkc9esA3uiRZVpUJWIn6Y/iV+2JuGLHn1yiUc+PBTrD93X1pzgn/3AHl3IiISnvD09PxXlC1TlZYI7ucLp5SjCA+PzntCuInUrl0bFy5cEGvFp6QeR1aSj/Vo5FA3BU2fTMWpqGvwDvA2MMIzFb9/0gC7dotVhTwqNAheYi2P7OvYN80fv0apq3KoeyPAWV15qFQclh5re67HksLmkEi8McgXUu40IBYR7TvimFgr1GvKjMf2t1vh8BmxbgQD5m/FYB87pZwZsxp9xq1XysbQZu4sDHimLO4eX41xH54StSrb5zrg7TFdUKuCtHL3FFYMXI1odRMRkdWz+JY6J6/q0t/0QNqlv0pNoCNTc4afHH4yr+PwykmY1d4LM8YtwzG5Z0/a1vzlBXmC0f1b8Ti2YxGWjg3GDHn/9j0w/7OdSJBbfG2qoNUrU9QdJUlTGoh9pOWTQ+JzJ4cxUadd8gY6BKzEYBHoMpKOImKeeLxewdLjhePYlVSl1SqvvK9p1uRtiJOfn10NNOvXW92t1KsDz6pyW+R9XP6fbqArC7dXQjHnXRHoZOUrwVVTJiIiyw911SqrnV9pmQ5o3LoPgoYMyxn1OnQQ+rT2hovFHwXKI1MKWW/7Y/uacCk+SI7PRMRn+5Aslz19US9XM9kkrO3bSgpYnyHp5CFRdxrpkcOxIjJeWStbzReuSulx1IDfK+2Un3P/4jYsDu4nBUnxeOmHpMebhIhB/ZC77UqH9Jq2T+6nfU33/xiLXUdSlU2uXi2UW2NZ/+MhXJXPv7t7Hj8uNV4rHWALW+X38S5SrykVQIWq6PjJu/igfx2Ul+rjd/2Cs0qydcJT/soeREQksfg4U1aMnHP37wn/etXgojvs1dYB1ep1QNBLLVGNwc6qxP3QEcf0uyOjTiFeGShQFU8V9nStbHFemvSxMnyuW1EMxv/VkW/v4eQPY5Gu1BVeXOQQHD6uhkyNpCuaZGRkP8/FkMDu6B44GsuNOs6oOlx1eq5t6/sjdME7CKznJOW8azgUNhuzFp9BqmaOPSIi0rKeKJORgtg/dmDTmuXqiNdlK7H1wEWkPZC2PemLtk3kTlqybqnIVgbQOMPRTanIoRm4EJkzcEFZ+nuLHYygjS/clNPU4pGwTakpmuzcgc483cAtEdjK1x+MDz58EQ1dgaxr0Qgb/SnW7JA3OsGW85kQEeVhNaEu8Y9w7D12Gcl3xFwNDzJxNWYXtv+pnvHkUrW6ckskh7t0pR9W6LYWY+aPRrv6VeBYXtQVB3XcgZVLQ5boWvXr4IfKNveRFP09pr/xPY5r3pMKlVFZeR/S8DdHSRARaVl8qEtNV+cucXA03BKXknZHLTg4KQMqyIo5esP1SblwD3evKzWSFmgeJKYlSY/F9s+GqAMrNMtGI07SuzteDKp4Ei5NlYIVOo/Lmh7j7H9w/JtPMX1mNG6IKpltb28oDamp13ChsFOwEBFZAYsPdYnX1D/vXWo8DQellJt7VXUgRXZKsvR3P1kzx9AW6rQlt/7CmcNKlaQ3anuqpbjdQ3A4cp86sEIoa1tOlPKhnQ+xHMrVEsV8HUJ8knxbBY2Cxys1pVYxzlP3x1+JauH2ZezfogxJ1lEJvVrVUa4mcffCCZxVK4mISGL53a9nz+Ci3J1TxR99OvmgmqaLy9YJns36oIuPHPXSEHP8olpPVsHRbTQcPcWkvFXawWPsHrzRQ12P2/0FlGyliEWKuB6qW5MpcKsil2rAvuV4tPrqBN7rbXhiX60Dp5GkBLsaaP3BEnjUNTy5sWobov6rnhfn2HA0xny1BN4tNaNWfeHYYw56rtkMP1FjSgNeaIFqchdo+Tp44Y0BaqWRpH67H8flFjjnhghd0Bf+jdU+b9vqPuj16Vh0fEpayUrE7rX5jgMmIrJKlj/5sMShXk8EtXbP55SlTCQf3Y5N0VfFesng5MOmoJmoV6wakHJ8GVaMm5lr5KnbjBN4o2U+kwnfSkX6k85wvHUIS/sG64TBHPnf39Dkw+3g9+UC9KuX3+TF+U0+LIXRjV5YvVhUa4zYow7mOB+OGSGTROXjK87Jh2W2HYLx8eiGMHwU7uLshgX4fK1+Kx4RkXWzioESd85EYPXGg4i9cQfZ8mhX2YNs3LkRi4MbV5d4oKNSJvse0pNOY9+isVioF+hkSdMGYvWOWCRru1LlyYiv49S2mZg7aIc6t91DyPdfuu00km7pX5bLkH04NbIHFi7fh9ik1FzXYM34Jxa/Ll+kE+hMp/jmqVNl7V2Lqe9/j0OX/kGW5hhk30fqlVPYNH82Ax0RkQFW0VJXGrGlzhQKaNUiIiIyY1YzpQkRERGRJWOoIyIiIrIADHVEREREFoChjoiIiMgCcKCEiXCgBBERERkTW+qIiIiILABDHREREZEFYKgjo2HXKxERkekw1BERERFZAIY6IiIiIgvAUEdERERkARjqiIiIiCwAQx0RERGRBWCoIyIiIrIADHVkdO19NmFPv53Y0/sHbG3zH4xxrCi2EBERUXFhqKPiY2MHx8r10KvjYnzoJOqIiIioWFj4tV9d0TI4EL6FCRQJBxAWGSNWip8lXvs1twrwdOiFMQGvouGTQGbcN+h+dJ3YRkRERMbGljoqJrdx+c46vHPsT2RKa3aV/w/t1Q1ERERUDCy8pa4gLvB/MQiNK2Uj8ZfViDgjx4+SYfktdRohWNIvEN5p0Zi1+338LGqJiIjIuKy7pa52M/hVkm7TYhBVgoGOiIiIyNisONS5wN+/FuyQjcRjfyBZ1BIRERGZI+sNdd7N8KyLdHvnLxxhK13xs3fEU6JIRERExmeloc4VLZvVgo1UuvpnFBLVSioWf+DydenGth561x+IlmUrqNVERERkVFYZ6uzqBcBHnubkTgz+OMFWuuL1JxZGr8P/UoFKT7+KD3vJExNvwizOW0dERGRUVhjqXNGskTtb6UpQenY60u/eFmtERERUHKwu1Nk1aKlORsxWuhJSAUPqv4pm1Srgn7++wXvbuqLj5kC8lyY2ExERkVFYWahzR8Cz1ZQSW+lKSi80qm4H3P0TG06uwx/ZopqIiIiMyqpCncOzzeDjIBXYSleCHGFnK93cz8Q/akUBfDBswVZs374dW5dPRGeOqyAiIioU6wl1Zdzh34CtdKVe+4Ho8rSdUrRzb4tXx/grZSIiIno4qwl1DvV1WulOsZWu1LoQjySdt6di9WdFiYiIiB7GOkJdmVpo2Vi00p2IRuIDpUilUdxyfLkzHozdRERERWMdoe7BRexaGYawsDBs/fOOqKTSKmb/GdwU5auXo0WJiIiIHsaqBkqQCTh5wk2+fZBZiNa3iqjTagCmT2oLpV018zx+2/CnsoWIiIgejqGOikkFeDoMxKfN/OEorWVe+x8OqhsMaz8d32//DoveHQz/anZA9k0cWjwZy+PEdiIiInoohjoyuvY+6qXAVnR9FQ2flCoeJOFg7CZ1Y0Hu3kT8fzdj7pCX8fEuXoWCiIiosJ7w9PT8V5SpBNWuXRsXLlwQa8WnpB5Hlxzq3vu/CkB2JtJTzuPn6KlYeIcBjYiIqDgx1JmIJYc6IiIiKnnsfiUiIiKyAAx1RERERBaA3a8m4l63CW7e1MzGVnwqVqxYIo/zqOo8VVGUiOhxnP+79P6eE1HJYEsdERERkQVgS52JaFrq7t27J2qKh5ubG5KSksRa6eNTs6ooEdHjiLl0TZSIyFqxpY6IiIjIAjDUEREREVkAhjoiIiIiC8BQR0RERGQBOFDCRCx6oMTQ7zC1p5dSTP51OpbM3wW3KT9hWFPl0v44tqIdIiOUzeY5UMKlO2q92A3PPO0BJztRJ7t9AnumfIAUsZqjN3ymBsPP1Q5ZyVE48PFcA/sQPR7tQIm2CzFqbBO4SMX759Zh9qQvcv1OJuweg1WLjyhl03kJizt0gbdY07r2Ezqf3CBWiKio2FJHxpeeifuaYsouUdLIRHaaKJqj8r3RaFwImvjqBbqHadoYtaRAJ7N1bYBaTZUiWaOnpHA/bgVemL8ItUSV0aXo/P6l3hClHPczTB3oiKi4WEmoc8HzL0/GZ0vWYP369dplzdKF+Gh4Z/g6iN3IOK6lIV0UNZL+ThYl81bhxd6o4ywVsm7i/I4vseWtvtioWQy20kkOH8XF5EylmJV8AhcPK0Xr0HcR+n++Je8yPxwvTPsMPq1bix2tRPW6qOFZEfbF+S/v8eQ8v3+4cKN0tg7fPonZe19HZ83CVjqix2IFoe5pDJqzCKN7NkR1F1tRp7J1roqn2w7F5I+HoqGoI2PKxM3roqiViuRoUTRDVaupV8C4cfhzHPtpD7KVtYJsQ8zHQUrw28auV1UZO9hXqg2/fm/jhbdDYC+qybjSb54TJY10JF8SRSKyOJYf6voNRueacphLwekN8zF+6AAMGCAtIycjbFcc7khbbN3boWcPZe+iaxyKT/8zDm3Z2pfjgqalTqerVdslK9XdVgpmqDUqlFdLDzJPqAUqHPl8Q22r5nj8uGo7zovWS/ua3fFc3wZKmYzhBm5mqCVtV6tOl2wh/xIhIjNk8QMlnp+wAqObOCDrf2swaEakqNWojtDPP0M7NyAucgAmrxHVReKAtuM+w9Daf2HFxPnYL6fEQrDsK0pMxitbesJLinaHF3TBzv1Slfbk7ThE9n0Zx9Qd8w6UeDoYPt06wrtGRdiLhtXs1ATEHd6BEz9sz/t9VL41qge9CL//yznHLTvzNv756wCOfrsMaXfVOlVvNJr5GupUSMCRt0bj7/ZT8Vzb+qjirN5RfpwTW/+D80cvKOt5ae4PXD/QFwe2iGqDcvbNJd/BFDoahKBRtzbwqlYBNvn82ZXz+AU8J7n7s40HcGUPNs77UlRKRP3t06uwY9nvqNBxBJp1aIDKcmh9kIm0hN9x6Kv/6B0/WTVp3xA0bV0flaTjZiNXZd3GjQsHcHiV/vGWaB7f4OtugmemTkUDV6mYHKW0YmapG1BrwhY0qX4b5799BcdOS+/xK8FoVK+a2m0pPV5S1Foc3Lxd3TmX2nDpPxJNG3nApYJ4X6XPw/Vj23B43fcQWUdP3vvgwW2kxJ3Anzu+wfW/rqp1uRT+OLiEfIuOvvofBEPE69XvnnfpjjqD+6Oe7u/E3Zu4cmIPTm9di9visXKuKDEQXVePQlMn6d+1iOfx7Qq5zsDvZD5q9BuPTwN9UCHlKBZO+Aq7CvlvWtGIgRJy9+vvn+NnUUtEj8fiW+qOJan/0Nl6NEbnykoxh3cXPKPUXcOVP5WaR3AH++ePx4oLT2PQ7FFssVPMxrd9n8fHfXW+PPaPwRdKXU6g02ff7TO8MFIKaLVzvrxkNs4eqNO+GzzFulbNEARMexsBDXMPWrCxq4Aqvt3RZdpn8KwpKnOpCM8xK9ClVxNtoJPJj9No8EQ8o3Mf+Qs551ywnJBWpY3O+WFiadNX3fZYnpuObkOlL/Gn8g90xlTBqTaqhH6Gbi+IQCcrYwcnz9Zo/+ZI5D5hoRoqD/1E2lc9bkqQkdlWQOW60vF+d3rOzyiUI7h2VTTblq+AvLFHqvN8EY3eld5jXxHoZNLjubV+FS176bfuNUGtcZ+gY0sppGnCmUT+PLg9F4wuE0Ya6OaV7jMh731QpgJcagegTZ/+okKXsY/DQ9QciTZTpJCv/ztRXvoMP/cimnYVFbmsw87B8u+aJtDJDPxOGuSDoLZSoJOPdaXGCHrdR60mIrNg8aHuzpoI/CE3Dzj7YujCFZg9vAcauldHu5ffx8KpnVFd+ocy5cgWfP1YvWlqsFtzjsHukflORZsutZUv3ax/zuLIug/Urrp3P8CP4XtwMfm2XitdE9QZ0B3V5S/Puwk4Fv6xOmhB2v+nHSeQIjf5lK+NRv1eU/bOTQp90pekbdZNxGxWH2fL6ijcUJqJqqFOh+7KXo9nG45N0XQ3SsuBBFH/MB3h162BEm6yrkZhn/SZUp7b/LU4dVXtqsQ/R/CTVPfwVsIikMJbm3rSI96WjqFyzIdjxy8JSouZrWcT1K2r7qZoI4WrBvI5hbeRdHAVtr0rv7bx0vvzC5Lk1iLnBggYGqzsWmTSm2uoV9CtdbAyMOX25V+w75Ph0vv7Hxy7Ih8LO7g17JUrCNoHhaCJpxTMdAex6HwebKt3REBQE7G30PJF+FaX73MVpzSfIeWYL8PB/15AmqFWqiIeh5Rlryg/U1m+PSHdSya3Fos67ZK3la5K99aoIv0bpft5ULuvv8epCzdxl12pRKTD4kMd8Bvmj5uPXRekf51tHODVdhAmz/8MoT19UVU+z27rRxg3b59ybt3jkYLdF+9qg93zopYKoxo8OzeBk1TK/vsX/DRjMi7+V6TsuyeQEfUljnw8GZfVGpX0ZVzvKblwFSeWjMb5qCNqKJD2T/vpA+z58azS1WZbszmeUfbTkyV9qX4xFKd+UR8n++hcHDunft1WqJwz2USuL+S3VuG8aFiSuzpz6tXlsYNW3eaoLk8uJr2mU5/PxY3Lajdw9uXvEfP571DGnFTywFOGXs/jSDmBfR9Lx1A55ldxe/MeXFZeZ0W4aENdAzzToq4Sum9E/QcHN25DltLtd0F6f6T1JVFK16q9VxNUl6sLpSM8qquxLOPvU8hvppu0E6uwY/5/cOPqVen9/QXn98WowahSNeQ0vkvhrGE16TYTF398N2cQi+bzsOOCElQr1+2Wu0WwSgW19e7WBcRpPkOS7MvbkbRuPH76UqfLWlEcxyF/jo5q6+HtuL3az4PyWMfXImbhUPzxg6gymhiE75eO7wOp+M9RhH8do1YTkVmwglAnuXMOZ2Ov4Y7+X7X2FVClhpdR/vHNpYxONw4VQjdUd5dvM3H5t//kc95Tbk7PeChfrNmXjuCcodF8B6JwRfnml774DZyDfz3qY1zUu19K8k1RKoVcbIvnlzXzAg7O+QA3xHlZqm1IESe/2Wj7FluhqpyZpNB3+QcD85xdOosb8vG2rYaqBc7DVxv2ASPRZFoIfESIPbf9e2WLvqy/tuGnFdvEmnBY+l0WRe3Ta+iHqnKr7e0YxB0wcA7czxfU8/mkIJjrLM5zV9Uw6RqAjpOmonqDggZsGPM4FCz5qvqZdHnubbR5LQRO1ZQHL1bxmz9D0MsheGFkcZ1PZwT2HujYswte6xmAZ9UB6TmkY9+6m7St3/NoWknUaTzhgqad5W0d0LFmWVFJZDmsINQ9jUGzFmF0Zy842NxB3K5FGD9jA44nKR1MqNpkEKbNGSTt9bgc0HbUJxjqm4g1E+fjN1FLhdCwlpxZJNfwz0GlpkDOT4oWnnTNyeH6coKJnaHu8H8NnfxuYmfPIlkJV9Xg99ZEVPasrVTb1AuG32tN1FaplAT8/bdSbRxZ6cjIFehUF+fptT42rKq0pMrPrdEnuc8lVBcDg0J0VWiAjtp9P8MLQR1Rq5L0x8+Dmzi/ca7hYC7JzDQUtL/EAaV1dDQuihp4VlJb4KTHaZfreWmWjqii7Kjn9Mc48NMF5Q8J+6eaIGDodPSf9y3avTkRbvXU45/L4x6HIkpb/SX+uCSnROkP0Iby+XpL0HfGEjQZGIwKSiC2TjY1qsND/tvZzhm13OUr1ehw80Bt+Xf+CUfU8dJLdS5Poab8Bj5RFh413NQ6Igti8aGu+tDh6FFbTgwpOL5kFCav+A1X/rcZs98Kxfyfr6jnDtXsgeFDH6e9LifQrRg/p9AjYEl4hD+YbZ4QBYvyPY5HJShdgLbVAtBu3GdKUOgb+iJ8qsnfYLdxfseyfLspi5WRGzWUEamn92DPjKE4djC/0cZFoG2yK7qMHePx44fLcOR0AlLkgKsMeAhAy9DP0OXN19TuWY0Sb9w5gsv/eQVbVu/B+cs3kfFAeqnO1VDruRfRbdoKNGmvd46glciOv4IE+dTKzFRcTNSbajkpAfLZNvg3Hefj/lHrNFL+xiX5F+jf+0iIL+lZAYiKn4WHuup4oYEa1rJid2F2rrR1B38sXYKD4ve6und7tVBkDHSPTdudVgEVdE/Mf4jUNKVvFfaO+n0vGr3horRkZCJd79/1Uqt8MBoGeMAm6yaS/r6NbPm8Jpk8xcjfRxD15Xgc+28RWxifUJpAH5/2PTJ0gr/uYmBKDlmueer6YsvEV3Bg2Zfa1tTHFv+Pep6d3uPkXXRa93SlbMfFZaOxRx708MkqHDl7U/mDz6luNzToqO6ieNzj8Iiyj36JY/OH4sdxw7Ft3R5c/EdKNGUqola3YFhle1NGAvZE/IRVEVH4U78xN+sqftkhbdv8Gw7r/+7/m4LDu+Rte7HnknbmPiKLYfGhroL4Mzsr3VA3zl+487jTxPkPRV8fBrrHcxI3lH98K8KrY+FGT6Zcvqq0aNm4N0cdQ9OWdGkNT7kbLCsB1/9Qq0q9rgGoVV76vordhoNzXsGWcSIgjAvCT3M+xhWD86VJ4UN8hsvY6Z0P9tx0dGlprHOwNO+RB9y6Ff95XUV2+KI64rlCDXj4qlWP7Oo2XPzqXZxSurntUNlTdzT0Yx4HbY6whe0jDXi5iqz/fokj88TAGfncPSNfDkeepy78u2X48cs30Zkj+YnMioWHuj9w6rKatBzqB+Gjl9vBSzNcrrIX2g2djXYiEFyJfcTpL6O/wNhRDHSP5xec/Z8aWOyffhHdxk2Em/aEdXFS/dTZueep++l3XFa6yqqh0fBFqBPQRO2BK98AlXt9hi5daitzrN0+84u6nxmo4KSejGVfPQDVG7ZGhbriNT3UL7gp+mMrN3gV1Z+Wg0ZtVOgyG12CGsDJaL/hvyD2rPoeVe/yGVoODIaLOOdPeY8aBqNOyCJ0e3ukqCtpOxAbJ/fHVYTPayvQpNeLsNcMKpA+E/YBIfAbswLtXuut1gkury1BxzFTUT2gNey156jJn7lX4SlPiixJuaI7yfFjHofjInyiGuq9lnPepGG94ffuCjQbHILKup8Flyao3KculKebdRU3jiu1RsJ56ojMmcVfUQLegzB7ag945ToxJresC5GY8d4a/CXWS4JlX1Gi8HKuKNEEnm+/jWY18zvLXL0KRK6uM7kl6iHBJevyHvw0/0ud0bSPePUFrSJcUaLpdHR7RZ1z7mFy/Zyab6Pd2NaonF8Qy7qNlPgjOLz6P7m7LfN9rEwknUmASz0pbORzRYlCXeFCS56odyKayPO65ccoj6O5ooR0N+WKF3qjX/NTXnp/3pXeH2exboD+zyvoag9Z0uv5SXo9uUdkP8Jx0OEyVHrMBoYeU/+KEvlclUQrU/r8zJU+P+oo3JwrSjwOH7yzcDzailElVw99htcXFce0JryiBFFxsPCWOknsGkwevwiRR64gJUP5E1mVnYU71+NwPGIRRpdwoCND5BPCx2PHj0eQ9I/O+WSSrNQExPz4fd5zof77AX76ahti/r6NLJ395ct9nf95GX7MFejMwKVfcC5OPVdQPo8uK1NadF6XfAK/S+3W6DhO74oFhz/Avh9O5JqWJOOfCzi2+l0cPJKunXvt8R3BxXnvYs/PJ3A9NTPXz826fRNJp/dg3+qNosYE7m7DsU/+gwP/vYCU22KyZpl8LFOv4uJ/v8cv3+cOiCnfr1UHSEj753o9ms9QnkAne7zjkLJiGvYc1HuOBm3DiU1igITurso5lidwRHp/NYHOeDhPHZE5s/yWulKKLXWqPNd+tWLaFpzUEzgw/wNcz9WsJXepjkTrbtKttHZlR19E/aRuIZIZp6WupLCljqg4WH5LHZFZ6I1aop/txolv9AKd7AJu/5KQM+luOVEgIiISGOqISoUsZIt+vMpN3kadgADYartYxWCRCc3VCXSzEnAlWtlARESkxe5XE2H3q4rdrzns+y5ClzYeyqjd/N3GlZ/+g6gdxj6XisydWXa/ijWtaz+h88kNYoWIiootdUSlRMaW0fhRvnKAPPBD7xx6+QoMN85G4cCX4xnoiIjIILbUmQhb6lRsqSMyDvNqqSOi4sBQZyKaUFfcKlasWCKP86jqPJXfZb6IqCjO/116f8+JqGSw+5WIiIjIArClzkRq166NCxcuiLXiU1KPQ0RERKbFljoiIiIiC8BQR0RERGQBGOqIiIiILABDHREREZEFYKgjIiIisgAMdUREREQWgFOamIhlT2nSDrM6TUIzJ7GqdR4bN4/EErFGRERExsOWOiIiIiILYD4tdVVaIrifL/I0/hiQ+EsYIs6IFQNcmwcj8Fnxk9JOY9Pag0hW10qMdU0+HIIl/QLhzZY6IiKiYmN9LXUu/uhQvzDRkIiIiMh8WM45dVJYC3qxMVyyE3Hg2wjEZIr6XFzg/2IQGlfKRmLiTbi7u7KlrkSwpY6IiKi4WUxLXS1/P7hIrybtbFQ+gU7OfV2kQAdkJ0Zhb2w+OxERERGZIcsIdS7+aFbbDshKxNHofNrcHBqgbUMXZZ+ovadxR1QTERERWQKLCHXezz0LKa7hTuyRfFrpHNCgSwCqlclG4n/34jQTHREREVkY8w91VVqimZcN8OAq/vw9UVTm5vBsZwRUFd2uTHRERERkgcw81NnBp5mPMs3JnbN/4IShVjoHX3RoUo3drkRERGTRzDvUVWmGxh4Pa6VzgG+HALjbstuViIiILJsZhzo7NGihTkacXyudQ70OaOZuw25XIiIisnjmO0+dexsM6ukDhwdXEfXNVoOhzqdHKNp4iJVCKOhKFMbEeeqIiIjImMy0pc4BDZ6TAp1UyvdcOjJTPhi2YCu2b9+OrcsnonMFUU1EREQPZZ4tdR5tMKjHw1vpClSvJ0Jbu/OKEiWiCC117afj+3f8oclyN3/9AC9/Ei3WiIiIKD9m2FLngAb+opXuHFvpLM6FeCTpvKcVqz8rSkRERPQw5hfqardEk6rSrTziNdrwvHRkxuKW48ud8WBWJyIiKhrzC3UXdmFlWBjClm3FiccZ0HomAmHyzzFB1ys9XMz+M7gpylcvs+uViIioMMx4ShOyPBVRp9UATJ/UFtXk1czz+G3Dn8oWIiIiejiGOiod5AES27/DoncHw7+aHZB9E4cWT8byOLGdiIiIHoqhjopBO8zqtBN7+mkWeeRrId29ifj/bsbcIS/j4123RSUREREVhKGOSoefP8CL3buje+DLCJ2+HPt5oiMREVGRmO8VJcycdc1TR0RERMWNLXVEREREFoChjoiIiMgCsPvVRNzrNkFSUpJYKz5ubm4l8jhERERkWmypIyIiIrIADHVEREREFoChjoiIiMgCMNQRERERWQCGOiIiIiILwFBHREREZAE4pYmJWPSUJkO/w9SeXkox+dfpWDJ/F9ym/IRhTR2lmkwcW9EOkRHKZlXbhRg1tglcEIfIvi/jmKgubvYvhWFYkJ/0uOk4Ff4etm44Irbo0T6/3FIOf4EvZq4Ta0UxGa9s6Qkv6XEPL+iCnftFNZnAQHRdPQpNnaRi5jlsDBqCGO37I/l7Pz4dMQUZctlkmuPj5iFoVkGsatw+idm/f46fxSoREVvqyPjSM3FfU0zZJUoamchOE0UTq9dcCnTyb0AZR/g176RWUinSE40++B7Dw39A17aiyuhuIOOuKN5LQ4ooamWkmTjQEREVnvm01FVpieB+vpD/oC5I4i9hiDgjVuCKlsGB8H3YHRMOICwyRqyUDItuqdNp2YqLeB7frpAK2tY7A61Tpb2lTk+j+b+hR61iaKnLp0UQDzKRcSsRpw5sxp5vNmkDs+UrmRZNzfuJtCNYPngMknRb7y5G4ONxs5X9TEfTUncZG/dOx1JRS0Skjy11VIwycfO6KGqlIjlaFE0sY0Movgh8Hh8Hdil0oDOJMnawr+iFpn3G4a2wT+Gh3w1HxpGet6Uu/eYlUSIiKv3MJ9RdP4i1YWEIy28JP4qUB9J+WYn467x6l9zScHqzgfvJy+O00jUOxaf/GYe2DmKdgAtpSFcKOl2t2i5Zqe62UqB8yS2WUthUlhfx6XvLsDNWPaL2VQPQ562BSpmM46b02VRou1pzumTvy/+mEBGZCYtpqavlr54flXY2CjHi3+gScXQNfox/GkPnMthpXU7L20V4TRP0HiLtBv7GM3ALXYlh3/6GqVvUZdSCmfCqLPbRkrvI1O2vDBVVuuTuXvn+8yeLCkFTr7cY/BnGUDkQTWf9gLfCcx5r8rou6kn4hZKIjDOrcHjCEHx7Uv1gu/i1zX1/8ZpGTZHDnjtcAhfiNc3x27QPw+d9AFeDrXviWK/ep/PcfsKAUa9BHtJimPzzP8UrK/ZhsriP8hgLFqJRq2fEPgbUH4W2C37CO5ty7vPWojD4NXcXOwi53h8xWEF6Nk3HaupyFsPvWd7XNHXTTxg2S/oM1dd7LCHjnv4/GLtwq7B/eLQahq9XLsOPK9/H0KdFHRGRiVhGqHPxR7Padkor3dHoZFFZUu5g//zxWHHhaQyaLX1xMdhJZuNbpZVJ5zyo/WPwhVL3sHPmnNBwXhiGdZW+mHVCiItnW7wybyHcxLrZ6LAQw5eOQ9d6leEofTw1ytrrrBRaIuLiEtWivSMqqqVcXFyegdf7KzHqlSY5XbRl7ODq3RmvfTgZ9qJKFYBGmmPtlPN8yko/27tDCIZLYThvsHOHxxT55wfAq6Idyopa5TE8m6BHyCjD75F8HD4ciJaejrDX/Isj3cfRww99Jq1E1w6Gw1bRSa9pft7XJA+EcasnfYaGDBYVuSXN7KK2iuqcO3dsnNpSWtA5k0GdGqOafGDtPfHCoB5qJRGRiVhEqPN+7lnl5PI7sUdKtpVOSw12a84x2D0Wp2fQ1NsOGdeOYONHQ5Suxy++PaWe51SxCbqGNlF2eywrXla/wJXlCxwurpG4FUah/xtN4Cr9hmVcjsL6OWPUx3xlDD5ffASP+6dHlrjNRQpvrzSWolhaHHZ+IT+edPwi45QuRXvvFmjeUN1N5jhiHHpIxxqZN3B43WzMFs9tybojSJJ+h+xr9UT/EQFib8EzBB2VaWnScUy6z6eviOM4egpWbT2CuJsGfvkqhKDHEPU4pMfuwqrRLyr3mT1B06XsiKZDPoCXJoTmen8iEKdUygMlNHU5izIAR1fX19CmlvyaErF/8Tvqa5KW2RPmY/3ec0gusKmYiMi8mX+oq9ISzbxsgAdX8efvoiXDICf49gtFaKi6DHt1EAK7toRPZem+RiEFuy/e1Qa750UtFU3GxQgsCR2DmKPnpLVEpGwKxfpDN5RtHnXNZ9oRl9DO8JEbi65FYdXYdxD7uxiIcfsI0ncnFtwVnYc7/OqKTteEc4hVS3ndOIJVb76Mw3vlx5OO3/IfcUoJrpXh9qx8K5PCTwu5dSwTx74djp0bItTucum5JW8Yg+XrzilB0OPZwNwjcWtXVlvvMhJxNjICGZouyoT9SPhmDL6VXqf+OGv7VzqjkRzY/t6P5ROmIyFB/R29Hyt3KX+I/X9LKxX80NQYjVzujurzu3EOx3dHaU8BuB+7CbFfDMGSacYfxRq++yiuygcr4zJ+XBOpVhIRmYiZhzo7+DTzUaY5uXP2D5woQiudjb0DXGv6ok3/wejToDATpRRBGZ2uHyqCOOwdNztP4EmO+Vs9gd3V3Uy6YN3hXVM9CTDhz3WP2SrnDvvmIWg5byX6KKesSUFs1zLDc6dlnMP6sWOQkOt8sHW4Kp5AWc3fLy0ao5YctNJO4s8IA38IbT2rhrOqT0Ge6UMr+pzSigf7Z9BnwUo07RSQ0wWbD29vtWs17uiXBoJsFGKvqLVuTxth8MeJv9Vj/VRbDFvwKXyaG6FltyC/LsfrQ0LwwpCPsOIvUVfaPOGCpp274LV+rdDaQ/8dc8az7TtI2zqgY61yok6jHJ5pIW0L7II+vs6ijohKM/MOdVWaobFHQa10yTi4Vm+064o12LQ9Wj6fX2KHas91h3+eycGKygFtR32Cob6JWDNxPn4TtWQEaffUEFPOKe8cbqVSG7gqJ72lI+nso0yV4oUe2gEB3+OdSa+hrbfcBpWJ2MhPEGkoiMmy0pBu4AR/zflh2u7Kpyurx9GpCV7TPo7uohmgoOf2F9i4NErtnq38DLqO+BST5UEI8xaiUQdDASoQbmKAi1eP7w08zm/iKiNGcvgdfLvhnBIeHT0D0H/SQkwN/wmvfTAT3o0fMojD0lWpjjry361POKC2ZxW1TsOpKmpVlILeE2XhUfMp5O63qIJaT6kh0MWzOvKMVSKiUseMQ50dGrRQJyMuaisdsu4gOf4odmyMwlV5yoIyLnB7St30aHIC3Yrxc7D/jqgm47pXiBG0pU22uH0cmVI4PLMf3057GeuX61+h4xE8zhkHe9/B8qHT8e3eU0iQz6GTByF4N0GPUQvxzoKZeqNs7VC2oKY8I0tfNwSfD5uPyMNxSJIDrp0jPBq2xYD3V2L4B6MMDP6wAtev4Lz8B+y/d3Dhst7EkWnXcPHmfWnbfSRc+lvv43odF/9WO7FTLl+BehIEEZVm5hvq3APwrNwXV+C5dA+ReRXJjx3AGOiKXW3RsnQ3s/ChzqRd4Jm4r3wXOsKlplKR2zNOeiNR9enOUyctQV2w/L0piDv5iJ9zfRduqINP5Cso6D5OniWfkcq3dyHui1CsGtoOHw+bjfV745T3xd6zLfoM66zuo8jp+pWvLGL4MdTl0a7MkY8bm3Bs5stYLg/kGP0FIo/fUFp6XRsGomOguotV+TcFh3f9hFWbf8UvCZozDTVS8efPe6Vte7Hn4j1Rp3EP5w5J2zb9hK2nU0UdEZVmZhrqHNDgOR/pv4/QSqer6tPwVP50v4PUW0pN0fkPRV8fBrriE4DmTdXOwOTYAzoz/udMEFvWXq/rT55Co5uxpsl4FJuQIBpEPOqEqAWNCgPRdXJb054buF+cG+fkBZ+matUjuxGB2C9exsaj4tw4j8bKrcbFBM0gl3HKbVGpEcQONo962mvCOhybPhz7L8srdvDwNnKq4zx1RFSKmGeo8/DHs1Wl20dspbNxcIVno24I7q1232YmRCP6URtBor/A2FEMdMbhBPeegXAUJ++U9X4NTed9iI5y13hmHA6GR6gbFLuQJBKeR/NR8FEmln0GLi+FYfgIdQoNU4o5fk4JJPb1+6PHSz1RVh7w0OEDDPhqFJoammSuRG3G4bNyqquMlhN+QI9XX4OjhwjBFZrAsdM4tJ31A16boDd44dWVGLVgIZrK75Fmf2Ugxzg8W0vt2Ez++6hyq5Hy40kkSLdlnwnEW/NmwrtFzuCKslLA8g5diFdWrISfqMvtKJKuybd2aNQ3rMCBD24TvsewWZ/Cp1Nn7WdI/kw4dhoJP5Giky5uUgtGwnnqiKg0MZ8L+ms5oEHfQQiQQt2dmAisOVBQGvNBz9A20lePYZmJUdgSeUK9xFgJsugL+hdVfhey10rHsW8+ROTWKLEu5Hu/TMQejYNbY+kLXe+C7NqLtz+M9sLuKrcpPxXihH65y1S3u7In2oZNRkv5jw89yb9/gcPVRqFrrfwu6K//swogX4Whp1ee5/1QcovhoocHzJTDX+TuFtU8Tn5uHsGq0fqjbwFH6X7Dpfvl3+Wc/+u1f/U7jOpj+L5yl67uXHUFvU/KdDkGRlc/jqAZizHoaVulnPnXVvSbVhzTmvCC/kRUOObXUle7JZpoWuketXktKxMpCadxYMtKrIwo+UBHeqJ/xI87jyD2WjoydLvStQMEhuQNdLL9Y7DqmyO5QkT6tXPYOT8U6381cKmyEhWB/ePmKxPsaq4fev92Ig5/Ox1L5qwzyviJx3J7HXaOlgc8nENSms5Bf5CJjJuJOLZ3Fb5doneeW/g32gESutdEvZ92A6ek/b8wEOhk6StexufzI3D4svT+6t4vQ3p/Y48g8ov5+QbYjG8mYPm3UcrExgW9n0lLlqoDJKTXo7tvxs04HN46H58bOdDJOE8dEZUmZthSZxnYUkdEhcOWOiIqHPMd/UpEREREWgx1RERERBaAoY6IyCx4on+Hr7FLszR/C+3FFiIiGUMdERERkQXgQAkT4UAJIiIiMia21BERERFZAIY6IiIiIgvA7lcTqV27Ni5cuCDWik9JPQ4RERGZFlvqiIiIiCwAQx0RERGRBWCoIyIiIrIADHVEREREFoChjoiIiMgCMNQRERERWQBOaWIilj2lSTvM6jQJzZzEqtZ5bNw8EkvEGhERERkPW+qIiIiILIDpW+rKOMH92WYI8POGq4O0nnYam9YeRLK61QAHVGsUgJZ+taT9bZSa7DvJuHjsAPafSka2UqPLFS2DA+Gbp9VIR8IBhEXGiJWSYV2TD4dgSb9AeLOljoiIqNiYrKXO5klPNO4QiEGvB6NnMxHoCmLrjpZBg9BH2V8NdDIbB1d4Px+IwV19pMhHREREZH1MFOqc0LhzN/h7u0ohLBPJZw7gwJk0sS1/ni27wNdFKqRfxsEtKxEWFoawleHYFaPe166mP/zdlaIBaTi9Wdpfvo/+UsKtdERERETGZqJQl4Y/zyYi7VI0ItavxKZfYpCct980j8sHfkJM4mlsXbcDp69lqpWZKbh4YD9iMuQVB1Sv5apUExEREVkTk3W/Zp6IwNqdR5FYcANdjgeJOBBxEFcfiHWtRFzN/yQ8IiIiIotnIaNfXeH6pFrKzrynFoiIiIisiGWEOg9f1JJHtz64ijN/5tf05wTffqEIDVWXYa8OQmDXlvCpnDPggoiIiMhcmX+oc/BBz07qqNe0kwdxQpxqVxAbewe41vRFm/6D0afBw+Y7ISIiIir9zDvUyVOc9GoDdzsgM+EAtv5u6MS6ZBxcqzfadcUabNoejctKo54dqj3XHf7yqFoiIiIiM2W+oc7BE20Ce8L3SSnQJUVhy44Y3BGbCpR1B8nxR7FjY5Q66KKMC9yeUjcRERERmSPzDHUO3ujctxt85ECXcBAbI04gJc+I2ELIvIrkQidBIiIiotLL/EKdky96BnVALUcpk106gPDI00h7lEAnq/o0PKWfA9xB6i2lhkzOB8MWbMX27duxdflEdK4gqomIiOihzCvUVfVHYP+Wyjl0dy7sRfjOInS56pAvK+bZqBuCe/tCHiKRmRCN6ER1G5lY+4Ho8rT0Bkvs3Nvi1TH+SpmIiIgezmQX9Hd9PhiBfgWNOpUv7bUWB6/LZRcEDAhCAzEf3cMk/hKGiDNiBT7oGdoG+V09LDMxClsiH7H79jHwgv758BqGRZ/3Qx011wEXNqP7qOVihYiIiPJjRi11ZWFjrGeblYmUhNM4sGUlVj7q+XhUPOKW48ud8SjkzDREREQkmKylztqxpe4hfN7CyvmdUU0qXt3/LobM/VOtJyIionyZ5+hXslAVUafVAEyf1FYJdMg8j982MNAREREVBkMdlQ7tp+P77d9h0buD4V/NDsi+iUOLJ2N5nNhORERED8VQR8WgHWZ12ok9/TSL3PVaSHdvIv6/mzF3yMv4eNdtUUlEREQFYaij0uHnD/Bi9+7oHvgyQqcvx35DV3wjIiKifHGghIlY10AJIiIiKm5sqSMiIiKyAAx1RERERBaA3a8m4l63CZKSksRa8XFzcyuRxyEiIiLTYksdERERkQVgqCMiIiKyAAx1RERERBaAoY6IiIjIAjDUEREREVkAhjoiIiIiC8ApTUzEoqc0Gfodpvb0UorJv07Hkvm74DblJwxr6ijVZOLYinaIjFA2ExnRQHRdPQpNnaRi5jlsDBqCGEzGK1t6Qvk0/r0fn46Yggy5bDIvYXGHLnmvhXztJ3Q+uUGsEBE9GrbUkfGlZ+K+ppiyS5Q0MpGdJop59ESjD77H8PAf0LWtqCpF7Ht+igFhP2HyvMmihgrNMwRt5/2AtzZ9h0aiyvhuIOOuKN5LQ4ooamWkmTjQEREVL9OHujJOcG/UAYGDQhEaKi3BLeEqNhnmgGrK/sPU/aVl2KBAdPBzhY3YI1/KY7VBH+kv+CHDxOPJSw8fsQMZxbU0pIuiRtLfhblCvy98G7rD1a6cWC9dXBrUh3dVR5Qt8IMmkVsrt/yWd9m0D2+FrUTLHp3Fjlaidn34eVeGY7H+i7MLt26LotYlJOf7R4QJ3T6J2XtfR2fNwlY6IjICk4U6myc90bhDIAa9Hoyezbzh6iA2PIytO1oGDUIfZf+cb1YbB1d4Px+IwV19pMhnmI27vxQE5cfyQTUXO9gV5ouZHlMmbl4XRa1UJEeLojUqYwfHqs+g7bAP8NaccZA7pKkYpOdtqUu/eUmUiIgsk4lCnRMad+4Gf29XKYRlIvnMARw4U/Cf054tu8DXRSqkX8bBLSsRFhaGsJXh2BWj3teupj/83ZViblUCENSjMVztpZjxTyyit2/CmpXSfeX7y0tkjNjxETQOxaf/GYe2hQml1uKCpqVOp6tV2yUr1eVpTbFgaUewvO/z+FhZhuDzeZtw+O9MZZPjM4HoM7SJUibjuCl9zhTartacLtn7D9RbIiJLZbKBEnYNeqK/+xXs/+0oEqUvftfngxHo5yR9CZ7GprUHYbCzrow72vSojZjIg7ia6x9oqf7VnvCRQlvaqU1Y+5vuvR3QoO8gBFSVt22Vtl0V9cbigLbjPsPQ2n9hxcT52H9HVBfAsq/9qjk5PR2HF3TBzv1SVduFGDW2CVwQh8i+L+OYumOuQRUFiYt4Ht+uECtaz8At9F288LwX3JzslJr7GemI+20dfvxiVZ5uYFXe++BBOpLOHsaedV8i7mSiWqd74n1B5PA2eAy0R1rzuvTrFQFovvhTdHxKKuqdvN9o/m/oUUsct+jO8HkrBF0bu6vdlpnpiN29FOuXb1J3zqU4j4Mud7gEjsMLPZrAo6IdyspV0vNK+N9P+PHT+UjWCew5g2MKovM50VU5EE3Hv4qWdSrDUTy9+7dvIOb3COxfuQwpBv440D7mxQh8PG62UqceUyDl8Bf4YuY6pc6QGv3G49NAH1RIOYqFE77CrkL+LheNGCghd7/+/jl+FrVERMZgsu7XzBMRWLtTDXSF9iARByL0A50sEVfzO2WrSmP4SYEO0j/U240e6GR3sH/+eKy48DQGzR7FFjvFbHyrtEzpfFHvH4MvlDqdQPfYAtBoXhiGdZXCiSaUSMraO8K7QwiGz59soHtTus/8vPdBGUe41WuLV4YMFhXFKQpxV0TMcnSSgq4+R7h4v4auiz5A/6Yi0MnspNfVYxQGvKrfuldSx8EdHpOWYNQrAfDSBDqZ9Lw8GgZi+KKF8Kgg6h7XM9IfBovHoWu9nEAnK1uhMvw6vIYXgkSFnqSZXdRWURHoZMfGqS2lDwt0gA+C2kqBTj7WlRoj6HWeZ0tE5sdkoc64XOH6pFrKzrynFgQnr+qQG1rSLv2VdzSc0ajBbs05BrsiW/Gy+iWsLBGIUyrllhtNXc6i30rnOGIcenhL3/iZN3B43WzMlvd7ZQyWrDuCpEzAvlZP9B8RIPYWur6GNrXk+yRi/+J31PtIy+wJ87F+7zkk52rSWoedg3Mef/lhsVFuBRJ12iVPa1wh3Vf+n4d3jxA0rSj9LRK7C6tGvyi9runYeVHuWrSDd4uBuYJg8R8HoacUMptXlgrpiN35BT59Rb7PEHy+eBdi5Vazik3Qf1KIsqtMG7DkZcER8fsnt9SKOu2St5XOa2AXeElPLyNhP1ZNGCL2k7uvV2H/mRtIzxY7EhGRlmWEOg9f1JKT24OrOPNn7qa/apXVr7+0TAc0bt0HQUNyRs2GDh2EPq294WKUoyAFuy/e1Qa750UtFRcplLSQT6DMxLFvh2Pnhgg1HN0+guQNY7B83TmlS9Pj2cDcLWHujmqr1Y1zOL47Shuo7sduQuwXQ7BkWk4LT/HpCZ9aattZ+qWjhk81kCT//gW+mDAdCQmJ0uvahcM/nFSDUdWn4KHsISup49AEzTv7KfdJ2P0h1oetQ4bS/XkO6bunY/2M/UqodazbAsZo46r4pJToJClnf0RC7DmlrDzWoWU4+F4vbP1GVBlNDML3x+C23Avwz1GEf/0Y59kSEZmI+Yc6Bx/07KSOek07eRAnxHnSGprpJ9z9e8K/XjW46A57tXVAtXodEPRSS1Qz5pEoo34hUTFq0Ri15K6+tJP4M8LAuV9bz6otZ1IAqqVUCCf+VkPUU20xbMGn8GlekgMVnoFjp8noETYOLeUGLyTi93WrlC36Mk6uw5I5et2F+xO1rc224rbkjkMneClJMhGnvolSanI5dwoJ8t9Tdu7wMsIcg/EJN5Rbtw4f4pUJ4+DqYWgElHHFb/4MQS+H4IWRxXU+nRHYe6Bjzy54rWcAnq0o6jRsq6F1N2lbv+fRtJKo03jCBU07y9s6oGNNbcc5EVmYUnNFiUINlNAnT3ES2BO+TwKZCQcQHhkD/X+LfXqEoo38ZZSRgtgTUfjz7BUk38lWgle1Z9qiQ6tacJICXcrRtQiPLsoJfvoc0HbUJxjqm4gV4+cUOGDCsgdKPCoDAyzy8+p3mNqnMAMs9AZmSBwHrsSwl6SAJdbVE/0P42DEN4g9qmkVysvQSfj5KmgAyIMbOLzsHezcmfvxCntSv1ZJHYcWCzFqgjzQpSD5vHf5DZTJVwD85nyIPs9onx3u30zEyaO78Nu6ZUhRM58ZeryBEjZPP4dBDdR3ISXmN2w9rdNPXqMJXmumzvJ592I0wo/+o5QVFeshsL2ncioKrp7GqoMJSjURWRbzbalz8EQbTaBLisKWHXkDna7EP8Kx99hlNdDJHmTiaswubP9TbftwqVpduX00RQt0ZASPMc9g+roh+HzYfEQejkOS3IWonOjfFgPeX4nhH4zKCTnFQBmRejgCy9/olSfQPZKSOg4l3vgchVOTumD2/Agcjr2B9AdA2YruaNThNYxa+gN69NE7R9BKZMdfQYLcG5GZiouJeic+JiXggvxvz7/pOB+nE+hkKX/jkvw367/3kRBvLn/kEVFRmWdLnYM3OvftAPm0pMyEg9i44zTS8pmDyr3NEPT0scu/Ja5eT4S2dlfOo1n7fTSK3lb3aIGOLXWGFKGlTtPyY3DKkCLyGIhGrw9Eh4aVYY9MnPq2HbYamDXkkVrqivj8itxSV2LHQfPeFLalTU+RW+r0ucO+w2B0eKkLGlWVB3icw/qgIYgVW80HpzQhouJjfi11Tr7oGSQC3SW5yzX/QCdLvKbGQ5caTyvn3elzr6p2ZWSnJD9CoJP4D0VfH7bQGYt6wr4dbJR+oofYf04Z2QknL/g0VaseWcI6HJs+HPsvyyt28PAOVKr13deMJrB3kkJPKVFix+EoEq7Jt16oM/ARzm/Tnutqh3KeolgkicjYOxuR4/ZLsVAin7vXQtlgNPI8deHfLcOPX76JzhzBTkRmyLxCXVV/BPZvCXfpD/U7F/YifOfDu1wVZ8/gYpZ0W8UffTr5oJqmG8nWCZ7N+qCLjzLEAjHHL6r1RRX9BcaOYqAzjqNIUoKDHRr1DSvg5P3NOHxWTgqV0XLCD+jx6mtw1JxMX6EJHDuNQ9tZP+C1CQPVOsFtwvcYNutT+HTqDEdlsIJMHsAwEn5u6lrSRUOT+wLJFxPV0PlUCwwYJT2e9v6mVFLHYRcO/6kOxPB5aaX0+kPg5v2Msq7cr0UImk75DqPmTBZ1eg6J8Al36XnOlAKj5r6GDETbRT+gz7hx8GgYkDMfXuUAeAzxg/L0MhORcEipNRLOU0dE5s9k3a/a7taHSsPpzWtxULl+qAsCBgShgZiP7mESfwlDxBmxInGo1xNBrd2lqGBIJpKPbsem6OKYmDh/7H41zP5VKRj08TLYEpbnihIVBqLrolHKfG750e/GLOgqBxkXI7Bk3GwYmqZNDhsdV4xCc0OPV6QrSuSvyN2vshI7DvKExbOk5/eQE+we0jXtNkl6zOaGHlO/u72gK3lkSp+F96TPgoFRuI/MB+8sHI+2VdS1q4c+w+uLimNaE3a/ElHxMaOWurKwecRne+dMBFZvPIjYG3eQremqfZCNOzdicXDj6hIPdJS/jG8mYPm3UYi7qblW7EPcXoedo6fj273nkJSm7d9TBsFk3EzEsb2r8O2S3MEoaclSdWCAtL/uz8+4GYfDW+fj83wDnWwd9kyYj53y5Lc6D2dyJXYconBsXCiWbz2S5/3JSLuB2MMRWDV/tajJK2nOaCzfqfccDZKO8zIxQEJz/TSZ9HqSLx9B5PxQIwc6GeepIyLzV2oGSlgbttQRWSO21BFR8TG/gRJERERElAdDHREREZEFYKgjIippFepjcoevsUuz1H9JbCAienQMdUREREQWgAMlTIQDJYiIiMiY2FJHREREZAEY6oiIiIgsALtfTaR27dq4cOGCWCs+JfU4REREZFpsqSMiIiKyAAx1RERERBaAoY6IiIjIAjDUEREREVkAhjoiIiIiC8BQR0RERGQBOKWJiVj2lCbtMKvTJDRzEqta57Fx80gsEWtERERkPGypIyIiIrIApm+pK+ME92ebIcDPG64O0nraaWxaexDJ6tbcqrREcD9f5GkA0pH4SxgizogVPU7ujdGshS+8KysPhNOb1+LgdXVbSbOuyYdDsKRfILzZUkdERFRsTNZSZ/OkJxp3CMSg14PRs5kIdMXB1gmejTogcFAognv6i0BHREREZFlMFOqc0LhzN/h7u8IBmUg+cwAHzqSJbYUgt+aFhSHMwKLfSufUsDu6idCYeT0GBw7EoAiPRERERGQWTBTq0vDn2USkXYpGxPqV2PRLDJKzxSYjS/vzDBJvXUZ0xFqs3HwAMTeK6YGIiIiITMhk3a+ZJyKwdudRJBZ3s1nmCSk47sDRYn8gIiIiItPh6FciIiIiC2Ceoc7JF4GhoQiVl5BhGPJyILo97wNXW7GdiIiIyMqYf0tdGRvYObrC068NAl/pgwZPinoiIiIiK2Jeoe76QazVG+26fM0m7PjjMtIeSNvtqiGgsz9c1L2JiIiIrIbZt9Rl30nG5WM7sPG/V9WKSm5wU0tEREREVsNiBkpkJiXjjigTERERWRuLCXXVnvGEcq2IO6lIVWqIiIiIrIeZhzobOFT2ROOuwejjK18RNhOJh6ORqG4kIiIishomu6C/6/PBCPR72KX5ZXoX3a/XE6Gt3cWKngdSoPtjCyL+TBEVQpWWCO7niwIf6dQmrP0tWawVP17Qn4iIiIzJ/AdKZKQg8dQBbP1mZd5AR0RERGQlTNZSZ+3YUkdERETGZDEDJYiIiIisGUMdERERkQVgqKNi0A6zOu3Enn6aRe56JSIiouLEUEdERERkAThQwkSsa6AEERERFTe21BERERFZAIY6IiIiIgvA7lcTKalu0REjRohS4S1evFiUiIiIyFww1JlISYa6RV8vEmsFG/36aIY6IiIiM8TuVyIiIiILwFBHREREZAEY6oiIiIgsAEMdERERkQVgqCMiIiKyAAx1ViMb4d9eQcIP0rLxHxybfQ+vuYpNREREZPYY6qyR3V1U+b9kfPzZXYSKKiIiIjJvpp+nrowT3J9thgA/b7g6SOtpp7Fp7UEkq1tzq9ISwf184SRWDUn8JQwRZ8SKDge3xgho6YtaFR1gI0fZ7DtIvngUB345jeQsdZ+SZLJ56ir8i4Ev3MX7L9+EM2xx6ruq6Boutkk4Tx0REZF5MllLnc2TnmjcIRCDXg9Gz2Yi0BULG7g/H4RBvf3hXVkEOqXaAa7eLREY3A0+xfbYpdDtJ7Au3AGrTpSTVrLg+XS2Wk9ERERmzUShzgmNO3eDv7crHJCJ5DMHcOBMmthWCHJrXlgYwgwseVrparRFFz8X4MEdXP5tK1Yuk/ZbthLhu2OQ9kDabu8J/6bu6r5WZO5FOdQRERGRpTBRqEvDn2cTkXYpGhHrV2LTLzFILq4Go/i9+OlMIk5vW4Mdp64iUw5yDzKRcuEA9p/LVHZx8KgNjhkgIiIic2ay7tfMExFYu/MoEovQQPeoEn+JwMFrYkVH4jWDZ+4RERERmR2ThbrSwLWSGHKRdQ/31JLVcX5SbrokIiIic2eeoc7JF4GhoQiVl5BhGPJyILo97wNXW7G9MMq4w7e2Guqunv0TJdBgWLocscV1+bZuOrYFPcDzFZRaIiIiMlPm31JXxgZ2jq7w9GuDwFf6oMGTov6hHODTrYs66vXWCRw8oZ5bZ1WO22P6RhekPriHJi//jfB1V5Dw7R00E5uJiIjIvJhXqLt+EGv1RrsuX7MJO/64rI5ktauGgM7+cFH3zocN3Fv2QRsPOyAzEQd+iDI8J54VSE1/Ail3xQoRERGZNbNvqcu+k4zLx3Zg43+vqhWV3OCmlgxwgGebIPT0dZIC3VVEbYtAzB2xydpUyMLE4JvwrFAOR757Cl17VYfHKw74Q2wmIiIi82IxAyUyk5Lx8HzmAO9OgejmIwe6RBzcuBUn/hGbrNEL9+BnB9w74Yze4WVwSlQTERGRebKYUFftGU8ptknupCJVqdFRxgm+PYLQoba0R8ZlHAiPwGmrGxmhx1G9Oty9DOWGiIiIzJyZhzobOFT2ROOuwegjd6kiE4mHo5GoblSVqQb/Pv3RUj6HLv0i9n6/w3q7XImIiMhimeyC/q7PByPQT8wTl680nN68FgeVuTck9XoitHU+l/R6IAW6P7Yg4s8UUaFyaR6MoGcLehxJwgGERcaIleJnsgv6a7yehoTeqUj9ww3/97GNqOQF/YmIiMyV+Q+UyEhB4qkD2PrNyjyBTlY2J68QERERWSyTtdRZO7bUERERkTFZzEAJKprQp7LUAq8SRkREZBEY6qxNhX8xMOgOxjaTZx0uh79Os3+aiIjIEjDUWY1shH97BQnrEjHv5ZtwlquuOWL9NmUjERERmTmGOmuUWR7X/1cFU8faY52oIiIiIvPGUGc1bBD0SnV4yJcD618JjSbbYdVtsYmIiIjMHkMdERERkQXglCYmUpJTmhQVpzQhIiIyPwx1RERERBaA3a9EREREFoChjoiIiMgCMNQRERERWQCGOiIiIiILwFBHREREZAEY6oiIiIgsAEMdERERkQVgqCMiIiKyAAx1RERERBaAoY6IiIjIAjDUEREREVkAhjoiIiIiC8BQR0RERGQBGOqIiIiILABDHREREZEFYKgjIiIisgAMdUREREQWgKGOiIiIyAIw1BERERGZPeD/ASk6FijPdRq9AAAAAElFTkSuQmCC;" parent="1" vertex="1">
          <mxGeometry x="950" y="980" width="629" height="500" as="geometry" />
        </mxCell>
        <mxCell id="254EzCvTZ2WfJFfDZF1n-12" value="" style="shape=image;verticalLabelPosition=bottom;labelBackgroundColor=default;verticalAlign=top;aspect=fixed;imageAspect=0;image=data:image/png,iVBORw0KGgoAAAANSUhEUgAABEgAAAMjCAYAAAC27yXBAAAAAXNSR0IArs4c6QAAAARnQU1BAACxjwv8YQUAAAAJcEhZcwAADsMAAA7DAcdvqGQAAP+lSURBVHhe7N0LXFRl/j/wT6BIggiGQgqoQIoJGnjH+43Ce6iZmG5USmu67dKu1s90f6u5pb9/7JbmhrZRlpSXyLvl/YoZKomYaIAX0EBIEEFhEPqf55wzMAwzXIebfN6v17w455k5nJlnzvU7z/N9HnFxcfkdVC5XV1ekpqbi3r17akntEOtJSkpS5xqebt26qVNEdSP41Tny37CP18p/HxYXL15Up4iIiIiIqKEwU/8SERERERERETVZDJAQERERERERUZPHAAkRERERERERNXkMkBARERERERFRk8ckrZXwUCdpnbsfS6a4y5MZB17HmuXb4Lg8FnMG2Egl+YhZ0xU7tshPN84krbbj0fn5cejSxQU2LdQyIfcn7FvwFrLU2RKT0e1/Z8GzrQU06Sdw5H/fMfAaqisPfZLW0RH401u+sJUmH1xch3++trzUPpmyKxCfvh8lT9ef2fg4YDKUd6TjxjcYdWqdOkNERERE1PixBUlTdzcfD9TJnMxt6pRWPgrvqJONUcvJ8Fk4F7299IIj5enbG53bWsiTFm17wrWvPElNUftZ8FwQgfGrwtBZLTK5TJ39L+uWOlXiwf36Do4QERERETUdDTBAYouBM97E+x9/ga+//rr48cXaD7HsVT90b6m+jEwj9Q5y1Emt1Btlb9QaI6tpk+EmGsIUZCJx578R+Zo/NmsfBluPSH48jSvpGnlSk34OST/Kk03D5DBM/WhP2ceqbRi/dDW6DRuuvrCJcOoGl452sKzNo+TpW2X2P/xyq2G2WrobjX9GPoNR2gdbjxARERHRQ6aBBUiewMwVqzB//FPoYNtcLVM0t2mHJ4a9hDffeQlPqWVkSvnILBMXuYNbJ9XJRqido53897cfV+Lsnu9RKM9V5Btc/N+JchBlG7vXKMwsYPmYGzynLsD4v82FpVpMppVz+4I6pZWNjCvqJBERERER1bqGFSAJmAW/jiIwkoULm0LxxkvP4/nnpcdrbyJs71WIDCDN2w/H+LHyq8kUErLVX7B1utMUd7uRysr8vN1YDIfVo8pUYf5PygRVjsjPUtzaZh52fLIDiWqrGstO49FvMkOUpnMLmfeVqeLuNDrdbkomiIiIiIiotjWoJK0D//Yp5vdqiYKfv8DMpbvUUq0OCP73+xjuCFzd9Tze/EItrgMPdZJWrMCsg9PQCdk4/W4P7N4nFRUnjkzAjhGjEKO8sGyS1i6z0G3cM3B3sYOl2uCnMPs6rv64E+e+3VG2xUbL4egQ+Dw8nyzJCVKYn4PfLh9CzPo1yC5VvZPhs/IVuFldx+nXgvHrqKXoN7In2tko+UHEes59sxKJpxPl+bK0y0u3oAf9ceQbtdigkteWYjSRq46ec+Ezbjg6OVrD3Ei4sWT9Fbwn0cVlhAuQ8j02v/tvtVCiluee/wS7Pz4BK7/X0W/0U3hMdDcr0iA7+QROrl6pV3+Co/Taueg9vCcek+rNXBQVSPWdcAinP9Wvb4l2/QY/dx90+d+l6NlWmkw/IbeuUUImQOe39qC3Uw4SP5+Ks3HSdzxrFny6OypdU6T1pZ5Yj2ObdygvLsUNttP+gj69nGFrpX6v0vaQfjYS0V9+hTxpvmyS1rLLoCgHWVfO4dzOT3DrcqpSVkrl68H21c0Y7WWtzpVH/bz6XbBsx8Ptpel4UnefuJeJG+e+Q1zkeuSq6ypO0orZGPPtIvRuLR3XtnSCtBtIDOyTRjhPfxehgT1hlRmFf//xHezNVZ8wKTVJq+his28xDqqlREREREQPmwbVgiQmVenj0dzJB36PyZMl3J9GF7nslnSzIZeQSSzE+hGdsHSEzo3YvkB8KJeVBEf0WY5bjfGvT4enW8mNoGBu4wK3UeMg3WaX1mkufP+xAL7epROmmrewRjuv8Xj6H6vh0kktLKUNXEIi8PSzfYqDI4JYj0/Q2+iis4y4uS3JnVES8Gg3QiefhvoYOll5rkYGvIsxc6Qb4vbGgyOmZGXjhnZzV2HMRDU4IphZwKbjcAyf92eU1I7giMfmhEqvVepNDgoIza3xWDepvhe/W/I/KiUat1LV5kQtrVB2UWtYdZwOn8XSd+ylBkcEaX2Ow17B4Gf1W530QecFoRg9xK0k0CER24PjgFl4+q0/G+jKIy3zVtllYGYNW7eB0nf6vFqgy9T1UI5Of8bQ/50LH/19oqUdXAZMR29/taCUddj9rNjXtMERwcA+aVBPTPfrCSvxoex9Mf21nkoxERERERFVS4MKkNz7Ygd+FD9b23THSx9+ivdeHYun2nfA8BmL8eHbfugg3XRknfkW/41VXk/1xGsphvq7yTewmt8u4vSXbyndMf72FnZEfI8r6bl6rUf6wG3GeHQQN6L3ruNsxBIlYar0+u93/oSsAqm8pRu8p74iv7o0a7STbjgtCjJxcbOynsjwE/hNLCPd/Lr7jZdfVTPf4OwCbZcS6XHwulpenqfhOe4piBiMJvUEDq6cp7y3lesRl6q2rfgtGt9LZeW3XqmCjsMxtLs1kCvVoVznQdh9+LrcksOiY1900W3gM2IBfHuKHCw5SD36Cbb9TXy2edL3cwipohWDzVPwnT1LfmmVSV9ukTqpy3HYLDkpbu61Qzi4LEj6flfibIr87uDoHSDXlZZl4Fz07mhROoGuzvZg4fQ0fAP7qK9WDZkOTyexTCritNuQXOdrcOxkooEWNJIq1kPWx1Pl/yk/Pv8JSoMM0YpJLSt+lG090m7ccLSTjlG624PSRekrxCVmIs9QpRERERERUYPRoAIkwAmEhoRib5J052LeEp2GzcSboe8jeHx3tBN5SbYuQ8j/HZJzkVB9cYTLM30gBocpvHkI3y8JwZWTao6Pez8h78S/cfp/Q6RbSh3Sje2T7cVEKs59FIzEE9FKAEV6ffaet7Bv+0W5O4VFp4HoIr9OT4F0g/rvQMQdVtZTePodnI1XWjNYPeYm/xVK3dy+9gkS1e4GojtLSbnyqHHQottAdLAVE9LN+vvv4LdrSlefwmtf4eL7JyC3hXrMGY6GPk9NZP2Eg/8r1aFc56nI3bwXyfLntIOdh/grPIUuA7vJAazfTqzEsY3fQCPvNInS9yPNf3RC7j5j2bkvOojiSnkaTs5K15O8G7HIlqfKyj73CXavXInfUlOl7/cQEg/8rAQZHnNASaOw6fD0dpT+anBle0hJAl3t9rAzUQ76POahF/xqa6W0KslKxBXtNiQpvLYDqV/Ow/cf6HRLktVGPRhn1Upp1XLvyvfF24O8rpj1uBgaiFPfqkUmcw5f7T2HXFERGVH46iM2rSMiIiIiqokGFiCR3LuMSwm3cE9796NlaYW2zp1MciNDNTEOTvKXoMH1YyvlwEZFbDyc5ZvUwqvRuHxVKSvl4AnckO+iHWFvoJfArRN/xxW95bLSb6tTDZCtTlcOU8pPxLHlb+G3UhHCb5CZqUyZFe/Nw+Ag4g9IxbWt0XJJKVcv4jdR380d4NBXKTLODZYD/4zeS+eimxoQurTzK/kZfZrL3+D7tXqRpx/T1FYYKKkT7x5oJ1oT5f6MKwcN5AzZn6DkP3nMQZ4tdjlNCcy0HYjRi5aiQ8+KksWash4q9luq8kXYDliAoa/MhY2jvPJalfzVW5g6fgzGzKqt/CNERERERE1HAwuQPIGZ/1yF+X6d0NL8Hq7uXYU3lm7CT6miP0VztOs1E0tWzJReRfXG2w3KCMyp+O2oXFKhVq3Vlgd30+S/ZZXc5Dc3lA+iyFDizXp2Ubq5lgMVjvB842081lFpyWLefRY8X+6jtJbISkbqTbnYNB7cRZ6B5lNX3tVrFePtgFbyhCN8/q9s/hXd/CwGWT2F0cWvXY3xgU+j82MW0veQicSN7xgOckkK8tUvsZR/44jcaicYxSPWdmqjdLeR1jOi1PvSPp5GO/mFes4vwZE9iXJQzrJ9H/jOeRdT/70ZI+a9DcfuJS2JitW0HqooO/xfOHVVtGyyRjtvkd8kHAHvhqP3C7NgJQeXiIiIiIioIWtQAZIOL72Ksa7i7jsLP308D29+egI3fo7Ee38ORujBG5DDJB3H4tWX2I6k3sjBkaoxf0SdeKh8hZio63I3DwvHgRixYLV80x0wdzq6OYquFjlI3LnGaFeUWlWN76g8YmSZW+e/x77FgTh71NioQVVQg6NO3s552LFoDU6fv44sESySk60OxOC5q/H0vFeULjhaJq6HikXj+v9NRWT490i8puQcMbdxROcB0zFmWQR6j9LLqUJERERERA1KAwqQdMC4HkrgoyBhL947rPtT+T38uPZjHFcbEnRwH6FMUN0r7jLRClZ6o/4ak52t5AuxbCWSZRoyGXbyUxrkGmqE0BC1nAVvXxeYF2Qi9WYOCrUJOMWwuzejEfXBfJw9WcWWL2ZKDosaK/6ODCUX1X0YGKZWEMP86rwuMmQqjnz8b2SVHve3+pJvK+9Pbz1lH8Hyy8vI2oErHwdjn0i4uuwTnL6YKecssek2Hj39lJfIaloP1VR4+t84uzIQO+YHYduX3+PKb9K7M7ND53F/QO13uiEiIiIioupqUAESK/Xn34IcQ3fJv+BevjpJ9egcfvtN/JVu+PwqNwpK1rU0uaWFeYeBcDM0lK//cDiLrg4Fybj1g1LU4PkPROeWQN7lb3Bs+VREzldvtudPxPfLl+DGZUPBkdvQqElbzFvo5c8Y8C6eHmKq22ftd+SCx8c1wFvyHxOVkYusOsLJSymqttRvcGV1COLkrkwWeKyTbmLXGtaDPFKSYIHm1Uq2mwrNyX/j9Htq0l6R68RbfsJknKe/i807dmP3+rfhZ8LuQkRERERETVEDCpD8iLjrSquRll7TsGzGcHTSDnvxWCcMf+k9DO+ozN5IOKhMUD04hMsXlJt/yy7TMWbB23AsTpapJvT831DpllTHnhOQv9rmjvB5LQxuA/soCTtbPoXHnl2Np8e4SbegImfnIeV1jYCVjZLdwtJ5IDp4D4dVN/UzlesQMu8qU4899Qo6dBE37W6w8g/F04FPwcZke+MhJMQr31EH/1UY/MIs2Ko5UuTvyHsW3F4Nw5i//Vktq2s7kXBFtPmwQ7eXI9D72emw1CY0lbYJy4Fz4RkSgRGvTFbKVLavhGN0yFJ0GDgclsU5PcQ29wo6tlXmspJ3KBOyGtZDjBrIgaP0PkvyzBg2GZ6LI9AvaC4e090WbPvgsYBukN9uQRoyYuRSE+mJ6X49YSVWZu+L6a8ZyHBMRERERESV9oiLi8vv6nT9c5+J994ei06lEgmUVpC0C0v/5wv8os7XBVdXV6SmpuLevdq9exfrSUpKUucanm7dtH1q+sDlbwvQr5OSfLUs0aVBJymnIFpIlBME0Fz7Ht+v/LfOqDiT4bNSSaIphuktMyzv5DBMHeECpHyPze/qD+8qVLC8rr7vYswfnlISh5aj1P/ptAAj3hiOx4wFNQpykHU9GtGfrizdNcXoujRIvZAM2+7Sjbv+Z9J+VtElZcFbyggvFeqDzm+9jd5O5XTbMcl6IK1nj7QeabHzn2D3x+VVtI6W0vezWPp+xHjRRoj/56wODhz28VrYvroZo72MbXNSDUqf53vp85QeWaka9aDDdo60zp6G1pmDxM91u+aUbG+GaaTt5x1p+1FG07l48aL8t2Z6YkH4uximDvaTdvgtBK2sjaF+Z+PjgMlwvxuNf+5bDIaniYiIiOhh1YBakEgSvsCbb6zCrjM3kJVX3L4dKCzAvfSr+GnHKsyv4+AIGSKSUc7H7m3RSP1NJ/+GRJN9HRe3fV06OCKcfAvfr/oGF2/mQKPz+kLp9Yn712BnqeBII3D1EC5dUXKriLwjmnzpofO5RPJQW7fhGL3wXTymOzLPj2/h4Lc/lRqqN++3RJwND8Gx03flrkimEY0r74Zg3/6fcCtbU+r/anIzkXr+exwM/1otqQf3vsHZZStx5GQisnJFaxKVqMvsVFw5+RWOfF062JL19XolOav0+lKfR7sNlQmOCDWrh6y1b2LfUb33aNA3OLdJTc6q2xVQzknzE05L3682OGI65/DV3nPIFR8qIwpffVQbwREiIiIioqajYbUgaaDYgkRR0oKEilsWZP+EIyvewq1SzS1Et5m/YOg46a80d2OnP6L2KM9Q1QS/Okf+K1qQPExM04KkrrAFCRERERE1DQ2rBQlRozAZru5Kt4vffvpELzgiJCL3yHV1BBXAvJwuY0RERERERNQwMEBCVGUaFKp9NR7rvQBuAwfCorgbjZqo9s2BaCdmC64j5ZT8BBERERERETVg7GJTCexio2AXmxKWk8Pw9AgXefQd43JwY89KRO00de6JpoNdbBoCtYuNOlfsxjcYdWqdOkNERERE1PixBQlRNeR9E4yd4d8jUSSd1U3KKSnMz8FvF0/gyAfzGRwhIiIiIiJqJNiCpBLYgkTBFiRU19iChIiIiIiI6goDJJWgDZDUNkdHxzpZT3WJeiCqS6/Mfln++8m6/8p/HxYNORBKRERERNRUsYsNERERERERETV5bEFSCXXV9aUuu9gEBAQgMjJSnSMiIiIiIiJq2tiChIiIiIiIiIiaPAZIiIiIiIiIiKjJY4CEiIiIiIiIiJo8BkiIiIiIiIiIqMljgISIiIiIiIiImjwGSIiIiIiIiIioyWOAhOqH2SwUTTmNB4uuIf8f0uMvX4HjTRMREREREVF9YYCE6sFsFM5fhgKvtii0UIuIiIiIiIiI6tEjLi4uDe6H+1ad+mBYP0842FjAXIRwCu4h49pZHDl6ARkFymvqkqurK5KSktS52lNX6xECAgIQGRmpztWx7rtR8Fx3FBVlo9mWd2B+cSNQpD5HREREREREVA8aWAuSlvB4JgiBT/ugva0aHBGat4S9+yBMfmE8PFqqZdRo/d7BWY6HmJ37HOYXGBwhIiIiIiKi+tegAiQte/phaEcLQJOBC/s2InxdGMLCwhC+cS/is6QXWLTHoOEeYK+MRq6Z8scs+f8pE0RERERERET1rAEFSGzRs5uD9LcQV459g+NJWdCoLQs0WVdw5NsjuFkAmDt5wIMREiIiIiIiIiIyoQYUIHGEfWvxNw03DKXh0MQjKV1MOKBDJ7mEiIiIiIiIiMgkGlCAJB/5cgJWe9i3lwvKSLt9V/5r18ZW/kuNVIPq2EVERERERETUoG5Vr+B6mvhrAY+h/uju2BLmcrlUYuuC7kMmwf/JVkqBuZrEghqZ7oBLGAq9bICidDxyTS0mIiIiIiIiqmcNa5hf2x6Y9OwAOFSQY+Ru3DeIOJGhztU+DvNbU7NR+Je38UBt+POIJhvmO9+G+bltSgERERERERFRPWtYnR2yYrF1y16cTcmCplAtkxTmZOB6zF6cvKYU3svJlv9SIyVtdb9byAlniIiIiIiIiBqEhtWCpFwW6PFsEAa00yB+VziOpKjFdYAtSEzEzBe/91mGB8+4o8gsHc1W9YZ53TUEIiIiIiIiIjKq8aTLtO2Jbu2kvwU3cOOmUkSNTFEUHjk1EuYXxUxboKuvXExERERERERU3xpHgKR5ewx6xgcihcW9hDgkFCnF1Dg9onaR+r11d/kvERERERERUX1rwAESc7Rs5YDOff0R+Ifx6C5SVty5gL3H2XyEiIiIiIiIiEyrgQVIPDA+OBjB8uMVzAycBD9vF7QyBzTpF7Bn+3GksfUIEREREREREZlYg+5iU5h3DxnXLuD4jgiERx7H9XvqE0REREREREREJtTAAiTx2BEWhjD18cnnX+Cb747jws276vNERERERERERKbXOJK00sMlL1/+87uNi/yXiIiIiIiIqL4xQEJ17pEryfKGV9RtGh4Mns2tkIiIiIiIiOodb02p7l35EOaJohVJCxSOehv5f7+G/L98hd+VZ4mIiIiIiIjqHAMkVA8OwezLv8HiWALMNWoRERERERERUT1igITqR9E2PLJ/JJot74gWf5ce/5qOR9SniIiIiIiIiOoaAyRERERERERE1OQxQEJERERERERETR4DJFSrXF1d1SkiIiIiIiKihosBEiIiIiIiIiJq8hggISIiIiIiIqImjwESIiIiIiIiImryGCAhIiIiIiIioiaPARIiIiIiIiIiavIYICEiIiIiIiKiJo8BEnroeK+7iiUHxSMaw3uLktkY861atisSneRXPfwadj3YYPHsQGx9Q3rM74epcpkzQsW8eAS6wUku0yp5faiXWvQwcPTEBvUzbx7voJR5DVbqQHqE9TFXyoiIiIiIqNYxQEIPnfsadQJ3kHVandTS5CFPnXzYNex60CBX+/7ycpGmThbTaJCiTj7U7uUjR53U5N5Xp0rk5hWqU0REREREVNtqP0Bi1grtvUdi8sxgBAdLj8BBsFefMqpVZ/QZOw2vzFaXmf0KZk4Zie6P8ddUqlhWVrY6pbUOv2aok01Iw66HPGTmqpPF7iBT/y0/7LLzUKYa0jPLlhERERERUa2rtQCJeWsX+IycjJkvB2J8X3fYt1SfqEi7QQh83g8+TrYw1747M3O0fMwdgwIC4ede2X9ETd79bGSqk8VupyNVnWwyGno95N5HkjqplZt5R51qOnLu6odFcpDZBAN7RERERET1pZYCJK3g4+ePPu72aAkNMi4ewZGLd9XnymHWGX5ju6OV9K406Rew9+tPEBYWhk++2Iromxrp+ZboPHgo3C3U1xMZkHVbvbnW6UZS3N2kqKl0sGn49XD7rvoeirvT6HS7+V39+9C7L+JDsuLuNMXdboqaUD0QEREREdW/WgqQ3MW5Szdx91o0dnwdjm+OxiOjEl3pbXv3RWcR/Lh7Abu3HseVO8pChffScHbHtzh7W5qxcEGvnq3kciJD8u7nq1MlynY30TF3v5y49E/LZwPWs9D7g2iE7FOTme6LxUvLF8HWWn2tLmtfOAVHIDAiFgu0r5ce//NtNAJen4Vm6su0lKSpsRgzejg8P4jF/8j/Pxp+/s5At6UIUBOo/s/GCDiVWV93OL6+C3O+vVSynl2xCPzbfBh6a0KV66GUYVjwyVbs3r0Vq2Z7qGWmlVmgjYZoGep2oy8bmenSsaJtR6yYNQFb/6ImdX15MOY5G+6CZ2trj3l+w/DZ3CnFyU+3vh6Az6Z4YKqN+iIDrGwc8OYUf2x+XV3mjWnYHDQYiz2tYau+pgwLawSP8cOG+dOUZf4ilumHeR2MRXU10BSok1qGut0QEREREVGte8TFxaVOfqO0HxiIyZ6t5ODHNxHHUbbleCv0mRoInzZA2slwbI0tffPUsuMg+I/oDntxn3HrJMK/jZVuLeqGq6srkpL0OwGYXl2tRwgICEBkZKQ6V3vq8jNVmwiQTHEHblxAfOvu8DAQccj5aRVCQ95X5xSOy2MxZ4DxO+y88+uw8vXl6pwSIBnvlo24n+7A8ylntVRy6RCOtR6OwY7qvCTjwOtYs3ybOjcc3v/5GOO7tlDnS8tL3Ig1sxcWJ/s0iemh2DrTA/JtvSYe6yeF4Gv5ifoiRrEZh1422TgfkwmPnh3RXD+8W5SJH77ag/dK9R0SI+MMhqs6V0ZRGo5+fgChIviqw+pxT3z0fA/YGgwhZ+PMhp1Ypt9HyUpa1x+kdT2qzpeiQdLe7Qg5X1dHLSIiIiIiqqpaakFSHQ6wl3+WzcKNK7o3EeZo33cypj2jBkeEljawUyeJTKaDEhzJubgRH07rhKUTXsemn5QWF9ZP+cNTntJReAcZl6Kw4/3XESpeP0J6vLiweBlLr0nq8Lq6bOTgSM5P6/DPRYeUQGFXERzJRswHY7H2pLKsfSdf+a9g/cZSJTiiScfp8IX4p1jPhECsCY9CqrSrWLpNw3NvDFdf/bCzgZd3RzQvSMOZHZF48f0IzFh3AOezpKfM7NB/WEe94YEl2Tdx/vhevLd2I2ZIr5/0/kaEfH0KKaKBjZkDBgxUh9ctZo4XhirBkay4A3hvtVhGevxrIxZ+fQxnrt2BfqMPwALzJirBkYLUWGz470Z5mRmrt2NDTJr0egu4jvLFPCv15URERERE1OA0nACJWQs0k9/NPdzVpitp3h59AmZhvLc9LIqyEH/8AsR9EKztGCChWpF1cjlCX1uIrHRpJmcb4pfswVX5mXZwGS1PFEtdMhhr/hiImF3bkCNeL1zfiPiQVTgtp/9oi8d7yaWlaRJwaNVyPDh5q7jVx4OLW7Fj2wWk3rillmjNx/ChorVJPmI+CcDuLzbigSjOiULGF4FYG35Bzi/i1GuW8W4f1fHVdkSJvD/QIHHX2npuPaInPxnbwg9g2eU8+XiQm52Gxd+eVY4Nj7tgdKmjWjJC1h3G4lMZ+OFuodp1pRBJNxKx8HiyPNe8XVv0l6e0rNBO7sWXh+SENPyg7alUVIhLN5KxbMsxvVYqEmdPDHhc+psbjy+/isPmLKV7YG5+DjYfPIAvL0rfkll7eD1lKZcTEREREVHD03ACJI/ZQTeziPljPhgfOB4+bS2Auwk48PVGHLmQgXvq80QmdycKkYvWqTOqnARk1GBAlWYG0mLk/bwHMVfUGVk6Tn65RJ3WM3QAOosuP3fOIGaLckNfysY4ZTQaR2d0lgtM5TBWvjIJY8ZMwvx18WpZw5B05BjC9ZN03M5Askh2atYaTu2UoorkavMiSUfB0hlCshEvmubAEl7+/ljhbQfX0i8oo39nB4jGIbm/JGBbkVKma1uyEkFzeLyt/JeIiIiIiBqehhMguZNdHPyw6zkeswL6oL0lcC/pACK+PoAE0arEwgKG0zASmYbcOqPSusMxOAKztlzC/+gkaV1ycBF6t1ZfYkDeff1EqXeQdVKd1OfRTmkZ0toXLxX/f93HNHSSX9jUaZOdWsJaLy2MlY0d5onEqfPUxKnah59OHhg9m3ftxVERJGlhh64j/BH62jRsmDUQiz1t4GTgqNmtjdKmzeqpcaXXUYl1ERERERFRw9BwAiQaDZQfdNujR//2sMA9XD++EV/sS8Bd7S+ytjZKK5OcTGTKBUT1ZTi810VizjRfdGrTwmBLEZNgRLCKNMjRGVFcTrb6sj9GdbOHVYsqVGZRNkI3bMHiTadw/tdMFEhfhFXbjuj19DisfnUw5tmrr9PSH7KIiIiIiIganYYTIEFqSVeGvJs4+c0X2HNBzipQzLZTB7QUE1kZSJNLiOrJxPkY7iZGlclH6sn1WPPiYCVJq/xYruYgMYFfbim5Ne5EYW3x/zf0GIUYeYEmyqw17OTRh/KQW9z9piTZKu5ew56vt8hJXeWEq+Kx10CXJT3nkxOxOGIPpv5rI5ZFnkKSCL486oxRTz8BL+UlssTbSqug3JidJf/f0MNQNykiIiIiImoQGlCAJAvXbiqdbAozfkG83rCbIsFhz65KGsq05AY+bCw99Ox7uUO+H79zBrsXLUHGdZ0bX2tL0zX82HdBHqkGrZ9AtwFKUd0YhgWfbMXu3VuxaraHWtZwde3lBldxNLt9HUeKezA5oKtInCpJ+fEEwm5olGCTyrZKzX4KceZKIkJ2xCmJXtu1g+4ARUdT0uWRbaw6toehvLy1xWP2KmzdvRu7vwnHAj8OkUNEREREVBMNKEAC3Dx9DmlFgLnTUDw70gMOamJE89adMWjS0/AQzUfuXsDJOHHHSFR/MtLVJiKtPeEdOFGZbjscTsGRmLPxDXiXk4Okatbjx5/FMCptMfjv0RgfPB/WLmo+C2tfWI9diuEfROOlv89Wykxl+gT4thc7oAXcxs7B80ppg9DmcXv0t1KDGxYWGOU9EEsGtZdmNEg69QvOKM9IcpCptiZx8HDDEPV44tTGHvMmjcNnI8QyhrTHipcHY7G3tJ5W5nLyVcGqhTWm9uigzN++hdNyqSohEfFiXW188OYMHwR1sCjOVWLVQnqPXTywYtYwvOmolJnGMEwf4aYkmH3UAcNe+Av6yOVERERERFQdj7i4uPyuTpuU/cBATPbUHZfGkLu4EBmB49ohUiUtu43HtCEiB4kBmgyc3fUNovVHQq1lrq6uSEqq/VYrdbUeISAgAJGRkepc7anLz1Rtc/djyRR3pRvLs4HKqDDFZmPMtyLpajZOv9sDu/epxZ1XIPA/0+BucEPNR1ZOC9haA1e3dML6NUqp97qrGO+mDCX8oTxazgrMkpOsJmCHtouM9r0kbsTS2QtFCWAtvYfPpPfQRpk1pOR/msj0UGyd6aHsh5p4rJ8UUs9D/dpg8exx6KWXgFVXVtxevPt9Bi6p88KQIf4I6WNkUPDsbOTa2MAqOxah6+JwVC0GnBH6xmC4qnNlFGXizNd7sOxXdV4l5zt5Xu3SY1A2zmzYiWX6QwRXmzNe+WAVAp7QboSJiBwzH5+oc0REREREVDUNqgWJcO/iDqzfchwJv91DoTY5a6EGWdeisWNL3QdHiAy6shARb65HTGp2ycg3hfnIuHIIm94MwKbz+iPV1EDOOux+8XWs33MBqXdEaxKVtL6828mI2bMK6/9twuCI8NV2RN0ULbU0SNy1tp6DI0I2tn53AmcSM5B7X6cFWZEGuem/YP+mSLymFxwRjh7di7DjycjSaMf0LUTBXel1B3di3n/PGclllIxwbXLW4uUkmmykXTyFsP+WDY4Iub/G4TXpuf0XpfdYark8ZP0aj/2R+7HKZMERIRmf/GcvktmgjoiIiIjIJGqtBcnDhC1Iqq9RtCAharQ88OdPQuEnegulHcZbQStxTnmCiIiIiIiqqMG1ICEioorZPeGL5/++EMPkVCoaJB7/isERIiIiIqIaYICEiKhRGYZ/fLUbGz54G7P6Och5YjJPrsGb/+UQwkRERERENcEACRFRY1SoQebVaESunIEZy/Yqww8TEREREVG1MUBCRNSoHMbfp4/BmPGTMGPu3/HJ4Uy1nIiIiIiIaoIBEiIiIiIiIiJq8hggISIiIiIiIqImjwESIiIiIiIiImryGCAhIiIiIiIioiaPARIiIiIiIiIiavIYICEiIiIiIiKiJo8BEiIiIiIiIiJq8hggISIiIiIiIqImjwESIiIiIiIiImryGCAhIiIiIiIioibvERcXl9/VaTLC1dUVSUlJ6lztqav1CAEBAYiMjFTnak9dfiYt73VXMd5NTKXj2II+OHR6NsZ8uwi9W0tF989i/dgAXBVPV8oKzDo4DZ2QjdPv9sDufWrxQ282Bn/xVwzv0AJ5N77D+pmvIlV9piGwnBmJObN8YCt9L3HrX0XkF1HqM/VodAT+9Jav9J6ABxfX4Z+vLQfm7seSKe7y0ym7AvHp+/X3PoOmBGJiRzGVgaPr9iI02waLZ49DLxup6H48wtecxTbxNBGZltdgbPVzBrJjEbouDkfV4trm1MUHK8Z6wEo6Tp7ftQeLLxeqz+hx9MSGGT2k15WWG7MTMw5mq3NVUE+ft1bV2meyQciMURjiaImC1Gis2vDLw1FflaJzDtJVQR2XnMt0JWPb+8cQrs7VtiEjxiHEW3rj145h0pZktVSP4xMIC+gDhxZ5SIvaj+BT1diXiGqNdv/LxpkNO7Gsli/yG9s1KFuQ0EPnvkadwB1knVYntTR5yFMnqRyjh8O7Qwt50rKDL3xGy5MmZzs3Ei9tuYS5y2erJZXTbYgPbM2lCXMbeA6ZqBTWt8x8PFAnc7JuqVMlHtyv3yBOTr52x7iPTP3rtAINMtXJ+mOJIL9h+Gy+PxY7qkX0cGhhj5BJftjw+kAEqUVU+0b38ICVuMozs4FXj/ZKITUsji7o5WgpTzZ37IqhDejY18vLB6uDpuCzEfoRDKqMIU92hcOj0oSZJRx6uGCIUtxocXugmmj416Cl1X6AxKwV2nuPxOSZwQgOlh6Bg2CvPlWeVu19MHLKTGWZ4EAMaqs+QVSBrCz9PW8dfs1QJ6ly9h1CzI18eTLvRhTO1lLLmc7ePnBq0wLN1PnKunj0LLLEj6GF2Yg72kBizqdvIUedLPbLLWSpk/UtLVc/NJiNlEqckbyc3bAs0B+bXw/E1jfEYxo2z/FD6AhnDLFQX2QSbeHl1R62FiLyRQ8VO0f0crOHVTP+JlOX9sXGI7dImijKxvnYm0qhIalxmPF+BCapj23X1HKqfanXcSZVOTYXpF7CkQbUVLNHVw/p/GyB5uq86WVj2bqS7W7SXiMtMfSEb9FZZkMsctXyhuboz5eQdl+aKMpDWuz1Rt8yqPa3B3qYVfcatL7U2tWKeWsX+IycjJkvB2J8X3fYt1SfKE/zVnBRgymB4/vA/bHKLERkxP3sshHJ2+kNqqtIw7UOx2Z2xdIRnbCygXWvEfK+CMCHozth6egeDaN7jZ6c2xfUKa1sZFxRJ+vb/VzcVieL3bmLM+pkCQvMGD8By57rB6/H7dC8OIplLh2q7eHqPRghE5zVMiJqaFIun8WMf0k3kf/aabx7DdWzbIRuiJRv9qc2qe41TUDqLwheI/a/SHavIdKq9DVo/aqlAEkr+Pj5o4+7PVpCg4yLR3Dk4l31OeNaPTUG/mowRZMejyNH4lHxUkSlZd2+o0zodKcp7nZTxA42VFtuIVP8WiQp7k6j0+2mZKJ+JN1V27foNGUsbvJYVFTmVzirbt6Y1MVamtIgLeYA3vt4Y/GvdvPW7sG2mGTk1vNnIiIiIqKGrarXoPWt1pK0WvQYjyntb+DwibO4eRewHxiIyZ6tgLsX8E3EcRjs8WDRA+MDOuDG0eM4KxZqOwiBAd3RCndxITICx9PV19UxJmmtvvpI0lqcGPNOFNY+Gyi3fnBcHos5A2yAxI1YOnuh8jp9bWeh99vzMaRrW1irXQce3M9Hs0dFLg4jSVoNLJN3OwEnv1iOY9sOKQVldIfj6ysxYZg7HFsreT5EV5HUn6OwN3w5rv5kpJmp9UR0+uMc+PnqLKfJxtUze7D33wuRqrt/aBOGqp+32cgP8Nwfn4F7G2W5nOtR2L4iEAkX5VmVTjJbXTr1WIZ2PVe2YenLW+H0t0Xy57IX/W4lWVe+w/Y3X8XV4vemTXpbCfrflU7CU11Xt3TC+jXqjEEG6luqt9RLUdj98atIKVUHEnU9WSeX48N389F7ufT9Pil9v6Lnh/Q9pfy4EZHvLkdWmf40JfVX8p4qm+TXGc+/F4pZPayQefLfmLNsr+lPFgaSDJaXaC5oUiAmimTHyScwY9O1qr0fC2sEj/LFEDc7WIkuM0WFKMi6iiN7Y7D6hjZaKdG+p0pI2huBkPPqTDFzDPH2wYw+HeHQSrvT5iDtlwvYejwRe0z4o13XDm54aWR3dH3M2shPC2UTnVnZOGC+nw96dVBb4BRpkPtrEnbvP4sN+idBbaJM+btIw8RB/fCst9rlSFou60o0Pt19DUd1qq+EgXrIz0RS9A8IO5WJS0pJiVLrSoZt245YMq4PXNtIy0rfVe6vF7BpRxy26X/pFpaY6P0kRj/ZCQ62lmgu6kH+bm/izLForErIK95OiretChlOEFe27pT1xJ6KQejPOWW3R3Vb0iYW9XL3lLbB7nCyKqm/j7dfww+iy0ld027nor4j0zHVtw/GFn+3eUi78ANW77+J87rvrThxquHkk9qEd2X2CyP7lOH9xzDt/65Mklax7bzl7wXXx2xKtocHQHPx2UyV0NTMHKOe7IYxPp3gbCetR27NJq3nrtjGo/BuTI5eV0Zt8j+l7qLcPDB/iKfcPUBe7vZV7N95GmHphlvV1P5nqkZyUlMfHwweJ50R+sZguKpz5TJwzrC1tccLfT3R290eto9q15OHrBs/Y9feeGyu6Hhs4BxVoQr2E1PwcvdA8OAn4SQd8+Rjv1TfBUUWynaoXw/F76e08vel0ttruDh/jhmMUZ2lY59YX650fN0XhWWJBr7cyp5r9VjZ2CFoUB8M0C4n7xfS8TU6BqvitPtTzbYHg9uddO2VlngRW49I212Zg3gV66FFR6yeOxBOZhpc2rEFCy8rxaW0cEPYvH5wkG7Jfwjfg/fKNF2oPf5+ExDsJV0vZERj8ee/wNDhd+LTAQjytERBwmG8uO1mmfOabVtnzB/qiR4658Hc35Jw8tB5hCeXnG+Ltzv5eu1XDOnnjWl9OsG2hbJNZCWfxcbtv2BPqU1CW98Grl0efwKhk0WCYaDg2gksjbxW+vxkZo0Zw7wxuns53aL1twkD+3elkh3XE7HJ1QpN7A5EfKcERypNE4sdX+9RgiNE1bVmlNw1ZKnOTX3qoh5KmbHgiH8E5kYsxRivkkCHoARHjOi2AoGflV3Gso07hr/+MWbNHa6W6BoO73WRmDNRumnX3qwL5jZw9HoGs16bpxbo6bYUz0V8gFn+estZ2KDTgGnwm6rO67Nzhvv8/QhZNLE4OCJYu/gicFkETJYPTvrMY9Z9jJf8S4Ijgm1n6TP9x4TrqSrr2RgeYaC+pXoT9f3Sv6Ix3N/wDbqtyySpztXvV3v8l74npwGz8dLSN9QCXeuw+1lpG5O2s5KAzUKsF9vdiApGQPKejqd7KJdUdgOm4zVvedK0zksnINECROfC8+jBnUpZeScm6azspE5WipV0UfXKBPh3s1cvvCTSDU7zNm4Y9fwEhHrp7Cw1YiHdyD2LkBFPlFx8Cc2s4dCtH4IN3CRWV1fpxP7O8/3Qta2x4EhZVo974qOXR6J/R/XCRjCzgFUHD0yd6Y/Fj6tl+uw6YcWMCQjq51xy4SEtZ+s2ECFT3NBVKdEh1cOkiWXroYUdXAf5450pzgaWUbVujYlPDca6WQOV4IggfVdWHXog6HnPMkkFgyZIF3ODRD90NTgiyN+tM/pPnIjQfkqyyZrqKn1/a8vUnbKeXv4TsHZ8e6OfSVz4+4/0x7KJPZTgiKDW3xsT2ldtWzY1Mzu8+YeJmFHqu7WEg9cwLKnv91YNo4b44zNp2+naVg0kCOJ7MnbBXE1Dhvlj3tM94CrWo90e1K5+XUdMwLoxDmVuSBWt4TVmJN6ZJHJdafcN5Vjk/8JgzDOwUF19pmqrzvGhTo6Tzljysh9GiTxS2uCI0MwSth2lm2Rpfw5po5Y1GuLYGiAdS8T2owZHBKm+S7ZDU7KGk1tHhM6Rzp9ualBAsGqPXhNG4k39C6lqnmuV46s/RukuJ+8X0vH1aW88q5bUiJkYncnAdidde8nbXZC0PRg7B1a2HvKv4WSSuOO3gGu39gaPAU49nOEgJm78jC/rMDgi7Dl9WQk02XfGaIO/Fdijt5s4Z2qQdLlscGTUwJHSuXkweumdB63aPoFRz7ijl1pUSut20nFgAoIHuSnBEUFaxrZjHwTPLHtON8TK3g0rtMGRxGN4e4t+cMQGi4MmYKq3zjGoMqp7DVpP6myY30q1INHHFiS15qFuQVJV1ovw3JbZ8JCO4XlXDiEyfB0SjkdJ5b6wHjoPs97wlQ5j+i0AhqP/F+Hw6yAtkxqF7f9ejvgfLwAu0+AR/FdMGNAWlkjG3tcG4wfdFgoTIxHyug+sNck4tGoJTu46JPe8aNZ1FjpNmAa/x+OwJkQ/iDNNuslfgcHipKBJR8y3a7Fvwzrk5TjD0msSus18Dp0TByMyTHm1TGfIWdn9ZJz+ejX2frFReg8RmPu68lx8eCds+kJ5SRkGWuKUobeekrrIhm3gB5j1ihiKF0jZFohPPyibK0Q7JLPcWmPROrW0Mgy11tDnDKf3duGlvtKZSaq30xv+Hw5+u1Gqt+6wHjsHE4Inwl30IEk9hDWBQSXHJL2WKjkXN+LT/12IrPsT4bF0GZ57SpzpEhA5YhTilJfUnPcChC8fppzIkYbDi4KwMkaeqTdOTw7Ev/w7ygnZCpJPIWxbIvYreXvLYYF5gVMwSrrwKUiNxaZdF7E5qxBWLawxZmA/POftgOZFN7F/7WGsLvPrkfbXqkoOOefsgw3PecAqX/p/30bhyxsa+WLE1soaQz274dk2N/DinnISU1aWWXuseG0YukrHh6y4A/j4cBp+kOrBqY0Dgp8dCS9pAy+4fAAv7kgrucAxs8eyOX7wkq7YchNPIHzPNbnubK3sMG30YOmiT9rwcuMRvvYstmkvPPR+eSxIPYtPt8RjT745hvQbjPmD2kvfRSZ++HwP3tM5gXbtMwwrhrSXLhbTcGbvCay6nIcs6YKov3s3BPn1kC9y0o5uQXC0zk9H2nWJdYuLz/vSsvuVZeHcA/+e4glbA7/KBU0ah173LmJfTDLO/KZBirS8+EwvjB+JUR2kCtIkYsOqU9isvr5YVX7lteqI1S8NhJP07+S625eC/bl625B0QVnmF0Ptr1Paz5SdiD07T+PLXwvh+tRgLBnpLC2nHV5QXqLu6LXqKNkmdL/bHJzftB2LtdeJFdSZ0RYkpZS0VDB1CxKrLv3wmXTwbl6Uh5Too/gyOkPeL6xaWGDAgGGY18veRK0tgCFDRuKlNmk4Ep2AI+l5EPdE8vYwbDBmeNpJr9D/Xks+t0zaN37YcRirrhWieVs3vDOtH5yk/SIrejtePFrSFLAuP1MplWk5Uc3jQ02Ok1VpSSQfv2e7ITc2Drt+zsT5u4XS8dAcrh06IeRZpb7FcXKqdJw0qjL1oK8qx5Yq6jXQD4v7S995USYu7fsBYZcz5W1P1N2zo/0wUdzcVvDLd+XqUGd7lc8HeUg7dwJrj0vHZdhh8Ux/9FLPMyX1V81zbZsnEPYH6eZXOkYWpMZj98Fz2CQdI3Olc0bXx9vjhWFtkbThrMF6rMr2MGrkOMwT10ryeekUwhNypPOF2B6cMG/sQLhKt4OiZcWyz3/RyT1RjXro6IPNUzzQXDr3bP7oFDbIy2lZIuQPARgifYVVOf6ZTsn6036IRPAJvS7+2vcuXQuEfXwWe9RiofhYJE3nJp7CpsNXsU36fmFhgf4dnPFcr+bYKu3/xftImeNDyTbh5e6DN8Z7SOd06Vr88EbMO6NtOaetb51rLhF0C5Kuw6T9NffyYSzdcbNMC9Reg/yxuJ903NU9pkjva5S3L4LFcahIOh5/Lh2P6zggZWrauBxRk2X7+iQ5OCJulD99OUgJjgg5UcjZlVx2ZBJh4nz4dpD+5pzFpjmBSnBEuL4R8YsCEPmTuJN0hk+A3hC0HWwg7smRfgExanBEeHBpPRL+b6yB4IgkaBYGyMGRZOz+Sx/sCBPBEfFEMvLOr0LMAr3giL77Cdjx18HY/cVGeX0Pti3EsUTlKccnZikTJpCXuBFrArV1kYysiABEHFGimk6e9TAUb+e/wk8ER5CPmE8C5M+v1NsF6Xt9HRELv0OKmHX0xQAjb08EbkJfW4gs8TFytiF+yR5clZ9pBxdTDn0c8xW+j1WuYjJPfoWP6jk4IqT8fAJh0UpP0ebO/TBv7jR8FuiDeZ0tSwJv+pw9MUD8KiSd8L/8Kk4+OQu5+TnYfPAAvrwoXSCYtYfXUyZoaWBrpVwMZCZjn3rRL2Tl5mDbqWjTBEcEd2e4iuPD3Th8+b0SHBFSbqdh8e44OSjS3LkDRinFMidvTzk4gl9PYelWJTgiZOVmImzrd9gvX4i4wrdsjzFZgXTR/fYGcfMj5gpx9NRZxMrXo3ZoV+pXNzu80EsM3yrdXO84gGUiOCKKiwrxw+U4hOz5BQXSrMOTHeElyvXJwZFr2PZ5ybJZybE4Il/vW8DBUT5aFQvfuhPz9iZiW7oSHBHEZ1q9KVrZlyzawE26GKwJ/4E95eBIcd3l6m1DcWIntkBXn46GW1yIz3Q7Fqv/ewph4sJfmj3/0zm1/uzhVM/NNLKkm4s5xduE+G4PY2uCCF5Zw/UJ7R19Q2eJ4AHKxXvaj7sx77gSSBBy8zXY/5uajMlEjh49gBe3xiH8hhIcEeTt4fsTOCM3OC7ne82XbpzDD+C9a8q2kJWeiE0/Kzd3tu1EcEWrbj9TTVT++CCpq+OkdM4PWXcYi09J9SYHR4RCJN1IxMLjSgChebu26C9PNQYOeM5HHMw0uLRrDxbGKcERQdRdYrY6Y3LSNr5/J4IPpuGMWIUmE6E/Gqi/ap5rZwzuqQRHkk9I29BZhKvHSHHOuHQjGYuNBEeqpEVHTOohjmXa85IIjognxPZwDSEbTiFNzNt3wySjDZgqWQ/XriBefAALN/TqrhQVa9MJPeSvMBFn9PPm14k8bIpT9i8H6TpC/xw80aOTEgC5nFAqOCKORfMHqsGRn8T5Qjrnqt8vNBr8cCURIbrBET3K8aFkmzifcBar1Gs5p86GW9rIKhEcEe9tqJty3Ew5fljuxiUfU6T3tV86l+0XX5GZPbq6VaFlSQPFAAk1cc5wd1XGkE45s65yLZsk9r3c5UBHzs/SDXOZCEoyEhKUA7l9J1/5b7GYZGUdHZ7BnP+Gw2OQ3vMGePTuLg+DmxO7Caf182VUKB2H/joKMaWWS8avt9Tov7l0JDSJBOybvbBMMCnjQrJ0ipDYO9d9Nxu/7soNVHoUThr6heficsTKI8u0kK41DERI7kQhUr9VS04CMtQcwKaVjK/fnIoxY8ZgRm3kH6mm/Uf34MX1x3BeujGRm2k+7oFRAQH4bK4fVnhblwmU9O+sNHXP/SWhpGWEjm3JSsDM4XETjNt+I1W5yHLshyXPeWBqG3PjJ/7aYtFMulUva7SzCFqIIFOigQsMDWJ/FfufhXRTZ+iGOBn7I5P1ljMyHJ59BziLD333Ko4YGJo1NzFV+m8Se0f0lkv0pWH/5ycQrrfBJd5Wjg/NKzssb1GR9KkE8xo2PbdGT2dxZJVuSmIM1Z20DcVeVfaPto4YIJfouf8Lwj+Pw/5S259O/dXndVt2LD49mF1m/z5yUznzWLXRTwDVQJk5wFUOhN3E+dN6v4rWNW0baCPfa8rxY2W276PpBg7iDekzlasKxwehARwn1RinfMdh6HjZID3uoARq7ychylBui1qSFrUTIedLB19y0zOVY4ZO/VXvXOuAHi7iP+Qg/uQ1g8dXk3BzgpM4ddy+jK2GhgzPTcTZG2LCGu1cDP9YUtl6ADKxNU7Z+F27Opfatns92Vm+Rsm9dFmvZUndSZHOY0li3WW62Wi712Ti/E/q9biWjTM6i+5oRTdx9HjZ80X5krFbut7V/27PJKfJP5bArrXhrjlW7bFihhIcyYrbayQ4UpGanv8blkpe/RA9rJ5BO7lfrJIktbIc2ypHOuu+i7Dk4NWyDwPJRGUng7D+iwtyIMG683A8tzQCS76LxUsrP4Z7X/3wtzALLkq/C2RcXaVMVMkd5BgIqmhzslStW0s13FFHEnq0tfFWB7XE1l692ci+ZSTwlYyUVOXE1KxlO/mvPm0Ln6YsKz0Zi7+OxIzVO7Et5hqyxA+pj6p9/yeVzm/RrY3yy4LVU+Ow9Y3Asg+T9XeX3P4Fod8lIle6+LBy9sGMoGnYMN8fq/3cMNHWhHfB19QbjFaeeOFpB/RXY4pOjztjxSgP+VeeAukmZL9SLLGGw2PKlNNIA3UgPSpKXqqp7MVcO3W/kt7bPAPr2Vphgj0Ncg1cfWn7BZdpRm1mCf9+fRA2JwBb/1KV9VSWFezk0f3zkGPshu/XTMiNqy0s5CB1GQX3kWmg/sK3KCMw1X0z64ql5Kl3kFaWhlv6NDTtWkHe0+/eRrzayqJ2mWOIpydWBwVgc6ntTqcbjREa7c15Rer8M1VfpY8PQl0dJyUi/8+8MX7YMG+aznckPUx53K8r0vWDfLOd8ZvOsb325d4rHRSQpcZhhnTs0s3dUK1zrX1bOMiRhUwkGfjNyFS87NQwxd1co0O3XsxQzi3WLUpCHboqWw/CmejLyjnB2Q0vFP/mZ4nRT4g6ysT508ZOJnWgKBln5KZH0jWTl04wqIsbPES+PkO5UZzaKd2tczJw0VTHonyN8iOGpZXalVuXGTxGDEZX0e0p+QSWfp9RTnAkDxd/VX4KdRo0DPM6WCjXICKB+6DBGCq3YMvElcTKHngbLgZIiLSqcDdckyhpTvhYhE5bgh0nE5Aqtxa3gVPvZxD43i7MXblI76K/BZo1/pZqwP07ZVqX1LZmLUzVOoaE3PxshB88gRfXbETYKeXXiOZu/RDspbOB1vGvB5cunsKMj7bLgZs08TOlhR2cvPoh6OUp+MxPuiBRX1cj+dewKUa5mLP1HIk35ykXoKsDpQsKcWWQn4zd+3UTrJmVJJWrbeZ1eAqXE7MFIHiQSLonXejVyqofrl+gquy+Bg08Y1dpv2tbDtUmNcno0z1KJweuLXXymepWXRwnlaTUauJPbXLIh0EDHH5UVp3jpLSMCOjXNivzOv7+868qLVJElyJPdd2O7vASP37WQ3JWfRvOJsnbkG43m6ldRU4sIOnCNaV7qq7aPK/n30fZcFER4g9GIUkEY5wHYskIm3Jbme05HIMkcb/Uoj1GPS8dQ0RAbn4AgvqJPEhAVswJrGrk+UeEOry6ImqI8vFADnTawNbQT6DdWsNQA0BtFxWRo0IeHcfYw9ioOenrEbNoFNZOkF7z4nLsOJ0ut7Sw7z0LfoHKSxTr8Kva/MHarh7yeNTUE+2U6PL9/DoPkGSk3lImrNT3UIYznByVnx9zbtdLB9VGqhB7jh/GkV/FtAWcO5UkndB2zRBJ3OTM5MYepsxYrsmRAzfBH29UWrmcF8Ebc9h6DcNLYpjimrJywwzR4iMrGUnp0las/fVWDJN58QRC1+o34S9p7i4Swxn8/Oqj4sSHFdA2ORZJDQ38/5JHzZMXOnn7yAnyUJSDpIN7ELKq9P83zY19DjLlA4UlrI21DHjcTvkF7H4uHoJrMNmQtkprt4L7OsM2VsCiPq/epItjubm2dWsY2sW6tjT8q3C1OHtiVEfx/zRIizmA91brbnc7caaGu1CxuvxM9aFWj5PmeGFoDzkJJO5ew56vt+DF4u9IeuytxeYKtaVQPdC3bm0wb4qdZf1uD9U616beUVpa4FHYVdDyqiZ+UA7i0rnTeIu4bvbqtdddU4SfCvHluUR5/3Xq2knuWu3fw1W6ydfg0jkDAYi6lnwFSeJj2rtjrNxi3QG9O0nbj7HcKNrzusHWHtVj1dZOCXrk31e3AT25yVj8TSyypM3e1tsPy56yNBokmTjcG67NpONxYjKyipvoiWGik/HDtki8ZqAbaWPEAAk1cetxXT1aOHXVG7rVejbGLHvGYO6M1PhkucGJrbsY4aaGrq9DzIIAHFTzYTh5lE6ceuWq0pfUvt8f0Mlgm/KGajj6D1C6GmVdiSpODqerQG21Y/loLZytf1TzvTj2gq+hoXwHLEXfzmIiHVeiKt+9qnY44/n3NmP37t3YsNiv3Oh9Q6O5V5K88GhKunyRYtWxveF+ruWSTrTyNakFLKrZ+Edu5bL3gJIoTPo/Dh1qvsMM6ddNTmqXcuYYQtZvx6R/qReeH2xH8O5rOGrg5+bTalTT2bWchGimkJqOFLF+G2f41vIQmtq8KrhxDotjShIWyqS79XJvF7Q3n9KNlFW532024lPFP7aA61MdDf6yPbV3F7lOS3drqjnxC/hnovvGX8ZhRbc6vPkxs8foLuL4p0FSgs6l6z1tULlsnYmhaI2MTl43MtKRJr4mkbejo1KkJerxLV9TXdaX5FrA3cvYfLAkSbLMzBwWj6jTNVWHn6m+Vfo4qZ6fLZpXtD84oKuaHDblxxMI00kGK9g2xmawKbeUG0lbe/TW2//EsO8vdDOcO6OuVO9cK50v5FOTPXoNsK/6uamy24Polir+2nfFJP2kwUKbJ+AjBjkwYVeM3IuJiBeXIo93wQtt7ODrKm3TmuRK5O1ThnIWrUI3z3gCo2rlrlibJ8UOncV206WTnPjdaG4U7Xndwg2j+pjiXCR9Ri/lhJGbnAZjvUxzf43Du9JBoUCcf0eOwzJDw0SbOWPok1LdiuPx1mN4cdVGNRi3EVPDj+G9hMoH+avEyg9vr98tXyNv/r9Z8FCLaxMDJNTkxZ++IB/3LZ/6A8bPnIZm0s2qpf8HCPxiEXobu+n49iDOi6vXtsPxUkQkvMc+A0vtNYbLM3CaGY6AiGMYrjfSiePfj2HOB+HwGDsR1sW5s8Sws4vQQz5hSMfGX9YrE6qsiCglAm7tg1lf7MfgKdOK19Ws63x4rzyGgGBlvv60RludOhDvq/d/PpCHQYYmAcc+MZzrJEU6yQvaui+uQ1M4vQ5nr4sJG/R+PRJjiv9/d9hOCcest4fLwa28Swdx8qQor0fe0/F0D+VyxW7AdLzmLU/WIxu8+bwfVgxywCgbtY+pyqmVHYLG+MnDC4pf/JMu6/yEmyBdpIizYxsfvDnDB0EdLJRkbRIxVOaoLh5YMWsY3jSYsfc2UuQmAZbwGuVTYTLBIYOGIWyMB6Z2sFRGmZGJYQTd4CWnlNEgTe7DVjMOVsqFsIOHdLFiI723VhUnOTz/U6Kct6S5+zCsneSGiW1L6lAMETnR2xOrX+6HILWs+tIQdVl8Rjv0DxyJZZ526Kq9mBfDNnZwQIj0Xa0eVPMAZPJdtS7bdUZQW+WGRwwpObFfP2x4baDhEWW0tDefaI+hz0r1aGX8hmnzT0pz5Oaiqe+kjsWvtWphI213/pjRRfqyizJx5pRut6aae26g+gu4mQ26jvLGjNq4OmpuJx3nS/YJMVT04unDlBGPsuKxS/diPjsbWWqdDRjpAC+xjIUlpvr5Y14fJf9A/UlD7HXx5tR9VeSykLa3Ud79sPZ5qR6VF5nE+Wx1u7PqgKHu6q+aYkhJTx+Eveov7Y/ysyZQd5+pLtXkOHk6XQn0Nn+yD5Z1sS7ebsvKQaa6M4rj5BB1PU5t7DFv0jh8NkINrjYm2cm4Ip+P1GOWOK6K/W/ESLwzyhnNDd3Y1qVqnWtLRlWx8hypnJuKz7Nim3DGMvG/5PmyKr09ZCepSVht0GvySCwufq05enX2wOrn1WGGE8+ZsPtLBqISlHOh17g+8JA+lAhAlBlyXp9jF4ySk6VKn8uxD17wrZ3AlzZPiuhmE9S5A8Sw7kkXjeVGScPhS8o+6TBoHML8nEvOmdIxqX9nN4RO8cAQpUTPo3DQ2RbEMPzBk55Rrtc0ydh/ovwmd5fOH0NYjHhfFnAdJX13+gEua+kYLP63OB5L36uXdE1UclypRYHj4av+Gm3VPQBzZlZ0FVZzj7i4uGhzgJuU/cBATPas6Mx1FxciI3BcuUeSbjYHITCgOypcKu4bRJxQdtS64OrqiqSk2u8ZXFfrEQICAhAZGanO1Z66/EzVNw3DI1ZgsIGbtozjy/Hj44swxi0bp9/tgd371CcE/wj86W++5Vw4lV3GcXks5gwwfrMiD5VrYDQY66Bd0gGhu+GkhJKrWzph/Rp1Rhgtvbe3xHtLwI4Ro1CpUWOLlylfqXVVuEw2YsJex46Nh9R5PZ1XIPA/0+Bu6AAr1YVuFyXvdVcxvqKmwHeisPbZQIhRVGXdpP///6T/L5JhGZIehU9fDkSKboXP3a8k2dX/X7LZGPPtIvRubWB7qAnvBQhfPkxtTimdHBcFYWW9DvWrHR9fnTWoEFnRe/Da0dLNKeW+6OKGwtjFk7RNFI+5r8fpyYH4l39Hg/2kRXcV3QSbQ0aMKzfZqTzUnYFs7lVl1dEHawM8lIsCQ/IzkfLTWYRFpeG8zkWz+JXxHenCxnif72Rs0+364uiJDTN6SBereuWqoCmBmNixbD0ouUGk76qcHVc0wy7VnaeCdRkkLfPZdCPfa5G0Ddy3gZWV8e92yBB/hBi8sS+7jGghYTQIUKQM/6g/wgGk+pYTE4ruRnpJ/Cqj9Psz/jmqRfvejMm/if1fH8Zqvcsao3V2/xrOXH0MvbpZl9ketNtJufTqqKJ9SaG3rbR5AmF/UG50SinKxA9f/4x2gQPhWs3vopQW7RE6e5g8ukIZ0raQm2sGq1YWevVQcvwqs78I2u9DOkaU6oJQV5+peP8rX6n3Xs3jQ42Ok+XVvV7dGd+/JdnS8cFGOj7o11116gHOCK1EUugyx7xqsOrSD59JFx1ljuFiaPTv72DUJOm969dDdfalirZXI6p3rrXAjPHPYKp0c2tYOeeEKmwP8pCxf5C+J2PXXmIo9jKjjVWvHoq18cBnQT7q9ai0z4bvwXsVBWD0P5P+5zAZcwQ/Pw3+HXKkY5Y1rPLPYll4vNEktuK8HjLdD0McjUQfqrovScew89sPYHGi7nlTW9/624nI+zRBOp5I6xY/Rny9B8vkLtWChfQ5npU+h5EfOYo0yP3tGo7uka6J0k3TOkg24m1s+KuvkkhbkntqJab+47A6VzuM7lZETcdGHJqzBLsvZav5SIAHOck4/cnrWLNknWj4b9ieQHwYsgqHzqcjR/eYo8lHxvWzOLRmOfbq3UCn/vv/KclZ7+RrWyvK8m4n4PTGJdKBumxwRJATu4asw7FLpdf14H42rh5Zh+2lG53UP002Us9/h/UhY40HR4QrCxHxpvS5rmRDO5CDSV2U/v+L0ner9x09yElH3J5V+FA/OFJfYr7C97FKmCHz5Ff4qF6DI0I2Vm3ei/3nk5F2N0866anFQn420hJjsW39FryoFxwRRDPN1/67B/svZiBXdwgJTR6yfo3H/sj9WGXkxjPl5xNYuu0sUm7rrdOAo8cPK0kHdd9fkdIP9sz32zHb2EV/FeUmX8aZW+rnkD6DyBNRoPveWtjBqd9ILAkoPaKP+CVm9vpjOHMts7grmUxbfxFR2KQW1UhRtnShFYmw479IdaGzkUsXKgW3b+L88b0IPV6zGwVZahz+vCVa+m501iHt5yIPy+o1O7G/gt8sjh6V3sdBvfdohBheerH+diB9nqxrUr19uU26cK74f1TV0eMnTJfPQt+lGGw4FS9/ntLbQiZSYo4hdG3Z4Ihw9OgBhMfcRK52maI8Je/NJydwJK+CHaS23f4FIV+cQJJ2e5D2vdwbsdgg7fvv/WrC95Z/E4vXH8b5Uvl/pGPJtbPYEL4NYQkie5eJ1NVnqkM1Ok7KdX8AP+gfwwwQ+3fYcb2cBHczcOngTsz77zn51/PGJvfyKby9NRYp2nGKxTEoUdn/9IeOrg/VO9dqsGHHdvn4mpSeXXIuU7eJH7ZFGz8vVWF7EDktQj7Zjj367y1X2iaOS8f3MsERE5D239PaG/nbV7CvMq1TpM8ktlulC2ht0uZJsYaVFZAW94vx4IggnddDN3wrnTOV84bueTA3/Rfs2XrReJBWt17lc/QphEnbSengSHk0CN+yHduuSa83s0OvyYMRVBx50eDwaaWVp7zNiOuhfJ3v18wCVm2fgP8LfmVbn9TEwX/h89N1u9PVWguShwlbkFRf42hBQtVWnZYqRI2GOYImPYuJbhYouHYCSyOvlWolIjfB7zsYwQNF9vYMHF23F6G1dZNNtW7imCkIEvlHNInYsOpUxc2ziYiogbDEm0EB6N8GSDm8EfPO6Ny4l8fKDWGv9pNb8Kb9EIngEyYMutaVClqYmYy0HrklKTJxZsteLEsuXce2tg54Y+pIeNkABZcPYOoOE4ZGJ7+LrS/3hAU0iP9iEkK+UstrCVuQEBERGdQeXm6iiWsO4k/pBUeEokLsv3ZbOl0L5iI1AjVCcp9974F4rqvyBWadu8jgCBFRI9K1T385OILceOyqVHDEHK5tHbB4krfSvTn/Gn443QiDI3VoyJOdlC5dv/6MVXrBESErKw0pd5Tp5qYa7tnKGR7PzMWq50VwRJJ5GttrOTgiMEBCRERkkHQBIAdFrOExxBNTdZKtFidLG++p9PvNTkZU3aXGIhMRuRs2zJuCeSM6ynlmChKP4d2jbAZERNQoWFhi4qBheGeISAaswaWDZ7FHecY40eLijWkInTUSvUSeD5Fn6JsTCNcdJYvK0GjzEDzeE0u8dZLCS0RC2CC/kRglp9vSICnRBK1HZq/C7s1hCP3TOLiJC637iYhc9g5qN/uIggESIiIig25i9zkl03xzxx6YMWsKPnsjUB4ScOtfpuHNgH5wbSU9mZ+GoztrmLiR6o/ar3v/pki8uNU0uWuIiKgWiWTL4lw8PwBB/UQ3V5E4fi+WXlafrwxtHqiPRJ4htYyM+uFMHJJEEMnMGq4j/LFinno9JD0+e9UfE70c5KTGuZejEHa+Mq14KkdzJw3xe9fgrVnz8Um8WljLmIOkEpiDpPqYg+Qhxxwk1AR4ObvhheHd4NraCs0t1GajIkFZbiaSEy5i6/FkHK1s/jMiIiKqGe1oVOJcnHUTZ45FY1VCnkmHf2806ioHiWBhjaBB3hjq0Ra2LSxLmlqI5MC/XcXpYz8jPLnxfw8MkFQCAyTVxwAJERERERERNQbsYkNERERERERETR4DJERERERERETU5DFAQkRERERERERNHgMkRERERERERNTkMUBCRERERERERE0eAyRERERERERE1OQxQEJERERERERETR4DJERERERERETU5DFAQkRERERERERNHgMk9NDxXncVSw6KRzSG9xYlszHmW7VsVyQ6ya/SMXe/8ty3EXBUi6rGFx6hser/iIRHZ7W4ihyXq/9j3Qq1pGLVWcbkRkfgT+I9SI//+WiRUqatU+nx0hu+ShkREREREVEDxgAJPXTua9QJ3EHWaXVSS5OHPHXSdCai71M2ymRrH/T1VyabjMx8PFAnc7JuqVMlHtyPUqfqj5nrQnQM/gZ9np+tlhAREREREZVW+wESs1Zo7z0Sk2cGIzhYegQOgr36lDEtHX0wcspMvDJbXeaVmZg8sjvsm6svICpHVla2OqW1Dr9mqJO1Yht+/Eld552z+HGPMtlknL6FHHWy2C+3kKVONgTNu/TF4w5WMG+mFhAREREREemptQCJeWsX+IycjJkvB2J8X3fYt1SfKJc52g+chpkT+8D9sZYw174785awdx+EyYH+8KjU/yGS3M9GpjpZ7HY6UtVJ04lCfEgPLB3RCUufDUD8FbW4Ccq5fUGd0spGRhOuDyIiIiIiajxqKUDSCj5+/ujjbo+W0CDj4hEcuXhXfa4czsPwtKctUHQP109sRfi6MIStC8fGffG4WyQ9b+mCPr3bK68lMiLr9h1lQqc7TXG3myLTd7ChW8i8r0wVd6fR6XZTMkFERERERNRw1VKA5C7OXbqJu9eisePrcHxzNB4ZhepT5Uk+gO8v3sSFbV9gT1waNCIoUqRBVtIRHL6s3OG2dHKtsIsONW159/PVqRJlu90YIFqXWE+Ex/JjCNmnJBhdsi8WLy1fBGv1JbpKksHqPvbDW33eOGfYBoZj1pZL+B/tcvsuYVZfNY+JQSZa5jvp86xcCntDH0hNrPqn5bMB61no/UF0mXqwNbQcslFYnPdFZajbjRHO09/F5h27sXv92/CzUgtrbDgc/vQd+i9RHt591X/sOrm4rPjxp2VooTyr0i77EeTatRgO2+e/Qq+3ldf3CVkHhy7d5FcWa78MnvL/U5fRY/OCsmxnH7VAl/j/AZ/B603lNf2l9Xi/9hEec9FbBxERERER1apaCpAAmtgdiPjuLG5WouGIrptHd+B42TyPuHmrVpNI0MNkzSi1u0tgcXea1EVqF5jZC9USQ9rC778f4LkBzrA2V4vMbeA0YDZees9UyT2Hw/s/+/GnV4ajU5sWKE6JYd4Cltp1llGdZZzhtDSy7DIW0ufpPQtzP4uAk8FgB2DrMgnPRSzFGK+2Zeth6Rtqga512P2sVLdS/a5foxZhIdaL+h7RA7v3qUUG9cR0v56wEuux98X013oqxQ1CGzza5TV0/vNCeHSxQ3P1aGlu7YzOzy2Bgykas1nPRuc/Sf/f0xFWFmqZtJ4Wj7nhiRdXoLMPgyRERERERHWl1gIkpmbfppUyUZCPsu0DiEygsy/6twVyLm3Dpy8OxtIJgVj/o9LyxPapSfCQp0rEzFaCAvLj3ahKJSW1X7QS47u2AArTEbfxfYROU5b/5x+XYMclw1t2dZbBlA/w3CDpwyAbCduWY+UEscxYhL6/DQmiaUcbXzxnMNgh6dAdHtZSPVzciA/Fuia8jk1qElrrp/zhKU81dIeQ9uEz+GGp8oj5MVcpTvqmuKz48eFiI8cUO3R8bjwcLDS4/ePnOPOe9Nr3PsK129JTZnZw8Z2uvKzauqHNtMlwaCkd1m5GI271dOX9rFyGuB9TUQALOIxZiDZGAllERERERGRajSNAYtYe3V2VAEnapXOoYqMUokrL+vF9fPjH15FyPRnIicLVd/bgqnjCwhmuo+WX1MAijBgsghb5iF8fgMiwVchJV555cGk9fr1t6Da9Osv4ov84H7lbUMqu1xHxwTrkyf1dLiBHzC/8Tm5ZY/3kiDJBH62sk8sR+tpCZIl15WxD/BK1HtAOLjWuB13n8NXec8gVXfAyovDVR+eU4gbCDBqk7V6Iy999hQLRjUizA79GJUL0/jN3dEeNBtbq9CKcO0h/c87h508XI+e2mlI47wRyvnsN8XHSCs0c0a5PQ2pVQ0RERET08GoEAZKW8PB/Whm95k4sjsfqJzsgMpE7UYh8c1XpnKI5CchQc77WmH93OIluFPcv4McvkpWyilRnGUyEq4v4m4zYsENySSkXzyBFfCZjQR9RD4vWqTMqU9aDnuSv3sLU8WMwZtY72Ks29Ggobh9eiCtnL6pzqtTbuCf+mlnU6ADa3N0Fj0p/c+MP4r6IuJSSi9yryvdt26Gv/JeIiIiIiGpXAw+QmKP9oEkYKu4QNTdxZPtJMBMJ1aZaHXClczsl2WtqstoaoxKqs8xQZzWRsTPGbFeTrJZ6LELv1vILjOLAM4qCe3rBEeHmYsSV2zWnch61t5P/WvX+i5KcVf8xzk1+noiIiIiI6kYDDpC0hMvQaRjfvRWgScPJbTsQL/9sS9TIVWeo4aoso032SQ1bceZcIiIiIiJqCBpogKQl3EdPhr+HCI7cxPEtWxErEiMSNWbaoa7ttC08dDnD+tHSg83KqrPMvmQ1YWwCdmiTyBp8VDTCDJmGFcwMHGnzM5T+RDk/riibOFb38aVedyciIiIiIqoVDS9AYtYK3cdOw0jXlkDedRzZuAMXmJWVHgZnkpUuYm2c4d5ZLilmPTccAU8ZCHZUZxlEIVke39gdTwQ5yyUNmfP0d7F5x27sXv82/KzUQhMreqDmLmphXTsHvXs5arckKzSzlCdUVmgx6hN06aTO6si/fl2Of1m7Dap2sleP2auwdbdUd9+EY0FtVR4RERERURPRsAIkZg7oM2kKBomcIzlXcGDzHnaroYfH6e9wUR6BxhlD/v4xnFycgbbT4LH8GOZOcUep+2qt6iyDbYg+oyT49Ji5C4F/ewOOXbvL80B3WA99A72X78efPlqhltWnnpju1xNW5tKkvS+mv1Y7I7YU3ExVGuN0GA63QU+L/KqmlXUd9+UYjCPaj5kOc3FktegD63GfoKevneEDbfxx3BSjCz02ED1eWQEbl24lLU0su+HRJxfCOXgd2rZXy8oYhukj3JQeVY86YNgLf0EfuZyIiIiIiKrjERcXl9/VaZOyHxiIyZ7K0LzG3cWFyAgcV4ctte0fiGk9K1pGknIEYbvi1Zna5+rqiqSkJHWu9tTVeoSAgABERkaqc7WnLj9Ttc3djyVT3OXRW9Y+GygPgVtiNsZ8K5KaZuP0u7pdUlZg1sFpMNAwoBQxXO6HuiPCzNyFBUHdywY27idgx/pbGBzsC9vEjVg6e6H6hKQ6y2A4vNd9jPFuhlqYqPSXqVY91FRPLAh/F8MclLm0w28haGVtDPU7HA7zFqJzG3VWV1Y0YkolXJVe+yfptbbS+9n5DK6cVYsr0GLUVwaDIUX3EpGc5IiOnlZl/1+HZfAM6gNro6HqXFz5ZDLSbqqzpTjjlQ9WIeAJbbQnEZFj5uMTdY6IiIiIiKrG6GV5fWgmfkUmeph9MRZrwqKQIloOCIX5yLi0DWtfHIUYY3l2qrMMDiFmdgDWbozC1dv5pUalybuTjoSTG/HpstVqSX06h6/2nkOuaN6REYWvPqqN4IhwCGlrVyA+LhW5tTRSeP7+pbjwYzLuayu7KBdZcTtw7sPXcNtYS7gbixG3+iP8ove+ijQaZN84h18i3jMSHBGS8cl/9iKZI58TEREREZlErbUgeZiwBUn1NYoWJESNlgf+/Eko/EQ3nLTDeCtoJWorxERERERE9LBrUC1IiIiocuye8MXzf1+IYXKOEg0Sj3/F4AgRERERUQ0wQEJE1KgMwz++2o0NH7yNWf0c5CStmSfX4M3/Kol5iYiIiIioehggISJqjAo1yLwajciVMzBj2V7kqsVERERERFQ9DJAQETUqh/H36WMwZvwkzJj7d3xyOFMtJyIiIiKimmCAhIiIiIiIiIiaPAZIiIiIiIiIiKjJY4CEiIiIiIiIiJo8BkiIiIiIiIiIqMljgISIiIiIiIiImjwGSIiIiIiIiIioyWOAhIiIiIiIiIiaPAZIiIiIiIiIiKjJY4CEiIiIiIiIiJo8BkiIiIiIiIiIqMl7xMXF5Xd1moxwdXVFUlKSOld76mo9QkBAACIjI9W52lOXn0nLe91VjHcTU+k4tqAPDp2ejTHfLkLv1lLR/bNYPzYAV8XT1CQ06O3B0RMbZvSAlTRZcPkApu5IA7wGY6ufs/x02tGNCI4ulKdNxvEJhAX0gUOLPKRF7UfwqWz1idpigaBJ4zDRzRIFqdFYteEXHFWfqRkbLJ49Dr1spElNIjasOoXNcEboG4PhKp7+9RTmRSQiRUwTEREREVUCW5DQQ+e+Rp3AHWSdVie1NHnIUyfJlKbBe+UxzP0uGmNGq0UNRIPeHu7lI0ed1OTeV6dK5OaZODgiGfJkVzg8Kk2YWcKhhwuGKMW1x7ELRrlZypPNHbtiqKM8aQIa5Gq/27xcpKmTxTQaBkeIiIiIqEpqP0Bi1grtvUdi8sxgBAdLj8BBsFefMsS8dWf0eWYyZr6kvl56vBI0DeMHesC+ufoionJkZen/Ir4Ov2aok1RLfODV2xn2Fi3U+YajQW8P2XnIVSeLpWeWLdMSrUveCFQez3eEk1pcQrSqEM+Pw2IjgYijP19CmojFFOUhLfa6iVpzlCP1MvYnKmGogtRLOJIqT5pAHjLLVNQdZNZ2gxgiIiIiemjVWoDEvLULfEZOxsyXAzG+rzvsW6pPlMseA8b6waejPVrqBEPMLWzR3nMoJgf6w91CLSSqyP1sZKqTxW6nw2T3Z9S4NPDtIeeu/t1+DjLLC+R0eBIvtFGnqyL1FwSvicCkf0XWQfcaQYPwrZGY9H4Eppqse42e3PvQ78iXm3lHnSIiIiIiqpxaCpC0go+fP/q426OldHGccfEIjly8qz5XvvzcDCT8uAcbw8MQFiY91oVj474LyBBNqS1d0KtnK+WFREZk3VZvjHS6TxR3syhiB5umpmFvD/fFvb2suDtNcbebIsBYhqj7OcgtsoNXH3s5f0lTdfuu+v0Vd6fR6XbD7FpEREREVEW1lqTVosd4TGl/A4dPnMXNu4D9wEBM9mwF3L2AbyKOo6ot3B0GzcSk7i1xN+4bRJyo2/bxTNJaffWRpBVz92PJFHfgThTWPhsotxBwXB6LOQNsgMSNWDp7ofI6PdYTP4bfNF94ONqgmVpWWjZOv9sDu/eps0LbWej99nwM6doW1mrrprzbCTj5xXIc23ZIKSimTQ6agB0jRuGXaeEImOqLTm2UbikPpOX2/ud1nD5wQZ4vrTscX1+JCcPc4dhaff39bFw9vA7b/29VcR6LYqMj8Ke3fGGrft5mIz/Ac398Bu7qunKuR2H7ikAkXJRnS7SdBvcXp2FIP2l90nqamSvF4jNFR67CoYhtSoGgredKuLqlE9avUWe0rCfC4435GCFamImcGBLxmVJ+2ord7y5Bhv6HUteXdXI5Plz0HWwDVyDgeV84WUvPFeYjI+E7bPrb60aXq+r2oBiGBZ/8GcPaSy/99k3MXxevlptKSaLRpL0RCDkvyrSJRrNxZsNOLNNt4qJN4Jodhx9udUF/1wzsWXMYYfnq88X/T29ZnWSwunJjdmLGQSOtSNR1ya85XITgZ3wx5Al7WImd40EOUs6fQtjhNJwvUl6u0EmSakh2LELXxZVtRWJmjlFPdsMYn05wtrNBc3kHLETB3UwkRUfh3ZgcZMkvLG3IiHEI8ZYq79oxTNqSLJcFTQnExI4VfDYiIiIiIgPqbBSbmgZIXEYGwd/dAllnI7AxunKtUUyFAZLqq5cASTVYSzfRc6WbaCWVpDF6AZJuKxD4/6bBXb25Ly0fV7e8ivVrdIMk2gBJNq6ez4ejV1sD60vG3tcG44dSgYvh8P7Pxxjf1XB+jzzpJn+NdJNfKi6gDZDcjkLEkXYIeNbAZ5OeWyvdTOref5eM+GJY6r6FWPvuRmWmJgGSbkvx3IpZ8BDBDUNyLiBy4VjE6daDdn2XtmH9neGY1VcMX1Ja3qWN+PCPC02XeHV6KLbO9IAc+9LEY/2kEHwtP1FPigMksQg9YoX50peVeyoSLx7XfmLTB0jwayIuWbuhq4HGe7lxezHn+wydnCnVC5AUBzqMKLh4AC/uTjOem4WIiIiIyAQa/ig2FrZw6TseI12lW5Q7F3D4TN0GR6gJsF6KMROUAELWT+ux5sXBWDpiMFYuWY+Y28pL8i6uk8p0W48MR///UYIjealR2PTmWOn5Tlj64kJsOpku3aC3QKcpS9G/m/ryUmzQSQRHNOk4tipQXu6fy79Ditw1wBl9p8+SX6Vl/cZSJTgivf50+EL8U6xnQiDWhEchVVrG0m0anntjuPpqPW18ESiCI/eTi5f95wdRyq/x0nNDZsqvKvEgGymnv0PEP17FygnSesTr//g+Dl1Xmig4Dp0FD3lKsmaU8pnlx0Z1qFwRRNKWlTxKtx4Zjt5/VYMjOQnY/X5Qmc8E6+4YM2+R/Ooyuk5UgiN3pGX/T9TfYHz4bYIcFLHsOgIDeisve+hdvoz4XMDW80n4q0VGpcZhxvsRch4Q8dh2TS2vjMeV4Eju5WNYtkrJXbIhTsnmYvVkVzwnT2klI0RnPcWPDbHlBzce3EdWYiy2fR2JELEOaZkZq7cXr6d5t54INh4/ISIiIiIyiYYZIOk2vngEm+CgafD3dkD+9SPYuOk40ko15yYygWd7Kcl/70QhMmQJMq6LpvrJyDu+BDv+GyW3zLDs1AudxGu1Js6Hbwfpb85ZbJoTiPgf1W4x1zciflEAIn8SAQVn+ARMVMr1aRKw4y99cOjbKHn2wYFXsfuM8ku+7ePd5b+K+Rg+1Fn6m4+YTwKw+4uNeCCKc6KQ8UUg1oZfkAMDTr1mwVaUG3JfWtdfBxcv+2DbQhxLVJ5yfKJ0MCbmjz3w6YJXkXDkO+SpTVIeXFqFY/O+UwIgFs5wGSoXV59Ud0M6i4lk7F04Cqd3HSr9mT45q9R5t2fQX36dAelR+HSmtOweUX/JyFq1EXFyqpG2eLyX+GsiX21H1E0RsdEgcdfa+m09UkYmwqJvAlYeGNtL7QtVS7JidmLOjmScEVVRlIfN++KQJI7FZnZwMsGwvUePHsCLW+MQfiMPSXKgEMjNz8Hm709AiYnbw6nskD1ERERERCbV8FuQyMzRqtNQTJk8FC6VGg2HyESsLA3mI7Hv5Q65AcTPe3BVP+eFdMOekKDkQ7Dv5Cv/1Xd1VxBi9PJ/pN64pU7pGDoAncWK7pxBjJpjoZSNcUoXGUdnGI4lpOPQX0fprSsZv95Su1WYG+62U0ZOSaeVZjUcSUpbdw8uHtLrSqTasgfxcrDDGS6D5JLS7l9AxMuBSClV7yVD92rzppjGYax8ZRLGjJlUC/lHai4l5jIuaQCnHk/AlHGhUu7G4cuD2aVbgBTdQWaZ7b6WaDuB1m4MiIiIiIiogQZILu5QRrARj0+/wDe7o3Fduhg3b+MB/wkDYK++jMgkjicoQYbWvggIXQp7F9FiwxmW/ivw3PM+ctebB1fj1C4kCse2Snt/676LsOTg1bKPinJzFBoIdhji0U5pGSK9t5cMrefgtNItW8q4gxwDQYjURT3kri8fLlqnlqisJ6LT33ZhzreX8D9VWk/l2T+m1F1OlrE6KAl2WBoatEojfSYDN+cxsw1153nIFd3E4UtSZbTpgklis60NvxdBbdRRi8wxxNMTq4MCsPkvgdj6hvahJLAlIiIiIqoLDb8FScE9ZCSfxZ6vDuBKgTTfujt8jGYAJKqGK69j93G1e8tTszD3s2NYcvAYFvxtGjzaSIWaBOxZvUR+XksZZaMO1OWv5tazMeazDzDLXx3BRi02tWaNpN1aY7HnxAWkFVnDw6d9Ix3y1wJBU55FyNM94NTGEs25fRARERFRPWk8l6JFV3DjNzFhjhaV7BVAVCndPsaYQTbA7WQkpGYr+TCEwmyknt+GtTP1u6iguIuKGHJWNxlpmUe5Q8hWwi+3lISqYohaQ/+/+CG9R3mB6rN8eRZ6i4AQspGw7X2ETtP9/9okrDWXcVupO2vbdvLfsmbjcbmZWD4yDfQ6Ij25iTiapEFz1y54oTEeG509Maqj6LelQVrMAby3WjfB606oqXmIiIiIiGpd4wmQmHVGh8fERBZSU+QSIpNwfMEXIv/j1SOBiAjsoYyoIh6je2Dt668jNV15na7U+GQ5kGLr7lu7Xb72XVBGdWn9BLoNUIpqi7uH2kfjyiFEfLAKObqfu63hXCy6lMBSC5i3lieM0tZdM7dn0NvQKD8zJ8FT/A9NAq58pxTVn2FY8MlW7N69FatmF4/f0+BsOJuEXLP2GNDH2LjJDVf/zg5Ky5e7l7H5YBp+UAZMUpiZw+IRddrErPzexoYdu7F7x2aEzmy43y0RERER1Z2GHyCxaAl7Zx/4Pz8SnZtL90zXzuAcR/olE7K1VZIcOPZaBKfeE2HrZTixainfHsR5kQej7XC8FBEJ77HPwFJ7b+ryDJxmhiMg4hiGj1bLqm09fvxZ3DG2xeC/R2N88HxYyzlSJNa+sB67FMM/iMZLf5+tlNVA1h31p/oOPhg8Uh1Jx2Ua3P+2H3+KmCgHkYyLwq9yIpcW8H4+Eh6DyqnDL75T6s7CGWNW7EfvscOV4Iv0eZyCd2HurO7KkMs/bkWcgVwjdWr6BPi2F60bLOA2dg6eV0obnuSfcSZDDPnbBQ5qUWNxPlv9kq06YKi7pRIssbDAKE8fhL3qDy9DeWhMYPoEX9iJLmzmVvCYPAezGmf/JCIiIiIyoUdcXFy0YwSYlP3AQEz2rOjK9i4uREbguPaX6raDEBjQHcaW0qSfxe6t0XU+1K+rqyuSkpLUudpTV+sRAgICEBkZqc7Vnrr8TNU2JRIhc33kkVUMeXA/Gyk/bsT295cjS/eG3T8Cf/qbr/HhdZGN0+/2wO596ixmY8y3i9C7NXB1i4FkonP3K8ldEzeW7poj5waRlpO7vxgmuvqUSrg6Wnpvb4n3loAdle1+U7yMAYXZyLpvA1tr/c9UwjJ4P/40zV0Obugr83mlupsb4gt7IzlW8i5txJo/LpSH+y2mrR/R3ejZQCWxbm2bHoqtMz0gD9yjicf6SSH1O9Sv12Bs9XOWNq1YhK6Lw1G1WLDq1g+fjXFDc3kuG2c27MQytZKGjBiHEO+Ksp0mY9v7xxCuzpW3LsAGi2eLBKql12OUoyc2zOgBK0P/q0V7hM4eBldD3YOK8pCbawarVhZI2huBkPNquQkMW7wBCwbYqXO5iP5/U/H3g+osERERETVJDb8FSYEGWbfiEb0jAuGRdR8coSbgu62IvqFOa/KRdz8fDwrVeUmzR23QaehszPnXitJBlD2B+DBkFQ6dT0eO7jAf0v/IuH4Wh9Ysx14DgYQqy1mH3S++jvV7LiD1jk7/g0Lpvd5ORsyeVVj/b73RaKpjXyDWfPAdrt7WWYdGycPy6ctjcSxNLTMiLywIaz85JC9fnMfFGKnu1vxtHY5dyUaeTl0/uJ2A0xuXIFQ/OFJfvtqOqJviy9Ugcdfa+g2OVCD34mXElxqLt5HIv4nF6w/jfLr0jWuP7w/ykHXtLDaEb0NYQskQ06Z0OPRzRMvDSRMRERERKWqtBcnDhC1Iqq/htyDxhed/whHQtQXyErdh7V9eL91KRHT7mL8Cs0Y7oxnScWxBHxw6rT5HRJXTpR82j3dD86xYvPffOPygFte3gPe24pUeFg2jdRARERER1TsOqEhN3ET4dBVt+/NxcadecETIiULKT8lQfsNugebMU0BUZf6dHOSuPwW30htEcMTKyQN+r63CdBEckWSe2c7gCBERERExQEKkHX2l27QIeAxVE4YK1r6wn/IxAv/oq3StuROH2CPyM0RkwJBBg7F6hDNGtTJXkq2amWOU90C80F3sQTmIj62gn1YdeGX1bmxeG4o/j3WT36Pml0gsW3ZYeZKIiIiImjR2sakEdrGpvobfxcYZTst34aUBFSSw1KTj2AcBOLQnWS0gIn3lJYPNvXgAC3enob5HaRcBkoCOGuRmJOHEt59j3fZzaIypW4iIiIjI9BggqQQGSKqv4QdIBGfYPrsII6b6wr2NDSyVVveyvDvpSPn5IA7+eyFStaMtEZFhFtYIHuWLIW52sLIwB4oKUZB1E7HRMVgVl4Ms9WVERERERA0RAySVwABJ9TWOAAkRERERERE1dcxBQkRERERERERNHgMkRERERERERNTkMUBCRERERERERE0eAyRERERERERE1OQxQEJERERERERETR4DJERERERERETU5DFAQkRERERERERNHgMkRERERERERNTkMUBCRNTIBU0JxNY3BiNInSeih5EzQt+Q9vUpzuo8ERERmdojLi4uv6vTZISrqyuSkpLUudpTV+sRAgICEBkZqc7Vnrr8TFre665ivJuYSsexBX1w6PRsjPl2EXq3lorun8X6sQG4Kp7WmrsfS6a4A3eisPbZQKSqxZXnC4/Qj/HcUzbS/ziLTSEBiL+iPkUVspwZiTmzfGCLbMStfxWRX0Spz5hGlbeHuuToiQ0zesBKmiy4fABTd6QBXoOx1U+5AUo7uhHB0YXytHE2WDx7HHo9EofVa2OxXy0tnwUmDuqHZ59qD9sW5tJ8Mra9fwzhypNU78wx1d8fM56UjinZ8diw/iw256tPmYS6zUj/HppspCWex4b913BUozxbZWbtseK1Yeja7Cb2rDmMMO171W7L2bEIXReHo2pxbXPq4oMVYz2k/Sob53ftweLLRvYhnf1PV27MTsw4mK3OVYUIYAyGq7TeMxt2YlllTibG6s4Q9f3iJ+n9Hajk+zOzRvAzvhjiZgcrC2lfr+Pvghoj7XYsyc9Eyk9nERaVhvNF8pNGiUD9xI5iKgNH1+1FaLbOceZ+PMLXnMU28TQRUQPHFiT00LlffJF/B1mn1UktTR7y1EnTmYi+IjgitPZBX39lkiqn2xAf2Ip7dHMbeA6ZqBSaUN1vD1VwLx856qQm9746VSI3z8iNnZkl/Pv1QdicAGz9i3oB2soT88Svy2+Mw2JH5WWGmSNo0gQE9XNWgyPU8LTHABEcEWw8MKCLMlkrLGzg0G0gQmZ6YohaVFVW3d3Q1QIoSLqML00ayKme0T08YCWubsxs4NWjvVLYQFVUd1Y2dpg3xg8b5k3DVjWYY/XUOGk/l/b12RV9ZzZ4M2gC/LvZK8ERqhSnjk8gdNYEbJ3EljpoYQenfiOxZEJ7OKlFxuTka0+295GpH78r0CBTnSQiauhqP0Bi1grtvUdi8sxgBAdLj8BBsFefqgz7/oHKctVYlpqmrCz9M/M6/JqhTtaKbfjxJ3Wdd87ixz3KZFMgWmcsOVj2sWBXLF5a+QGcXCq+wLx49CyyRBygMBtxR03/+1Ldbw9VkJ2HXHWyWHpm2TJdVs4IfTUAwYOegEMry6ofxW1c0d9NuiODBinH9yBkVQQmsfWICYlfTUWgSu/xlynYPMcPoYMc0EtUf7lu4uTP6nabHY+Tl5VJ08nGsnXS9/6vjXhvRzyyxC/Dth4YW61AjDle6C728xzEn71Z/rZbR/bFxiNXfKaibJyPvakUGpIahxnvi+1feWy7ppbXmfLrrqvXQHz2sj9GiQBHdYKZXbqhl630tygT53dsx7x/SZ+TrUcq5OrWFa5trYFmaoExokWPdv9+1QeGfhtRuj8GItRLLWgUkhEi9olVW7D6+E0USCXN3TzxnBqzNSYtV//nhmykMCpCRI1QrQVIzFu7wGfkZMx8ORDj+7rDvqX6RFXY9sFIr1bqDFEV3c8u+4vF7fRqdKGpSBTiQ3pg6YhOWPosu9cIlo/awKn3RLz02X4Ezi+/VUjeFwH4cLRUd6N7mLx7TSl1tj1UT85d/dujHGSWCeRYImTKYLg+Kk3evYY9X2/BvIhY+cZKdAtQbvQqaNrv1A4O4u+vMXjvVCaSqtutgqrGzALNW9nDtd9ILH7NH4udy7vhLcTmPer3uc7U3Wt0FBXih8tn8e3P4sbGAk5OFdwBGdLmCQzoIP29fRlbk5Wi+pYifaYZIhjwr53Gu9c0BOXVnfRcyKiOaC5dpeUmnsDqtRuxOkYEzUT3HbGfi22j/GBHf8c2aC79Lfg5WqqHHKRU0EWCasDKFcO6qdMPC40G+08dw5FfxYw9nOTuM5VwPxe31clid+7ijDpJRNTQ1VKApBV8/PzRx90eLaFBxsUjOHLxrvpcZdmiz2gf2JoV4ubNhvJzLzUGWbfvKBM63SeKu1kU1WuHiofW1S2dlACReLz4Ktau+Q4J8tfQAu7PrsRzM+uvqXLD3h7uQ9uzprg7TXG3G+luRj9DlL07esjN6DLxw5YTCLuhQYq9ndzsPi1dv6WMEebKYT83NR0p8hTVDp0bWenx4seRWP19PNLE921mh15TRiKkjfLK+rbtZro6VXX+vbtIZ2sgJfYX3gBVUXl119/THQ5iV719FqFbr2H/3UI4txEBrDtIqWRU16KZEoRL5jVULctBbq4Funq7oata8vAoRGxq5c4tSXfVDqM63WmKu90UFTWI1mVERJVRSwGSuzh36SbuXovGjq/D8c3ReGRU8Ucc2z5Pw0e6eCy8eRIHEvgTJ1Ve3v2yP7eW7WZhQEYyUq0nwuPv+zH3O7W7yL5LmLNyKWyt1dfoMNy9ZD+81efLEslBS15jPS0cs7ZcKl72f7bsR++R3ZWXluIMS/8VGPOfaITs0lnXd7GY88EHcGyrvkzX6Aj8Sbxm3Qp5ttnIDxCos66QzyLgrvtr18RIhMjPRWN4b7VM35RILJDXuwueBuqj2PXvkLrlVUTMXI7T8s9ILeAxbmnp7nEiMa76XnQfs+aqzxuiLvOn5bOlGWfYBkbgpe3qstL3NPc/H8DewPuq9vYgG4YFn2zF7t1bsWq2h1pmShpoRPtlXYa63Wg1g/yLsAis5Kgv6m8nPrSh1iamYWXjgDen+GPz62pT8jemYXPQYCyWNgJxc2dImWX+oi7zpHWZhJglzdQNj8JjtIm6SAAqlW8YobR68HL3xOpXp6nrm4LPJnVEf6NnOHMM8ZReHyRyuKjv8fUJCBvjBn8jjSjKfqYp2PC8D2ZUst9nVm4e9sedRfDnx5AkNkkzewwY3L5UfWg/a+lHBaMT1ageasisPYZ1lbY/TSJOxpRzks+8g6Nmlpg6aDA+m699bwEI82sPL/33VsPtQf9Ra10bLKwRLHKDaD+PeMzrpyS2rIwK6k4b3EB+AdLkCWs4iMTSd+/A1A11lDqdgMWPS9u5fXsse34cNmv3i1f9sOxJS+P7rTqijm3bjggNmqIsI+3vG573xMQyCymqtS8Zqm/pva3oZ1d2Gyom7efeIleT+r7EY54/QqVlSgcySneLC/FWDwIdDWxTBvO+ZOJ8XCbweHe8UNnfAiwsMbGfj3wMKq5r9Tj5prt+faujF4l1W7XHipfVOviDJ0ZJn71rtz7YIP6HtPxnQ2zKfleVroeaSTGQM6tstxsiooavti6boIndgYjvzuJmVRuOCC17YNhT0qV3wU2cPHAB99RiokpZM0rt7lIyIk3qIrULzOyFaokBZs7w++8HeG6oO+y1OQLMW8Cx9yzM+b8VsFSLaq4dvD6Ixtzg4ejUpoVaJt37tnHHmEUfo79+M93RKzDnb9PQu2tbWIuuFVoWNnD0mog5n+2Ch7GAhZ0z3OfvR8iiiXDXWZe1iy8Cl0WgOJfnto2IkX9EbotuY6fJRfo6+XaX6yAn9jvEaTOLlidnHXbvuoAHYrqtJ7yMBV6qyLaNJzq9twt/esUXTtrPLX1P9l0n4iVD31N1twdh+gT4thcbgwXcxs7B80qpCam5IN6PQMh5tUjb/9tQV5nMu8iUm8m3x9DxHeUbA+fW4nI4G5ll2jTXnNXjnvjo5ZHo39EOzYv745ujeRtn9Hp6GOYbSAbbtVs/rNVfxkxdxn8C1o5vb9KLcpHE0n+kP5ZN7AEnK/Wm0swCtm4D8YahxIJmNgiZ8SxCnpZe30Ynh0sz6QZUeu8v9C4bITFYD9I6rDp4YOpMf/nGstJyk7HhJ+X31eYuzhgjT9VclevBBJy8uygJRq8nY2t53TfM7PDmHyZihkgMrE0WamYJB69hlUr+2NCI7eGz1wwkP21RYXKZYhXVXdId9SD7uDdCnhI3zFawE12Vc3IRrzxjYtL2/6S0nc8cBq8ONnLXHpmVPbz8x2HZkzqfU1fr1pj41GCsmzUQrm3Uzy/t71YdeiDo+bLBhGrtSyLv0hwD9S29t66D/BFk6HcF6ZgdNGkiQkaIXE0630sLO7hKy7wzxdmkx6G02ASkSXXo4VM66GlM0IQABA3ykI9BxXWtHif7T5yI0H6GrjgexeiJw9BVzmouse+BMQOeQMgzT6hJic1h26c/gksdwuqwHs4fK9P16+hBtavglgbS/46IqBK0h+UGpCV6PD0ADqJrzakDuMDoCNWVzr7o31a6/ry0DZ++OFi6gR6LtXuS5W4Zll0nSRcmysu0YmZLN9jiJls83o1CllpeMRt08moLS006jq0KlJf/5/LvkCI3lHJG3+mz5FfpyktPwOmN7+PDP45V1jchEGvCzyrrfLQ7RrxuJM9HG18EPusOy/vJOB2+EP8U6/pAfa/Sc0Nmyq+SbMTJH5ULGPsnnzGQDHkR+j4pAizZiN+3SimqjPA4dQjdtnDuK08otEEL+bEcp9VeMJXSdSJm9ZWuAO8kYPf/ifobjA+/TVC/pxEYYKJATIOUfw2botWb644DsWz+OEzqIF30FhUgt5J5KrT3zhUzxwtDe8BWOktkxR3Ae6uVQI5I7Lnw62M4c+2OnLyvFKuOmD/KTb5Yl/MmfLxRXmbG6u3YEJMmv96qiy9eMuWoLJ0HIvgpO2nTTMSeiI1y0s3FB5KNJhacOtYPQxxFneUg6fheLJOT1IouMNsRfjwRmfoNFs3s8eZEpR7kz6TWw4sf78GeROkmVnSXmeiDiVU4m56JT1b2QYu28NAJMoVvUetYPDYouWUqrYr1YIiFlW4EtiKWeM5TjBBTieSszp7o38Zcp/42IrQ4+WNvBJuiB5725kx+7MSZyjYSqyozByyZrGwPBclnER6u1LWyX8RW8jxQcd2lnDmLH26LX+Qt4DoyABte7gMncX97736lu8ZZPFKFjVLi9JT0uaT3lCTd1MoJXVdtx/4bYoeQ3sOQngaTkMKmB4JGOqP5/TSc2RGJF6W6eHFTHAwm/q3mvuQ/0Buu0umn4Map4mOK2IZC1u/F/osZyDXQeKlrH19MdLOUjpkl70tJShyLNOlY2bzjYIT00QYMSgLV4hEq53qRXNPdptSHsbwv2Uk4e0P6v65d8ELJbxHGPchGyvlTCF+/Ralr6X+LelDq2xwOfXtiqvLKEtZPwOvxHJzfuhHLTinnAde+feCQE4ewVdptvnSukKrVQ/msbAwFbYiIHj5VO3vWgZY9/TCgndq1htERqmNZJ5cj9I+vI+W6CBZcQKp0A777onimBTr3FV07TESTgB1/6YND3ypJSR8ceBW71St628f1fg7bF4i100Zhd9gqZF26oJTlRCHjiwBE/qgsY+/kK/816L60rr8Oxu4vNsqtOR5sW4hjicpTjk+UBGPyIs8qF95te6HvaLmoRJAv3MU1VPoZ/LhPKaqcBGSpwQ9bx7KBn2pLj8KnM0fh9B5Rf9LN5qqNiJPX0xaP9xJ/TeSr7Yi6KS5YNUjctRZfK6X16ujxPVi85xdkiS+zmQ2s5J8rnTB0igeman9ZNMKpjQPe7CXuRjVISanoDtIK7eQc2XlITkjDD9oATFEhLt1IxrItx/CeXgsX/4E9lZu4X09hqciboN655ObnYPPBA/hSbnpkga4+HU3XakCcxW7HYvV/TyHs10L5ZvP8T+cQq71Z0F1RG3HDJt5gNs58vR0hpzJwRg2IZOXmYNupU5h3vHS9OHl7wkvUsfYzqfWQlZuJsK3fYb+oAytX+Lor5ZWScUdNYmgDO1PlIalKPei7loo06Ya2ubsPlnWxhlNlrgzadFLy4VQyOWtWzE7MKa6/Qhw9dRhb5e6z1nB9ohLRmwbCa0BPdBU3wBnReG9TPLbdVupa2S+032sFKlV32Xjv823YfFH6AuVgg9p1oqMPVlc4EpI5XDu4YVI3a2nZDKRIN+6VUpSp7Bcx0s27WKcmB6s3ReGS+Jqs2qO3oeHDxbZy/xq2fX4Ayy7nyQGirORYHJE/lwUcHEuaN1Z3X3K0Uf7H7SvJxccUsQ0lpWdg9e69WPyzWlTMDi/0UgJQ53eUvC8lKXEcQqTjpwjOOTzZEabrgVWIsBPxyDVrjyFD7dQy48K37sS8vYnYli4di9UWRKIeVm+KVs7DFm3gpv9LhVTXBddiEJZYiDPaFkZmGlw6Hos9GkMjxpimHo5eU4LbDt79Ma+DhdGulURED4vKXAbVnZbdMbKXg3QGYNcaqgd3orBp0Tp1RisZCUnKFaxtu6rcAZXv6q4gxMiBlxKpN26pU5X3QHutWNz9QV86Dv11lN66kvHrLfUm0Fznp64r/w8/yq+zgfsw3WCQMzx7d5dXkRK1DtVOdaG7rpq4fwERLwciRb0+VJQM3avtum8ah7HylUkYM2YS5q+rnYbt1XH+52i8uGojVn+fqNyciabV0o3TjJen4DM/+zJNprV5G1YHjYSXdQ5STh3AuxUOHZuN+FRxZ2QJL39/rPC2g2u5N2XW6OksbmSkC/aYRFxSCkvZFntVeb9tHTFALjGB+78g/PM47FdvMhQ6Nws624NXNxfl4v7GeYTLIzNUbLSzuMGQtv2fDX0mDWJ/FftSNUeAEUy1vVahHsrI/kXaln5BVpEdvMZPwGqRz8BgroUSVUrOmh2LTw9mK9+9jiNq8lCrNiK5RuPg20G5a037OanaSWkrXXdFediweydmrNmJbQnqMbuZDZzUkZCWycN169Lm0piG0Of7wemRTFz6/ijCKtn9LvfcCSzT3y+K0pD8m5iwgZ2hfFdIw/7PTyBc78tNvK283+bNSi4zq7svxaoHdwffZ+TgUP+KTiX2HeAsAjF3r+KIgaGbcxNTlTwu9o4waYPD5J9xXqprq65dMKO6V9dFRVJNCOY63Rq18hAfnVy6BdHtOGzSu5YoZqp6SDyLT0/dRG7z9hj1vHSOETlM1NwzREQPowYUIGmJ7iMHoH1zdq2hhqU4yadVO9P9clJo9GdDg5qNXIEx/43FAm3yWPUxZ0BFN2V3kGPg4kmbg+PDUgGhZMQdOit3VbH18kcnpVC6752NJ92kv5oL+PG/1R+GN+e22vqlpjTSZyoVHFFouzytX6MWPOyKCrE/NVf+ZS9XuoA9nyq+OXPpu/PDkqftjfeDN5Ouui3MlaF+K7B5114cFUGSFnboOsIfoa9Nw4ZZA7HYU7pJK3P2UHMkSFtQTplfMlW/ZioJJy0sUPK7cg0V3FfzspSm7a5SktsF6N1WubnNvZVZyW4K1nB4TJlyGqkEmfQfxQkdqyUPuep9b41VoR4M0eTfR06+gb4KhlQ2OWsFipM6Wlma8Jf82mSDdnIsJwcpKdX83NWou9z8bFzMFK/NQVJ0yUhIXpOewbLyhl4VOS0sjEbPK6kQucodu5EuFhrk6ke+JNrcEzMOajfw6u9LZ04cxubLoguOtRwcenOeSGY6DMv62RtuSSN9SfK5upUn5hlYj0gAXOlkulWShy9jb0rHNzcM8K4g8mlmCf9+InGqTqLoCt+bRtpP1Umtu7nGg2wmq4dCZObcR4GB4wsR0cOowQRIWnYbib7tzdm1hhqu+9mV7F9uWtZzRZLVaejd2QaW5f6CbwJbDuGiCD5Yd4eXNq3JLF94SOutdHJWXdaesFd/HM65Vf3gChnRRqRulOr2xi9YvCESq2OUyISVpyeCdH5lVW6SN2KZ6HdeYAkn72F4ST8ZsCFF2QjdsAWLN53C+V8zUQBzWLXtiF5Pj8PqVwdjXqkm4IZ+8Wxgqvz+zEoSKJrS43ZqgCoHmcaCSXVJuml/aUwPOD2ajfPaPAXGci1IihOMXk7EBlPcNN3XIEmdbBykD60/BHclVbfutMmYk06dRfDHO3FGPhlZw2ugm053NTWXxr82YvXBa8g1s4HryMGYb6JuXAU1GpGkJvuSBht2bMeL64/hTGIGch+IZKbt4TXIz3BLGnUo8/qQEhOH87nS99zjCRjt7Sl9L4uDAhA8SCROtay9K3FT1UMbD7w60g22hTexX81vxKSrRPQwq7+ziB4X1/YQpzjz9oMwMzgYwbqPIUqzTLTqjslq2fjKXNwTmYBjh3by3wd5Ve8CU3PzMfwZd3lklrzUKGxaoiR11T7WnjTVz89aq3DyjBjOpgW6DX1D+uuL/n1F16J0xHxbheSsKsuXfdSWKAn45Vt5gkzIqfWj8rC/uWq//P2Hf1ZbRljDrkw3+EKcuRyH1TGiuboFXF30O7gbdz45EYsj9mCqdOO1LPIUksToZI86Y9TTT+j88i/d7MsBNEtYG2tUoQ0M3M+tXK4GiYUJz1LaZv+VT0Za0kUlaa/SEsPYo+SX8or5e3VSWvhk38RpU+/C1eHuLHefKvg5Gou1eQqMssQLPZS8BvE/V7vDnWxIWyV6WnC/nKGt9Zhye6i6IvVXdCO5Y6wsjLfcklW37syVEUi0yZhF4PKMeoMqbctlWgGI1mUxJ9QcL3bo7FaTflw2cJKPJRrk1ui3q5rvS1npyVi2dS9mfBCBeRHHcF60bhMtafz1EpqmZyrbU3YsQg38/5LHMYTLC5hQUQa2iiF/23TBJCO9UJy8fdBLNO0QiaIP7kGImiha+55MFiw0UT1ouyamnTqG1Wp+IyKih1mDCZAQNUjWb6CPl3K3l3B6vfy3Tg0dgM5yX4RsxH0RiPjjuq0wnGEp7o5NLGP9Gfkm2/LJEfDsNg1PukgzqXGIOSk/XXlPfYDn/JUrxLyLhxBT1dYnDcIwLPhkK3bv3opVsz3UsobDtZXYOHSG+O3wmHQ7JBSiQB5fuazz2aJ9PtC8VVVGLNEqxJkriQjZEadcJLdrp9N3XZuzxAKuT3U0OHTk1N5d5BvIghup2K8UAffypdtFwRxWerkFRg3xh7oJmcTRlHS5S1Jz926YV/6dbLHTav4DZ9fKDd9ZEVvnHpjWXelglPZzgtFWGnWqhYUcaNMUqH0pyuP8JLxEcKCSyVmNMrPH6C7i2KpBUoLc8UpRh9tD1eUg8ZZSR87OegFG0Srg+X7ld12rdt1ZwU5sfDl3oObXxpB2agS0SNSgYWlqiw/rVtXfcq06usNDfE1FaYhPUMqqy5T7UsqvyVj8lZrQtIV96YSmqenKqHA2zvCtRusZjTa5l4VFtZJJn4n+GSlFypC/em1bZNpcLLhxDotjMpGk+wVamBlcplpqWA9adurw1bnaLnFERA+5BhMgid8VhrAwI4+jN5UX3b2Ab9SyHcaSUhFVl0U7dBr7DCzlexdnWA5aijFr58BbzN+OwtHwemhSeiZd/TXXBu6jF8FWfm/dYT12BcZ/sR+zehv7qb4GrqzHz9elvxbd4bvYV75ATDm1rpLdi6R685oF97/tx5/+byI6iesqTQL2rV6uPN3YTJ8A3/biQ1jAbewcPK+U1p8n++GzKZ4I7mwtj6Th1kZ8/3eQctsC/Tt7YPV4D+XGI0Oq85r9uC9pjxUvD8Zib3v0byXdrKqlVi2sMbVHB2X+9i2clksVm39KkgMnzZ0HYsmkjhiljils1cIGQWP8MUOMICNGyhAJ/+RnJNnZyJJvENpjwEgHeImzkoUlpvr5Y16fikeDqJLLlxEvVmzWHqP+MBLLPEsSz4rPNbFfP6weVHqfOv9TojrCyzCsneSGiW1LRnGwtZKW8fbE6pf7IUgtM8wcrjZ2CPIbiXXS9yeGOUVWLDafrEmXhfrh381J/u4rlZxVq7kdenSQbjbVKw4xmtLi6cOUEU2y4rFL93xel9tDNexOUIdOfrIPlnWxlLcFp8c7IvRlf7VVgHiVYVWpu6Dx47B6REd5e3Myaw07sVlm3kGs2OYGDcZL2iBbfAJ+kKdqzsKmNfprxwE3M0f/Lp4IVY8puefOIbwKXYIMqd6+ZIM3n/fDikEOGGWjM4KKhQVG9emsBKQ0t5FY6niXhiiRswR26B+o7OfyyEOC9Lm6dnBAyBi/Mvu61g+pt+XvGI97481+FSWnNiD/Go4kaOQhf70MLJt8V/21oF1nBLXVHiOV48+G1waaboSvGtYDEVFT9YiLi0s1e9KWz35gICZ7tlLnjLmLC5EROC5a9Jen23ilm40IkEQcr/4oGtXk6uqKpKTa7yFdV+sRAgICEBkZqc7Vnrr8TNU2dz+WTClnhBpNMva+E4gfjusGSFZg1sFpJYlMjRDDBpckQp2NMd8uQu/WwNUtBpKJat9H4kYsnb1QLfSF53/CEVB8VVNa3p1sNGttg2allpGMjsCf3vKVLiYTsGPEKMSoxZUWtAv/M1MZuUYkZ42cMtZg/hHvdVcxXiRwNeaOtOw/XkXcT6WDSxUuJ9yJwtpnA1E8kqy2fvTLa9P0UGyd6aH8oqeJx/pJIfU71K/XYGz1q+AndHnIzbKjShTT/o9rxyroR+6M0PKS+MlDgu4pM+qF+JXf6I1sUR6S9u9EyHndn0yBIdIyIYaWkT7LmauPoVc3a7lZfqlEo9rPIZqPl5MvQ5/V408gdHIfOBjepZAbs7NME/+u0rrekdZlvMFWMrYVN1MXI4mMQ69y7jkKUs/i083x2FOqGiqob1WZ91fNeihF/R+GPnspZu2x4rVh6IpEbP7oVMU5NLTvzZj8m9j/9WGs1jupV2d7ECM1TSwvYamgV0dDRoyrRJJd3e9WsETIHwIwpEwPtUJkRe/ByXbj4N8xG2c27MQy3YNUFeuuMp+nIPEY3t6abHDEKEH7+Sr6XitaV8GNU3h/UyJ+0H3Pjp7YMKMHrMrUT/mqti8JFe1PGmlb2F7mmKLk+ZCWK46olGW8Xmzw5svj0N/QsrrbUHl10MYDnwX5FAd0Sm2v0nKfTe+hBEr1FWUj974Yvl13G9IeG3TKtPuWznFc+z2WWleN6kGh3Y7KHIOJiB5Shg7PRE3L5vXYdOAsUm7nQ7cF6YP72bh6ciPWzhysFxypS1GI+9sCRJ5OR47Oe8u7nYBj4QsRuiZObY5uYuEHcV7piYEHiWeqlpxVk4+M62dxaM1C/PPZsWWCI43KV9sRdVNceGuQuGtt/QZHhAtRWP19LJLSs0uPKFCkQcHtmzh/fA8Wf1xOcKRKkhGuTc6q0dn4NNlIu3gKYf8tGxwR9h+V3sM2sT/llfyaLr2/rGux2PbltrI3MpKjRw8gPOYmcrXdgorypHWcQOgnJ3Akr6K78KrJ/fUXBK/djj3nbyJLd9QW+XOdQNjxsjcKl84fw2yRIPKaVBe6XZfypWUSpc8VEYVNapFRxa/diBc36AdHGgdtgtHcS5crl2D0Ugw2nIqXt4XS9ZaJlJhjCF1bNjgi1OX2UHV5CP1C2n4SpW1B+1Zyb+LMtm147Wi20e4uVa27TTt2YlvMNaTd1fuPmjxk/RqP/Zsi8WI5wZFq0X1fRYXSMSUZZ77fjtlf6wVHaqDq+1I2Vm1Vk7Pq7q8PpHoQx5T13xo8pohAw7LwSGl//qV0HRYfK/ci1MC+rsjGe+I7viitU/fYVxW3f8HJG+q0vtQ4/HlLtLRf6Lwv9fizes1O7Dflr4A1qgcioqap1lqQPEzYgqT6GkULEirLeime2zILHhb5iPmgK3ZsU8up4WjhhrB5/eCQeBiTtqrdECvDwC+P1MRVqgWJJd4MCkD/NgZaR1AFalZ3Tn2GYfWQ9kjaE4GQn9XCSqhqC5KKXkdNE1uQEFFTwxYkRKTHGZ2WTpOH9sX177CPwZGGqY0VRBaC3OwqtiHK1yj961tZGR+GkpqU4tFkHpTTTKA4wWgCdjM4UjU1rDsPG9G/RCcZcyVlSvu6YNHKWs4jQlQdSq4rSTUb0xARNTYMkBBRCZfZ8P5gF2Y9JRI0pONY2OtofGkkmwj71vJNT6Y6dG2lXUuVEyWijQ/mP+2AXgaSCFITISfi9MFLPcUNUB6SrxkPts3wcZW3tyolZyVZTevO2U6EQu/gVhVHmj9/PUNJmuzuixX9bIqT5BJVikiE228Yxsj5aW4iSTuEEhHRQ45dbCqBXWyqj11sGgfH5bGYM0A3C14+Era8iog1h9R5epiMGuGPed66STCrlmiRGjsDiS8zorHscwY/Hi4WCJoyARM76kRBDSTzZRcbKq1swuiCywfw4o60ktHHiIgeYvw9gYhKFOYjJ/UCdi8PYHDkIbb/4F6EHvwFablsM93kqckh3/uCwZGHjwbhkTux4VQysqqbbJSaNpFQ+dRevM3gCBE1IWxBUglsQVJ9bEFCREREREREjQFbkBARERERERFRk8cACRERERERERE1eQyQUK1i9xoiIiIiIiJqDBggISIiIiIiIqImjwESIiIiIiIiImryGCAhIiIiIiIioiaPARIiIiIiIiIiavIYICEiIiIiIiKiJo8BEiIiIiIiIiJq8hggoTqyEoX/uIZ86aF56zwKR72N37n1ERERERERUQPBW1Sqc79b2uDB4Nl48PxKtYSIiIiIiIiofj3i4uLyuzpdO8xaoX3Pvhjg6Q77ltL83Qv4JuI4MpRn9dhjUOBkdG+lzhqScgRhu+LVmbrh6uqKpKQkda721NV6hICAAERGRqpzdchiOH7vtwwPRjmjCOlo/q/eMMtSnyMiIiIiIiKqJ7XWgsS8tQt8Rk7GzJcDMb6vGhwh0hzCI8cWwDxFzLTF725yKREREREREVG9qqUASSv4+Pmjj7s9WkKDjItHcOTiXfW5yriLC5FhCAsz8Kjj1iNUG6LwyI1sdZqIiIiIiIio/tVSgOQuzl26ibvXorHj63B8czQeGYXqU0REREREREREDUytdbHRxO5AxHdncbMqDUeIiIiIiIiIiOoBR7GhevV764nqFBEREREREVH9aaABklboHhCM4GDl8cofZmLyM4Pg8Zi5+jw1do8kJssbX2G/v6HIZbhSSERERERERFRPGkULEnPLlrDv2B1Dp8zCpB7ljQFMjcalv6HZsWSYWTij4OXPkP+Pa8iftVJ9koiIiIiIiKhuNbAASQaOR+iNWvPpF/hmdzSuy7lMLODQbwz62MovpkYtG7iTj0eK1FkiIiIiIiKietTwW5AU3ENG8lns2XISaeJm2swWjo8rT1EjZr8MhePcUfggGc3XTUeLv3dEi/UL1CeJiIiIiIiI6laj6GIj06Qh4546TY3e7z08IUZ+bnZ0AcxSopRCIiIiIiIionrSeAIk7Z6Ai7WYuIfsO3IJNWaWLZS/eZULjlj5vY0NO3Zj947NCJ3poZYSERERERERmUaDD5CYt7SHi7c/Aid2h0jPqkmJRvRN5TlqOqZP8IWdGMTI3Aoek+dglpVSTkRERERERGQKj7i4uPyuTpuU/cBATPasaMSZu7gQGYHj6eosPDA+eCjaq3P6NDdP4ttdsciq48Serq6uSEpKUudqT12tRwgICEBkZKQ6V/d+H3Memn42aLa9I8zPqIXlGLZ4AxYMsFPnchH9/6bi7wfVWSIiIiIiIqIaagRJWjXISrmAI9+GI3xH3QdHqGE4HPo5otm1ioiIiIiIiGpJrbUgeZiwBYnpVbUFiRDw3la80sMC0MRj/aQQfK2WExEREREREdVU40nSSg8RZ/xub6NMPlD+lMfKyQN+r63CdBEckWSe2c7gCBEREREREZkUAyRUtyyG4/fBX6HQTcwk45FLcqlRr6zejc1rQ/HnsW4QeVk1v0Ri2bLDypNEREREREREJsIACdWRlSj8xzXkL/oMmlHOEKlkzC58B7M85dlyFWqQmxaPvR+/hRmvf4J4tZiIiIiIiIjIVBggoTr3SF42mh1bh+ab3lFLjPtk3hiMGT8JU4NC8O/t55CrlhMRERERERGZEgMkVEcWwPzvHdFCeli86wXz/RUHR4iIiIiIiIjqCgMkRERERERERNTkMUBCRERERERERE0eAyRERERERERE1OQxQEJERERERERETR4DJERERERERETU5DFAQkRERERERERNHgMkRERERERERNTkMUBCRERERERERE0eAyRERERERERE1OQxQEL1w2wWiqacxoNF15D/D+nxl6/wu/oUERERERERUV1jgITqwWwUzl+GAq+2KLRQi4iIiIiIiIjq0SMuLi61+8O9WSu079kXAzzdYd9Smr97Ad9EHEeG8qxx8nI+6NvFFXatLGBhrpanHEHYrnh1pm64uroiKSlJnas9dbUeISAgAJGRkepcHeu+GwXPdUdRUTaabXkH5hc3AkXqc0RERERERET1oNZakJi3doHPyMmY+XIgxvdVgyOVZN6+DybPFMt5wMFWJzhCD4XfOzj/f/buBS6qMv8f+CdRREBEF4MQUJFWjIvhXbzfSDDF0KRwZaNSdk3zv7abtab7+unabTdb03VDaml1pUhDiUTzmoqYeSEREhPwAhEIq8hFYBT6n8szMAyDIjJcP+/X67zmOc+cw5x5Zs4w5zvP832UeEiHs/+BSQqDI0RERERERNT8jBQg6YpBPr4Y6mIDc2iQf/4wDp8vEvfdQ8+RCJw2CDZmgOZ6Gk7GfYEtEWEICxNLE/ceISPoqN50yPy7WiAiIiIiIiJqZkYKkBTh7IVsFF05idjPIvDFkVTkV4i77socnqM90VU6qqLknYjYdgBnMvNxSyPuJiIiIiIiIiIyAqMNsdEkxSJyzxlk17PjiKLnILg/LN0WnEHcsVy1joiIiIiIiIjIyIwWIGmIrn16oat0W3TlIgrUKmqLWtS7joiIiIiIiKiFXara/spauS3SmGPQ2JkIDHkRoaGh6vL8PMwc6wJrXly3Ym6AUxgqPKyAyjw8dEVUExERERERETWzFhVu6Chmq7EfOh1DB9jCWnf6mk7msB0wCYFzRsOWQZJWZj4q/nAF5f8Xh/IXpqKyQyE67lyNDvec65mIiIiIiIioabTMUENZAdK+240vtnykzlwTHoGdhy+hSJ4Otpsbxg+WB+JQqyW9634x7SZWiIiIiIiIiJpfiwyQZH8XhQOJV5F/S0x9U6lBbupexJ1VM5NYP9xLuaXWIhwm7/dG5/97FqZxaXiogxUqnnwZFTbibiIiIiIiIqJm1qICJIXF6ny+5paGe4gUFN1SC+ZdlWSu1MpUJuChE5Ngcl5e6Qn091aqiYiIiIiIiJpbiwqQZF9Tk1JYOz4Kc6VUk/3DahLXioJ83M/swdSyPFRcqNz+0s1NuSUiIiIiIiJqbi1riM2F87h0W7rtORQzp7jC1lStRqeucBo2E0+4ymGTIqR+f0mtJyIiIiIiIiJqBA85OTn9IsqNymZUEGa532sgTBFSoiMRnydWJeYDpiNwrD20sZGaNMg/E4cvTuaK9abh7OyMjIwMsWY8TfU4soCAAERHR4u1pvWL3zlohlvB5MRf0TEuXNQSERERERERNZ8Wl6T11vlYbN4ej7T/3UKFPGuNrLICt/6Xhvjtm5s8OEJEREREREREbZ/RepC0JexB0rjYg4SIiIiIiIhamhY5zS+1cWXlys0vVk7KLREREREREVFzY4CEmtxDlzKVN17lgEDcGTOf70IiIiIiIiJqdrw0paZ36QOYpMu9SDqjYvIbKP/LFZT/4VNwrBcRERERERE1FwZIqBkcQof//gmmR9NgohFVRERERERERM2IARJqHpUxeGj/JHRc0xud/yIt7z+Lh8RdRERERERERE2NARIiIiIiIiIiavcYICEiIiIiIiKido8BEjIqZ2dnUSIiIiIiIiJquRggISIiIiIiIqJ2jwESIiIiIiIiImr3GCAhIiIiIiIionaPARIiIiIiIiIiavcYICEiIiIiIiKido8BEiIiIiIiIiJq9x5ycnL6RZSpDvJUtRkZGWLNeJrqcWQBAQGIjo4Wa8bTlM9Jyyv8Mqb3k0t5OPrqUBw6NR9+O5ZjSDepqvQMNk8LwGX57jauZbeDFVbMfxKDraSiJh1b15/ANjhi7StjoEwM/fMJLIpMR5Zcbix2jyIsYChsO5chN2E/Qk8UijuMrfq5ZuyNxNJzorotsnPH1rmesEAmYt47ighR3ep5jMFOH0elmPttNEKPlWHsxCex1Et+A5fh3PZorLii3E1ERERErRh7kFCbU6oRBdxEwSlR1NKUSZcz7UPLbgcNSrTHV1aCXFGsotE0bnBEMvax/rDtIhU6mMHW0wlj1WqieyvX4LYolhTqnzkaaMpFkYiIiIhaNeMHSDp0hb3XJMyaF4rQUGkJGg0bcVdNNhgdJLa51zLNVexDVFtBgX7PgHD8nC+K7UjLbocy3CgRxSo3ccOInTqO/HABuaVSobIMuUlXcUStJrq3whJUxRuFI3k3RYmIiIiI2gqjBUhMujlh0KRZmPdCEKYPc4GNubiDqKmUFuKGKFa5noccUWw3Wno7lJRCfxBWyQ0jXHzmXEToxkjMfD+6CYfXUNtShpJab52buHZNFImIiIioVTNSgKQrBvn4YqiLDcyhQf75wzh8vkjcV5d8xEeGISysriUKZ67L21Ugu4lzWlDrUnBdXFzrDCOpGm5S2V4G2LT8drheJI6hajiNzrAbZkailuRGKYqVgs5wGp1hN5pKUSAiIiKiVs1oSVpNPadjtv1P+ObYGWQXATajgjDLvStQlIIvIuNx3z39nX0QMqUvTBu6/wNgktaGa44krVi4HytnuwA3E7DpqSClp4TdmiQsGGkFpEdh1fxl6nZaYvuC42vwwVvlGLJmMcY+1hOWJtJ9FYXI+i4K0W+tQYF6hVTN0hsOcxdh7Dh3OPS0gpm8veTOzTykfrMeX67bjDtqlUJNmlqIU28twdUn12GGhxU6VuTh27UB2Ht5PgLeDIZ7N2n/vARsfiEIWTUezw12S97FjPEusOvWWam5U1qIy9+E48u/rRcXb3rutx1qGI9XP/p/GG8vbbrjNSwOTxX1jacqyeWVo5i5PVOpC5kdBP/eQEniV5h7UPxUr038WZCEtz9OxrdqrQH2WPuH8XDukInd7x9FmHzRWpU0tKYaf1+fSMipbPNNJUKnemPsozaw6Cjdd6cYWedOIOybXJwzdFHcwQxPew/FtMftYd1ZvCE0ZUBHMyUcbShJq4WVLRb7DMLgXt3RSX6MygrcLshG0olErP2hGFUjkR6kHQQPF1eEjnkMDtbq8aBSg4LMVBw+fB4ReRXqRg9Ce4yFSVgbfl560w/C3OHOsLWQ2kJ6XgWZZxD15UXs1h+v0sEEkx8bAL9BfeDY3UptB0jtUHQDGScT8FZiMQqUDfWZYKz8GEN7w7arqVolvUa5F1OwMz4du+t6ifXbQSOd5xfO4L/7s/GtwWCHNoFwIU5v/QqrlZOpjSakJSIiImrHmmwWmwcLkFhjaGAgBllXIPvIZsSe1/92bVwMkDRcswRI7pc2kPBTClK7ucHVUtTrKP5+PdYufU+sqaqCDXUoOxeOd5esEWvVAZLk72/C/XF1RgzFhUM42m0CxtiJdUn+gSXYuCZGrE2A178+xPT+amBEX1l6FDbOX2Y4SNJQz67FznmuUC45NanYPHMpPlPuaAYdemPDH0bBoTQVERvPQNsqtXTuh7BFw2Gru90DBEjwczouWPZDf+ljS19J8l4s+Dq/Onghs5Auon8rXUTLiWDroB8g6T9gOFZO7QeLOvrylfz4DVbFZuOCvPIg7SCZPNEXi7y6izU9SkAj+cHzslQFSC7idJ4jBvczE3foKJAe6+Oaj1U9I4xht88fwHNxuTXbW3p3hsyeAf/eIjCiTyfwpmvyWKkdhtbRDtKxbYhIxn72CCEiIiJql4w0xKaRuQzDQGvp9pb0pbuJgyPUjvRSgyPF56PwQWAfrJqxBJ9/r15EWz7uC3elpKPiJvIvJCD2vSVYK28/UVqeW1a1j5nHTEwYohR1WCnBkeLvw/Hm8kNqoLC/HBwpROK6adh0XN3Xpo+3ciuzfGWVGhzR5OFUxDK8KT/OjCBsjEhAjnQ6mPULxJxXJoit26DKEnmEA9DFAj3UGsO6d4ES2yopqs5pkpOMue9FYqZYYu5nKtZH1OBIyY9HsXq9mrtka7KazcXisf6Yo5S0zLB0tgiOXL+ImM+24znlMaOwdPNRZMjHr8+iNxZPVoMjJenHsOHDKOUY5274ElsTc5XhGxa/9sbzv1Y3f6B26NwbMwd2l/7GDZyL/RKL3lfbY+6G7djwdRKybuj2dWoEVo8qwZHbOUnY+rH6vFbEpKJADjxYe2LOYNG7RutOKQrSk6R2i8ZSua217SDau9OAgQjVj584umOyHBwpz8b+qvaOxHMffomI+IsoKKndI8ai9yCEyMGRymJkHPxKtIP0Gn12DBnyKFDp2EKm2NQKqBERERFR+9AKAiQ2GD2sL+Sv07lnjyNbrSQyCnmYzdqXlqEgT1opjkHqyt24rNzzMJymKIUqOSvHYOPvg5C4KwbF8vayq1FIXboep5T0Hz3xyGCltiZNGg6tX4M7x69V9fq4c34nYmNSkPOTfrbHxZgwTu5tUo7EjwIQtyVKHbZTnID8LUHYFJGi5BdxGBwMOYbYaD79EgnZcjBSg/Rdm5qv94iiWMx4Ywlb7RRYHRyx9g9B2PnbR+EhqtCjm3Jhe/t6IfRGsTRYQeJXWBCbidNyU1SWYdu+ZGTIF/kdusNBp8cPfj0QI+VjK0/H1v+cRMRPGjEkpAIZeTdxQ5usQofvqIFwkDs//HwCq3ZewX5xQV9SXoxtBw/gv8nyu8MU/Qf1hoNyzwO0Q/eu6C5/2pfn41RaMbJED4mScg32Jydj0fbURp/V5/aVo3hjazK2FajP61zaGaw/qQY8HPra1whCHDlyAM/tTJbarQwZIgautMPXx3BaSV9lAwe1EapZW6h/40Ym9lW1t/SalRQj5sRJPLdb/7+FCX4z0lXZJzd+D5YmFop2kF6jn65g6dYTynTTFr/uBz+5moiIiIjanRYfIDEdMBKuchf3W6n4Lom9R8iIbiYgenm4WBGK05D/ABOqdNT7oVxW9sNuJF4SK4o8HP/vSlHWM24k+srdAW6eRqKB4QKISlZno7FzRF+lorF8g3dfnAk/v5lGyT9yf8qgTmrTBRbaq2oXezjKn142fTFF9CywMFU/zkpu1hyI0WBFyfjvwcKawzoqb+KGgbFMkx1t0Um6vX0xHdvqNTzDEgMd5RdWgwuJ6eoQGj0xSZfVx+5ph5FKzQO0w7U8ZMnJRbs8it/8dihCe5k2bkCtlkzESe9X/ed1OlPtGYPu3WAodmiQdhCo/rn0Uw5y5ba2G46Vc1zxdA+TGkGX2mzR/xH5NhNnlIiXnhKpjeQOXKY94aob/CIiIiKidqOFB0hsMMzLnr1HqMnc30ADN9iFRiJ4+wX8ed9lrDyoXZZjSDexiQFlpfq5L26i4Lgo6nN9WL2Q7eaN56v+vu4SiD7Khm1beqHcZmawEEEA/7690EmqK5E+I/r3V6+cB/dQG/26oQhGQ/xSifqGZB27K4NakJtb3+xKFuiuTH1ehuJaczALP99QejTA1FQdMiNpcDtU5mLVFyeRWw506vEofJ+ZjU+WzEDYTHeEPHK3wIKcnDQIOw0uYxAitqq3co3apmYWsFUqtEww1t0dG0ICsE3uEVP1GE9isP7QGq3rF7F2TzpKKqXWdByEuSGB2LrYFxt8+sHf2kBk0qYHeij/8RzhW+Mx6vFYRERERNQutOgAiannaLix9wi1SBPgFR6NBYHe6NOjs8GeIo3CWH+3lTmSp3bjse0pX8HaYEg/M5Skn0VqoVT3aB9lCIqthZwQtBA3tMOdmoGm3hPBmIiZWu7Pg7RDyc8XEboxGmHxqci6Ln2edrSEbT9P+AcF4pM5/TCiKf8blJeiOi4kJ1t9Ckuf8IRDDzN0uo/juHD+BOb+80vEJF5BrjxEybQ7HDyGI+SF2fjExwb9xXYKqb3lXj5ERERERHVpwQESe4wcqP7GyN4j1OL4L8aEfvKsMuXIOb4ZG58boyZpVZY1IgdJI7h4Tc2tIE/VW/X3DS2Tkajs0Ebl31SGm5h2MgXs7ODcpQwZ6Zk4nC5HBhwxTXopenSRE3rcxDX9NC5NQXQ96iF6ktTQwVQ6blGuUiyG6pjBsq5eC490V3tZlJbgulIhedB2qCzD7hNnsChiO2auj0ZE/BWlB0Ynx+EIGWpgxhlkYqlIflp7uf+pbS16dld7q5SXqr1jZNpkq9AgN/EA3t6g+xhf4bTcaeZuNMWIOHgMoR9GYe6GrxBzTh7GYwJrj/F4vp/YRpZzUzymPC2v7mPoL2IaXyIiIiJqd1psgMR84DC4yl3Q2XuEWiCbwS7qsIebpxG3fCXyr+rkB7E0a7yOH/tSlJlq0O1RDFATUTSR8Xj1o52Ii9uJ9fNdRV0zyr2p9Djo1LULPPrZw6L0Mk5dAY5czEZJB3t4uNvgYXlkSdFNpNcrB0jjOpWnDq2xdrAVCVW1TBESMB4etab+LUSq8sKawvnx3jV7OghPD/m1Eky4/VMO9qtVjdsOmjLEnDiGiCR1KI7tI3edG6cRSG3hoU5vXZCeWZVAdkRfWzVoUvQjth3MxbdyrhStDiYwfUiU66GkvBARew9gv3I6msK2l27AKg9ZystkC9cBSkXTsPDBG5vjpHMpDtv+FowWcDYRERERUR1aZoBE+qI/1JO9R6jlyhdDHdDNHV5B/mq55wQ4hEZjQdQr8LpLDpL7sxnf/SBfMfbEmL+cxPTQxbB0Ui8yYekNy2mrMGHdSTz/l/lqXWN5dga87eVf9U3Rb9oCPKPWNh/tFLfd+yHUwwa3M39CjFyfeQkZJYCD5yA4yNfCxSVojpSy585fVXv6POKF14ZbwUH6ZLW2tsWKuU/CX+4dYSBYse37DKU3SCfHUVg5szcmW6hhNYvOVgjx88XcX8v73cDpE9nKdoqGtsNjw/HJbHeE9rWEPGO0lkMPW4zrowYRcvOq+qk0gi5wkB7LWX4LSawtuiN05lRMlpOkll/B4ZPy3Euqc4UiV4pFL4xzMVODJaammOw+CGG/84WHPMzSgLGjxyPMzxVP9zKrehx56JJzr37weFgua5Cbo5uPpgy7fpD/m5ii/9QZWDvcBiNEmyv79bRB6MQx+GS6vahrJEHT4S1mHbJwC8CCeXVnfCEiIiKi5mW0AInNqCCEhoZWLbPcxbfcrm6YVVUfhNE91Wpd5h46vUeS2XuEWqCvEpCmvDWt4PXiOjVhalQEng8cBLsu5SjQvS57IJm4vPLvOCVfu5r2hFfgK1j6yVH18b6MxNJXgjHGoycsqy4Q2yoxxa2VPRwsNMhI0w7QuIFTl6SL7R42sJU+zW4XFSNL3CMbO/HJGok4/Xur9RZeuvUNSDaq73oqdv2o9ghxGP0kNvwhCJ+8MAmD7cxwO/0oIs4aGCeSeQYRYtpbi36jsOh3gcrxbF30JPwHdFeGw2TsP4C3awz3aFg7wMQU1r094RswA+8sqm6PDSGT4CFnAS5Iwrbj1UGLB2eDwdJjrV2sPs4nv/OFbz9LJeBzbvdJROj0Eik5n44Meb1Dd3j4B2CrfGyLZ2PRE66w7VyGkqI6/geYWsJ2wCDMfSag6nF2vhKItc8Mh0NneZrhE/j3j2Jb4cLJBMRckf5eB0s4j/bBa6LNlf2CfeDr5Qjrzo2c+Cc9t0a+FUfnoaJMRERERC1Ny+tB0qEvRg8SvUeSTiK7GbrLE93TpWWIfG0zEnMKq2e+qShH/qVD+Py1AHx+7l6JE+5DcTjinluCzbtTkHNT58pSeryy65lI3L0em/+hNz3xg/r0SyRkyxemGqTv2oTP1NpmpJ3iVlKZi1Sd+WNjUi+rU8dKGm2K3wbYFvslIhKzUaJ9Q2huIOPgl5i/M1PnArmm/Ud2Y0XMGWRdL5Oel6is1KDgShJi/huDpef0gwMNbIeUkyI5axluV32mVuB2UT4uxEvHEJGM/Y3xWXstDf89mISMvELc1s1YqylE7vkTCPtYeqx0vedUno0Vm7/Bubzi6ja4Uya1wRlsjYhBWJrhwM2R+G/U5KxFum0nPSfpnDj9tdTuBqYZlt/PEdt3YO3XSXptrrZFRuJRbIg1MJ32gzj4Pv5zqvnel0RERERUfw85OTn9IspUB2dnZ2RkZIg142mqx5EFBAQgOjparBlPUz4nIqIWadZb2PnCQJhCg9QtM7H0U1FPRERERC1Ky+tBQkRE1BZYOMJ16kKsf0YOjkhunMKXDI4QERERtVgMkBARETW2+esRty0Ma19+Ev3kvKyl6Yhe/Vd8o95LRERERC0QAyRERERGormZi9S9G/F68GJ81BxTLBERERFRvTFAQkRE1NjCF8PPzw8znw3B0n98hbPM00pERETU4jFAQkRERERERETtHgMkRERERERERNTuMUBCRERERERERO0eAyRERERERERE1O4xQEJERERERERE7R4DJERERERERETU7jFAQkRERERERETtHgMkRERERERERNTuMUBCRERERERERO0eAyRERERERERE1O495OTk9IsoUx2cnZ2RkZEh1oynqR5HFhAQgOjoaLFmPE35nLS8wi9jej+5lIejrw7FoVPz4bdjOYZ0k6pKz2DztABclu+ul3cQfDAQfVCIU295Im6fqG7z5mPMlj9iQq/OKPtpDzbP+x1yxD0tgdm8aCwIHgRr6XVJ3vw7RG9JEPc0oymRePl1b+mYgDvnw/HmS2uAhfuxcraLcnfWriD8+73mO86Q2UHw7y2X8nEkfC/WFlphxfwnMdhKqipNRcTGM4iR7yZqTnbu2DrXExbIRMx7RxEhqqmJ2D2KsIChsO1chtyE/Qg9USju0FP1OtVUkvgV5h6sYx9SeYzBTh9HoDAJa8OTcURUG5vDrwfhnWmu0mtWiHO7dmPFjxXiHj3a49OTsTcSS8+JlfvRTM+3VdFp89xvoxF6rAxjJz6JpV7yP+gynNsejRVXlLuJqAmwBwm1OaUaUcBNFJwSRS1NmfSvhu5pygR49eqsFM16eWPQFKXY6KwXRuP57RewcM18UVM/A8YOgrWJVDCxgvtYf7Wyud0oxx1RLC64JkrV7pQ2bxCnuFx7YpTihv71y20Nbohi8zFDiM94fLLYFyvsRBURNamxj/WHbRep0MEMtp5OGKtWUxswxdMVFvK3/g5W8PC0VytbrTb2/0L6/3xbFEsK9b+laqApF0UiahLGD5B06Ap7r0mYNS8UoaHSEjQaNuIuw0xg4zoa0wND8OJ8sY+0vDh3FiZ52aMrQzp0DwUF+ld/4fg5XxSpfvYdQuJP6n/ksp8ScMZIPWf6eg2CQ4/O6CjW6+v8kTMokH/8qihE8pEW0u/h1DUUi2KVi9dQIIrNLbdE/0tXIbLqERXxcOyH1UG+2LYkCDtfkZdAbFvgg7UTHTHWVGzUKHrCw8Me1qZy5KsNkS40fYcPwoaQAJ02lJbZtX+h1efw2Chs027/yhiEiHoiYznywwXklkqFyjLkJl2t+9f+nGTMfS8SM8USw1+3W7x9SakoqZQKlYU4l5StVhpy7mjV6zrzva9wukV2CGpj/y8KS1D1255wJO+mKBFRUzNauMGkmxMGTZqFeS8EYfowF9iYizvuyhyu04Ixa5wb7K1NYaJzdCaWNnAZNh2zp3sqXdiJ7qm0sPav4tfzWtRQkZYrHEfn9ceqiX3wbgsbXiMr2xKAD6b0waopni1jeI2e4uspoqRViPxLotjcSktwXRSr3CzCaVGsZoq502dg9Zzh8HikOzpVRbFM0KmrDZy9xmDpjHtf5Ldn1o6uCPtdAEJHu8Khh5lOG9ZDB1ssntgbncQqUZPIuYjQjdKF8fvRdQ+voVYp68czmPu+/Np+VffwGmpmZSipddrdxLXanVKJyIiMFCDpikE+vhjqYgNzaJB//jAOny8S992F82iMdjAFKouQui8KEeFhCAuTln9vwc5j2bglbWJqNxgDHdTNiQwpuC6i7jrDaaqG3VRygA0ZyzXckH95lVQNp9EZdlNdaB4ZRaJ/i85wmqphN5WVKFFLVSwGeGHmry2lkga5iQfw9odRVb8qLtq0GzGJmShp5ufUotm54x+zBynDFW7nX8T+6C+xbIP2V1lp2Z4pNjTs6Wlj0L8zUJIptbOoIyKiNkj68qD+h9YZTqMz7EYj9/whoiZjtCStpp7TMdv+J3xz7AyyiwCbUUGY5d4VKErBF5HxMDTiQbuNJm03Ig5cFbVapvB8KgQjHwayj4Qh9ryobgJM0tpwzZGktSox5s0EbHoqSOn9YLcmCQtGWgHpUVg1f5m6nb6ewRjyxmKM7d8TlmLowJ3ScnTsIufiqCNJq4F9yq6n4fiWNTgac0itqMUNdkvexYzxLrDrpub5kIeK5PyQgL0Ra3D5+zounCz90ef3C+DjrbOfphCXT+/G3n8sQ06eWqXQJgwVz7fjpHWY8/upcOmh7ld8NQFfvhOEtBrnkU4yW1067ViL9nEuxWDVCzvh8KflyvOykcewSwou7cGXr/0Ol6uOTZv0th70XyudhKe6Lm/vg80bxYpBBtpbarecCwmI+/B3yNL/LBGPU3B8DT54qxxD1kiv72PS6yv35JVep6zvohD91hoU1BpPU91+1cdU3yS/jnjm7bUI9rTAjeP/wILVexv/othAoryqJHBXjta6YA+ZGQR/Odlx5jHM/fzK/R2PqSVCJ3tjbL/usJC7QFdW4HbBZRzem4gNP+l0JK4jGaAhhhMEmmCs1yDMHdobtl21J20xci+mYGd8OnY/8A/gplgUNBuTH5GKBUnYEJGM/TW+qJoidM4M+DpKjy3dv/ZjbQLC6v0KEr/CSwcL76v9LH49HJ9M74dOhcnY8FUlQoIaP2mptbUNfjPMHUNcbGDdRdt2ZSj46Qfs2puKbbXaTpvUVxyH/Br7jcHkvt3RSf6ppSQbp/clYHW6fkdxlXVPRywe5w7PXqI3kvSeKPlfBo4fOoeIzLLq9tEm/yySnvumFGi8huD50X3UrvSVGukz5SQ+/PIKvm0BFwz1fk6Cdc/eeN3XA86/slLbTHo+Jf+7guMHztY8L6TPg7WvjIGzfK5GXse0Z8agv5x0KV96D25JRmb/oVg59VHpPVGBAunz/6Uj2vdX9Wu0+/2j+OaRfgj1GQhnazP157CCTOzfm4ANmXq9Bxoh4ao2CXR99rGwssVin0EYXNVuUjv8nIG4/Wew1cCXQ/VvF+L01q+w+poZnh4/AjM97GEh76u5gYyjR7Hi+2ID55ixPx8aSPu5J3/uRufhae+hmOYlhovIQ5tSvsWG/dk4p/sev0fyYm371/qcrOMztv4JV6uTeddnn9rvcemz/w7QSX5uD5qktUH/L0wQ+kwgfHsBt388gKdjc5X7azKRPq8D1c/rE9F4Ll7+Ia2B55Lg4eKK0DGPwUG7vfSdI+vCGfxXel0Nf3aJc176rqC8z5UvrkxYTdRc5NPWKDRJsYjcowZH6iv/urqxqW1f2Ov3KzZ/FL27y4UC5GQpNUSGbZysDA1ZpXNRn7PcU62rKzjiG4mFkavg51Ed6JCpwZE6DHgHQZ/U3seshwsmLPkQwQsniBpdE+AVHo0F/tJFu/ZiXWZiBTuPqQh+aZGo0DNgFeZErkOwr95+plboMzIQPk+LdX3dHeGyeD+WLvevCo7ILJ28EbQ6Eo2W20x6zn7hH+J53+rgiMy6r/Sc/tWIj3O/LOdjQqSB9pbaTW7v598/iQm+hr9wWTvNlNpcvL7SdzuF9Do5jJyP51e9Iip0hSPuKek9Jr3PqgM2y7BZft9NvMcMSF7P4glP9fKk+8hn8ZKXUmxc2nHlOl9Qjxz86t69GaQrmPvqtGchfdF7cQZ8B9iowRFZBxN06tEPk5+ZgbUeOifLAzGVLgqewtKJj1Zf/Mg6WsJ2wHDpy2z9vkjfnQYbYo4iQ/5Fz9oTvxlvVeMisv9QbzU4Ui59gf1M54u/3a8xUg6qXD+D9fcZHEEHG7w2sR86yV+Uv0rCfqP8hOGIlS/4YLI8hl8bHJF1NIN1b+mC8oVJWNpD1NViCYd+vbF2gfQa9xPBEZmFPQbPmITXDJzsk0dNQnjwGAyW/okrF8Qy6T1h0fNRTJ7qgsGiqoZfOmPkTH/p9e1XnWeggyms+43CK7N7o79a02zu9zmp249C/57iwlEmPR9le+m8CBtV872l6oIp/uPV4IjMxhN+Ix/FUjk4Iv8N6fGsh45AqDzRRQ3d4DB+DP76zHA49xAXaDJrR0ye7WPwNWoqFo+445/S+2tEjXaT2qGXK56e54sV8nljkBW623XHipAAzPUSwRGZaXc4T5qK1Y9pP6S1muLz4QF16I7XfuuPucMddd7jZrD1GI+VM+zv73O3BZg81hef1HqPS5/92ufWLCrw37PpSk+MTn36YK72uHR17gMP+X1XmY3jJ/V7Gd//uSS3w2p/Ob+azvbSdw4H6XV9LcQdkw0dAzKxVP5f/J4Ijsiq8vwwOELU1Ayeps3m/HEkyaMjurpi+nNB8PVyQldTU9i6jsOsp0crQZOi5G9w8j6CLkT3ZLkcc5Z4w0b6H1526RAiVwapwZQZQVj7XoLB3k5yoGPEnwPh0kXaJycBn782Td3nuWX4/HgeytAZfWavwogBYnMt/8WY0E+6UNdk4tB7IXhTuXjugzd/vxKRu1OQb/C9HYgJK4Lhqox2yENi1Bq8O0PebwzeXfIeYk9loriu4cQ9vBH0lAvMSjNxKmKZ8nhvrktQE4dK942dp2wlVF/gK8v2NFFfD93cMER6XtVtMQYffHSm6nH8pPZVaQMG6hKbrtbKvTWqHle76AeztIEvZVmDU/fMX+YIhzcWY4yd3N55yvNX222a9LrGIE3uAWLaE2PmrTKcOLqXm9Lmxeej8EGgtN+MJfj8e/UnR8vHfeGulNqufT9eUbv32g3HX+f0w2Sd+FLdTLHIfwyc5WElOUnY+rE6LGfuhi+xNTFX+numcJ7sjUXaK8EayQCPQu1rJv+Cpq2rXmr9cukofdHsLQcnsrH/s+14Tmz33IdfIiL+IgpKGmmMfUkmwg5nKm1hPXAUlmov4Cz6YeloeSYIDTIOn0CEThTEo590ASfdFqRnGcjtcnf+U7zhIe1c8v0RrP1ZVBpDYTbOxe/F25uixJfwKCz97ASy5GBQB1uMHGWrbldLdwyeMQrOncqUoVer10v7rt+N0/LJLl3wDR5acz+5N0zoCFsll0pJutRO4j0xc/12vB19Ahk36hinZfUoBvcz03kfRWH1QfV16OTYH9NqBQWazv0+J4tHPBGibC+Gq4mhVs99uBu705UPItgOG4FQ/aCU5aPShVsxzu2UnvsJdWCc87ChsC1ORth6bfJMGzgo03frsoKHlyM6lefidGy0cm7MDT+Ac+I1GjG+d82L76ZKuCoH//w9YS198yxJP4YN+u0gv3+kC0v/Or6ZOk/wxWDriup934/G7ityzxvpc2WoMzzUzVRN9fnwIKRjHNHDRKctorA2Plt9j/cbgtDGiOE0UcJV5ZwY2l3pAZN1QvpcEa/t3A3bseF0I2XJb+D/i5Lz6UiVh7+aOsLTQGTVY0g/KJ9amen4b63ZYu7vXLLoPQghSjsUI+PgV1gk53xRPluPIUP+fmctfRZMsTEQDCWilqRlBUikS9Hjn0ch/or0KdKhK5yG+SIoJAQzx7lKXwEKkHooEpHHDHWPI2o46yUz4Sr/wJRzCP9+IQRp8SJ/RHECindl1p6ZROa/GN69pNviM/h8QRBSvxNJOa9GIXV5AKK/l//LOmJQgN4UtL2sIMc5kJeCxF2HqtJS3LmwGWl/m4aNSw30cAkJxkj5VwpNJuL+MBSxYeEoUw4qE2Xn1iPx1TGIDpPX61Cahtg/jkHclijl8e7ELMNREZiwezRYLTSCsvQobAzStkUmCiIDEHlYHVvj4N4MU/H2/SN8hslXUeVI/ChAef5qu6VIr+sSRC7bA6Uzmp03RtZxeHLgZu1Ly1AgP43iGKSu3I3Lyj0Pw6kxpz5O/BRfJ6lX2DeOf4p/JirFZpX1wzGEnVQvyjo5DseihYH4JGgQFvU1qztRtvSFX+k5UZKK/36ajG3KVEPSankxth08gP+eL5M+2+3h8biZUv9ArC3UL5k3MrHvJ03VbEEFJcWIOXESz+2+yywN9+mC9MX8v8niAu5JT0zuYIals4fDVr7Q+34vVpyrOaxkSE815Fas6YRF8lSUiwKrZ69Z/CQ2+NhjhIH/vvKX6znu0idEYTIiDt1nz5P7koml4d9gxYl8fFskXXAqdRXI+Ckdy+LV3kSdHu6JEUrJkDJk7P8KoQeliwb5qWtuYO13hvYzw+JRcm8YuZ2+woKd6YgR7wloNPj2UjqWbk+ts8v97SvHsKrqfVSB04lnkVRnUKCp3O9zMsFvxrkr79WS5G+wVGqzb8VFWEHJDYTt3IP9ciCsgw0GD1G6yVaT3iO3ryQiLF167jfFf6IOGlyIT8Juucv+3Wahkns1RRzA6h/LlHOjpDAXK3aIoPUjTpjSDN/+HLzcleAffj6BVTuvYL9+O8i/nFs4w7v2SEpVhwoUnNwttbnYV7oYD4tPVd+/PR7GEPlWqwk/Hx6EPASv6vlI7/EjJ77BzjT5pLKE86PNGAW8L2YIHameE7nfxWFRvPS5Il7bknIN9v9PJOdqNvlIUH8RQX83R73ghBmm/Vr+vJbOq5Q68j3V+1ySzvWRrsrfz43fg6WJ0jmqDKeRP1uvYOnWE5CvYCx+3Q9+cjURtVjN8C/yHiqLkCv91y/SH6Nnag6bnt1Rr8lwiOrNES7OPZVS1unwOnqL1GYz2EUJdBT/IF0wi++t1TKRlqZeLNj00facEBIz1cfoNRULPo6A62i9+w1wHeKmTINbnPQ5Tt137p08HPrjZCTW2C8TP18TPyOZ1KtbQD2kYd/8ZbWCSfnSFw6lw6qNY9MPs/FxU3/ZyUvAcUNDSM6vQZIys0xn6breQITkZgKil4eLFaE4DflGmXkvE5+99jT8/Pww1xj5Rxpo/5HdeG7zUZz7SQ5smMD6EVdMDgjAJwt98I6XZa1AyYi+tuqF4MU0xBgYZx2TqQbMbB9Rz7kH8lMOcuXHsBuOlXNc8XQPE70vvo0rZt83ai8JK3eEvOiDsfJ36oIkw4EM0f3fYZSvOoyls04X87q6WnewwlIf+cu1GFpjcJy68VX9sC4dm87AhBpyE77CUr2gUEneDbUddPezckRfuVdEZTaOxN9vwCcT+6Ov1MzDILVNfaamNqr7fk626K/0OrqBcyfzDWyvQcQP6ueTxSM2NXtBSJ+eqScz1UCu1vVkfF6P/wMZh4/W6NWkuJ6PTPlatUM3ODysVjWlKY5yjys5+JqOC0pJlwZJP8v/l0zh4GA4MHD7/AGdfCtCzk3lohMd9L7ONvHnQ4MUJuHfBobgHc5Wv4lY9NBPCNZCdbCFsxITzsa5U/pDVFqG3ad+VAMajn0wR/et0qMPXOXzuSQD39RxXtX/XNKe65k4o0SO9ZTkIUt5i/eEazMOcyOie9P7j9LczOE6NRizRjmhK27h6rEvEBG5Fyl50gdNB1PYuPsicJorgyTUiKbiYaVbs5oktb7seqpf4CyHLcfKg5drLwaSiSqOh2DzlhQlkGDZdwLmrIrEyj1JeP7dD+EyzE3dpoZgOIke6/mX16uF+3ITxQb+6WtzsnygHwBobDfFTEJdujX59NzWNuLLZeG1OgJf0oVHjhoo6mhu+Gqhjs7/7UpBXiZWfBaNuRu+QkziFRTIXwq72KD/xBkIn+lYIxfEgB7qL+AWjz9Z3WNCd2nMcf/XL2LtnnSUSBdBFo6DMDckEFsX+2KDTz/4a3M2NKbKQqzelYQC+fG6WioXyPs/00/aqqc0HxfkYSzaGYDej8KGry8qf0Puav30yOqeNJMnjFUSIRp9aI1gYdUdi/x8sFW3d0s9X6OSWwa+/GuHaegmYZSuHJSPr+J8nBe/KN+PFjlzw/0+JysLNV+I9KmfW2t+bVVJjggumXZGzT4kOjNaaBWV3PewrWrS31PGzZnBssk7J1jC9ldqyWGSzvtNZ1ESRt+FpkxjIMCkzd2gl6ehqT8fGlFWmYhSWpjpBcxaqIe7qu/boutIbcB53iSk98MppaeWIwZ7Vb/+gx/rq3w3KUj+AbvVqnoycC7Z9EAP5Vx3hO8fDL3H1WS3RNTytagAiamnD8bJY0Yri5ASswW7k/OhKbqE+OgIRH2bK30cSds4jIOPZ12/axE9gPu4Gq5KLtcAxRHTsDZwJWKPpyFH6fVpBYchUxH09i4sfHe5OgSnSmd0bNnf5eqn9KbhoUpG1LFzY/WOIVlJeSEiDh7DcxujEHZCzicij5MfjlAPnTfoA5wXDXHh/AnM/eeXSuAmV+76YNodDh7DEfLCbHziY9PoiTwtHuqgk3zQBo7yMLu7yDi6F8vkYSzabhmVFdiffBLrxdAlbU8aOXHlbzylb85GH1qjUhNl+mKynEhXt3dLYzNpYb/BNIb7fU6mnaVP8ZZGg+Imz+Wmc+40kab+fGh0pRqRZ6OV+KVS+Z7eMlVg5wV1WJXDow4ib4gV/AbI+UIMJWetL51zSfr/Jw8zIqLWrwV9ezGFaz/1p/KKy8cRf00pVik4uxdnxVShtvZOaoHogZXjjnLtYgVrZ6WipgHdYChbgnaIisHkorpLXbPm5G1G4vLJ2CQnDX1uDWJPyYldAZshwfAJUjdRheNn0f3Bsnsz5PF4UI8+rPYcKS1v8gBJfo74ELEQx1CLIxzs1J9ziq+LHDJUDxXYHf8NDiu9HEzh2Kc6xW36dfW8kKf61E+aV2O526w590tTrARuQj+MUnu5nJODNyaw9hiP5+VpihuLhSNWz5JzSUgXLeflZKGm6O8zBiEG+u1fL1K/bFtYGc61UpVPQvxCPHhAHyVxpTx8Z5H+L49V0686wl/UbZ34ID9Dyjkx1ESZKLqC3ToJLJVlbyO+NtphN2YWaq+LtuB+n1P+TagdR7qgex0vm4Vdd/U1Lik17gVxh27orkTgy1Bi7ChcLdXDo+QpWGt8Hugt9Z1auF6a6vOhEY3tqfZ+vF1ae6roupg257f5O9KxyreW3WCoSfubt4wfNbMSf8QFOYLTqy9mylFLRxe4Sufk7YwfDSRnvQdD55J2uBfkaXkNv7fVRWemGiJqkVpQgMQcFuJnlvLSW2qhhlu41VK77lErthlXRd5fh/56U7dazoff6qkGc2fkpGYqHU6sXbwNz4ByP66GI/HVABwU+TAcXGsmTr10WY0M2gz/LfrU7F7Swk3AiJHqUKOCS2LmHD23Ra8dsy4PcsFXh+9Evhe7wfA2NJXvyFUY1lcu5OFSQv2HVxmHI555exvi4uKwdYVPyxsrfxeaW9UJ+I5k5SlflC162xueuvWuKgBlSIWp/KN7gyi9XPYewH7lGt8Utr0a64QxRei04XCWjuv2j0exIu6E9BjSN+3OjvCbVnvK2f3ZItdKn14Gf6X2t1cHUty+Xgj9yXmMTztOXrpg+O4YwnQSWMqsG7PLWk4espSun/0weWjTXST19xiFbXKgaeGk6lmHGst9Pydpe+WDyAaDhxqaytcMoQPVz6eCqz/VzDfSyPoP7gdn+VtfYTZONWIMor5OiWi/o7M6y1NTu5/PB7mX1Sfye+gPT+KdAU14gd/BBlN+Lf8/1CAjTWdSAukLsBpWNan6rqwlTytbx2z1TSM/D7nyOSHnItFLniy34+vexgiPNuD/RWU2En6Ug9f2GDLUDL4DHKT3oRzwzr7vXnuGzyXtuW4LV/0ZDI3KFS+u26l8f9j50avwaU1fIIhaqBYUICnAlWw1MGI+YDwmudrCXNtXrZM5bN19MVTN74Xc7KtqgagRpJ5KUYIdZo//FtPnBaKjdLFq5rsOQVuWY4j+tItaOw7inPxtpecEPB8ZDa9pU2Gm/a7lNBUO8yIQEHkUE/RmOrH7y1EsWBcB12n+sKzKU+kGy2nL4Sm66+dc3KwWhILIBPVLs+UgBG/ZjzGzA6seq2P/xfB69ygCQtX15tMNPXXaQD6uIf9aBx/5OWnScPQjw7lOsqQLapm27avasDGcCscZ5aPCCkOWRMOv6u+7wXp2BILfmKAEt8ouHMTx43J9M/J6Fk94qt9quo98Fi95KcVmZIXXnvHBO6NtMdnKtEYPHIeu3RHi54PJyoVnMTJ+1LnSSktHqvxNs8cgvDZ3EEJ6mcJB/Jex6GyKyb92xTvB4/GawQR115Gl/NRuBo/Jg+6ZVHHs6PEI83PF073M4Fx1/WIC51794KGklNEgVxnD9uAmT5wkXYBID1Kejs935UpfpjUI25WoJIHs5DgKr4+tGeArSUlXf6m0G47XpztWT5FsagZ/6bh/I89Ug0IknVQvgI4cvEuPm61J4st79a+SD/YLezFuiKsBW9d+GCvazqGHDRbNfBKfTBT/aBtFLr65oL4GtqOfRJiP1BYWIgDTwQQj+vbD2tmuGKvWNBIrzBnRWx3O0cUWY6e6NiBYdzf3+5zK8Hmy2rXf4nEfrJ1oixHi/WBtbYOlc/zUhL/lV3C4wd38a+vxq+7oX/W+k849r1FYqZ2W+tvzdc4cZEznvk9XzxmX8dg0sx/8e1Z/tlhbWMLfyx0bXhiOEFH3IB7082HOKNHLqoMV+k/2wlxjfFvu1F36v1/9GenQwxYrnh2vzvRTkIpduvnDCgtRIH+mSBf3IyfZwkPeR/o8edrHF4vkaWWbVS6SrsoHJz675Rwv0rkw2Ws4Nj0jtaO6USO7v/8XWjE/XFY+T63dx2Kmi/Q5LCdn/VG9ry71P5fKsOsH+Vw3Rf+pM7B2uA1GaD8b5PdeTxuEThyDT6Y35mesZKL0/eFR9U1uaj8ev315qFImooZ7yMnJ6RdRblQ2o4Iwy72rWKtLEVKiIxEvhs7A3BW+T4+D011mgNRcOYyoPakw1MfEWJydnZGRYfyRoE31OLKAgABER0eLNeNpyufUcIGYEPkOxhi4aMuPX4PvHlkOv36FOPWWJ+L2iTtkvpF4+U/ed/nnX3sfuzVJWDCy7t4SylS5BmaDsQzZhQXz3PTyk1S7vL0PNm8UK7Ip0rG9Lh9bGmInTka9Zo2t2ufuajzWPfcpRGLYEsRGHRLrevq+g6B/BcKl6gusDqktdIcoeYVfxvR7dYm+mYBNTwWhqvfqAOnv/136+13Eur68BPz7hSBk6Tb4wv1qkl39v6WYD78dyzGkm4H3w4PwehURa8aLLvvSBdjyELzbrFP9WmHF/HsllFOn3NSfVULJbyF/Ka7zgqIQp7ca7mLs8NgovO8rXdyKdV1yt/ylOt0txk588q5JHW9fOYo3tmcamC3j/lg84olNQerQmgux27FM58t0/6Hj8c5Y6ctu5Q2c/mw3VuskV+3vMQZ/lS6eDY9Jly7Ovt2LpcfqkW/Ezh1blWE2coBELxFlA40d64uldV1USRdiJVZWsChMwlrdhKs67wn91+Ku5Nl5nvXBWDtDJ7lE/3Hu8XxDZgfBv/fdjsEEITOfgn8/7eM1XrtVud/nJF0whcx8UjqmOr7cSO+fb6X3z9tV7x9HrH1lDJx1zxXp/aQk0JXe19oharXb4t7nbUHyXrz1dX6N8+Je55KqZjs2ZB/Z3c8LWe19tM9THrpX3+Dgg34+1DxH6v7MahDta1mXcjkB9DfYIIbXatV53pZewenLv8LgAZa1zgtt292V3vu1Ifugx6MI++1QZerzGpT39g94OGgUnGudFw/mfv5fVDPDayEBGCF+/Co4EY3n4g0FJht2Linn+uwZUvvV8dkg0zmHG0WfF7H+HwGo+sjLiIbfoo/EChE1hDFi4g13KxW7I7/A4eRsFGizeMsqK3Drf1eRcvgLbG7i4Ai1B1E4tGAl4i4UinwkwJ3iTJz6aAk2rgyXO3IatjsIHyxdj0Pn8lCs/LIjaMqRf/UMDm1cg716F9A5//i7mpz1ZnmNnLBl19NwKmol1hoIjsiUxK5Lw3H0Qs3HulNaiMuHw/FlzU4nzU9TiJxze7B56bS6gyOyS8sQ+Zr0vC4VQveUbzTnpb//nPTa6r1Gd4rzkLx7PT7QD440l8RP8XWSeql84/in+GezBkdkhVi/bS/2n8tErpxPQ+nKLJQXIjc9CTGbt+M5/Sk3JSU/J+Olj3dj//l8lGh0XlRNGQp+TsX+6P1YX8eFRtYPx7Aq5gyyrus9pgFH4r9Rky/qHp/0v+L29Uyc/vpLzG+E4Eh13hF1aM0qvV8aL5z8Fkfki5gO3THYfxD8df6jXjh3FPM3H8OFPOkNVnV8GpTkXcTuzTsQWp/giJEcObIXYfGZKKh6faR2K5K+6B/8Cos+PivG0TeSykKs3boDaw+m1nxdtW2xs7F7M1QgYt9JdRiMsdz3c9IgYmeMtP1F6f1a44MIuedPIEw6X6qDI41E9/wRx7X/82i8VOuCrmmp58VRnL5yo2qIpUL7uRKZgM9F1YN40M+HI/HHcNpYw5AuJGLrCfW9U7MNbiAr8SjWbqodHJEdOXIAEYnZKNHuU1kmvX+OYe1Hx3C4TPcFbwbXL2LplmPIuC7e31Jbl/yUhK3Ke9s4x3Y//y+qleG/okeXPPV26g/SvvdyX+eSdK5vlz4bvk7S+2xQP2MzpNd3Q2wjBkdklz/CP/dkSo9MRI3FaD1I2hL2IGm41tGDhBqsIT1ViIiMyhSL5s7GZLlXYP5JrPjPxWbI9dIcGtjLhwzy95uNEDn/iCYdW9efwDZRT63b4NG+WDG8O/DTMSz67EodeX9a2bnk+v8QsdZH6YWa+83rCHn3rFpPRA3SsnqQEBERETWQnMvi6YljME4ZMqlBxsmMdhIcocai5EvyGoU5/dUxCwVnzzM40lZY9MMCZZhSMc4dqys40pp0R78xz+D/lokhupp0HPucwRGiB8UACREREbVy8i++QfjkdzMw18sWnZQcOXux4gdjjN2jtkrOv7F10WwsmtgbFtI35NvpR/HWEWONtaGmY4LBfV2xIWS4kifl9o8n8HYjj3RpchP/D9vitmL968EYamsKVNxAwsbX8NFlcT8RNRgDJERERNQ23ClDwZW6c+QQ3ZNOnonndjZCLiNqRnLC4yDsfCUQKwIGwUGejeZ6EsKU2cjaiNIbyDwRjXdD5uKve/mJR9QYGCAhIiKiVq4Qq8MjMXOddFG7PRkReew5QvcvYrv0Hnp/O+ZuPokNmWUMsLUlchLcEwew4j/J2N/MOW0bxcG/4Gk/P/jNmovQ//sI3xhI7EtEDcMkrfXAJK0NxyStRERERERE1BqwBwkRERERERERtXsMkBARERERERFRu8cACRERERERERG1ewyQEBEREREREVG7xwAJEREREREREbV7DJAQERERERERUbvHAAkRERERERERtXsMkBARERERERFRu8cACRERERERERG1ewyQUJvjFX4ZKw/Ky0lMGCLXzIffDlG3Kxp9lK3qMh9jtlxQtn11y4ewE7WNo/o4gheKqhbLmO3QUDqv455dcFXq3kGwvC4v0nGaKXXNqQKffn4VV77WWz4vkY6eiIiIiIhaMgZIqM0p1YgCbqLglChqacpQJooGTZkAr16dlaJZL28MmqIU25/7bodAeL17FAv3nISf0drsGkpLRbFUem1FsUrZzbu/tkRERERERHdh/ABJh66w95qEWfNCERoqLUGjYSPuqkvXPkMxPTAEL84X+zw/D7MmucGmk9iA6C4KCgpFSSscP+eL4r3sO4TEn8qVYtlPCTizTym2P/fdDoPgMcQRNqZqUMU4YlBQIopV0pB/UxRbFGtEPeGE3tpljoX0LiQiIiIiopbMaAESk25OGDRpFua9EITpw1xgYy7uuCtzuE4NQdATg2BvbQoT7dF1MoeNy2jM+s10uNbr7xBJSgtxQxSrXM9DjigaFo6j8/pj1cQ+eHfe7+6xbVvWwtuhuLBWD5Li/6WJEhERERER0f0zUoCkKwb5+GKoiw3MoUH++cM4fL5I3Fc384E+GNfbFNDkI2VfFCLCwxAWFoaIqL1Ila+GTO0xeoIrpC2I6lRwXXQp0BlOUzXsppKDMFqzG0Vqr5bq4TTVw27uVKi3REREREREDWGkAEkRzl7IRtGVk4j9LAJfHElF/j0vXqwxcICtdFuBS0e/QHxGATSV6j2agks4vOMwsm8DJg6ucGWEhO6irFRcROuoPexGl07yT91lR2TdyUmnROJleZvwd6SVCXD5y34s3CP223cBC/+1DnY91U1rK0T+JaDjpHUI2q4mQpWXP2/fjyGjHcU2+txgt2QXFuzQ2X5XEoL+tBiWYosaahxf7cda+kkkXAYod+m4z3ZYuF9nu0CR/NYKQ17X2VcshpPS1n5OK/clYcG6D9HnccPtUPu1NTTspg4TX0XEF3GI+2I9XlQzvBIREREREVUxUoAE0CTFInLPGWTfu+OIYAebbvJtLn7KUCpq0qQiI08u2KLX3achofZu42RlaMiqp4KqhobkLPdU6+YvEzWNxGYwAiI/RNA4F9hoA3cmnWHT3x8L1n5oOHghMRu9H0uX+8OlR3XOjo49XOD3RiSG1ApcTIDXv6KxwN8Ndt10tu9iBRffV7Aw/J06HwfdHeGyuPZjWTp5I2j1XQJARic9p/DazwkmVrDzmIrglxaJipoMvY6J86V1qe6D5XfP8vHMk96w7SIVuvTDkwueUSuJiIiIiIgEowVI7l85ym/LtzawsVcqasm9rkZbuvewVm6JGkc44p5SL7KVZft95LLo5gJ3u84oyzmEzc+Nkfafhk27M9XhH7284T1O2UqPFdxHusBMk4dTEcvwpvSYb74Wg8vyMCBTRwwL8Fc3EyxfWYXp/TsDOtuvmhGEjREJyJH2MesXiDmvTBBb6+nhjaCnpMcqzax+rHUJav4O6b6x85SthPtsB20gSlmicFmpLMSpt3T+hlg2b1TurOa/GBP6yc8pE4feC1Gfk7S8+fuViNydgvx6B1aJiIiIiIgaRwsKkFzC1Vz51hSu43zhZmcOE6VeqrF2gtvYmfB9rKtaYdJRvSVqAcrSo7AxKASXr2ZKaynI+dtmJCtpUKxg5ybfGqBJQ9xrAYjbEoU70uqd75Zg72l1GJBNH2/lVrUYE8bJw03KkfhR9fYoTkD+liBsikhRgjEOg4NRZ9iwNA2xfxxT/Vgxy3A0Xb3L7tFgtdDUelmpvV7yUpC465D6nCR3LmxG2t+mYePSRu7pI/nsqwTkyvlKStPx1abP1EoiIiIiIiKhBQVIgNRjx5Er/4pu6YTR/vPwojzFr7SEBPpi9ABbmLeooyWSZeLgH5ahWKyp7j2t8OVdITj1vRxQqZbz0zVR0jFuJPrKkYSbp5G4veb2iqhkdRiRnSP6KhX68nDoj5OReF6sKjLx8zWRk8VEZ3hLU0rMhNJEvaZiwccRcB2tGxQykoPvImSWH/xmLcZHqaKOiIiIiIhIaFkhh4Ik7Ny+F2eyCqDRSepaUZyPq4l7cfyKWnmr+G4JN4maUrn0/hTF+1FhINhhiOvDas+Qbt54XifpafWiTY5al5sorhEcUWlzedwrb4fRHA/B5i0pSmDJsu8EzFkViZV7kvD8ux/CZVhd3W6IiIiIiIiMp+X1ySi6hJO7ohDxkTrFr7x8tPUL7P7uJ6CLPOhGgxv/087ZStTGaceZtUHFEdOwNnAlYo+nIUeOlJhawWHIVAS9vQsL311ed+JZIiIiIiIiI2g9g1asB2LAw9Lt7Z/wU7ZaRdTmXbymJlS9mYBNIpGp4WUyEpUdWpm8zUhcPhmbZkjP4bk1iD2Vp+RUsRkSDJ8gdRMiIiIiIqKm0DoCJJ3sMXrqIGWowa20ZKRVqtVEbd6+FGWmGnR7FANGqlUtlZpotTNMlOm6G+BqOBJfDcDBS/JKZzi4NnIC2YmvIuKLOMR9sR4vuoo6IiIiIiIioQUHSExg3tUWfYf5Iui30+EmX3TdTMHeeHYfofZkM777oVy67YkxfzmJ6aGLYekkz2ojsfSG5bRVmLDuJJ7/y3y1rtkk4GclW2xneD0Tfc+kq3Z/OYoF6yLgOs0flj1FJdyk57Mcnr3UtZyLm9VCI3nmSW/YdpEKXfrhyQXPqJVERERERETCQ05OTr+IcqOyGRWEWe5iWt46FSElOhLxeWIVrtIF4DjYizVdmrwUHNgTj6u3REUTcnZ2RkZGhlgznqZ6HFlAQACio6PFmvE05XNqsCmRePl177qnyRUub++DzRvFStU+aYg1MLzFK/wypvfT2wfz4bdjOYZ0068XFu7HytkuQHoUVs3XmebWUtrvE2m/HmLdgILja2omXL3H8RnUkHbQYRa6Hy8HusBMrOvS38duTRIWjLQSa7UpUydLbdCQ/Ld1eWbtTgS7miplTepmzFxqjKl+K/Dp5z/Bu5s1op6wwquiloiIiIiIWr4WPcSmouwW8q+kID42EhHRzRMcIWp2xeGIe24JNu9OQc5NuTeJUFGOsuuZSNy9Hpv/0Uyz0egoCwvBpo8O4fL1cjHcpm45//i7mpxVej6625ZdT8OpqJVY28jBEdlnXyUgt1QqlKbjq03GCI4QEREREVFrZrQeJG0Je5A0XKvoQULUaNiDhIiIiIiotWo9s9gQERERERERERkJAyRERERERERE1O4xQEJE1OgKEPj1VVzRLp+XoLnnGSIiIiIiortjgISIiIiIiIiI2j0GSIiIGo0Jnp3jhN5P6C1zLND88wwREREREdHdMEBCRERERERERO0eAyRERERERERE1O4xQEJthrOzsygRERERERER3R8GSIiIiIiIiIio3WOAhIiIiIiIiIjaPQZIiIiIiIiIiKjdY4CEiIiIiIiIiNo9BkiIiIiIiIiIqN1jgISIiIiIiIiI2j0GSIgays4dW18Jwk5p2TbdVq3zGKOsy0vYUBO1rooVVsxX71vrIaragvtuByIiIiIiopaHARKihrpVjmJR1JSUilK1krIKUWrj2A5ERERERNQGGDlAYg5br0mYNe9FhIaGKsuL82ZhkrsN7vqbcte+GDotEC/OV/cJnf8i5s2eBLdf8ZdoakEKy1AiilXybtSua+vYDkRERERE1AYYL0DSyR6jA+dh5jAX2JhXBzZMzG3gMmoWgqe6wlzU1fDwaAQ944NBDtYw0R5dBxOY/8oFowOC4ONicC+iZlVcpB8OKMaNfFFsR9gORERERETUWhktQOI0+gm4WUuF4quI3xGBsLAwhEVEYW9qkXK/ae+hGGqvFKt16AufaW7oKh2VJi8Fez/7SNnvoy07cTJbI91vjr5jxsHFVGxP1KxKoR1RUjWMpGq4SSXwi1JoB9gORERERETU+hktQHL18NdIzU7Bzk93I+WaRq3UFODS4W+QWiavmKNXXxulWst6yDD0lYMfRSmI2xmPSzfVi62KW7k4E7sDZ65LK6ZOGDywq1JP1Lw00NwWRS1Dw01qKcSNPOn93rM33gmegZ1/UJOZ7nxhDBY5Gh5G5vCII1bM9MHWRYFVyU93Ln4SYX69MfYuAUMPF1dsCAmofow/zMYns90R0rPu4WoWVrZ4bbYvti2p3mfrM4Mwt+bpqqOh7UBERERERNRyPOTk5NTkv++6TgvFOAegKPkLRB7T9r/viqFPB2FQDyD3eAR2JomgimDeezR8J7rBRr4YvHYcETuSpMuypuHs7IyMjAyxZjxN9TiygIAAREdHizXjacrn1JSP1TDyLDZPYrBVIc4l3oDrwN7opB+irLyBbz/djbdzxLpMniVmricsxGotpRex9cOT2FYp1oXJE32xyKu7WNNTmIS14ck4Ila1LB5xxz+f8YS1odCpdGynP9uN1T+LdSIiIiIiojbEaD1I6mYDm25qqUJTrhYUtrCRh+SgAD9d0g19mMB+2CwEThXBEZm5Feq47CNqBazg4dUbnW7n4nRsNJ57LxJzww/gXIF0V4fuGDG+NxzUDasU51/B6a93Y8WHUZgpbT/z/Si8HZuKAjko0uVRTB5ppm6o1bk3Zg6UzpLKGzgX+yUWvS/tIz/Ohu3Y8HUSsm7cERvq6GCD1/zV4EhJ+jFs2KDu89yHu7E7vVg5tsH+g+DfDJ8aRERERERExtb0lzoObugrj5CpzMX5s2o+EkWHzuioHM0tFGmrO9ljaEAwpnvZwLSyAKnxKZCvIWHZnQESat3KMxETcQCrfyxT3tMlhblYseOM+v5+xAlTdM/MnGSE/ucYViffwLkSkeOjsgLf/ngG/01SM33Y9uyh3Fbp3hXd5b9Rno9TacXIEr1LSso12J+cjEXbU2v1HnHwcoeH3E3l5xNYtfMK9ov4ZUHJDYTt3IP9cq8WC2d4u6j1REREREREbUnTBkjMXTF9ijp7TdG5eNQYRfOr7tDNLGLyq0GYHjQdg3qaShun4cBnUTicko9b4n6i1izj8FFE6CfpuJ6PTDnZaYducHhYrboXzS8i8tFRL6fItTxkyQGOLo/iN78ditBeplA6aN3FFEc1a3LWD+m4oJR0aZD0c6F0awoHByu1ioiIiIiIqA1pugCJPO3vjHGwN5UutbIOY+e3enN/3iysCn50HzgdwQFDYW8G3Mo4gMjPDiBN7lViaoq6U0sStXbaZKdmsNSLQVj3dMQKOXHqYp0krdKy1KuOYEVlLlZ9cRK55dKp1+NR+D4zG58smYGwme4IecTEQD4TS9j+Si05TKr++/V6LCIiIiIiojagaQIk5k4YN2s63LpJl4A5x7Fjd2rtniAaDdTBA/bwHGEPU2mLq/FR2LIvDUXa5JPWVmovk+IbuKFUELVFGhTrjD7r7zEG4cFjMLh3d3QyrX+IsOTniwjdGI2w+FRkXdcAHS1h288T/kGB+GROP4yocfZ3qJ0wloiIiIiIqB0x/iWRuQt8nvKFqxwcyYrH9tgkNbFkLTnIvymKZdk4/sUW7E5RMjJUse7TSxmeg4J85Co1RG1Ih27obikXylBSNfymO34zyhGdpNLtnCRsjYjCXDlJq1jWJsrDXu6isgy7T5zBoojtmLk+GhHxV1AinX+dHIcjZKhuYtdCZImoY8be6r9vaJl78B6PSURERERE1AoZN0DS1Q3TAyehr3TRp7lyGFG7Uqp7g9RSgCvZar+SivyLSL2uFKt1sMfA/moWhdzMljyVK1HD9B/cD87yGXn9Kg5rYxA2veCojIcpRtLBZGy7XgHd1CUWambj+tGUIebEMURoE7s+UjOx66mf1WFvjs72dU8pTERERERE1EYZL0Dy8FDMmj1ayTki5xGJ2mNgWI2e7FNnkVsJmDiMw1OTXGErpvU16dYXo2c+AVclu2sKjifrZnclan16PGKDERZiuIypKSZ7jcLK0XKSVA0yTlzEafUe4HoR1HCGJfp52sJDOWNN4NzLEavnBiDUQ+lyUttjw/HJbHeE9rVE/86iTuLQwxbj+qj75ObVjEKe+z5dOf86uYzHppn94N+zOrGrtYUl/L3cseGF4QgRdURERERERG3JQ05OTr+IciOyxshnAuHZTazeRfaRMMSeFysS8wHTEThWzkFigCYfZ3Z9gZPXxHoTcXZ2RkaG8XutNNXjyAICAhAdHS3WjKcpn1NTPlbDWGHF/Ccx+C65TguS9+Ktr/N1ZpExQcjMp+Dfz+AZgduFxdKftUSnK0cxc3umqJV4jMFOH0exYkBBEjZEJGO/Xo8uOd/JX6X95CE9hmUi5r2jiBBrREREREREbYWRepB0hEkD//Kt87HYvD0eaf+7hQrtxVuFBgVXTiJ2e9MHR4gaTyF27jmG0+n5KCnV6QVVqUFJ3kXs/zwaL9UIjsgqEPHlV9h2TtrnjqiqrMDt65n4NjYa82MzYLA/VcpJkZy1DLergiDSfkXS34/fjRUGgiOyC+eOYv7mozh95QZuax9PVl6I3PQkxEQm4HNRRURERERE1JYYqQdJ28IeJA3HHiRERERERETUGhgvBwkRERERERERUSvBAAkRERERERERtXsMkBARERERERFRu8cACRERERERERG1ewyQEBEREREREVG7xwAJEREREREREbV7DJAQERERERERUbvHAAm1GRkZGaJEREREREREdH8YICEiIiIiIiKido8BEiIiIiIiIiJq9xggISIiIiIiIqJ2jwESIiIiIiIiImr3GCAhIiIiIiIionaPARIiIiIiIiIiavcYIKG2Z1IJzn19FVf0l3+Viw2IiIiIiIiIamKAhIiIiIiIiIjavYecnJx+EWUjMIet10iMdu8LG3MTpabiVj4uJR7GN8n5qFBqDOtqPwjDvN3g8itzaa0IKdGRiM9T72tqzs7OyMjIEGvG01SPIwsICEB0dLRYM56mfE51Ci3ElYACIMMWvX/fWVQSERERERERVTNeD5JO9hgdOA8zh7lUBUdkJuY2cBk1C8FTXSGHPmro1BVOXpMwa14ogqYPFcERIiIiIiIiIiLjMlqAxGn0E3CzlgrFVxG/IwJhYWEIi4jC3tQi5X7T3kMx1F4pVun6uB98lYAKoMlLxeHDqVC3JiIiIiIiIiIyHqMFSK4e/hqp2SnY+elupFzTqJWaAlw6/A1Sy+QVc/Tqa6NUaxWdPY/sm1dxMjYSEdGHkfq/uw3CISIiIiIiIiJqHMYbYlOZjcOx8citFOtVspGbL4r6NEmI/Ww3zmSz3wgRERERERERNZ1mmMXGBjbd1FKFhtOuEhEREREREVHza/oAiYMb+naVbitzcf4se4oQERERERERUfNr2gCJuSumT1Fnryk6F48kkZqEiIiIiIiIiKg5NV2ARJ72d8Y42JsCmqzD2PltXYlIiIiIiIiIiIiaVtMESMydMG7WdLh1AzQ5x7FjdypuibuIiIiIiIiIiJqb8QMk5i7wecoXrnJwJCse22OTUFBrZhsiIiIiIiIiouZj3ABJVzdMD5yEvpaA5sphRO1KQRGDI9SSWfjgjc1xiIuLw7a/BcNVVBMREREREVHbZrwAycNDMWv2aCXnyK2MA4jaw2E11AoETYe3jVq0cAvAgnkW6goRERERERG1aQ85OTn9IsqNyBojnwmEZzexehfZR8IQe16s9ByNoAA3yLMA301R8heIPNZ0SV6dnZ2RkZEh1oynqR5HFhAQgOjoaLFmPE35nOoUWogrAQVAhi16/76zqKzDxDew9Y/e6C5WS068i6f/7xuxRkRERERERG2VkXqQdIRJ06R/JWpcB9/Hf06ViBUiIiIiIiJqL4zUg6RtYQ+Shmt1PUhks97CzhcGwhQapG6ZiaWfinoiIiIiIiJqs9jPg0jLwhGuUxdi/TNycERy4xS+ZHCEiIiIiIioXWCAhEg2fz3itoVh7ctPop+cl7U0HdGr/wpmHyEiIiIiImofGCChtmdSCc59fRVXtIs8vKaeNDdzkbp3I14PXoyPUkUlERERERERtXkMkBDJwhfDz88PM58NwdJ/fIWzzNNKRERERETUrjBAQm3PAQt4POGE3vpLfRK0EhERERERUbvEAAkRERERERERtXsMkBARERERERFRu8cACRERERERERG1ewyQEBEREREREVG7xwAJEREREREREbV7DJAQERERERERUbvHAAkRERERERERtXsMkBARERERERFRu8cACRERERERERG1ewyQUJvjFX4ZKw/Ky0lMGCLXzIffDlG3Kxp9lK1ai+pjD14oqu7XlA+xYJf8Ny5gwevzRSW1CFMi8bLyXr2MP/9zuVq3cL/6XpWW51/xVutaiAlP38KBz67hytdXleVAqLiDiIiIiKgNYICE2pxSjSjgJgpOiaKWpgxlothe2I33hl0XudQZdsMmwE6pvYu+r2DCv05i6b798BJVLYn1wmg8v/0CFq5pA8GeG+W4I4rFBddEqdqd0gRRan7eLxYi7MV8uHRvb2cQEREREbUXRg6QmMPWaxJmzXsRoaGhyvLivFmY5G4DE7GFIeZ2gzBp9jy8OF/dJ/TFeZg1yQ02ncQGRHdRUFAoSlrh+DlfFNuhnG8SkFMql8qR890h5Ci1d+EyGB79e8LybidpM+rrNQgOPTqjo1hv1U5dQ7EoVrl4DQWi2HJUYsHYAnSWSuWZPfH3xU7o/YQTJoWp9xIRERERtQXGC5B0ssfowHmYOcwFNubVV1om5jZwGTULwVNdYS7qqpnAflQg5vkPhcuvzGGiPToTc9i4jMasIF+41t6JyLDSQtwQxSrX8+4dIGhr9v0Om6b1waqJ/bHprXBRSS1N8fUUUdIqRP4lUWx2d+BoK99a4dBfu2D9j0olEREREVGbYrQAidPoJ+BmLRWKryJ+RwTCwsIQFhGFvalFyv2mvYdiqL1SrOY4Hk+4SztV3sLVYzsRES7tEx6BqH2pKKqU7jdzwtAh+jsR1VRw/aZa0BlOUzXsppLDA6gluYYbSu8eneE0OsNuqgvN7Rf15mYnnLqsFomIiIiI2pqHnJycxDffRtbBHuOmOSN1Vzxy5eBGFan+t9PhagYUJX+ByGM1xz7Yj50O59RYxOsNx7cfF4LprqbSTin4IjIeTTliwtnZGRkZGWLNeJrqcWQBAQGIjo4Wa8bTlM+pipzkcraLdDGXgE1PBSk9RuzWJGHBSCsgPQqr5i9Tt9PVMxAuzwVi7HA32HXrjI6i01PZ9TScjF6PQ5ExaoUOORns9H6FOPWWJ+KO+8P19T/Cb5ijOjRFU4i0XX9H5PrN6sb6LP3R5/cL4OPtojyeQtrn8und2PuPZcjJU6vUJK3LMaSb9Dh/88RezTrM+f1UuPRQ97kjHd/ef4TgVHymsl5FTv75ujfkGKWuguNr8MHy2r1IqtrnnsTz3SdWtXoGY8gbizFWHpojnaYyue2Ob1mDozGH1ApD6tUO7yD4YGD9kuvqvb7qa1TH89a2kc77RKVt8zTETpyMRPm5rfojfFyslPfFneJMfL91JeKiDDyv+24H7WMBl7f3weaNcp32+dbR1jocn30La4MGwuJGAv7x+79ib4m4o9GV48DXuXC5+Sv8dY4F2A+JiIiIiNoi4w2xqczG4Vj94IgsG7l3iW5kH6kdHJFlX2vHSSTo/mycjFUT+2CVzkVvznJPtc5QcETi9eY7CPIVuS10cm+Y9XDBmBfXYcHrgaJGnxWsXRfD75N1mDNSBEdkplZweWo5gkINzEIyYBXmRK5DsK8ajKki7dNnZCB8nhbresxG78fS5f5VwRFZR+n4/N6IxJABoqI5DJDa7pNV8POoDgrI5LabsORDBC+cIGr0NLAdms7DeCRQOr4t0nPrrwZHZB0tHTEkdB18pqjrVRrUDuGIe0oe/qQNjsiWYbP8Xp149+AIMBDP+gyEhXxcNt549qWBajURERERETWIkZO0GmIDm25qqUJTrhbqwaZHV7Vwuxz134uonu4UIuvUHkT+3+/w7gz1gvXN37+HQ1fVd5vduGC4KqXaXJ56BUN6AAUXYvDv58Zg1YwliEuX9+sMl3Hz9XpxBGLCCulvWUpFTR4So9aIxxuDd5e8h9hTmSiuULesyQruI11gJu1zKmIZ3pSP77UYXJaHDpk6YliAv7qZ1r4gfKBcZKtLbLqor0NVAEle3koQSULlHhTVf0Nd9C/aJ2DEnwPh0gUoy0nA569NU7d7bhk+P56HMqkN+sxehRG1Ajj30w7agIG6aJ+L3Cuk+rjEUkcArGGsMCTUH31My5FzfDM+CJT+fuB7OHVd3DdTTMuraGg7tBIW8ruZiIiIiKhta/oAiYMb+sqxjspcnD+r5iO5pw72cHNWAyS5F86innsR1Vvi7z3x71d/h7TDe1AmphW5c2E9ji7aAyXlgqkjnMYp1Qblx6/BB79fgqyrmUBxDE59floNMtg5wkHZQggJxkh5nl1NJuL+MBSxYeHi8TJRdm49El8dg+i6ZgbRpCHutQDEbYlSUlPc+W4J9p5WZ+yx6WOgp0pT8F8M717SbfEZfL4gCKnfiUSjV6OQujwA0d/LgSJHDNIP4DxIOzSpcqRt/x02LV+JAnm4T956xB1MU+7paOsGG6UkaWg7PJCz+HTvWZTIgaT8BHz6z7NqdSNzdKzE6r8US0cvtcbPnbBHrSYiIiIianOaNkBi7orpU9TZa4rOxSNJmzjzrszh6vuEOnvNzSTE128nosZRXJ3UtaPOsAldZd+HY+NKvawM+zKrpmrVnZ3adYibMj1tcdLnOHVerauvy7tCcOr7mrlGcn4yMB6tCdkMdoHcCaT4h924XGu+2kykpanHqx/AeZB2aEo5u3+HyI16uUO00/CaSO8JpaLh7fCgMj99HU9P94NfsBHyj4QW4srXVxH/URaCB2pQmGmD9X81lZ4NEREREVHb1HQBEnna3xnjYC9dZGqyDmPnt/XJKWIC+9EzMc5B3ikbh7883qTJWakdkZOF/mkXFuy4gD8fvIyVVcu9k4OWlRoKUmiHhUxGoqgBguGkTJUK5F9erxbuR0XLuzS166kmdrUctlynzXQWOVluLQ/YDk2orMRAYlXt8CWdHDcNa4fW5Bd0lpZuvxKrRERERERtUNMESMydMG7WdLh1AzQ5x7FjdypuibvqZg6ncYGY7tZV2ikXx2NikXrvnYjun+V8JcmqNlmotldA46uZALYt6NSgxmI7tAphVuj9hBP83rBDQq4JOjv+D/N/r1GG2hARERERtUXGD5CYu8DnKV+4ysGRrHhsj01CQa2ZbfSZw2XKLPi6ysGRbMRv34kkJTEiUeMzeyFYSbIqT2GbFvMe1srJOLVJPydGqTlIGkU4fhZdoCy7N2Yuiubz8zU1B4rBhKm6S43kqS2kHTpWD5F5UA1rh9Yh5aQpnv2HFZQZl3trUNd8TkRERERErZ1xAyRd3TA9cBL6WgKaK4cRtSsFRfcKjnToCrdpgZjkbA6UXcXhqFikMCsrGZGLq/hN/NIhRK5bj2LlSlDoadaoPUouXVb/uM3w36KPnLSiJapK89MZnfuKYh1yUjOVhLHWLt7VCUvr4UHa4bb8gBKzLuqwlrspFc+l1rbylLyLvJW8IY2hoe3woByffQvbYuMQt/kN+FiISmM40wE35dsulXhYqSAiIiIianuMFyB5eChmzR6t5By5lXEAUXvqMaymgy2GzpyN0XLOkeJLOLBtN4fVkNEV3FR//UevQRgzyU0tOwXC5U/78XKkf81ZaB5QQWQCsuSC5SAEb9mPMbMDYSau0jv2Xwyvd48iIFRdbzaHU5CjBBYcMfYvH8Khv2gTQ3YcxDk5KWnPCXg+Mhpe06ZWPR84TYXDvAgERB7FhCmiTniQdsjKUoMrZo//FtPnVe9nSE622PaxmeK1dYSZ74cI/rs6JW+jaWA7PJiBeNZnICzk4Uo23nj2pYFqNRERERERNchDTk5Ov4hyI7LGyGcC4dlNrN5F9pEwxIpZLKxHBCFwoDqd711lHUbYrlSxYnzOzs7IyMgQa8bTVI8jCwgIQHR0tFgznqZ8Tg02JRIvv+4tvWsNqChEQakVrC0LceotT8TtE/USr/DLmN5PHVbxwXK9WWzuwjJkFxbMc6uz98Ll7X2weaNYwXz47ViOIdK5VLNeWLhfTQCaHlVj+IbdmiQsGHmvHhZpiK2RRLaa3Spp/9GG9q/dDvCV2u9PdbSfwsA+kvtrBx1930HQvwLhYmhWIb12uNu2+cfPoGzkIDjcTMAmnYSr92zzujSwHRpuIF6NeAvjRcLb3G9eR8i7xpnqV57u+MDXuXCRnl3UE1Z4VdQSEREREbUlRupB0hEmDfjLbS1xI7US+4Kwcd0eXL5eLiokmkLknIvBv1+YhqO5oq6RFEdMw9ql4Th6IQ/FOrNW3yktxOXD4fhys6hoRjkrn8WmmBTk3NRpk7rsDsIHS9fj0LmazweacuRfPYNDG9dgr4GgQIPb4dIyRL4m7XepEGUVoq4u8rZ/jUGazmt753oajn60BBuXX1SGxTSaBrZDw53Fp3vPokRug/wEfPpPYwVHiIiIiIjaByP1IGlb2IOk4VpFDxIiugf2ICEiIiKits/4s9gQEVEr9xDKlV4xd/DwCKWCiIiIiKjNYYCEiIjuoRPScuUxkMWY8P+KsXqoWktERERE1JYwQEJERPfwEP62zRrKfE/dryP4r1dx5eurONDcMy4RERERETUiBkiIiOieMr+2wDNvP4yU3MacH5mIiIiIqOVggISIiOol5ZAZ/IJ7ovcTTsoyKUzcQURERETUBjBAQkRERERERETtHgMkRERERERERNTuMUBCbYazs7MoEREREREREd0fBkiIiIiIiIiIqN1jgISIiIiIiIiI2j0GSIiIiIiIiIio3WOAhIiIiIiIiIjaPQZIiIiIiIiIiKjdY4CEiIiIiIiIiNq9h5ycnH4RZaqDPH1sRkaGWDOepnocWUBAAKKjo8Wa8TTlc2rKx1JMicTLr3vDWireOR+ON19aAyzcj5WzXZS7s3YF4d/vJSjlJqdzbLoKjq/BB8vDxVpzmg+/HcsxpJtU1KTg86nTkIp3EHwwEH3ku3/ag3fn/Q5lcrk5eIzBTh9HpZj7bTRCj5Vh7MQnsdTLSqopw7nt0VhxRbm71QiZHQT/3nIpH0fC92JtoRVWzH8Sg+WnVJqKiI1nECPfTURERETUTrEHCVFD3SjHHVEsLrgmStXulDZTcKRVuIbSUlEsvYkCUaxSdrP5giOycg1ui2JJof6RaKApF8VWpFh6TqpS3CgURa3bGtwQRSIiIiKi9srIARJz2HpNwqx5LyI0NFRZXpw3C5PcbWAittBn0q0vhk6dhXnPq9sr+4QEYvooV9h0EhsRtQSnrqFYFKtcvFb7Yr857AvCBxP7YJVYYtNFfYsRg4ISUayShvybotjcCkugDSdoHckz5sGZYKy7O9YGP4ltiwOx85UgdZnvjrFiizp1tsfaRWJ7aVnrIer15JboB3oKkcWoCBERERFRFeMFSDrZY3TgPMwc5gIb8+pwiIm5DVxGzULwVFeYi7pqNhg5zQeDetvAXCcYYmJqDXv3cZgV5AsXU1FJ1IIUX08RJa1C5F8SRbq74t4O390AAIVbSURBVMJaQaXi/6WJUnMrQ4l+bwvcxLXaHYYazMLKHu/Mn42lT3jCuacVOpnWFT427Gkfbzh3Fiv1UVqC66JY5WYRTosiEREREVF7ZbQAidPoJ+AmJ0Aovor4HREICwtDWEQU9qYWKfeb9h6KofZKsYbyknykfbcbURHS9vI+4RGI2peCfPnnXDMnDB7YVd2QqNldww0xTKRqOI3OsJvqAhlyo0iMU6kaTlM97OZOhXrbbKQXVu0dpDOcRmfYjaZSFB5UZ3usDh6P/lYmQGEmTn+9Gys+jMLM9yLVJTwZR8Smhlj8ejjm/NpU2TdL/WitU0aR6O+kM5ymathNZSVqdeghIiIiImpnjBYguXr4a6Rmp2Dnp7uRck18CdcU4NLhb5CqXA2Zo1dfG6W6Wj5OxnyBA4lXUaDt316pQUFGPOIv3lJWTUzv56dSImMqRIX+OAxDw24U3hjxyWWsPHgZf/7nclGnT9pmi7rNwr8EijqZI8x834Hfv05i6S71fmXZk4QF69bBrqfY7EHJCWblv7sjEnaiqpqcVFV+3CT4TRFVunoGY8g66fj2VB/fq9v3Y4z/BLFBbWWl+ok8DA27Mczx2bewLTYOcZvfgI+FqGxM5ZraAQMDw260/J+YoQ5xWTQGIQaOZ/KkJ8X9oxCi8xHmP36I0vvj9pWjWBZ+FKuTb+BcST2jQx1ssdKnHzpJ78PTX51F7j3SbWeV1f67tYfdEBERERG1X8YbYlOZjcOx8cit9UtrNnLzRfE+dO7cUbmtaI3ZEamNCkfcU2qOj80bRRWWYbOS98MTcftElSIB3x5OUTqVdOznDVe1sqa+wXisl1zIw/m9UUqVYso7WPCnQAzp3xOWXUSdzNQKdh7+WPDJLrhairrmMOAdBH2yCn4e0vHpDIEz6+GCCUs+RPBCw0GSnOWeao6U+ctEDZA4X23Pu8+0MxDP+gyEhTwSxcYbz740UK1uVJlYqvTi+Aqrc0RVTjLmKnVHESGqtGL2fYPT8jihzo7w83VEf7VaYdF7EEIet5I+E2/g9BfHEKH9COvgiHGPSS+cJh07ozNxQVTXl/+U4ejfGSj5/gjW/iwq7+bc0Vq9Uo4c/Eqt254paoiIiIiI2i8jJ2k1xAY28tSeknoFO0yt4TRsOiY5S1deN1Pwzel79CMnaqkiEpAmd0EwdYPnPLVKl1mAGxzkwtUEHD+uVFUpy0vDqaj38MHvp6lBhRlB2BhxRs3d0cUNE5f4K9s1vQkY8edAuHSRjjEnAZ+/Jo7vuWX4/HgeytAZfWavwogBYvO2qrIQa+OSUFAJdOo9HKEeIlLUwQav+bpC7lRScPZYzUCGiz0c5U/gzExsvc8hO3LQZY67JVCYjIhDhRweQ0RERETUCJo+QOLghr5yGpHKXJw/W0ewY8D0qhlsQkMC4etli/KrhxH1uaEeKUStxRp8l6QGBV1G6A+z8cbjjzsqpcvf/b3mFLf7grApcDLiwtaj4IJIBlucgPwtAYj+Ts0gauPgrdw2Of/F8JZ7vRSfwecLgpD6nTi+q1FIXS4d3/fy83XEoIDGDOCcxad7z0IZiZKfgE//eVatbmYlPyfjrfhsqWQK5/HDEWoBPD1tPDyk29uZx/DWwZqBjBF2PSDnoi65ZYKQiaMQtmB21Uw0O5cE4JOZ/eBraPhQVdBFHlqThP38TCQiIiIiahRNGyAxd8X0KersNUXn4pFU14D+WkzQtc84zJ41Dk61p74hajUu7zut9PqoNcxGO7xGk4Izm+s/3KEqmak6Aq3J2Qx2gTy6p/iH3bhcK/lKJtLS1Odi06dxAziZn76Op6f7wS/4r9jbgrpPXDiZgJgr0gebqSMmz52hJlAtz0Tcriu1htCYdlRnq7HwGAN/r96w7aozPqmjGaz7DUdoSO2cJpMnjFCCLvUeWkNERERERPXSdAESedrfGeNgL10DaLIOY+e3d0lEcj5WncFGXv69BV/EncRV6eLLpIcrfGeMhH5qV6JWY18MzuVJt3rDbKyDBivDa4qT9iDZQJbXjpPegd/HSXhVJwmqvCwYaSW2aB52PdXHtxy2vMZxVS2zXZT72w8NImITkFEufeR1tUQnFONc7FFE3C2IU1mIrMSj2LApSuQ4icLq6DPIkjvfyDlNJtqq20ksHvFU85lwaA0RERERUaNrmgCJuRPGzZoOt27S5UPOcezYnQp1Tpp6uH0L+ZlnsPvTA7gkz7HZzQ2DnNW7iFqfKBxPUHtVVA+z8YeXmzwVTSFS961Xq3RYLtyPpcsDMaSvFcx0Ohm0BJ2aqedKi9axE0wfEmVY4mEHM1E2rOTsESw6mIn9RRUi4FGB05dSsexAujKtcCe7nhgrV3ewwlI/dw6tISIiIiIyEuMHSMxd4POUL1zl4EhWPLbHqokM71vlJfz0P7lggs6c6ZdasbIvzyBLupWH2ch5NjFkJgbI8+rmncZ3NWa+kS3GhKkukC+xlSSoK4PUJKhi2XRczUHSXH6+pj5+wfE1NY6r1qIzU02b1sEKK54ZBQdTIPfHdOWzznbYBKx4RNyvI6NI7SpkaqE7NVG1khtiWmEzCyh9SB52gqu1XLDC4CCRq6RqeRKDRWciZx9RN99dDawQEREREVG9GDdA0tUN0wMnoa88k+WVw4jalYKihv7q2aEvev1KLhQgR766JGqtLv0d352Xbk3d8NhTgPUT7sqwsayEcNQaeDZupHL+yL1LkrcEITU+QalWOcJMzvLZWIrKlWmIYWqmBGSqTYDXv/6IIWL2KV05qZnKPtYu3k069M3x2bewLTYOcZvfgI+hRKbNZPKEsRgsBzHyT2JT7An8N6lQ+uzqjsFPemKy3qdtVma+0mOkk6MT/A18Evd3tFFmv0HhdaQqNc3IwgdvbJbaOy4O2/4WbHiaaiIiIiKiVs54AZKHh2LW7NFKzpFbGQcQtec+htXoMjWHjeMg+D4zCX2li0HNldOoa/IbotYhE8mHzigz1biMeAeurvLwmkz88KVu8EM4nadO5QsruExZDmslWOIGy2nvYPqW/Qge0og5SM5fE9MGD8LE14PVvK9O8zHm4w8xvX8d3bZ2HMQ5uSNEzwl4PjIaXtOmwkw5RonTVDjMi0BA5FFMmCLqGsVAPOszEBZyjlMbbzz70kC1upn19xiDUDk/SGU+jsRexGmpbv+hb3FOjoJYuSN0hr06jbNWThrOXZduuzyK38xxhb+1mrQVHUww2X0oXh9tL61okHEmA+fk+pxkkaPE0PIVTovORBl7RV14Mo6oVQ8uaDq8RQTMwi0AC+a1oKgUEREREVEjecjJyekXUW5E1hj5TCA8DfzirC/7SBhi5V/TZT1HIyjADfIswIZo8s4gbufJJp/q19nZGRkZGWLNeJrqcWQBAQGIjo4Wa8bTlM+pKR/rwS3G9C9fgZdJOYq7dIbZ+c1486WV4j5d3nD/VwQC6ghQlN0sRMduVuiYHlVjGIvdmqR6JHBNQ+zEyUgUa3d9rLwEJJZ6w8upEKfe8kSc7lAg30i8/Cdv6ayvi4F9HshAvBrxFsaL3KW537yOkHebeapfi97Y8LwYWvNtNEKPVU/UbNF7EDbNlqfl1SBj75dYeq56+i6LR9zxz2c8YV1HqLrkx2+wKja71gw4tVlhxXx1mI0cIFmqRFQa0cQ3sPWP3uguVktOvIun/+8bsUZERERE1DYYqQdJR5g01l++rUHBtVScjI1ERHTTB0eIjGM9jp/OA7p0hiXKce6QoeCILAHJf3oV0afyUKyd0ldSdj0NRyOWYe3GZBiY9KaB5Mdag7gLhdXTB1cU4vLhcHzwQhCy5IyhhuwOwgdL1+PQOekYdafu1pQj/+oZHNq4BnsbLTgiO4tP955FiXyM+Qn49J/NHBzRyTuiDK3RCY7ISq6cwc4f5YYxhfNkbyzS6XxR8nMyXvr4AL69cgO3tZ9tlRW4fT0T38ZEY0G9giNN4OD7+M8pzplDRERERG2bkXqQtC3sQdJw7EFC1EbMegs7XxgIU2iQumUmln4q6omIiIiI2gjj5SAhIqLWz8IRrlMXYv0zcnBEcuMUvmRwhIiIiIjaIAZIiIjIsPnrEbctDGtffhL95KFBpemIXv1XMPsIEREREbVFDJAQEdFdaW7mInXvRrwevBgfNfucw0RERERExsEACRERGRa+GH5+fpj5bAiW/uMrnGWeViIiIiJqwxggISIiIiIiIqJ2jwESIiIiIiIiImr3GCAhIiIiIiIionaPARIiIiIiIiIiavcYICEiIiIiIiKido8BEiIiIiIiIiJq9xggISIiIiIiIqJ2jwESIiIiIiIiImr3GCAhIiIiIiIionaPARIiIiIiIiIiavcecnJy+kWUqQ7Ozs7IyMgQa8bTVI8jCwgIQHR0tFgznqZ8Tk35WIopkXj5dW9YS8U758Px5ktrgIX7sXK2i3J31q4g/Pu9BKVMrYzO65h/YAk2romB3ZokLBhpJdWUI3Fjf8RuV+5uBlZYMf9JDJYPRZOOretPYBscsfaVMXCW7/75BBZFpiNLLlMz0XmNdBUmYW14Mo6I1Vrs3LF1ricspOLtHw/g6dhcwGMMdvo4KnfnHolC6MkKpUxEREREjY89SIga6kY57ohiccE1Uap2p7RxgyPWC6Px/PYLWLhmvqhpSQLh9e5RLNxzEn5TRFVrVqTz2t6IESWtclTcFMVmoUGJRhTLSiBdQtek0bSA4IgZQnzG45PFvlhhJ6ro3m6Vo1gUNSWlolStpIzBESIiIiJjMnKAxBy2XpMwa96LCA0NVZYX583CJHcbmIgt7sVmRFDVvqFBo2Ej6oma3alrVRczVS5eQ4EoNra+XoPg0KMzOor1lmUQPIY4wsa0s1hv5XJu1nptc36qHQRrHmW4USKKVW7iRqEotgg94eFhD2vT+n7StzWFWB0eiZnviWVvpqi/h8Iy1Hpp827UriMiIiIiozBegKSTPUYHzsPMYS6wMa/+kmxibgOXUbMQPNUV5qKuTtZDMcmjq1gharmKr6eIklYh8i+JIrVi5bhRKy5yE9eOi2JzKymF/qCykhvN2r2FGklxkX5YpBg38kWRiIiIiIzCaAESp9FPwE1OzlB8FfE7IhAWFoawiCjsTS1S7jftPRRD7ZViHawxdMogWHeoQHY2vxVSS3QNN0Qv+KrhNDrDbqoL1OqkFYoeJDrDaaqG3Uh1tboONa3rRWVqoWo4jc6wG2aVasVK5ZiXomo4TdWwm0q+tkRERERGZrwkrR3sMW6aM1J3xSNX+l5XTar/7XS4mknXG8lfIPKY4eCH9dBABA6yRkV2PCLTnDFvrL20Qwq+iIxHU4dLmKS14dp0klbMh9+O5RjSDbi8vQ82b5Tr3kHwwUD0QSFOveWJuH3KhnrcYLfkXcwY7wK7bmJISkUhcn5IwN6INbj8vbY7vvZv1UN6FFbNXyZWJNoEsqK+46R1mPP7qXDpoT5e8dUEfPlOENLOK6vVegbC5blAjB0uHaN0bB1F56+y62k4Gb0ehyJ18nHoJDK9l+r20VW7He6UFuLyN+H48m/raw9fklkGw/31YIwd7AIbU1GnTzznPu9eQPAQ6e/mHMIHQSEGhz71WStt83hn3Dm/GW++tFLUygy8jlVJedMQO3EyEtUNDXDEM2+vRbCnBW4c/wcWrN7b6EMkxk58Eku9rIArRzFzu/p+CZkdBP/e0oV14leYe9DweBsPF1eEjnkMDtbSB7AcHtcUIuvCGfx3fza+rfE5bYpFQbMx+RGpWJCEDRHJ2K93f+icGfB1lF4E6f61HyfjiE4y0XvJ2BuJpefEipapJUIne2Nsv+6wkIfmVFbgdsFlHN6biA0/aaM/OsTjaZ+vh4u7tL8bHCzkfTUouHQSH355pcbzUtuoEKe3foW1d3pjpd9A9P+VpdoWJdk4vf9brE0zMMzF1Az+Xo9hymN9YCu1XSd5e+X4pH2OnsR6Q/vo0rbNvZK06iR3rW4jbQJe9bhX5ygbEhEREZERGG+ITWU2DsfqB0dk2ci9V4TD3BPjH7cGbmfj+IEU3BLVRC1LOOKe6oNVE3Uv/pdhs7S+amJdwZEJ8AqPxgJ/NQBRxcQKdh5TEfzSIlHRSLo7wmXxfixd7l8VHJFZOnkjaHUk9PNner35DoJ8Ra4TnfQRZj1cMObFdVjweqCoeVBSO/yrdjt07GIFF99XsDD8HUiXrTVZzoffJ6sQMPIuwREdl3ckqMFUO3d4jVSq9LwCj/7yY5fj3F7d4IjMwOu4LwgfKHV3C45IvJ7FE57yPCRS8498Fi95KcVGdeTgV2puCxEckUVsV/Nd1BUcmTzWF6v95ddWBEdkplZw8BiP10LcMbnGfwMNNsQcRUa5VLT2xG/GWykzq2j1H+qtBkfKMxHz2d0u+OvJwhFrX5wB3wE2anBE1sEEnXr0w+RnZmCtR90vuIVVd/hOkp+bpxockXUwhXW/UXhlhj0c1Bod0nMeOhyb5o1C/54iOCKzsMdgfx+81lus6wiZEYCQ0a5K2ynBEZlyfI4Y4e+PtcOlNm0U1blLqgNImVgqv9bvMThCREREZGzGC5DUyQY23dRShUb+9q3PHJ5PjIStPLTmxAGkMDpCbYn/YkzoJ12UazJx6L0QvKlccPfBm79ficjdKchXR6AJ2ot0dYlNV2sLjq+pqqtadHuP6OrhjaCnXGBWmolTEcuUx3tzXYLam0K6b+w8ZatqdwqRdWoPIv/vd3h3hvq33/z9ezh0VT1X7cYFw1UpSTZO1jmGKFxWKuUeF9q66kW/94jlK6swXQ5OaPKqjmvVjCBsjEhAjgYw6xeIOa9MEFurbF5ZgCE9pIJu2wWG4N+7M6EOOMnD0eVSnbYtjofjzE9yoScG+BgI7MybCI8u0u3N0zipP1FNG2PRexBChnYHKouRcfArLHpfvuCOwtLPjiFDfs9ZeyJkik2NIAhKMhF2OBO3paL1wFFYKvcmkVn0w9LR8vhIDTIOn0CEtuvEuaNq0EZZjorcKHKvB21d9VKz94gpFvmPgbP0WtzOScLWj6OUbeZu+BJbE3OlxzeF82RvLKpxcDr6jkLo49JzK0zH7sgozJX2XXFAPe5O/dwxR3+qXYntr/tJz7UYF76OxnPyY4UfwDnlpLCEh5eBsZ/yeXFOeq6bt4u2i8RzH+7GfqVniwlshw3E0+qWRERERNSKNX2AxMENfeW8q5W5OH+2xtWgwnygD0Y+DFRkH8cBRkeorellpfaMyEtB4q5DVWlK7lzYjLS/TcPGpXUEOh5EaRpi/zgGcVuilMe7E7MMR0Wwxe7RYLUgJP7eE/9+9XdIO7wHZWKMy50L63F00R41AGLqCKdxSvUDWIwJ4+ShGOVI/Cig6rhQnID8LUHYFJGiBDwcBgdDTmOk8odH/55K6fKuIBzVtl3eIWT9LQgHlYS4PdHX21suCAn4/pTaw8LmcX+93jKOcB/hpswIlP99DBr1h/nET/F1kho1uHH8U/zzrt1NmoIJfjPSVQl+5MbvwdJE6WJf6dlXgYyfrmDp1hPKVMEWv+4HP7lax4VzR/HfZOmN0KE7Bj/pickdzLB09nDYSv85Sr7fixXnDAx9uV+O7hgpB19KUvHfT5OxrUDNvVFSXoxtBw/gv+eld0MHe3g8XkcvDfm/2PUkbPj4BMJ+rlCGupz7/iySlI40NnCo3YVE+v9zA6c/+xLLksuUYGFJYS7e/k70xunZA2PVUpWInV9h0d50xORpRNsBBSU3sOHzk2oOGNMe6Mcp1oiIiIhavaYNkJi7YvoUdfaaonPxSNL/bm3uhkmDbTm0htquxEx12EevqVjwcQRcR+te0BtDHg79cTISa+QaycTP18QwDJPq4S13VSySgko61mN4y12NG4m+cpTo5mkk6gwRqRKVrAYs7BzRV6m4F8c6j6ns40NIlT9nurlj0BS1TmE5H4/1kwuZOLM5SqlqPJn47LWn4efnh7lGyD9y/2zRX+n9IT3X0wYCGiV5yJLfDqY94ao/5koSs+8bnJajCFbuCHnRB2PlQEBBEiIOFTbKcxvR11YJ3pRcTENMrSGZ0uNn5im3to+oAbJaSi8i4j/6OVIKkXVDFHWGimmVJB3D6p/FilDSkOl0KyuhtqgJOrXM+beJiIiI6D40XYBEnvZ3xjjYSxcymqzD2PmtfiISc7hNGgn7ThxaQ23Y8RBs3pKiJCC17DsBc1ZFYuWeJDz/7odwGeambtOobqJYPxGrJGe5pzL05YPl4aJGsPRHnz/twoIdF/Dng5exsmqpZ7LY+nB9WO0Z0s0bz9d4jLs9VgwuZanDfPpMi8SYaROU3h9KUtnl72BsL3klD5cSxGxCWsUr8d0P8n5WcJ2yWK2TPT0YLtJn0Z3zh/BtW5+O2aYHeiif9I7w/UMQdr6iv6hJQetUWYjVu5JQUAlYdLWU1rOx/zP9gETDDejRXbm1ePxJA8cmLfdK/Hq7FDcMHIs2J0utZLCy+01N3sEMvsOHImxBAHbWaEM5eSoRERERtRVNEyAxd8K4WdPh1g3Q5BzHjt2ptXqHmA+YhGH2JhxaQ21eccQ0rA1cidjjaciRIyVyoswhUxH09i4sfHd57eSkTUVJgroOwb5iBhtR3egM/KJfH5f/thNp8ugLU0dMeCVCDeBEvYOgSY6QB18UHN+EQ8eVTWu4fFgEpFwniMCLI7y85eE1hpKztkHSC9lJFBvK4qEOOslJbeCoBKQaSUvvedHBCitCAhA6+lHYdtVJcEtEREREbY7xv+qZu8DnKV+4ysGRrHhsj1V/idTn5GwPuZe8if1ozAsNRajuIk/xK+vqhlmibvoAtYqoVcrbjMTlk7FJToT63BrEnspT8m7YDAmGT5C6SVMzeyFYTYKKQqTFvIe1gWqCVXXRJmFtBBevqUlibyZgU9XfN7TozhbjiD6vz4SLSTlyLqQhX2ekyJ3raTj60ZLavWG0YqKQKI/SsHSDx2zptu8f4SUPr8lLwPE2npxVkXNTyTEiD7GJea9mstSaSx2zpFg4YvUsd1jISVnPy8lPTdHfZwxC6kqaep/Sr6vDveTpeg0fl1gMDcdqAg5egzBY7vKkJLjdjaXrdY9Lm4yWiIiIiNoC4wZIurpheuAkJd+A5sphRO1KQVEjdcsmajOuhiPx1QCRaLQzHFxrJk7Vui0yupp1udt4iIZzcRVDGS4dQuS69ShWUz+oeprd84d+9fA6w0TMUlWnfSnKTDXo9igGGJx+1wDLRRj7eGclb0nc7ydj49TqQMqbsyfjUOTdIh1ROK4k4OwMjwmrYDljkDL1a37STjUfTKNzxDNvb0NcXBy2rvCpOTNMs8hDlvJEbeF634FlU4ROGw5nqelv/3gUK+JOYH+m9OJ1doTftN7oL7aqrQJQPutNYXqPNDdHsvKUGWcsettjsFrVokxxFAH6n85iReINZOimcTHtoAT2iYiIiKhtMF6A5OGhmDV7tJJz5FbGAUTtqT2sRlfqrjCEhdWxHMlWNypKwReiLtZAXgWils7uL0exYF0EXKf5w7Iq56QbLKcth6cYtpBzcbNa0JMlXUjKzB7/LabPC4RZI4/FKbgpErf2GoQxk0Q+FKdAuPxpP16O9FeCCnVLwM9K74PO8Hom+h7JZzeLvCA9MeYvJzE9dDEsnURwxtJbaotVmLDuJJ7/y3y1Tub6sDr0qJs7vOYFw3qIbvvdW1n0GWW2kY4DfBHkLT9WJs7cNajyALyexROealik+8hn8ZKXUmxGZdj1g/wZaor+U2dg7XAbjLDQjnMygXNPG4ROHINPptee3nbyxEnwdZQ+xMvT8fmuXJRAg7BdicitBDo5jsLrY+sK1l1H1nX51gwekwfh6R4mdQeK0tKRKmdH7TEIr80dhJBepnAQ/5ksOpti8q9d8U7weLxmIIFsU8gsEtM5PdwXIT3VdrPobAn/4cOx9aVR9zgviIiIiKg1ecjJyel+09XVgzVGPhMIz3v9kizJPlKPYMeA6eowGzlAEhlvpF996+bs7IyMDON3pG6qx5EFBAQgOjparBlPUz6npnyshrJbk4QFI+vuAVKWHoWN85cpOTNq6fsOgv4VqCQXrUXab5W0X5UpkXj5dW/pTExDbI2hKndRtY8BFYUoKLWCtWUhTr3libh9ol6HWeh+vBzoouQD0Xd5ex9s3ihWZEq+k+ViSI9hBcfX6AybmYARn0TAx0ms6qsoR3FeGo58/CpOHUgRlboc4f7PowgQPSjunN+MN18yUv4Rr1cRsWY8bJWVXHyzPATvNvtUv6YImT0D/r3v0t/hytEaw1gsHvHEpiB1aM2F2O1Y9qO4Q9J/6Hi8I38mK9Pl7q41I4zM4bFReN+3t8H8Jxl7ayZPtXjEHf98xhPWdYbsC3F6q94QII8xagLXwiSsDU/GEVF9NyGzg6Q2UIfzzD0oAoJadu7YOtcTFvp/T6r/5Nk6jq2yECXSeWFhoXd82r8lVuui3w5ERERE1LyM1IOkI0yM1zeFqNXK+cff1eSsN8vFkBRV2fU0nIpaibV1BUdkl5Yh8rVwHL1UiDI5WWlj2xeEjev24PJ1dbYYhaYQOedi8O8XpuGomsiiTmVhIdj00SFlf93nZlBxOOKeW4LNu1OUtqhSUS61RSYSd6/H5n/o5hQ5hOS9arJVWVmptF2pWJGZdIalnRv8ln8KP19Ds55kIvnQGSXPiyztVB35ShpD4qf4OkmdMPbG8U/xz2YPjsg0iNi+A2u/TkLWdakVtEMdKytwuygfGYlHsSFWJ8dHVd4RdWjNKp3giOzCyW9xRI5Ud+iOwf6D4G/g8z7rh2NYFXOm5uPVoeTnZLz08W7sP5+PEo3Om1tThoKfU7E/ej/WG8qP0hRykvH/tp+UnofO2BrpvMg9fwwbNn6F/U0dsSciIiIiozFSD5K2hT1IGo49SKhRVPVuKcSpdc8iLqZmL5GOw1ZhxuvBcO8m9w4Jx5svrRH36AjZhT/Pc0PH4jPYPCOg8ZLOEhERERFRm8B+HkTU4tmNd1eH/lw9hL16wRHZne/CcVXJeQF07GBgCJPlK5j+lDy1L5B14O8MjhARERERUS0MkBBRi3dHO+rCaQLmLNFJ6irp2H8xvN6NxsS+6vrlc7rJVx1h5vsO5nwibSNnec05hC/XJah3ERERERER6eAQm3rgEJuG4xAbahQD3kHw+4Hoc485VYvPb8aml1aiGPPht2M5hugmii5NQ+wfJyORM2AREREREZEB7EFCRC3f+WXYPG+lkuA2v1QvCaymHPlXz+DQ+iVYqwRH9IhEs5ueY3CEiIiIiIjqxh4k9cAeJA3HHiRERERERETUGrAHCRERERERERG1ewyQEBEREREREVG7xwAJtRkcXkNEREREREQNxQAJEREREREREbV7DJAQERERERERUbvHAAkRERERERERtXsMkBARERERERFRu8cACRERERERERG1ewyQEBEREREREVG7xwAJtTEV+PTzq7jytbTE5uPUe2UI7inuIiIiIiIiIqoDAyTUdpneQk/3a1i9/hbmiyoiIiIiIiIiQx5ycnL6RZSNwBy2XiMx2r0vbMxNlJqKW/m4lHgY3yTno0Kp0WWD0UGz4NZVrBqSdRhhu1LFStNwdnZGRkaGWDOepnocWUBAAKKjo8Wa8TTlc6rB4hcE+pfgjd9ehxVMkfIfO/hFivuIiIiIiIiI9BivB0kne4wOnIeZw1yqgiMyE3MbuIyaheCprjAXdUSNruQhREVa4j9nzaQVDRz71w7HEREREREREWkZLUDiNPoJuFlLheKriN8RgbCwMIRFRGFvapFyv2nvoRhqrxQNKEJKtLS9vI/+0sS9R6h1+3u6HCAhIiIiIiIiujujBUiuHv4aqdkp2PnpbqRc06iVmgJcOvwNUsvkFXP06mujVBMRERERERERNSfjDbGpzMbh2HjkVor1KtnIzRdFIiIiIiIiIqIWoBlmsbGBTTe1VKEpVwtERmZlzRwkREREREREVLemD5A4uKGvPEtNZS7On1XzkdTWFW4BoQgNVZcXfzsPs6aOhuuvqpO9EtXLyU7Ik29di7AjqBLeFkotERERERERUQ1NGyAxd8X0KersNUXn4pEkUpPci4mZOWx6u2Hc7GDM9LzbHMBEes50werPuqOwogyDfpuFT6Ov4srnJZgv7iYiIiIiIiKSNV2ARJ72d8Y42JsCmqzD2PmtoUQk+YiP1Ju15t9b8EXcSVxVOpuYwna4H4bKs+MQ1VNhcQfcLHtIrBERERERERHV1jQBEnMnjJs1HW7dAE3OcezYnYpb4q57un0L+ZlnsHv7cTXhawdr2D2i3kV0TxYa/Cn4f3C06Iwz/3GA3xNO6D3HAuHibiIiIiIiIiKZ8QMk5i7wecoXrnJwJCse22OTUFBrZpt60OQiv95RFSLBvwxupkD52W54KrIDUkQ1ERERERERkS7jBki6umF64CT0tQQ0Vw4jalcKihoSHJE9/CicpL8D3ELhTaWG6N5Eypry0noOsbHwwRub4xAXF4dtfwuGq6gmIiIiIiKits14AZKHh2LW7NFKzpFbGQcQtec+htXoMDG3gZOXL4L83ZRrXU3WSZzMVu8janRB0+FtoxYt3AKwYB6nvSEiIiIiImoPHnJycvpFlBuRNUY+EwjPbmL1LrKPhCH2vFiBK6aHjoO9WNOnyT6OHbsaOETnATg7OyMjI0OsGU9TPY4sICAA0dHRYs14mvI5GRRaiCsBBSj8thc8/lKPaaInvoGtf/RGd7FacuJdPP1/34g1IiIiIiIiaquM1IOkI0wa6y/f1qAgKwWHd0QgoqH5S4jq6+D7+M+pErFCRERERERE7YWRepC0LexB0nCtrgeJbNZb2PnCQJhCg9QtM7H0U1FPREREREREbZbxZ7Ehakbz7TVqoT49jywc4Tp1IdY/IwdHJDdO4UsGR4iIiIiIiNoFBkiobbL4BYFBxXh5hJwa2Axp5+7Re2T+esRtC8Pal59EPzkva2k6olf/Fcw+QkRERERE1D4wQEJtTAU+/fwqrkRn4t3fXoeVXJXbFZ/VczSR5mYuUvduxOvBi/FRqqgkIiIiIiKiNo8BEmq7NObIS7bFit93QZSoqlP4Yvj5+WHmsyFY+o+vcJZ5WomIiIiIiNoVBkiojTHBs3Oc0PsJaZlugyGvdMZmBjuIiIiIiIjoHhggISIiIiIiIqJ2jwESIiIiIiIiImr3GCAhIiIiIiIionaPARIiIiIiIiIiavcYICEiIiIiIiKido8BEiIiIiIiIiJq9xggISIiIiIiIqJ2jwESIiIiIiIiImr3GCAhIiIiIiIionaPARJqc7zCL2PlQXk5iQlD5Jr58Nsh6nZFo4+yVWtRfezBC0UVwWxeNF7eJ7XLviQEzPMWtY1k4X71vbIjEnaiqj6q33e6y354ifubW2s6Lxy9yxG3OR8/xl3Fla+v4tz/VYh7iIiIiIiMhwESanNKNaKAmyg4JYpamjKUiSK1XgPGDoK1iVQwsYL7WH+1ku6q1ZwXk24h7i+5cLO9hc7ya0xERERE1ESMHCAxh63XJMya9yJCQ0OV5cV5szDJ3Qb3/N7boSvsvcZhZmAIQl5U91WWaa5iAyLDCgoKRUkrHD/niyLVZrkKc/aoPQmef+XuvTHMXjmq9jiIioCNqGsO54+cQYHcqaCiEMlHYtTKZpY4vw9WTRTLWwkoEPUtRWs5L96YUQgruXCjBzb/nyNGP+EEj78wUkJERERExme8AEkne4wOnIeZw1xgY1795dbE3AYuo2YheKorzEWdPhP7oZg1LwjTh7nC1toUpvxuTA1RWogboljleh5yRJGE4nD8kK4WHR4PhplaNMAbjz/uqJTyf9iD5ry2LtsSgA+m9MGqKZ6I3pIgaqleWvR5UQE3W7mrixnOfG6JFQkPIVO9g4iIiIjI6IwWIHEa/QTcrKVC8VXE74hAWFgYwiKisDe1SLnftPdQDLVXijX1HInAaYNgI12laa6n4WTcF9gSIe0r7y8vu1LFhkSGFVy/qRZ0hg1UDS+o5ACb2jKRfCoFd+RiLzc83leprK1vMB7rJRfycH5vlFJFrUerOS+U/0pmuBitrBERERERNRmjBUiuHv4aqdkp2PnpbqRcE9/CNQW4dPgbpCrfxc3Rq69+J31zeI72RFfpqIqSdyJi2wGcyczHraqx80T3VlZaLkrVag8vMKzjpHfg93ESXpUTgCoJLS9jaeQujHnKQJ4LS284hEYiKLLm9n/ecRIBS4LRUWxmkKU/+vxpFxbsuFC138o9SQhe8w7seoptaihE/iX5+NYhaHv1Pn/evh9DRqu9OmpzhHVQBIKl7f+s8xjPv7sKNpZiE62IBKQp55kjHptheJiNWYAbHORCXjLOHVeqVA1pB5EI9eU186UV+Tgj8fyXYt99F7DwX+tqH6M2earecq/ktR2HvYIx7x7Fwl06bS0/xscRcBU9YgzKz0SO9Dq5/mU/FoohSPJ+C6T2s9Y/tgfRMxhD1p3EUu1jSMur0us6xn+C2MAQN9gt0Xv/7EvCgnUfok8dz+lBzgtgPF79aCfi4nZi/XwOcyQiIiKitsloARJUZuNwbDxyK8V6lWzk1tU3v+cguD8s3RacQdyxXLWO6H5tnKzmgXgqqGrYQM5yT7Vu/jJRo88RDsuli9TlgRjS1wpmOsO6LO3cMCE4sNaMJnavf4jnA73hYldz+47desLdfxWWrlsuavQMWIU5kesQ7Ctd5HbrLColplboMzIQPk+LdT1mo/dLx+cPlx7V+3Ts4QK/NyIxZICoqCI9n1XRePnFCegjbV8VpJAew2FIMBZ+EgmHGhf5a5CkHWbjFWhgmI3O8JqknTWG1zS4HSTWPdzR5+1d0nF6Vx+PSWfY9PfH83975y7DferrHQS9vRgThjjCpotOW8uP0XcC5vwtGmNGijp9HRzh8/E6zBnnAhtTUSftZye134JGOTbJAOn4PlkFP4+esNQ+hsRMel0nLPkQwQsNBUkmwCs8Ggv89d4/Jlaw85iK4JcWiQo9DTovhGdnwNtePkBT9Ju2AM+otUREREREbYrxAiR1soFNN7VUoan5i2bXPr3QVbotunKxxSU4pDZu3ocImtRTuegtvrAHka9NUy8cA0OwaeMepF2v/es7Km4i/0ICYt9bgrWB0rby9s8tw+ffq7/Km3nMFNOp6grEhBXBcJWDAZo8JEatwbsz5H3H4N0l7yH2VCaKDc5oagX3kS4wk/Y5FbEMb0qP9eZrMbgs9/owdcSwAL0eLrOlC/vRcleUQqTFaB9jGta+F4O0Yqm6hzfmrHpF2VQr9VsxzMZpUO1hNn0Dq4fXfK2XFLVB7SD090fwMCvgZhri/haktMMHO9KUISBm/SdipO5+2gt8ZVmDU2LEyL3cuZmJxN3rsWmJ/Pe17bAHWXLbmfTEmN/UEcDp640RUhMWX4jBv58bo+y3aXemOLaZmPLAk+dMwIg/B+L/t3c/cFFV6f/AP4oOiIhoKISAgJQYaKFiQphaaf6JVHSjKCnb1Lav5q7uVruW+1td23TL3dJ1U9vYcKMwRZNE0xQtg9Z/qMBKiYiABIKKiAij6O+ee8/AAAMiMoPC5/1qmnPPvfPn3rkg95nnPMe7E1Cen4h1hnNOHLukQuV1rOExZSGG1g5+TZiNkX2slfMnBwnvTVPPBfG4t3+1ANFb01CkjWK8Q12X90RERERElmf5AImrLzxFFORaAY4dqfmXvNNdomgJcFFvi4EPT0TYtOrZb2a+OBUTH/aGQwuEdKi1C8PIJ3zV4EjxvsVY9quXkbEvTVtVmID89S8j+pfT6hSxzF8wDCt/FY7kLV+itFB2Zscgfe5yefHeA3cPUnurTYtAoEhFUS5u438TgLhVa1AuAhZQLrxTliP5tWGIXSWWTdBnIP6NUMSvjVEDGVf3zcH2g1oQwtHDeFiMcmH/xECIGEzuljmIft/wGmkoFcuvb1P3xe6+R1BjsMTaXUi5LBp1h9nYPDlQG15z+iCSak0R26TjYKwwER9PfQwHtopiqzkoXh6D1MY8rlFeR/SkYYj763vITzEUcxXH4WV8vEUr/9nBybfeGXmKk8T5MAe52WLbNOT/NRzxx8Qaa3gOEcODbsGE2QgSQafSQ1g3IxzphnNOHLv5oYg9LIJybhhYO/jVy179bFGYphzzBC2opbj6YxQy/joeK+feIBukKT7bjMQ8EVHS48SW1fhc621ePa5j9txSDBIB9IKOOKj1EhERERFZjGXDDbY+CBmlzV5zMWUvjtaqLdJBpue7BIQgoJ8THIynr+loC6d+jyLsqWA4MUhCzWnwGPRT637kYN+qNWpXczGc0wY+g33V4S6lR9fhgHqh3XhZW6bhwOGac3rknz4jW8YmwMtd3Ofg6KoEtaeGYweRKwIQOjd4jdK6NO8h5UctU6bmMJsgPOCvDa/JPRxVVeDzZtQ+DlUupyH6l+HIVQM4BtXTz9b7uOZQKbOClNcwWSflQiLWza99PuQgI1P7DBx6eqv3TeU4yFsNdJT+byuyauy/oLxOhvY6NYNfiuQcbYhTrzGYIeqoBDc8NXPz2I2lL03EuHETMXtNMxfKfvQSUr7Oxqn/5OC3j5cB57sh6r1OYBlgIiIiIrI0y4UaxLS/Tw6HGMauz92DTT80MEloeTEy9m3FhrUfaTPXrInEpj0ncVHUM+nqixGDRAoKUTMZ5KZlEFzIQdZJtaeRfOE8M1orgmpUnHTBrvkYLIeR1RQBdyetVZS1XGvcjMqawZF6DZf7AzeMMxQ+rXGr7/0BWYlpWgDEeJiNGF4jAy7/izU1pe7NHgcj+gsorRMcAJKna8NGolbKjlvxwDwME0VQtxi/N+U2pWkBjqpip517Qst5axrnHvbqvd2Q+TXf143eX9I0RK1NgzhsdqKOysJoWXz3Q3gP8dW2uWNdh7Vy69pZLhIRERERWZBlAiS27hg+OQS+ysWSPj8JG7emo0yuMiVvXwx2JmejqEwWY7imR0H6dsQf0SqTOPRUiyEQNY8mZSnIQplhQVoR1EY9R2O3u0VGxT5v2vrvcazWMJuq4TXZh3C4TgCpKcfBgsZG49VlszFSFEHtJPuay+WSW6qV1LHBaY4aVho5HsvCFiAuKQP5IlKiFt8dg/B3tuCVpfO1ITh3ip2d0f9xdwS/1Atf/qScvN2KMeGVMoTJ1URERERElmL+AImtN0ZPGgsfERzJ3Yv1cUdRXGdmG01JqTbmxtbOdIZI8UUZVrHtohZzJWoWx89oF7qdujY+I8BQKBMVyE+Kwkq1iKeW9VB/AdHqoSN23W65wmf9duTIC/cMxFW9J1O3AYjfoW5o5D2kpMlhNn7iPbqhn58cXpMcU3d4TZOOg6UEYWhYkPaZlmYg3qigqXpbn6FudbOce4mptoCr5aaGNzXez2e0+jGizkn1MTNxq2+GmcIoJM9/DKtFAd4XFiPugCjsCjgOjsDocG2TO0lOjhVend0VaeKfgR56KLtORERERGRR5g2QdPFFSNij8LQD9Kf2IGZLmjZMph55Z7SrRwe3e9Q6JbW59NQuXyuLi3BHT9RAt5cdacgXF2U6XwTNMzWtal2G+hG4cBDx8xegSC3iKdnZ1JuUcjJLq2Lq+ODz8DDb1/yJyFErynrjnmlacONmZH2vDd9An0Hw7zEL/fuIhQwk/6vu8JqmHgfLMNRiUfZpxzQcMCpoKnToaDRFbmPZzUNAf21oTMaBKPW+qfLTc9T34+AdVG+R2EbLXoPk10KxS83wsYarT4Ta3XxG4LWPNiE+fhOWT69R2reZWeGCmsF0FfbqeUdEREREZDnmC5D0DMDkKcFqzZGyzJ2I2dbwsBrVj8dw8opy3yMAE0f5wMkwVKBjF7gPmYjHfdTyrkivm+dPdAsWY99RmTUx/kPMWLoErn1lLQc75eJ1yocI/1ckxOQzBkWFMjWiqx/8w2U2SI+RcJ0Zixkx8+BfT+2N4uhE5IqG3UBErP0Gw6aEwUYGSjr0nQ3/pd8hdKa23HRfYv9BLVDhM3ULwn83D86G/YEv7IbPw+DF3+DVfyyRfbV8mYDjaoTEG/3+XxDUL/JPHESyiVohTT0OlpGBYvn2nAfNh7NaiNcNNsHzMOyfR/GHCTcIHul6wmP8GPn5iMctxLjVM+Avls8l4tvIRtaEqc/GXUgRx1Q5Xi9Gx8K/6rUU7mPgOjUSodHfYWSNQrrKvvzxO8x4PxI+4yfATt0nQflcx8/HADn6MP/4rQVv6njmSQSJX+bQoc/4GXha6yUiIiIialXaubu7X5ftZuSAwKfDMKARF0d5365CnNFsHrb9QhD2sEs9ZRT0KDoUjw37C+SyZXh5eSEzM1MumY+lXkcIDQ1FbGysXDIfS+7TLbGbjpGrf4thzvVkFVxIxOpJ4dVT/XouQfg/w+Bt8kStQHGpNRyUi92s9XULjdpN24IZU5ULWrlcW83HTMe4jVqxU1PPhVe+0Yp5noipNRRD1Ab5ECHq8Jd61HlMNY+lPyJicPVjs9YPU17bRECgqcfB8L5rH9cG+K/JUvZHLtSn1vM5LzyKGcFaxkcdF0pQ2tUedrXfg+G91Uefg+1/DscPe42PxxJE7ArTgkkNEMNpPjCeGUfUSPmdHAZkUgkO/KXmUCjnxco+BdazT4py5XNdqXyuJuJZTffMMmya6qP9XtanI2riXPNM9YtKfLbuNIK62iJxqSOe2Sm7iYiIiIgswEwZJB1g1cRnLjsWh6j1e5FxtgyVhuE41ypRdjYDe9dHWTw4Qm1E6RokhIdi9ZeHkHuuonooRmUFSvPTEL9icc2L+JOvI/qNKCTnl9TYtuhkAta9EYp1KVp9CVPUAptz1+C7Hwshy+6orl4uQdaeNdjcLF/+JyB5urI/MYnIMt4fRfmFQmQkxeDjRStkT11ZOw5WFyDVp+FQVD3ZErdwHCwhf8EziNqagSLj46zsf+qXi7F06lZtutzavojCup3aeVAu60QL6uejHLfVU4fVCo7cgq3h+GDuciSk1DwXoFeOYfYhJKxcjO216sTk//1drTjrhVqf67kMHIhZgGXNHRwRPtuMxDzxBvU4sWW1mYIjREREREQty0wZJK0LM0ia7o7JICGi2wAzSIiIiIio5Zh/FhsiIqJGaYcKdaqkq+iqzi1NRERERGQ5DJAQEdFtoj0Onu6k3OvhO6UYqx6/jpufh4mIiIiIqGkYICEiotvG8k/skaFOu12CMXNzsPfrbKT8yagYDBERERGRmTBAQkREt490a7zw5t1IyLJDBeMiRERERGRBDJAQEdFtJedIR7wwszvuHeeO3o+7o/8freQaIiIiIiLzYYCEiIiIiIiIiNo8BkiIiIiIiIiIqM1jgIRaDS8vL9kiIiIiIiIiujkMkBARERERERFRm8cACRERERERERG1eQyQEBEREREREVGbxwAJEREREREREbV5DJAQERERERERUZvHAAkRERERERERtXkMkBA11ahovLorCwuU2x/+MV/re+UbdVncXpwXpPURkRlMx7iN2s/agm1b4KP2LUGE/PlbsPZD2Kh9LaT/MGyaF67eVj2kvZOHH3lC9oViUW+1q0VMm6K9r08fsZc9txlnP3wqj90XIU5an/HxDLDS+oiIiIiaGQMkRE11vgJXZbO0+IxsVbt6OVG2iKj5ncHly7J5+QKKZbNK+QWUy2aLqNDjimxeKqn9TvTQV8gm1VVWgVLZ1F8yfMjVLpVXyhYRERFR82rn7u5+XbbNwBZO/oEI9vOEo632jU9lWRFOJu/B7tQi1PwTxxHB4ZPh20UuNiR3D1ZtSZcL5ufl5YXMzEy5ZD6Weh0hNDQUsbGxcsl8LLlPlnwtjfi2OgweSqs4aTE+mL9Gyyr5fRAclL6s9R6IWqluWFePCPj/OgKBD7jBsZO11ldZgaLTadgX8y4ObJXBFZGRMsVbbaavHYZ1kTlq28B58VHMCBTfAlcgeWVfxK3X+o05/nE/XhneQ1vI/hJLX5hj+sLR8FonYrBw+uuyU+qn7OvflH3VGe2r5L8mCyF95IJJGYh75DEky6WmEdkC8zG4q1w0cvVyCfLTEhD/1znIL5SdguGzuJCI1ZPCkS+7jRnee419MvoM62dinwzHr4HXM1bfcStX9qdI2Z/tK95FbnbNz7spqs+RRhCf/W/OICR6Nvzt6n7WNbnB7x/fIbSf0jy9DcumvozS+o6dcm6XX8hB6o4obF8VVRVYNGjqOVT1uKpjbnSemDqPLUlkQTw7AJ2VZub2aMxNURoiC2K0m9IowcFPv8Iio5NEZHVMqJ1Vcq0SVypKUJDxP2zacwrfNFNQxfBal5K/wrO7SmTv7cQNy+YNg5fSqnqPpo4nERERUTMzXwZJRxcEh03FxCHeVcERwcrWEd4PTUbEGB/Yyj6iO13puTTZMlAuck/KZi0dJkTjleiFCAlUfjYMwRHByhqO7gMx7ncL4S+7HJ17yhbgPXi6bBnMRkB/w4WvNbpVb2pkOoY80APQl6BYfBGrPP8DntqaxhuJoX/QgiPlykXnx/VeMLeMDp3s4Tp4Amas/QZ+N71vtx8buT8v/vsbhM+eIHstqPQ97NiWoQYxHAIjMFQEQEwZtQSPqOtKcCDq5apv/E1Szm2b7t4YHLYQc6Mj4Won+5tLqXJ+y6ZB6dkM2Wpp5bhUJwZxAWfqJp3V1d4KHTt1g2v/hzDrlVAse8BGDRC0JaUXL8mWQSnOF8kmERERUTMzW4DEPfhx+IqvEUuzsXdjJFatWoVVkTHYnn5RXa/rHYAAF7UpFWFvtLKN2M7kLQaHzontKpFn0SwBovqcwXmZ/V01nMZo2E2dr8mFUdF4ZU4QHEXM8HIODkQuwLIwDyx8RLm98DI+jkxAxrmKqtT8DmpssQRFhUq7zyD4GV9YThiJe5TlosIGvgEeNRLe4tv0nK3YlSU63HBf6M3URnGD6+L3MbqX0jyXiOjfvF7vhbDINlD3o87tVrNHahKZOVXPHTYNqyMTka9XVui88XB4MwQUdoTjA6P3H3dC6665f823TzX2RzkHVq/chowLYo01vCctxVNTRcZB0+XPH2D0vsUtBuqpIAIbfzHuV24y46J85RokqdkNbgiaPk/tqykI/k9pmSLlx2IQv0PrrSYyPgzPOwxL57yH+B+189TGeSRCf1872Ke52XPo/EWZUlE1nKZ62M3Vlh6Fofxy0H5WjIbTGA270V+TjVpEdsTE97TbsyvW453Y/yKzRNmZ9jbwevQJLLhXbtiqXYZhZE3VcJqqYTfKgTNj3isRERG1bWYLkGTv+RrpeWnY9NlWpJ0RVy8KfTFO7tmNdPUvWVv08nRUuxvFawj8uiv3F9ORdEw+H1GLKkFl7VPxwJkGvkkPwtBn5fCDC4cQ9cIwxK+NQqlhWEj2NuSunYboKeORKrsMsv6Xhqs6X9z3i+qLZY/hvrArPYRDhi/KrepeSDuP8NOG+ySvQOoPynMobdcHIhpdvNJmZiTCxfAMvXLB+1Y4chtME2gBhQnIXxuO+MPy4ruru3p/x1LOgfz1LyN66mIcUAPC1vB5YiFu4jdlM4lBQuwh9Vy2e+BpjAzUeqtM+C1GqkNicvDtisVqV/1yUJ6yHAd+NR5Rh7VIgcMDY9Whabeq/HLtMSdforh2wkF9HnkNkRviEb9hOV7SKrw2rwo96ryVkku4mX+9LinP8cPJE5j7r604qKbI6ND3IR8MUtcas8LD/gFYNWNKVSHTTbPGYtmD3dBXbmFKQWEJOts74Y0pY/HFb+TjXh6NRfeZyFQxFEmd7oeHZVc1e7w1XTz+CbzlLLuM9O3VB0sinsQmw2vUudV+nB56QyTJoKS87vEkIiIiambmG2JzLQ974vaioM63ZHkouOn0WAcEBHgqfxpWIi95H5hdS7eHNYifpH3DXV1r5HVEqd94D6j7rXrgdAyU1+/pm+cgy7heRj1sDENwEnch5TLgEzRLW8Z8DLnPGsUpW/HDaS1X38F5jHpfTXm9+8QQnBz8tDUH2HgQGeLqrJdv44bZ9FuCpyZ5w0ZkGrw/DcnHZP9tqINOO07lF7LV+zteqXJubdECWujhh/6D1V7LWv8uEtTsmR4IfHGJUVBtJIZOGQiRzFScFIUfGn1e5CArQ9ZU6WSPblrrllRlxxjVGkmerv1M1l87RfP0E0Fw6qQ0OvXBEzOe1jqbVQ7mqpkgRrVG8lPxrNr3HSJlV6NcK8GyxBNa9kl3dwyvUVJGh2kTJ2DuI/fAqYtO9imsu8EreCz+PMWt3iCJrqcf/vHLRzG0dzd0NPw10NkR/cc+gUX3Nc9MMX37D8Ofn34QfXsoZ0yj/+IowaI1WhZNda0RE8eTiIiIqJmZL0BSL0c4ykKLlY0t4+89BPeLr8HLjuMgs0foDmUT5K1lAlw+hH21iq3Wp1sXQ42S95CSpvy89BmkFs/EtCB46wqR8lUDF4GG4TWn03BY1ENRLrqPqy/biGE2dtMxbpGoO1KBrPVzEC8CLLcj9zB4z/8OTz2gHCd9Br6N/lKuaAUiU+VQmB5wG6I2LCwRyR8nqAHpDn0mYpRyoa2aMhtBYsiVPg3b/9L0ejS1EwSoYZeO5SBH/cLBEa5GxVz7BgRhQh8boKIAB+Ni8YIIIvwtBu/EHUWB8iujY+9hmBtgFDgx4vrAADigFJm7vsKsvymPW74Z35wW/8bq4PXw/RirbdZ07V3w4gg3dFSaxak78c4KLegxK3InUmTRmCs/7cSzDHoQERHRbcLyARJXX3iKmWquFeDYEa0eScMcETzEE+K7rIIjScjTOonuOA7dZWQwP0de+DZWBS6fB7K+T1MuZbzRP8IXfoN90SE/FclJchMTPEYNUofX5B6OkvUZcpCcrI3HaXiYjQ1c35yNwd1FhsC7iFqZIPsb5hA4Hwt2ZdW9bYyGiaz7JvOYYvTc/16C8EfdcPVEAj7+zWNIracw7p0pA8VqLRKRHRShNSwtaQHi1WEx1vCfMB92IntkgpY9krvjXaTf1JArN/j5ajMyITtN2bu6LHUOCZ9/lYgCUefi8gl8tfpzrfO2Vorz8nh37yY+AaEbnhskinmVIiVuJxb9VK4Vq71WiR9+SsXcrcfVQJTTfb3RX/TXdu08Dn6+GXOTS5Argi/6UqxYl4gfRYykswsG3+pB93aDl4jNXEzFf74uwA/yO5HccwV4Kz5VHTLT0a0XHtO6iYiIiFqcZQMktj4IGaXNXnMxZS+ONiIZRNcvED4ioFKWjn2NeQDRberunjIv/prJSXYbcAHFB5S7L7ciXblg9vBfivv6KBcZB9fUmLnDobu8+FTNRn8fkX1SiJN7ZAFZIeqgFpxpaJiNyxiED1He6+VbyxCwJLs+IxH+h0h4yNmMWx0rQyaRpeUga/kmZIlfvb1GYvT832rZIxcSEf9e4wJnIjBiEzwPw/65RZsSWExJ/dW7pqeatqRdSzFt8jiMmzwbH1lu1vhm0bGD/KfbsRfcRLGQi1nYc0rrMnbpRL7yCSocnWFqlNalI99j0c9yweBaAXLOioY9upnz50nXAabzWoiIiIhajuUCJGLa3yeHw0X5i0ifuwebfmhMJRFHDPF3YfYItQpVM260b2yJ1Om4u0Z1zjXYd7gQ6OMLH10O/hdrFPgQOsh7Qc5wg8JUpIjgikHpl/hJLdPRwDCbvATsOKG8106+ePJvS9RsgcaodwaSSeFozuz52rPYfBxzCPmXARvlAj78beNaGa1H3WmkLejk64j/ThTMsYbfo77K+VCB9NjXb/CZeiOkKgPkO7y2cDZG9hUBwgpkbHwNcetND9my1Dl0p6ua+rZnV63ocxc/zDJZ/HQYvNQNb0YlLsnvIjrb3+JP06l8rQ6Z8v6ee9wJQ2Wcz/VuNyx5zEcdenPldD6+0bqJiIiIWpxlAiS27hg+OQS+XQF9fhI2bk1HmVzVEN2AYPgye4RaidJSGSDp3gOuWuumFW1P1YoUZx/S6ooIx8/UyCQRPB4SF7LKBWdGYq2ixok4nKJdnNY/zOYCkn/zrjqLik2fMLy42PSUrLeFwgTkrgrF6j8bamUENa4A7Z3Azq+qXlPpmVrBMAsrev9zJBuG05xOQPzam6xJoy9Bfso2RM19DNHLW1GdGEtq3w1OahKaHsUX5NS3Vub9J/zKpVvM86k4hXXJ2gxTDn6P4o1ZWuBmRfgw9BWRnYocxH+Tx9lpiIiI6LZh/gCJrTdGTxoLHxEcyd2L9XFHUVxnZhtTXBB4v5PaYvYItQZFx3O0WUm6DoL/BLXr5iVNw0rxjfoLc+oOUbDpKgMehuE1pms6vDZeFttsaJiNmEXlrS/VoRUOgb9FxCsj5YrbVJJheuWuqDHSSOgkv2Wvw63q+rL49O03lMjmlwPlVLgZOL5RbbSc0veQW6A1i7MPymPdkAzEGWeAjBmA1XNeRtbh27TY7x3A1d9TC6xeK0C6oYBL4XktuFByFMvUGV7qu93MrDn2cFWnGNLjUmO+yTBoJ++Nde6DZ/3tlZMmB5mFyllj+Lf/aikKjn2PZauV98XoCBEREd1GzBsg6eKLkLBH4Wmn/Kl1ag9itqThYqOCI4Dt/UPgI4qVMHuEWouNido0u6Lg5dRouN5w7Io3HGQGQaPY2WuBAMPwmhu6wWw2x+YgdnMGypX36zHlfYwbKwMrt6PAnnIo0BlkG6ZXTirUMmt03rjHVECq33wMUANEJSg6rvbcPh54H0/J411+LKE6e4OazyOvIXJDPOI3LMdLPrLvNtXZvjfmBopirMCVjJ+wzvDvaH4hcsXvFHs3BHXXum5V597e8BGZKvocHDWupFuh12Ye6qirNUWzmGb4MQwS2Z61PPxgPzgpf2XkHvwOc6M2Y6KYKUcEbN7fjJnxp/Ctmf5p95m+HJvixWcbiddGiyItRERERI1jvgBJzwBMnhKs1hwpy9yJmG2NG1ajau+CgAHMHqFWpnQx4rfILJLuQXhx7TcYNiUMNoZghvsYuM6MRsT6LfCTXcZlRRrLY7g2vKb88PKadRyMbiv3iJoSgOug6fVkV2hKV05DdJJIkbfH4DmR8FeLbN5G7ILgOOVDhP9+pDqFsggmpGprlDcfI+utWMN/xncYNn6kPJ5usBm7BE8tUo63WMw/iH2GoEqLUt5X/wh4/+4bvPrXCfAQFSz1GdixYrG2mprV008EwamT0ujUB0/MeFrrvM24drHDhAcfxOpfPgQvkRQmhqTsKjAaklKAxJ9E9KwbhoY/ikV+3dDXUM+3vRX69nLC3HGjsSJYHZtTh657DzzWxQpqCEHZfui9flgW4qMuFx85hk+Nv9DIP4dz4r6TF8YNtVN/b3S2tsesp57Qphk2wamz1u/k0weP2dugv+G1zGoEnnmkj1YAtpMTRjz3GwSo/UREREQ31s7d3f26bDcjBwQ+HYYBjfj2O+/bVYg7Jhck2/snYupQJzV7JO7TPchrZNaJuXh5eSEzM1MumY+lXkcIDQ1FbGysXDIfS+6TJV+r6dzgujAWLwY3ND2EGJ7wGJKxBBG7wuBxIRGrGypSOSoar/4+CA7Kdh9POgj/LbPh36kCySv7Im693KY2w2NQiO9eC0CCKOT6yjdYMMUbOBGDhdNf17ZTjYT/mg8R0ke58jqnvMYL4cg1ymjwX5OlrJMLJhn251ZMx7iN8zG4od8phcp7+2XN94ZRH2LGvDFwrm+6DL3y3n6jvDfj30FVx6YhJvbJcPwaIIqQfjBfG85zw+N2IQ2xf3oZqc0+LEWeVyjBgb8MQHwjg0OG92u8D3VUHbub+8wtcw7V9PSyTYjw0U4MfXoUJs5t2al+p00Jx4TecsGUkuP4ImY/PtVKelRrb4+3pj2BQQ2csJeSv8Kzu6ofeKPXunL6v3hv3Qn8UOPfXitMmzgJE/qY+GE6dxQplwegf68SHPz0KyySv6w69x6I1aE+6FzfVzEV55F7+BBWJRYgpdn+nXfDS+8vR+g9hvd5ArHjZuMjuURERETUEDNlkHRAk2vHtfdE8ECZPXJ0f4sHR4iaVw5yFwTg7cUxOHCyBOXGKeb6ChSdTETcXxdoF4KeXRuXQXK+QtY26YkeUx5CP/Gt+OU0pNQXHBF2JCDjgmj0QL/Hb1QQJQHJb2/Shgd1D0L4TcxsY3aVFSjNz8CBmAV4O6xWcETY8TJWv7EcCSmFKK1xrEXR0C+xemqt4EhLE+dA9iEkrHwdb08ab4bgCBl8/lUiCi4rjcsn8NXqlg2O1EtfjuKf0/FNbCxeWGMiOCJcK8GiyFis2nscBReNTvJrelw5l4eUvduxbG/NB27csxPfpuSh+HJ5dV2Qa5XK9jk4+PVmTP+8dnBEqETk5m3YeuI8rhjWXS1B7n934q1PUpGp/hKq6VLOTzh4RhaUVfblivJ6VY8VrLvB9cFHsSDUDX1l163LwUf/3I4cMw3fISIiotbNTBkkrQszSJqOGSRERG1RdcbJlVPfY2HsqZpZIu2t8NiQYZj5kAs6ogjfrtmOZaYCQE3ig19/tAyjRdmWgt34/bSlOKKtICIiImqQ+WqQEBERURvlgv7qcJxSpP+3VnBEuFaJb06dg5boYQVdfcPgblK3e4Lw9B9fxwi1pq0eJ/Z+xuAIERERNRoDJERERNTMKuXwHTv4POyHX/TQVdf1EQVhPftgWYifVrS1JAeJReqaWzACf/osHp++/yYiHnRSi7SeT1qJN/7FYWpERETUeBxi0wgcYtN0HGJDxm5cjLOuBouCtiE8dnSneeyRsZjlX3NS4DoqCvDthp1Y9rNcbjIRIHkNAXZ6nM85goR1f8dHu8/LdURERESNwwwSIiIianbf7NqKt9b9Fz8WluCKXhZrFURB2ItFyEz+DstWN0dwRNiNPz4zDuNCJuLZV/7I4AgRERE1CTNIGoEZJE3HDBIiIiIiIiK6EzCDhIiIiIiIiIjaPAZIiIiIiIiIiKjNY4CEiIiIiIiIiNo8BkiIiIiIiIiIqM1jgISIiIiIiIiI2jwGSIiIiIiIiIiozWOAhIiIiIiIiIjaPAZIiIiIiIiIiKjNY4CEiIiIiIiIiNq8du7u7tdlm+rh5eWFzMxMuWQ+lnodITQ0FLGxsXLJfCy5T5Z8LdWoaLz6+yA4KM2rx9bg7f9bDLzyDRZM8VZX524Jx8fvJaptIrqDGf1cF+2cg5WLv4Tz4qOYEWiv9FQgeWVfxK1XV7cAe7w1/QkMEm9FfwKfLv8vvoAbls0bBi+x+uf/Ylb0CeSK9i0xeh1jJUexbE0qvpWLdfQfhk2j3dRmwQ+xmPl9OR5+5AnM9RdPVI6U9bF465S6moiIiKjFMYOEqKnOV+CqbJYWn5GtalcvMzhC1CpcNPpZP/+lbBlUoPKCbLYIPS7pZbP8Egpks4pe3wzBkVtQoccV2bxUUi5bBnroK2STiIiI6DZg5gwSWzj5ByLYzxOOtlZqT2VZEU4m78Hu1CJUqj21WcHRJxCB998DJ3sdrGQIp7JUedz/krDvSB4uXtP6LIUZJE3XqjNIsAQRu8LgobSKkxbjg/lramSVZK33QNRKdcO6ekTA/9cRCHzADY6drLW+ygoUnU7Dvph3cWCrDK4YfXOdvnYY1kXmqG2DxnyL7fjH/XhleA9tIftLLH1hDmpfpqgMr3UiBgunvy47pX7Kvv5N2Ved0b5K/muyENJHLpiUgbhHHkOyXLpljTp2bvBY9g0iHlDW69Owbsp4pJdqm1Ybqbz3D5X3rmxzehuWTX0ZpVNiMfeVgbBTjmd65GNYt7bm8RbslOP0inKcbJCD7f83DD8ckytuQYdHl2B0+Fj49bKHjXKMhauXS5CfloDtK95Fbnat92E3AR6/moHRQd5w7iqPgV7Z/scEbP7zHOQXal0qo3OyaM/rWPmnGK3foL6sJ6P+GpRjXVqYgf1frMZ3G2sHC6p/JupXggN/GYD4HXJRMLzWhUSsnhSOfNndoPren5HaP4PVPy81iWOduy8Gm99bjOI654nC1M911eub2B8LmzYlHBN6K42qbA6jbI9T32Hi+rrn8S0zZIbcKIPE2Q+fPjsAnZVm5vZozE1RGlVZJSU4+OlXWNSoD5yIiIjI/MyXQdLRBcFhUzFxiHdVcESwsnWE90OTETHGB7ayr5otfMZHYPJwX7g4VAdHBCs75XFDQjAlZID6RyrR7aT0XJpsGZSg6KRs1tJhQjReiV6IkEDlZ8NwgS9YWcPRfSDG/W4h/GWXo3NP2QK8B0+XLYPZCOhvuNizRrfqTY1Mx5AHeqgXz8WXlUXl+R/w1NY03kgM/YMWHCk/EYOPjYIjltb4Y5eDrAWrkSwudnW+eHLJfLXXmN0r8zFKBEdQiO9Wvgz1unj9HMQeFl9pW8Pn2Q/hYyc6jfRbgtAnRXBEDLVY0QzBEV94LN6PP8wPw2DP6uCI0KGTPVwHT8CLb82SPVKP2Rj3r/cRMda3Ojgi6Ozh3H8CZvz7G/j3k32CV8+q35mO942Bo2xrgjBU+R1tYNfdV7YaoBxrO2dfjJz9Pub+YyFqH6I7kTjWHsOn49V/R8O1wR2qwPk6yWIXcCZJNlvapcuoHSK+dL5F01uMlONSiWxWUY5d3eQ7IiIiohZjtgCJe/Dj8BV/lZdmY+/GSKxatQqrImOwPf2iul7XOwABLmqzmlcwgl2VK4RrF5G+IwaRa5THiMd9vBabvs9DmbKJznkQ7nfVNidqWWdwXgQdFFXDaYyG3VQ3jIxSLvDnBMFRxAwv5+BA5AIsC/PAwkeU2wsv4+PIBGScq6hKSe+gxhZLUFSotPsMgp/xxduEkbhHWS4qrHPVUW3USHh3Ve5ztmJXluhww32hQaLRSG5wXfw+RvdSmucSEf2b17VAggkis0Tdjzq3Zsoeucljh9L3EPdFmpotY9MvAuEzjfa7RqDjXSRUXeCKwEoU0sWQBRFY+esSdRvNSPjPnagGipCfgHWLa2ViNIHzws8QEahl95SfTsS6P03D2+oxG4alc97Dup0ZKDYMn1CNxOB35mGweIh6DF6X24/HB5GJyBfnYydvhLwVWR0IkfHpokLlJOrhh/6B2rLKMwz3uct19RFZHVWf5Xgs+1MUDpzWxkXYKcc19BXj8+l1RFVt64HVSfLcFFlJVf3NnG1R4/3VvNWXwVXjXA17HdE7c7Ssqu5BeHJemLpNDRkl8rw3Gk5TNexG6avvh8JCzl2UOWFVw2mMht20dJUx5ZekdniMhtMYDbvRWzgjlIiIiKghZguQZO/5Gul5adj02VaknZF/qemLcXLPbqSrf8vZopdnze8yHe92VP+W12fuxZ7M4uo/nK6UoSD1axxRv2nSwb6L2kvUwkpQWePiVXHgTL0BBPXb+me1NH1cOISoF4Yhfm0USg3XptnbkLt2GqKnjEeq7DLI+l8arioX7Pf9Qit2KHgM94Vd6SEcypAdVtXrDJxH+GnDApJXIPUH5TmUtusDEUYX/Q2zmRmJcDEkQZ+BuLfCkdtiF4JNPHZrFyP+Ry0jxHvSQvip2TNGgY5ziYitHegoXYzNGzO0wErfiQiVgZXqjJMS/BA5DUVq7y3wfB/jgrUMoOID72HZ1HCk70mQF93KBXvKcqQvfgwf/J/RcKcJs/Gwug852P5bcQxi5PZpKF4bjtW/VY6DWHQeiUem1TwfSv+XqrznHug3ujoAYBM6EK7Kcx3ap131awG5hqShdM8CxE99GdtPaz0egY0/n25LhTHIWByOeJkN5OhuIoB48kLdeGf+hQZ+1o2NwGsfbUJ8/CYsn+4j+5rX+Su1fxGV4/wl2WyQFR7288OKaaHY9JtwbJqn3OY8iVXj+mBs3ZFITVOhR523UnIJtd8xERER0e3AfENsruVhT9xeFNT5digPBfVcWRSdk9klTp5w6ag2q9neg97dRKMY+S1acY7IYA3iJ9X+ptrwDbqJb8kDp2Ogu9ZM3zwHWQ18aW9gYxhGkrgLKZcBnyDDcIv5GHKfNYpTtuKH01qOuoPzGPW+mvJ694mrnBz8tDUH2HgQGeKqpJdv44bZ9FuCpyaJLIsSHHh/GpKbodZGkzXh2GkSkfrBJmSJ/dZ5Y9xrS+Aw0yjQscp0vYvyVYux44RRYGXIEjwpM06K9y7H9mbIgHCMCIKaDKdPw66Fy+tegJvgM1rURwFKD6wzPbzn2MvYpQ4REkOyItT7qnOocA0OnVZe94EJcFY7JiBwkBtwIhE/HD2j/GYF7O5quKZHtQRkZcvsEDv7VjDsMQdFxXJ/OpnaHxM/1zvC8YHad4MMqWeeRJCLiMbp0Gf8DDyt9Tarb3d9hYnvRdeoNRK5XllW+p7dVU+GWXt7zH12EuY+PgCu3ZUz2/DXQAc7OPV7EM8Nbq4ISQ7mivf2nlGtkfxUPKv2fYdI2UVERER0OzBfgKRejnAUKf+Kytrl648l4aj4IrOLD0JeCMdYf3d00eng5DMck38RrAZNLqbuxn4tjkJ0R7EJ8taGPVw+hH21iq3Wp1sXQ42J95CSpvy89BkEf3GFPC0I3rpCpHzVQD0Qw/Ca02k4LOqhlK7BcfVlGzHMxm46xi0SdUcqkLV+DuJFgKUFNeXYVTn2OmK35KgBCJu+YXh1igx0JDUU6EhA8rJtVYGV0MVhyvFW2iLjZGlz1GBRPj9vObTmf7uQ2qhUhAi4O2mt3JTlWsOErAzt+HTo5q1e6Dt0l79wkYjDB5R1Xf0wcJSyGDgR/ZyB9MQV2uqmqjQ9muzOMhIe7lpA4Or5DDVY1Nr9YvxoPOwshrSWInPvdixargVUXvhwMyL3nsB5pngQERFRG2T5AImrLzzFEJlrBTh2pHakowhJ62Kw95TS374L3IeMRfi0aZg43Ee5OCpGekI0or+vM4kh0R2h6kI1PwdqOZBGq8Dl88qF7/dpKIU3+kf4wm+wLzrkpyK5geKQHqMGqRfIuYejtPoKyEFysjYep+FhNjZwfXM2BncXQYR3EbUyQfY3zCFwPhbsyqp72xgtMxaarunHTlO6fAF2ySEh6ji+C4mI/csNAh3H5iB2hwzGqENPSnDgX6830zAjX3SX9WTyT67TGjfkC0flMxHvozhb7TDtuJYNgk7WNT7jcuXXavnmQ8iFPbxHTIfjaD846tNw9GYDTqow9PPWAgqlmUm3PtzoVnQNwgxT592uoxgnAkE30KGvcq7/U9bZEZ/xpsVqf7P5bDMS80S0QY8TW1bjc623ZXX3wfh7RcSvBAc/34y5/y3CQRkQKb5Uii//+1/M2ttAbSMiIiKiVsqyARJbH4SM0mavuZiyF0dNfUN17SIKcs/XncpXZwvHHt1MzHxDdGe4u6dMWb8mCyo22gUUH1DuvtyK9AuAh/9S3NcHyD24psY33Q7djYdHzEZ/H5F9UoiTe2QBWSHqoBZgaGiYjcsYhA9R3uvlNGy/URDBQpp+7AwScHiflkUilJ9Ma1SgozT2ELIM85FfzsFP3zUlmGCKd1UmHSob/5wd1P+fQeEetXETSlAqhjecfBfJJ5Rz5b6JeKRvDzV7JV3bQNPNrbq4q0m+sBu/BCHRCzFMTYDJQWJk/dkstyvjYN4f/jkP4/oq51dlCVLXzmmW4VM17cbSlyZi3LiJmL2mxtFuMf37uWvDiE6nIPJntYuIiIiIFJYLkIhpf58cDjEUW5+7B5t+MPWdoy18xkRg8kPu6IIyZH+/AZHR25FWqFfeqQ6OfmMRNt7U9MBEt7/zF+WQsvb1527UNB1317haXYN9hwuBPr7w0eXgf7FGgQ9Bu3rWyBluUJiKFBFcMSj9Ej+p2QcNDLPJS9Dqb3TyxZN/W9LoaVzrncVmkuk6Hzfj5o9dLZ5LEDrereoQ2TwQgZApdYva1hQEv9fGwMNQuFQcj4Xz5MKtqp4ByVRx3Yb1xN2NyIwwqAouqXKQnJiGq12Vc8i5Asf2vCf7JWVfjU8jVY0MjS2YOy8M/s7WQGUhDrz/cjNMdXyL6p3F5iZmyynNQNyfxiM2snHZUne6wT20XyyXzpyXs94QERERkWCZAImtO4ZPDoFvV0Cfn4SNW9PVKXtr0w0YjeG9xZjoi0j7ci22phZBf/Ek9sZGIuaHArXqvc51OEYPEKnBRHeW0lJ5kd+9h1acswmKtouZSBTZh7S6IoJhSIURj4d81cBGcUZireEPiTicomUs1D/M5gKSf/MuDpwDbPqE4cXF02V/y7m1YycCHRO1GiLKhXCGGq2xhv+zS+DaQPTHZuZCjOsrsnAqkPWjVhXW7oHnMW7szQY0TClEhQyQOPaqXVy3PhkoUiebsYaVIfvEFB83LTugtMR0LY0vZLHe0jSkfKl1YUeO6W1NuHq5BFlJMVgdHoD4L9Nk752lKpj3wmIkZCvnlp03Qt6MhH8/uUFrVycKRkRERESC+QMktt4YPWksfERwJHcv1scdRXGdmW0EHXz6aBUIK7OSsFebmKNK8ZHtOCJnrnBykdNZEN1Bio7LIR5dB8F/gtp185KmYaV6YTdH1hUxYtNVBjwMw2tM1wV5bby8wG9omE3pGsS/9aVapNQh8LeIeGWkXNEybunYTZ1fFehI/2IaoiMTtWBA1yCE/r6e4I/dfDypzuADlB+LQtSvVuOHc2KFPQb/suHASuNEIVuWU7K7byw8tOYNbMPParTLGp7+9QWt3ODno32+xdkH654jQukCrBujnENPhtat56KzqRs0q5Wh8fb4AYia/zryGz2T0G0sew2+m/UuDojAk84bIa+/X0/QsHU5cU6rL6Lr3Em9JyIiIiKNeQMkXXwREvYoPJWLCf2pPYjZkla3tkgVW3TWrulQcdlUfkkZyuSXyER3pI2J2jf3InthanQjLrK94dBQpkBthulWDcNrbugGs9mIIqWbM5SLbGt4THm/mTInmuimj51kNx9PPetbFehYtzYH2PE6YvdpF4gOgbMxus5wFTf4LImAj8g40adh8+uiaOcabP+XDKx0D0Loa7eeVZP+Q5oWwLAbiCcblaWTg2OpWvaPw6AIDDaV7TB2CR5R+w0zHEWghzo9eiN1ssfNbN4qiGDg5jQtAOc+BqOaGrys1wi89tEmxMdvwvLpPrKvZX2bW4gryn1H736Y1VnrIyIiIiJzBkh6BmDylGC15khZ5k7EbDM9rKZaMU7laVvY9huBR32cYNtRXVT+irOFk99YBLhoiwV5DU3hQHSbKl2MeDndrLjIfnHtNxg2JQw2hot95eLMdWY0ItZvgZ/sakomvMdwbXhN+eHlVd/6176t3KN9/e86aLoWVKlH6cppiE4SwQR7DJ7TgkMQmnDsagY6MhD/rmF2khzk/nm5ljWg7NfQaZE1C5NO/RBP9tMyTjI2Lka6oZjrVqPASvAMjAxUm0239l3sksOkRKbPq//8EN7BhoCVG2z6z4b/4m/w6j+WyD7lM/3XJiSL96Nzw7gl32Dw+JHaOWIXBMep0ZgxJ0j9PMuPbUKCOsORNToYaqhQ/SKjkGQYejWpmbNInnkSQeIfQujQZ/wMPK31tqyffkL6JeW+vQsee/5RLPLrBi/xFhWdre0w4cEHsSLYuHYNERERUdvQzt3d/bpsNyMHBD4dhgGN+PY779tViDMU+bP1wdhfDId7A3+dqpkoNwy2NC8vLy9kZmbKJfOx1OsIoaGhiI2NlUvmY8l9suRrNZ0bXBfG4sVgdQqQemQg7pHHkIwliNgVBg8xxKGhQqejovHq75ULY2W7jycdhP8W5cK6UwWSV/ZF3Hq5TW2Gx6AQ370WgARRyPWVb7BgijdwIgYLp7+ubacaCf81HyKkjzVwTnmNF8JrzADjvyZLWScXTDLsz626mWOnmLoFr00T2SMVyIiZhuhVtYraTonF3FcGqsGk3C3T8PF7CVrGyfrpalCl/McYfPCr12sOU7Gbh5Bo5fiKB53ehmVTX8YtzfprNx2j/zUfQxvapdqfx9hovDI3CI71BD7K8xMQPWOa/IymY9zG+Rjc9UafgTzXkIP4J4fhgHis4Xy40flXg+F5GlKCA3+pVUDV8FoNEHVDPphvNKtSIx6Ttd4DUSvlgsJ58VHMCLSv+1xC1fmg/Oy8r/zsGOqz3KpnlmHTVB+o8Qd9OqImzr0tpvrtfPc9WDY5AE4yc7O2S8lf4dldRlP9Ovvh02cH4EYJJ5nbozE3RS4QERER3WHMlEHSAVZNeeaydGyN3oA9qXkoLjfMram4Vomys9lI27MBURYOjhA1rxzkLgjA24tjcOBkCcrVYSOSvgJFJxMR99cF2oWsZ9fGZZCcr5D1OXqix5SH0E+UFbichpT6giPCjgRkqBkUPdDv8RuNKUhA8tubtCEu3YMQfhMz2zSvmzh2xkNrTmzC5trBEWH9HMQf08btuY5fiKH9amac7PigVnBEKH0PcV/IoTG9xuCpebdYm6V0DbaHjcfqmERknVM+R6Nfe4ZiqB8vWiF7pK3hWPm75UhIKUSp0TG4ei4HyV8uwLJwQ3BEsIeVzAxomOF4dkXPW82MuVOtfxcJJ0SjmbNIPtuMxDxxcPU4sWX1bREcES79fBwzV2/G1hTl39sKoxNPX4KCY99j1V6j4AgRERFRG2GmDJLWhRkkTccMEiIiIiIiIroTmH8WGyIiIiIiIiKi2xwDJERERERERETU5nGITSNwiE3TcYgNGbtxQde6TBbUvG00pihpbSaKlBIRERERUYtjBgkRERERERERtXnMIGkEZpA0HTNIiIiIiIiI6E7ADBIiIiIiIiIiavMYICEiIiIiIiKiNo8BEmo1OLyGiIiIiIiImooBEiIiIiIiIiJq8xggISIiIiIiIqI2jwESIiIiIiIiImrzGCAhIiIiIiIiojaPARIiIiIiIiIiavMYICEiIiIiIiKiNo8BEmplKvHZumyc+lq5xRXhwHvliOghVxERERERERHVgwESar10ZejhdwaLlpdhuuwiIiIiIiIiMqWdu7v7ddk2A1s4+Qci2M8TjrZWak9lWRFOJu/B7tQiVKo9dXXxCMCIB/3gZK+DlQjhXClD0alD2PNtGoquaNtYkpeXFzIzM+WS+VjqdYTQ0FDExsbKJfOx5D7V0Pk6wiZcwpvPn4M9dEj7xBnjouU6IiIiIiIiolrMl0HS0QXBYVMxcYh3VXBEsLJ1hPdDkxExxge2sq+aLXzGTEP44wPh4iCDI0JHWzh6B2PycyHwqfsgoroutUNMtB0+OWKjLOjh1re+cBwRERERERGRGQMk7sGPw9dBaZRmY+/GSKxatQqrImOwPf2iul7XOwABLmqziu39ozG8t065ni1C2o4YRK5RHqM8LjJmO9KLlQ10Lgge6QNlC6JGefeECJAQERERERERNcxsAZLsPV8jPS8Nmz7birQzeq1TX4yTe3YjvVws2KKXp6ParXHA/f2clPtKnPxuA/ZmFkN/TVujLz6JPRv3IO8KYOXqAx9GSIiIiIiIiIioGZlviM21POyJ24sCGeSoloeCItmswRmOXcV9AU6bKlmhT0dmoWg4oZeH2kNERERERERE1CzMFyCpl6MMhACV+gqtoapAhVqAVVlfa+iNQcE5bXhOt+5i7A5R49k7sAYJERERERER1c/yARJXX3h2Ue6vFeDYES3goTmJ7AJxr4PP8LHwdbaFobSrzsEdvg9PxNj7xAMVVh20e6Ib2d8RauKRz0VsDL+GoM5qLxEREREREVENlg2Q2PogZJQ2e83FlL04KkuTGKR/n4QC0WfnjuAJU/HSzJmYqdymhY1FcD8n2LZAvgvd4Q51wqLPu6GkshwDn8/FZ7HZOLXuEqbL1URERERERESC5UIOYtrfJ4fDRUxSk7sHm34wUYik+Cg2rd+OQ7nF0BuNiKgsLUJ28nYkndI6y0pL1HuixigpbY8L5e3kEhEREREREVFd7dzd3a/LtvnYumP4k2Ph0xXQ5ydhY9xRFNcp3nojOgyYNA2BPfVI3xKJPbmy2wK8vLyQmWmqcmzzstTrCKGhoYiNjZVL5mPJfTKpsx7xn+fDV9cZhz7phjej2yNNriIiIiIiIiIyMH8Gia03Rk+SwZHcvVjfpOCIwuF+9Oup3F85jdN5WhfRDU0oh68OqDjSFZMYHCEiIiIiIqJ6mDdA0sUXIWGPwtMO0J/ag5gtabjYlOCIGJ4zZiDE3DVlGanIaMpzUNsk6/pWXG7kEJvOo/FmVDzi4+PxxV8j4CO7iYiIiIiIqHUzX4CkZwAmTwlWa46UZe5EzLZ0lMlVjWMF2y5O8BwyFuHPh8BXTA18IQ3b9zJ9hMwoPARBjlqzs28oZkzltDdERERERERtgZlqkDgg8OkwDBBBjRvI+3YV4o7JBfggZOZwuMglY/rCNOzcthfZNxdlaRasQdJ0LV6DZGYJToUWo+SHXuj/R8PE0Q145E18+tsgdJOLl/67FL/40265RERERERERK2VmTJIOsCqGZ65srwMRafSsDcuGpGxLRMcoTZm19/wyYFLcoGIiIiIiIjaCsvMYnOHYwZJ091xGSTC5L9g0y/vhw56pK+diLmfyX4iIiIiIiJqtcw/iw1RC5ruotcajSns29kNPmNewfKnRXBEcf4ANjM4QkRERERE1CYwQEKtU+frCAsvxatDxbgsG2Sk3CB7ZPpyxH+xCstefQJ9RF3WyycQu+jPYPURIiIiIiKitoEBEmplKvHZumycis3B0ufPwV50FXTB540cTaS/UID07Svx+4jZ+ChddhIREREREVGrxwAJtV56WxSmOuGtX3VCjOyq15rZGDduHCY+Mw1z//4VjrBOKxERERERUZvCAAm1MlZ45il39H5cuYU4YvA8a0Qx2EFEREREREQ3wAAJEREREREREbV5DJAQERERERERUZvXzt3d/bpsUz1c+g5Cfn6+XDIfZ2dni7yOEBgYiKSkJLlkPpbcJyIiIiIiIqKmYgYJEREREREREbV5DJAQERERERERUZvHAAkRERERERERtXkMkBARERERERFRm8cACRERERERERG1eQyQEBEREREREVGbxwAJtTr+y77HmxvFbTNGPCB6nsGYKNn32Sp4qFu1Ds7zv9b2a9kbsqcFjPgAs9Tj/T3eWDJL63vxU/kZfI8XXhmk9d0WruEPvzmNI1GHcXJdknI7jXfkGiIiIiIiatsYIKFW5/IV2cBFXDgsmwZXKlAum9RMivW4KpulJWdlq9rV8oOy1dKu4Z2//A/TA7Nhb3NZ9hEREREREWnMGCCxQhevAIydMhUvTZ+JmTOV2/SXMC0sBME+jsraBnTxRMD4sBqPmzrlUfje1eCjiFTFJaWyZfAZCopkk5rf4SLUPuLIPIti2bxtDLiAR/pcVBpdkJMwEC/+KhCeT/VCC+beEBERERHRbcR8AZIegQgZNRDud9nCyvAq7a2gc3CB7/DJiBjjDZ3srqFnMMKfHo2Brg41Hmd7lzeCQ8Mx2ttWdhLdQHkpzstmlfNnkS+b1PxKz/8kWwalKDolmy1tQBl6iPt8N7zxT2sk1E12ISIiIiKiNsyMGSQVKDubgf3xMYhcswqrVim3yBhsTy2CXlmr6z0I93fRtqzS3hOjx/uii/Ku9IVp2P75R+rjPlq7CfvzlEe1t4XnsOHwNhlZaYSBM/Hu3+ZiBGMsrVrx+RKtYTScpmrYTWWFbFDzOYvz8kBXDacxGnaDSnnf0mQCWslpWyRqTSIiIiIioirmC5AU7sem9TtxKKcY+muyT1+Mk9/vxXE1H98K1jZqbxWHwUPgKYIfF9MQv2kvTl7QrqwqywpwKG4jDp1TFnTuGFQnstJIh9biq5x78OJSBklas/JyEYKrqe6wG2nMKvxaLSZqKOhqQsgq/FZsExMJv86yz+CuyRj89mb8OkYrSCpuv/34UwSPCZQbGDMUi/0U/sqS3cR38dzHCVWPe0N53OBh92qb1uECh8na9m/I7d/ckIDnBtrJ9abcC+eZkXgpqvo13oz5Gi+9vRiuJl+m5vtT9+2vX+ONDdpj3/jPFxgz0dR+laKyqu6LZGrYTT3cQuch5tM1+Oofv8Jo/lwSEREREVELMWMGST3aW8O6g2hUoqJGtcwuuKe3g9oqSN2HAkNQRbLt7Qd3eS3o4OppenjODZVh97J5+DjzHkx9ZxaDJK3Vx8/iz5Mewp8jXq0aTpO/+HGtb26tOUu2fYXD6lCLu+DzyGi1qzaPgHshYnlXs1KQeknrU937Bp5eMRdj+t0FO6MT0qabB0bMfBvPvWgqmCA4wvftzXj5+UB4dKt+YAflcWPmLsbQOsGLQPj/9VPMek7bXv3xEdrrYFPfT3DnZzBi1Sq8NOZeOHcxenM6Ozj3G4EXFm3GiEddZGdtjnCa+Ec8t1LZN287dJCv0aGzCwY////w2Ahtudpn2BahHFvl+P7nY9mFd/AfcbwnPY5tu2WXST4IG+GDzuI1ug9E2C99tG4iIiIiIiILs2iAROfgjoDxj8Jbudq8mLob+0W9xCpOcFTjI8U4fdI4A8AKLkMmI2yMLxwN13m29ugmmzdPC5Ks/YlBEhLicPh/WjEKx76joYXojE2H7z3ixNMjJWGZ1qUKxNBfh6jncvmZg1i/aJoWgJn9DtYfOIty6OARMtdEsEOwg0e/u2CjP4u9H72qPu6dZbuRq572Lhg8abK6lYHj3N9jvBhXdu0sUjetwd9f0oIR7/xuGbZk1M2WEc/hOvcFBPdUHqO8xoHP3sG7z4nHTMPfV25Hhgjy6O5C8FNz4ag9oBY7DH5+NDx0euQf2IAV4vVeWoMDakEXZd1YOZXvHcat/e0y1oeIiIiIiG5HZg+Q+IyXM9Eot2lhYzHQqQInv41B9PcFcgupvbX8proMFw2Bk44uCAiNQIi/I3TXipG+N02bGcOu2y0ESIQy7F7x+6ogyUOyl9qm4vUHkSsaPe/FA7WH2YQMRj+RPnIxBQe3aV2qMS9g6N3K/aVUrJ/7KtIPyeKkuXFIX/wyNqWIwIULHnjCdFYK9FnY8taT2L1Fq9lx9bv52HZUG5Ti4HSPeq+ZhREP3qXc65EeozzvJ/9GqSwuejVjA34uNhEgcZ+Ox9ShN3ok/+dlbFsXh3I18+UnlO74Ez5fuFvu7yA8OEY0TNEjI+4P+GjxMhSL1zv7b2zbm6Wu6dDj3noCK02Rjpjd6bgkMsbOHULMv9K17mYWNOQS/h54Rml1QU5GR62TiIiIiIjIiEUzSFRWXeAZPAVhD7ujRvLGXd2US5dqVncNREh4CAb20CkXpxnY+XkM9qQVoUyubzbtDWkp1GZlr8GRk6JRd5iNYXhNUcqOGrPfON7vARGCKP1xN7KMh92o8pCRlae2HF0Hqve1Ze34HZJrTfiS/7OJuYgfvReu4hQt/wkH1mnPeUMjlceI+7MH8d84E4/56R9IzRYNHdzuMx3Ayd/5B3z+cZJckgxT93ZQ/2s2ObHvIezZ6Xji//6J7c38A/7O0iScXJeET397FAPt7ZCTdA9e3yBX3oROnoMQHvo4wh/po5wlNelcB2Cysu6F0X3Rs53sNOjeFxPFupBB8GJchoiIiIjotmb2AEn6FjmDjTobzQZs3ZeNMljBod9YTBxq9D30hZKq4Ee3+0MQERoAF+XKtCxzJ6I/34kMkVWi0xkmorhFthgx6y940TcPa19bhu9lL7VVeUje/5M660rNYTazMLiviE7k4XBMnNYlOTtqBXHsBs6qLoBqfAvxUNfX61ojgx2971IDMTiTBy1/48Yc7pKhxpIimAi5KPKQe0bLVunQqfblvqa8rFZwRNj9KlaIYURGtV3uOLpr6CmbjdcefXo7QtdOeXg3Z7jXqhHt6n43uojASJe74a3OI1ztLreecBDrdI64R41aERERERHR7cqiGSSVZUXITt6KtQkn1Zk/u9w3EJ7aKkCvl7OBumDAUBfoUIbsvTFYuyMDFw0FWx3stSyT0vNQyyE0SXVw5ON5S7C72VNS6I702R6kiEwQ42E2Tw3SppQ+eRA/qBkX1To2T6Su8W5ieuIOHa1li954LRCeTwXijZh7UHj1PNwGHce8MLmy0a7hxKki6K8rv6bO5yO7Ru0kIDf7Z1xU1uHiz8go1PoMzuacQbFYpy/CcXVcExERERER3a4sP8RGOHVa+2ZbuZCrvpTLR9EF2SzPQ9KGtdiapib0V3Hw6KUNyykuQq0KJo3E4AjV599IOy7qedwFn1Ehao/PoHvVoSTp+6PUZWM/n9UyMIoPrNCKs9Z3qz1rzs0y1BV1cDFR98MFdtZ1h4gVFcq8kc6OJorOCi5w7allwJSerzXOp5WK2eCIxfudldYlePdtfLDJ4PLJg4iO/RrRu05AloCpos89ig3Kun9v/xFnRDDE2LkfsUmsizuIzNpTIRMRERER0W2lZQIkvXtpF3vn8nFa7RCKcSpPi1hUFh1H+jm1Wa29C+7vK6cBzslU729awIuY5MPgCJmWteWgGrhz9B4OB8yCnxglcykVBz6rOxwm/3ieOiTHwXNQMxYsNeHIz1owsdvd8HZXe6rYvfhXTOxvoobOIfmYnv0x1NRUvoPnYrD6XGeRtU8rEtuS3ELnIebTNfjqH7/CaDPOKvVlsXasrO1MzfxDRERERERtnUUDJDo7R7j7j0X4SE9YQY/sI0dgnK2ed+AICq4BVq7DMelRHzjJaz+rrp4Invg4fMTF08U0JKU28QJn/wrMmcXgCNXjwGc4/LNyL4bZvNgfHsr5V3o8yXTtjy2J2pCcuwLxwqpV8B81AjadtVVwHQHXp97FxFVfYMQI2ddUh/cgXU1ZcEHw7xbD1dVFec0Q+Mz/Ai+HeKgFZOs4rOyHOpzDDoNnfIgxT4XI93YvHELexXPzAtWgTnlGIn44IPpbkg/CRvigs/hN1H0gwn7po3UTERERERFZmNkCJI4PhVdN71s1ze+zkzF2iDu6QI+iQ/HY+lOtQEfZUWzfm6esBRy8h2PiNO1xLz09Gr5iNht9EQ59s1cNohA1v4M4fERki9yFBx4Rs9ecxeEt/9ZW1XZpDbZEHlRndbHp6YfxryzGb/8jC7QuX4wXngmEX0970wGMmxKH3dt/QrnSsnEdgReWf4E3P3oDUwa7wKY8C1s+0d5DTQfxw/I4ZIgH6e7C4GfekO8tErNeDISHeFNnD+Lz//eO+rxERERERERk4QySyvJiFBzbj7jPI7Fhv+kqImXH4hC1fi8yzpah0hAIqdSj+JTyuPUbsP+M7CMyg/L/JCFdD9h11gE/pzScYbHzVaxY8G/sPnYWpcaxPr0eRbmp2P3xCnyzW/bdinXT8OEnB5FrmE74mvL8Gdvx0axnkVw3OqL56R18PmsZttV6b1cvnUXqzn9jxZxXq5+vRaUjZnc6Lomf9XOHEPOvdK2biIiIiIjIwtq5u7vXLitItbj0HYT8fPNPbOrs7GyR1xECAwORlGRiKtdmZsl9ImrQ86dxcnw2kOUHz9dqzdVLRERERERtXssUaSUisrTSdtp9lyu46Zl+iYiIiIio1WOAhIjahn2dkSPu78rEHxZcQthdai8REREREZGKARIiahtyumLtQTF/zxXY+x3FO/9Mwsl1p/GOtpaIiIiIiNo4BkiIqM1Ys+Qe/HG7JwrLOskeIiIiIiIiDQMkRNSmRH3kjCEvPADPpwKVWy+8IfuJiIiIiKhtY4CEiIiIiIiIiNo8BkiIiIiIiIiIqM1r5+7ufl22qR5eXl7IzMyUS+ZjqdcRQkNDERsbK5fMx5L7RERERERERNRUzCAhIiIiIiIiojaPARIiIiIiIiIiavMYICEiIiIiIiKiNo8BEiIiIiIiIiJq8xggISIiIiIiIqI2jwESIiIiIiIiImrzGCChVqYSn63LxqmvlVtcEQ68V46IHnIVERERERERUT0YIKHWS1eGHn5nsGh5GabLLiIiIiIiIiJT2rm7u1+X7WZmhS5eAxE80Ae9utnCSoRirlVCX1KA40eSkJRehEptQ9Pad4HL/QMx5F4vdOuig85K9ufuwaot6XLBMry8vJCZmSmXzMdSryOEhoYiNjZWLpmPJfephs7XETbhEt58/hzsoUPaJ84YFy3XEREREREREdVivgySHoEIGTUQ7nfJ4IjQ3go6Bxf4Dp+MiDHeymWraVYuAZg8NRwhQ3zg5GAUHCFqrEvtEBNth0+O2CgLerj1bTAcR0RERERERG2cGYfYVKDsbAb2x8cgcs0qrFql3CJjsD21SLlcBXS9B+H+LtqWNfQIRNj4gXBUrmv158TjN2BtpHy8uFk4e4TubO+eEAESIiIiIiIiooaZL0BSuB+b1u/EoZxi6K/JPn0xTn6/F8dLxYIVrOtcu9piQPAAdFHe1cXUTYj8Qjy+CGUiokJEREREREREZCZmzCCpR3trWHcQjUpUlKs91XoMhF9P5b74EOK/L9D6iIiIiIiIiIjMzKIBEp2DOwLGPwpvG5Ehshv7L8oVUhePXhCjbi6eOo5irYuoWdg7sAYJERERERER1c+qa9eu/0+2zcJn/ExMfmQwBg8eDH+/e3C3bRlO7t2ETYfOyi2quQ8IhpcDcDbnJOzueRQPPxKM4AcD1McOvv8+uHUpQ37OOZSbad6d+nTr1g3nz5+XS+ZjqdcR+vXrh2PHjskl87HkPpl0/Rqee6wMnR2vY/g1G+RktkPOFbmOiIiIiIiISLL8EBurLvAMnoKwh91hK7sMOsjZalwCQhDQzwkOxtPXdLSFU79HEfZUMJws/67pTnWoExZ93g0lleUY+HwuPovNxql1lzBdriYiIiIiIiISzB5qSN9SPQPNR2s3YOu+bJTBCg79xmLiUEe5VS3lxcjYtxUb1n6kPXZNJDbtOYmLothrV1+MGGRq+hsi00pK2+NCeTu5RERERERERFSXRXMxKsuKkJ28FWsTTkJUhOhy30B4aqtqyNsXg53J2Sgqk3UjrulRkL4d8Ue0yiQOPXup90Q31FmP30WchVtnaxz6xBXjHndH76c6Y41cTURERERERCS0zGCVU6dRJO47WsNa7dCUlGrz+dramc4QKb5YpjVsu6jFXIluaEI5fHVAxZGumBTdHmmym4iIiIiIiMhYywRIeveCOrjmXD5Oqx2avDNq2AQObvfUqU8iuPR0UO8ri4tQawIcItNkJK3iMofYEBERERERUf0sGiDR2TnC3X8swkd6wgp6ZB85UjPQ8eMxnBQzjPQIwMRRPnDSad3o2AXuQybicR8RNrmI9MMntX4iIiIiIiIiombQzt3d3SyT5jo+FI7JfvUMhLmmR9HheGzYXyA7qtn2C0HYwy4wxEZqUh53yPTjzMnLywuZmZlyyXws9TpCaGgoYmNj5ZL5WHKfTJpZglOhxSj5oRf6/9FoViQiIiIiIiIiI5Yt0lpejIJj+xH3eWS9QY6yY3GIWr8XGWfLUClmrRGuVaLsbAb2ro+yeHCEiIiIiIiIiFo/s2WQtCbMIGk6ZpAQERERERHRnaBlirQSWch0F21mJBiykYiIiIiIiIhMYICEWqfO1xEWXopXh4qpoW2QkcLsESIiIiIiIqofAyTUylTis3XZOBWbg6XPn4O96Crogs/NP5qIiIiIiIiI7mAMkFDrpbdFYaoT3vpVJ8TILiIiIiIiIiJTGCChVsYKzzzljt6PK7cQRwyeZ42oS3IVERERERERUT0YICEiIiIiIiKiNo8BEiIiIiIiIiJq8xggIbPKzMyULSIiIiIiIqLbFwMkRERERERERNTmMUBCRERERERERG0eAyRERERERERE1OYxQEJEREREREREbR4DJERERERERETU5jFAQkRERERERERtHgMkZCFLUfmnU6hQbvrfp6DysTdxnWcfERERERER3SZ4iUoWd93GHleHTcfVp5fKHiIiIiIiIqKW1c7d3f26bDczK3TxGojggT7o1c0WViIUc60S+pICHD+ShKT0IlRqG0qOCA6fDN8ucrEhuXuwaku6XDA/Ly8vZGZmyiXzsdTrCKGhoYiNjZVLFqQbiesPLsLVx9xwDYXo+LfBaF8s1xERERERERG1EPNlkPQIRMiogXC/SwZHhPZW0Dm4wHf4ZESM8YZOdlMbok9Au+9eg1WuWOiB633UXiIiIiIiIqIWZb4Mkh4BmDjcHtn/PYjU08XQX1P6dA7wDHgUI/wcoUMxDkXHYP9FbfMbc0DAL8IwsHsl8r6NQtwxvew3P2aQNL/r41Kgf9AeHTb3htVB2UlERERERETUQsyXQVK4H5vW78ShHBkcEfTFOPn9XhwvFQtWsLZRexvHawj8uiv3F9ORZMHgCBERERERERG1fpYv0treGtYdRKMSFeVqTyM4ICDAEzrlMXnJ+1Ake4mIiIiIiIiImoNFAyQ6B3cEjH8U3jbAxdTdjR9e4z0E9zso92XHcZDZI63K9a4TZIuIiIiIiIio5Zg9QOIzfiZmztRu08LGYqBTBU5+G4Po7wvkFjfiiOAhnrBSWgVHkpCnddIdrt2JHPXkq3zwd7jmPlLrJCIiIiIiImohlh9iY9UFnsFTEPawO2xlV0N0/QLhI6b+LUvHvqPMHmk1fvwdOnyXg/Y6N1z55b9R8adTqIhYKlcSERERERERWZbZAyTpW1Zh1Srt9tHaDdi6LxtlsIJDv7GYONRRblUfRwzxd2H2SKtUAlyoQDtDAV8iIiIiIiKiFmTRDJLKsiJkJ2/F2oSTqFSWu9w3EJ7aKpN0A4Lhy+yR1slxESqf8Ebl1Rx0XPMMrP/YG9ZRr8mVRERERERERJZl+SE2wqnT2kw0Ha1hrXaY4oLA+53UFrNHWp/rA/zUIFmHb19D+9xErZOIiIiIiIiohbRMgKR3L6iDa87l47TaUZft/UPgI4qUMHukdbKRobHyxgVHOo9+E5/GxSM+7gssm+oje4mIiIiIiIiah0UDJDo7R7j7j0X4SDErjR7ZR47A5Ey/7V0QMIDZI1TtmSeD0E0Uo7HqDJ/JMxDRWesnIiIiIiIiag5mC5A4PhReNb1v1TS/z07G2CHu6AI9ig7FY+tPpjNDbPsbZY+kMnuEgIyC87Kl0Lmhz4OyTURERERERNQMLJpBUllejIJj+xH3eSQ27C+QvbW090TwQJk9cnQ/8jjLCSl2L/sE+y/IBSIiIiIiIqJm1s7d3f26bFM9vLy8kJmZKZfMx1KvI4SGhiI2NlYuWd71cSnQP2iPDpt7w+qg7LyB0Hc24aUBOkCfjqiJc/G57CciIiIiIiK6VS1TpJXaODdcd7TXmle1u4Z0dvXB6P9bjmdEcERx/uBmBkeIiIiIiIioWTFAQpalG4nrwz5DZR+xkIN2P6q99XppRTy+WL0Mvx7fB6Iuq/54LBYt2q2tJCIiIiIiImomDJCQhSxF5Z9OoWL+v6F/zA2itEz7tG1oX66tbVClHpcK0rH9w9/j2TkfIV12ExERERERETUXBkjI4tqVl6DDd2vQcd2fZU/9Ppo1DuNCJuIX0+bi75uP4JLsJyIiIiIiImpODJCQhbwGqz/2hrVy0/2lP6y+uXFwhIiIiIiIiMhSGCAhIiIiIiIiojaPARIiIiIiIiIiavMYICEiIiIiIiKiNo8BEiIiIiIiIiJq8xggISIiIiIiIqI2jwESIiIiIiIiImrzGCAhIiIiIiIiojYO+P9+APwhnbYx1gAAAABJRU5ErkJggg==;" parent="1" vertex="1">
          <mxGeometry x="1850" y="1820" width="1096" height="803" as="geometry" />
        </mxCell>
        <mxCell id="254EzCvTZ2WfJFfDZF1n-13" value="&lt;ul style=&quot;font-size: 17px;&quot;&gt;&lt;li style=&quot;font-size: 17px;&quot;&gt;Easy to add and manage multiple files&lt;/li&gt;&lt;li style=&quot;font-size: 17px;&quot;&gt;Relatively easy to bring in third party code&lt;/li&gt;&lt;li style=&quot;font-size: 17px;&quot;&gt;Easy to share project&amp;nbsp; settings across IDEs&lt;/li&gt;&lt;/ul&gt;" style="rounded=0;whiteSpace=wrap;html=1;align=left;fontSize=17;fillColor=#d5e8d4;strokeColor=#82b366;" parent="1" vertex="1">
          <mxGeometry x="70" y="730" width="390" height="260" as="geometry" />
        </mxCell>
        <mxCell id="254EzCvTZ2WfJFfDZF1n-14" value="&lt;ul style=&quot;font-size: 17px;&quot;&gt;&lt;li style=&quot;font-size: 17px;&quot;&gt;One has to learn about the preset system&lt;/li&gt;&lt;/ul&gt;" style="rounded=0;whiteSpace=wrap;html=1;align=left;fontSize=17;fillColor=#f8cecc;strokeColor=#b85450;" parent="1" vertex="1">
          <mxGeometry x="480" y="730" width="390" height="260" as="geometry" />
        </mxCell>
        <mxCell id="254EzCvTZ2WfJFfDZF1n-15" value="Pros" style="rounded=0;whiteSpace=wrap;html=1;fontSize=17;fillColor=#99FF99;" parent="1" vertex="1">
          <mxGeometry x="70" y="670" width="390" height="60" as="geometry" />
        </mxCell>
        <mxCell id="254EzCvTZ2WfJFfDZF1n-16" value="Cons" style="rounded=0;whiteSpace=wrap;html=1;fontSize=17;fillColor=#FF6666;" parent="1" vertex="1">
          <mxGeometry x="480" y="670" width="390" height="60" as="geometry" />
        </mxCell>
      </root>
    </mxGraphModel>
  </diagram>
</mxfile>
